<svg width="420" height="350" viewBox="0 0 420 350" fill="none" xmlns="http://www.w3.org/2000/svg">
<path d="M72.9946 273.779V241.314C72.9976 239.798 72.7054 238.33 72.1699 237.168C71.6345 236.007 70.8904 235.228 70.0695 234.97C69.6097 234.836 69.1445 234.771 68.6788 234.776C68.6788 234.776 64.3021 235.185 64.3021 240.178V273.779L72.9946 273.779ZM53.394 198.275C53.394 198.275 49.08 197.185 49.0137 204.437V262.872L53.394 262.162V198.275Z" fill="#CAC3D6"/>
<path d="M81.7687 245.17H75.0535V273.778H82.3797V264.116L83.2946 262.451L83.3116 250.971L81.7687 245.17ZM61.7534 244.535H55.916V269.555L57.7782 273.09L61.7534 273.778V244.535ZM72.0954 187.022L73.5829 156.372C73.5829 156.372 68.7452 156.331 65.2244 164.671C61.7036 173.011 58.05 177.846 57.1199 186.79C56.19 195.734 55.8578 204.074 55.9242 217.732C55.9906 231.391 55.916 240.177 55.916 240.177H61.6372L63.6544 233.486L64.3483 232.925H63.438V200.463H64.833V232.533L66.5381 231.154L72.0954 231.894L75.0535 237.676L75.9194 240.177L81.4456 239.814L72.0954 187.022ZM70.2682 231.456H68.8731V168.744H70.2682V231.456Z" fill="#FFB3AD"/>
<path d="M105.014 182.893L98.6218 182.44C99.5892 188.103 100.322 193.891 100.814 199.754C101.561 209 102.328 219.741 100.366 233.839C98.4225 247.799 96.5292 253.638 91.2481 260.709C85.967 267.78 82.6562 267.734 82.6562 267.734L82.3798 274.269L90.4368 271.769L99.7677 261.125L104.844 244.586L106.821 231.613L107.232 209.008L105.014 182.893ZM76.873 149.391L79.6396 141.284C79.6396 141.284 82.9402 140.042 88.076 142.19L85.3691 144.366L83.71 148.627L80.0381 148.083L76.873 149.391Z" fill="#FFB3AD"/>
<path d="M121.598 322.29L122.993 322.331L122.757 349.057H126.458L125.818 318.303L123.418 282.183L103.058 288.1L85.3218 283.063C85.3218 283.063 82.2328 295.779 82.8307 310.815C83.4286 325.85 84.3254 336.137 84.3254 336.137L86.5175 349.056H121.361L121.598 322.29ZM107.696 298.577L108.904 297.308C112.066 307.272 117.731 309.125 119.673 309.468L119.99 291.375L121.384 291.456L121.023 312.084H120.347C120.006 312.084 111.934 311.93 107.696 298.577Z" fill="#8ED9EF"/>
<path d="M119.327 171.924L107.672 181.835H107.074C107.074 181.835 108.868 194.861 109.2 202.853C109.533 210.844 110.064 225.469 108.602 235.259C107.141 245.049 105.297 259.178 97.6085 269.465C91.9619 277.019 87.1443 277.302 85.9502 277.678L103.352 283.93L124.078 278.008L123.302 260.709L122.486 245.533L122.582 198.626L119.327 171.924ZM105.166 130.145L85.3688 125.558L83.4258 132.763L99.5183 138.837L107.393 135.251L105.166 130.145Z" fill="#FFDAA3"/>
<path d="M130.402 84.1729L120.581 91.9689L125.491 124.059L130.022 131.795H125.492L87.9239 146.541L79.8392 164.218L81.1968 151.98C79.4296 151.915 77.6824 152.669 76.1191 154.169L74.3496 185.615L86.0171 250.578L90.2976 252.445L85.9175 256.61L86.1024 262.161L91.441 255.593L96.4369 243.713L99.5687 222.325L99.2804 206.324L96.679 186.009L96.1808 183.782L87.5076 179.337L88.6059 178.046L105.481 179.385L140.784 149.432L142.245 136.969L130.402 84.1729ZM128.727 95.5561C128.471 95.5561 128.22 95.4179 128.007 95.1589C127.794 94.8999 127.628 94.5318 127.53 94.1011C127.432 93.6705 127.406 93.1966 127.456 92.7394C127.506 92.2822 127.63 91.8622 127.811 91.5326C127.992 91.203 128.223 90.9785 128.474 90.8875C128.726 90.7966 128.986 90.8433 129.223 91.0217C129.459 91.2001 129.662 91.5021 129.804 91.8897C129.946 92.2773 130.022 92.733 130.022 93.1992C130.022 93.8243 129.886 94.4238 129.643 94.8658C129.4 95.3078 129.071 95.5561 128.727 95.5561Z" fill="#FFDAA3"/>
<path d="M117.104 91.7181L118.133 91.2344L123.946 129.097H122.086L117.104 91.7181Z" fill="#FFDAA3"/>
<path d="M90.2958 252.804H83.0118L71.3867 187.167L72.9936 154.058L74.383 154.281L72.8013 186.878L84.028 250.266H90.2958V252.804ZM103.347 285.215L103.235 285.181L83.0218 278.959V273.362H84.4168V276.814L103.355 282.644L123.379 276.922V267.733H124.774V279.093L103.347 285.215ZM83.0218 256.611H84.4168V264.806H83.0218V256.611ZM79.7245 164.666L78.5465 163.307L85.878 142.272L86.1649 142.161L123.346 127.785L130.23 131.737L129.811 134.158L123.276 130.407L86.7419 144.532L79.7245 164.666Z" fill="#445462"/>
<path d="M105.303 180.667L87.4746 179.225L87.5366 176.69L105.026 178.104L140.173 148.547L141.517 137.084L129.451 82.4937L118.941 90.6763L123.985 125.175L122.637 125.827L117.282 89.207L130.214 79.1396L142.97 136.856L141.391 150.318L105.303 180.667Z" fill="#445462"/>
<path d="M122.821 264.114L121.749 247.514L121.75 247.437L121.886 198.757L118.307 168.026L119.671 167.5L123.282 198.497L123.145 247.372L124.206 263.818L122.821 264.114Z" fill="#445462"/>
<path d="M86.7539 63.4868C86.7539 63.4868 101.59 57.5713 101.597 53.092C101.618 38.6495 92.7387 37.5508 92.7387 37.5508C92.7387 37.5508 90.4429 42.8774 78.8762 48.1483C74.0265 50.3584 68.3677 62.5796 67.4779 75.4129C66.6271 87.6831 80.9245 101.658 81.5594 101.224C82.1943 100.789 85.599 92.2635 85.599 92.2635L81.3298 83.218C79.8549 79.6851 82.3197 74.4339 82.3197 74.4339L85.9035 75.5224L86.7539 63.4868Z" fill="#CAC3D6"/>
<path d="M80.3661 106.68L79.3133 105.014L85.3858 92.3083C83.7371 90.3452 79.9402 85.0838 80.6652 78.9934C80.9809 76.3439 83.4772 73.025 83.9746 72.386L84.4545 71.7696L85.7248 74.0801L86.1124 61.8074L86.5558 61.5311C86.6134 61.4948 92.3989 57.9003 100.846 53.7307C101.136 53.5871 101.194 53.3623 101.226 53.1625C101.696 50.2207 97.7516 40.5907 94.7168 34.492C93.897 34.1849 90.967 33.1032 88.7846 32.465C89.3646 34.2117 89.8971 36.5037 89.51 38.2921C89.3187 39.1761 88.8311 40.2872 87.5933 40.5577C72.4996 43.8585 67.811 61.0644 66.3571 71.4951C67.0268 72.8857 68.7137 76.7819 68.8594 81.0099C69.1735 90.124 77.7728 100.731 77.8597 100.837L77.0818 102.945C76.704 102.483 67.8235 91.52 67.4668 81.1683C67.3213 76.9458 65.1142 72.7798 65.0919 72.7385L64.8242 72.2381L64.9119 71.5586C66.3448 60.5648 71.1751 41.5911 87.4269 38.0372C87.7328 37.9701 88.1174 37.7986 88.2119 37.362C88.4596 36.2173 87.5168 33.2914 86.7411 31.6191L85.6217 29.207L87.3472 29.5381C89.6513 29.9805 94.996 32.0034 95.2226 32.0894L95.443 32.1728L95.5951 32.4759C96.9112 35.0957 103.433 48.4403 102.566 53.8707C102.476 54.4427 102.303 54.9596 102.064 55.3663C101.825 55.7731 101.531 56.0545 101.211 56.1805C94.1421 59.6702 88.952 62.7516 87.4514 63.661L86.9392 79.8789L84.3092 75.0951C83.3317 76.473 82.1549 78.4727 82.029 79.5312C81.4616 84.2954 85.2754 89.3567 86.7927 90.9043L87.5405 91.6676L80.3661 106.68Z" fill="#445462"/>
<path d="M70.7177 76.2356L69.3223 76.2152C69.3677 66.1667 73.1713 54.7751 77.8012 50.8209L78.3941 53.1191C74.2026 56.6984 70.7591 67.0685 70.7177 76.2356ZM81.4214 51.1455L81.0245 48.712C81.7921 48.296 82.5653 47.9146 83.3434 47.5684L83.6732 50.0348C82.9524 50.3539 82.1949 50.7281 81.4214 51.1455ZM103.333 67.5791L103.043 63.9998L100.293 56.5399L101.451 55.1254L104.377 63.0621L104.713 67.2096L103.333 67.5791ZM97.3687 114.51C91.4646 114.51 89.8685 105.276 89.8519 105.175L91.1874 104.441C91.2475 104.796 92.7298 113.137 98.5744 111.833L98.5963 111.829L107.462 110.37L108.839 106.818L107.026 99.5735L106.36 89.9892L109.447 85.2289L106.763 79.994L107.784 78.2625L111.465 85.4443L107.839 91.0356L108.383 98.8723L110.441 107.092L108.23 112.793L98.733 114.356C98.2804 114.457 97.8247 114.509 97.3687 114.51ZM95.1556 72.6236L94.6362 70.2674C99.973 66.3731 101.899 69.6191 102.101 70.0024L101.094 71.7599L101.109 71.7871C101.095 71.7625 99.5979 69.3816 95.1556 72.6236ZM98.8127 79.3347L97.4488 78.8003C97.7467 76.2838 100.526 73.6063 101.371 72.8456L101.99 75.1205C100.421 76.5354 98.9064 78.5439 98.8127 79.3347Z" fill="#445462"/>
<path d="M100.02 76.1016L101.361 75.4027L101.707 77.5995L100.365 78.2984L100.02 76.1016Z" fill="#445462"/>
<path d="M104.498 98.4344C103.905 98.4299 103.313 98.3162 102.732 98.095L103.012 95.6079C105.661 96.5957 106.965 94.7678 107.02 94.6895L107.906 96.6497C107.847 96.7389 106.696 98.4344 104.498 98.4344Z" fill="#445462"/>
<path d="M101.197 112.233L102.563 111.711L104.131 125.297L102.766 125.819L101.197 112.233Z" fill="#445462"/>
<path d="M82.3633 110.641L83.7272 110.106L85.0537 121.304L83.6898 121.839L82.3633 110.641Z" fill="#445462"/>
<path d="M126.571 67.3846C126.315 64.9504 125.512 61.6054 124.926 59.1621C124.743 58.4014 124.57 57.6827 124.436 57.0844L124.35 56.7008L124.405 56.2983C124.849 53.0664 125.086 49.6354 124.929 48.7945C124.752 48.6094 124.561 48.4678 124.363 48.3732L123.493 47.9638L123.927 46.5322C124.22 45.5615 124.2 45.1192 124.179 45.0615C124.058 44.9109 123.915 44.8305 123.768 44.8309C121.762 49.1317 119.644 53.8822 119.348 54.8848C119.222 56.799 119.771 62.7671 120.156 66.1557L118.79 66.6699C118.681 65.7064 117.728 57.1765 117.98 54.3594C118.012 53.9946 118.099 53.0261 122.914 42.739L123.098 42.3474L123.38 42.2985C123.521 42.2742 124.781 42.1041 125.346 43.668C125.617 44.4204 125.658 45.3483 125.468 46.4365C125.625 46.5784 125.772 46.756 125.904 46.9648C126.549 48.0185 126.519 51.2269 125.814 56.505C125.942 57.0536 126.072 57.6007 126.204 58.1461C126.851 60.841 127.657 64.1951 127.941 66.9088L126.571 67.3846Z" fill="#445462"/>
<path d="M118.775 88.2438L116.425 79.8332L115.115 66.8763L115.12 66.7214C115.133 66.345 115.441 57.4474 116.425 52.5131C116.469 52.2919 116.586 51.7041 120.371 42.7895L120.692 42.0342L121.179 42.3848C121.84 42.8598 122.937 44.2461 122.858 46.4279L121.466 46.2603C121.48 45.8608 121.301 45.492 121.104 45.216C119.552 48.8856 117.945 52.7633 117.723 53.4472C116.884 57.7237 116.563 65.5401 116.518 66.725L117.76 79.0116L120.019 87.094L118.775 88.2438Z" fill="#445462"/>
<path d="M122.185 65.8377L121.096 57.0576L122.555 50.497L123.848 51.4496L122.553 57.2737L123.546 65.2782L122.185 65.8377ZM128.419 82.5654L127.028 82.3544C127.201 78.5269 127.202 74.6801 127.029 70.8526L128.418 70.5958C128.601 74.5787 128.601 78.5825 128.419 82.5654ZM131.151 67.3422L130.648 64.974L137.065 60.4625L132.882 40.7723L126.466 45.2842L125.963 42.9156L133.681 37.4893L138.869 61.9151L131.151 67.3422ZM104.171 81.4381L101.496 68.8473L116.304 54.7079L116.952 56.9557L103.246 70.0436L104.989 78.2482L115.763 71.5618L116.213 73.9648L104.171 81.4381Z" fill="#445462"/>
<path d="M127.593 66.9014L127.143 64.4984L129.195 63.2256C127.022 58.2631 125.848 52.0961 125.869 45.751L127.264 45.7909C127.241 52.1441 128.544 58.2765 130.909 62.9501L131.649 64.3849L127.593 66.9014Z" fill="#445462"/>
<path d="M103.763 62.759L103.105 60.5195L123.817 40.395L123.457 38.5928L134.331 31.0713L138.374 49.116L137.082 50.0743L133.554 34.3246L125.238 40.0762L125.542 41.597L103.763 62.759ZM119.646 129.396L114.167 88.315L115.487 87.1148L114.033 82.1312L113.553 74.7645L114.938 74.4653L115.388 81.3606L117.389 88.2226L115.785 89.681L121.002 128.797L119.646 129.396ZM98.9046 139.509L80.1685 133.545L83.651 120.391L104.655 124.983L106.621 131.54L105.396 132.756L103.775 127.347L84.4749 123.127L82.2257 131.622L99.1449 137.009L98.9046 139.509ZM120.025 227.03H118.63V199.45L116.525 180.316L117.893 179.818L120.025 199.199V227.03ZM118.63 234.741H120.025V237.968H118.63V234.741ZM81.4314 275.048H60.7485C58.6144 275.043 56.5685 273.499 55.0595 270.753C53.5505 268.007 52.7016 264.285 52.6992 260.402V202.398C52.6992 189.941 54.6353 178.926 58.2982 170.546C58.7737 169.458 59.2249 168.37 59.7024 167.219C60.2078 166 60.7307 164.738 61.282 163.486C64.1845 156.92 68.1927 152.272 72.6894 150.257L73.0286 150.107L73.36 152.572L73.0212 152.723C68.8231 154.604 65.0809 158.943 62.3709 165.072C61.8322 166.297 61.3154 167.542 60.816 168.747C60.3541 169.861 59.8766 171.013 59.3899 172.126C55.8761 180.166 54.0942 190.351 54.0942 202.398V260.403C54.0962 263.613 54.7979 266.69 56.0454 268.96C57.2929 271.23 58.9842 272.507 60.7485 272.51H81.4314V275.048Z" fill="#445462"/>
<path d="M53.5233 264.141H50.2281C49.1305 264.139 48.0781 263.345 47.3019 261.933C46.5258 260.52 46.0892 258.606 46.0879 256.608V204.512C46.0901 200.987 46.8607 197.607 48.2308 195.114C49.6009 192.621 51.4586 191.219 53.3962 191.215V193.753C51.8284 193.756 50.3254 194.891 49.2168 196.908C48.1082 198.925 47.4846 201.66 47.4829 204.512V256.608C47.4838 257.933 47.7733 259.202 48.2879 260.139C48.8025 261.075 49.5003 261.602 50.2281 261.603H53.5233V264.141Z" fill="#445462"/>
<path d="M49.8887 193.621H51.2837V219.029H49.8887V193.621ZM74.5651 152.475L73.9425 150.204C79.9525 144.75 84.5327 147.217 84.7246 147.325L84.3159 149.751C84.274 149.728 80.0469 147.501 74.5651 152.475Z" fill="#445462"/>
<path d="M75.1605 148.172L74.0206 146.709L77.6151 137.44L77.8479 137.316C78.1156 137.172 84.5001 133.871 93.0588 139.701L92.5697 142.078C85.316 137.137 79.6453 139.136 78.4671 139.646L75.1605 148.172ZM75.7532 275.048H61.3379V240.177C61.3396 237.438 61.9385 234.811 63.0033 232.873C64.0681 230.936 65.5118 229.846 67.0176 229.843H70.0735C71.5793 229.846 73.023 230.936 74.0878 232.873C75.1526 234.811 75.7515 237.438 75.7532 240.177V275.048ZM62.7329 272.51H74.3582V240.177C74.3569 238.11 73.9051 236.129 73.1018 234.667C72.2986 233.206 71.2095 232.384 70.0735 232.381H67.0176C65.8816 232.384 64.7925 233.206 63.9893 234.667C63.186 236.129 62.7342 238.11 62.7329 240.177V272.51Z" fill="#445462"/>
<path d="M67.5156 167.293H68.9106V230.006H67.5156V167.293ZM53.5254 238.545H62.0354V241.083H53.5254V238.545ZM75.0557 238.907H78.4848V241.446H75.0557V238.907ZM64.894 198.65H66.289V231.111H64.894V198.65ZM82.6474 346.915L80.9052 336.673L80.8972 336.582C80.8201 335.676 79.0096 314.293 79.6772 303.847C80.3406 293.466 82.2059 281.757 82.2247 281.64L83.5639 282.351C83.5455 282.466 81.7125 293.976 81.0628 304.14C80.4383 313.913 82.1386 334.554 82.2683 336.101L83.9802 346.164L82.6474 346.915Z" fill="#445462"/>
<path d="M122.715 349.941L122.961 322.288L124.356 322.329L124.11 349.982L122.715 349.941Z" fill="#445462"/>
<path d="M125.796 350L125.371 323.736L123.429 282.291L124.819 282.075L126.765 323.626L127.19 349.926L125.796 350ZM128.066 94.4689C127.671 94.4689 127.286 94.2562 126.958 93.8578C126.631 93.4594 126.375 92.8931 126.224 92.2305C126.074 91.5679 126.034 90.8388 126.111 90.1354C126.188 89.4321 126.378 88.786 126.656 88.2788C126.935 87.7717 127.29 87.4264 127.677 87.2865C128.063 87.1466 128.464 87.2184 128.828 87.4928C129.192 87.7673 129.504 88.232 129.723 88.8283C129.942 89.4246 130.058 90.1257 130.058 90.8428C130.058 91.8042 129.848 92.7259 129.474 93.4057C129.1 94.0855 128.594 94.4678 128.066 94.4689ZM128.066 89.755C127.947 89.755 127.832 89.8188 127.733 89.9384C127.635 90.0579 127.558 90.2278 127.513 90.4266C127.468 90.6253 127.456 90.8441 127.479 91.0551C127.502 91.2661 127.559 91.4599 127.643 91.612C127.726 91.7642 127.833 91.8678 127.949 91.9098C128.065 91.9517 128.185 91.9302 128.294 91.8479C128.404 91.7655 128.497 91.6261 128.563 91.4472C128.628 91.2683 128.663 91.058 128.663 90.8428C128.663 90.5544 128.6 90.2779 128.488 90.074C128.376 89.87 128.224 89.7553 128.066 89.755ZM119.664 308.769H118.989C118.647 308.769 110.575 308.615 106.337 295.261L107.545 293.992C110.708 303.957 116.372 305.81 118.314 306.152L118.631 288.06L120.025 288.141L119.664 308.769ZM82.3813 275.539H81.6836V263.807L82.2177 263.572C82.2476 263.559 85.3246 262.164 88.7414 257.856C93.2939 252.117 96.2649 244.198 97.5714 234.32C101.251 206.503 95.3972 180.131 95.3374 179.868L96.6276 178.902C96.689 179.172 102.712 206.307 98.928 234.914C97.6176 245.131 94.2493 254.083 89.4883 260.003C87.521 262.493 85.3608 264.435 83.0788 265.767V272.982C93.156 272.47 101.07 260.844 104.856 240.906C109.45 216.72 103.964 180.044 103.909 179.677L105.253 178.999C105.486 180.531 110.909 216.81 106.175 241.735C104.004 253.164 100.634 261.909 96.1587 267.726C92.2267 272.837 87.4626 275.539 82.3811 275.539L82.3813 275.539Z" fill="#445462"/>
<path d="M336.515 199.947C335.916 199.947 335.342 199.514 334.919 198.744C334.496 197.973 334.258 196.929 334.258 195.84V194.992C334.258 193.903 334.496 192.858 334.919 192.088C335.342 191.318 335.916 190.885 336.515 190.885H337.62C336.964 183.327 335.001 176.347 332.015 170.959C329.029 165.571 325.176 162.056 321.017 160.927C321.003 161.038 320.986 161.148 320.967 161.256C322.746 161.956 324.43 163.3 325.917 165.209C327.404 167.118 328.665 169.552 329.624 172.366C330.584 175.181 331.222 178.318 331.5 181.59C331.779 184.863 331.692 188.204 331.246 191.415C330.8 194.625 330.003 197.64 328.903 200.278C327.803 202.916 326.422 205.124 324.843 206.771C323.263 208.417 321.518 209.468 319.711 209.861C317.904 210.254 316.072 209.981 314.324 209.058L306.234 215.515L308.893 203.468C307.014 200.305 305.666 196.238 305.004 191.738C304.343 187.238 304.395 182.489 305.155 178.041C305.915 173.593 307.352 169.628 309.299 166.604C311.247 163.58 313.625 161.622 316.159 160.955C316.148 160.874 316.137 160.794 316.13 160.712C311.726 161.52 307.6 164.995 304.411 170.579C301.222 176.163 299.156 183.533 298.544 191.508C298.909 191.855 299.215 192.377 299.428 193.019C299.641 193.66 299.754 194.395 299.754 195.145V195.992C299.754 196.777 299.63 197.547 299.396 198.208C299.163 198.869 298.83 199.394 298.438 199.721C298.845 207.872 300.77 215.526 303.892 221.417C307.015 227.308 311.149 231.084 315.611 232.12V228.387C315.611 227.847 315.67 227.313 315.783 226.815C315.897 226.317 316.063 225.864 316.272 225.482C316.482 225.101 316.731 224.798 317.005 224.592C317.279 224.386 317.572 224.279 317.869 224.279H318.334C318.631 224.279 318.924 224.386 319.198 224.592C319.472 224.799 319.721 225.101 319.93 225.482C320.14 225.864 320.306 226.317 320.42 226.815C320.533 227.313 320.591 227.847 320.591 228.387V232.123C325.035 231.096 329.154 227.352 332.275 221.506C335.395 215.66 337.331 208.058 337.765 199.947H336.515Z" fill="#CAC3D6"/>
<path d="M269.112 185.369C273.646 182.495 278.129 171.743 271.353 160.713C267.242 154.02 263.025 156.44 260.344 159.378C259.769 152.062 257.513 148.899 257.513 148.899C257.513 148.899 254.713 143.313 248.535 143.749C242.357 144.185 238.67 154.519 240.264 165.035C240.362 165.679 240.469 166.288 240.586 166.86C237.714 163.225 233.049 159.667 228.307 165.941C220.634 176.094 221.232 184.253 225.915 189.239C227.014 190.364 228.256 190.942 229.516 190.915C229.522 193.532 229.855 196.293 230.842 198.706C232.168 201.948 233.756 203.264 235.113 203.727C234.926 206.51 235.189 210.116 236.906 213.677C238.937 217.89 244.321 219.22 248.718 216.216V210.222L233.641 185.522L228.618 180.787L229.122 179.016L233.61 183.247L235.774 169.173L236.83 169.71L234.576 184.369L249.096 208.157L255.004 186.45L249.616 153.474L250.667 152.906L255.807 184.362C257.978 179.125 261.75 170.094 262.214 169.461L262.871 171.056L262.885 171.036C262.445 171.75 258.479 181.215 256.06 187.067L249.814 210.012V215.355C250.559 214.697 251.259 213.883 251.9 212.929C258.454 206.25 260.477 196.418 260.477 196.418L259.639 204.329C259.639 204.329 266.869 216.525 269.711 203.549C271.386 195.903 267.715 189.059 264.417 184.725C266.259 185.718 267.937 186.113 269.112 185.368V185.369Z" fill="#FFDAA3"/>
<path d="M150.223 242.39C150.223 242.39 150.672 249.178 148.097 251.85C148.097 251.85 148.94 247.211 148.699 244.155C148.457 241.099 147.403 237.028 147.403 237.028L145.551 233.156C145.551 233.156 146.978 237.615 145.744 241.543C144.51 245.472 141.355 243.961 141.554 238.764C141.661 235.708 142.08 232.716 142.79 229.94C142.79 229.94 136.804 238.703 139.129 248.735C139.129 248.735 136.97 249.763 136.007 243.478C136.007 243.478 134.658 249.087 135.609 252.563C136.56 256.039 138.183 260.513 140.261 261.461C140.781 261.698 141.588 262.191 141.588 262.191C141.588 262.191 141.806 262.144 142.167 262.047C142.912 262.186 143.662 262.224 144.41 262.162C144.41 262.162 148.971 259.143 149.697 256.66C150.89 252.584 151.208 245.305 151.208 245.305L150.223 242.39ZM145.54 253.993C145.486 256.233 144.351 258.43 143.311 259.985C142.549 258.22 142.037 256.142 141.82 253.933C141.388 248.977 143.588 245.714 143.588 245.714C143.588 245.714 145.639 249.823 145.54 253.993Z" fill="#FFB3AD"/>
<path d="M353.011 343.422L371.101 328.56L389.191 343.285V318.523L381.415 293.634L370.982 312.289L367.875 304.72L364.554 313.245L357.663 301.758L353.011 319.806V343.422ZM409.496 278.53V242.378L389.191 260.648V299.156L394.967 283.939L401.189 291.572L405.075 279.437L409.496 278.53ZM334.002 243.92V282.119L337.763 272.587L344.16 286.265L349.175 283.939L353.011 287.267V260.3L334.002 243.92Z" fill="#D5EEFF"/>
<path d="M381.789 214.196C379.933 211.032 377.61 208.923 375.104 208.131C372.598 207.338 370.02 207.897 367.686 209.737C365.353 211.577 363.366 214.619 361.97 218.488C360.575 222.356 359.831 226.883 359.832 231.511C359.832 238.952 364.035 250.209 367.67 258.552C369.427 262.318 370.707 264.767 370.707 264.767C370.707 264.767 383.75 239.814 383.75 226.708C383.753 222.286 383.074 217.951 381.789 214.196ZM378.186 230.898C378.046 232.98 377.57 234.939 376.818 236.529C376.066 238.118 375.072 239.266 373.961 239.827C372.851 240.389 371.674 240.338 370.579 239.682C369.484 239.026 368.521 237.795 367.811 236.143C367.101 234.49 366.676 232.492 366.59 230.401C366.504 228.31 366.761 226.219 367.328 224.393C367.895 222.567 368.747 221.089 369.776 220.144C370.805 219.199 371.965 218.831 373.109 219.085C374.643 219.427 376.04 220.863 376.992 223.079C377.944 225.294 378.374 228.107 378.186 230.898Z" fill="#FFDAA3"/>
<path d="M13.1015 269.706H15.8208V286.694H13.1015V269.706ZM16.9169 269.706H19.6362V286.694H16.9169V269.706ZM20.7321 269.706H22.0781V286.694H20.7321V269.706ZM8.19027 277.47H9.28636V286.694H12.0054V269.706H6.43693V286.694H8.19027V277.47ZM8.73831 271.622C8.8977 271.622 9.0535 271.708 9.186 271.869C9.31851 272.03 9.42178 272.259 9.48274 272.527C9.54371 272.795 9.55964 273.09 9.52853 273.374C9.49741 273.659 9.42063 273.92 9.30792 274.125C9.1952 274.33 9.0516 274.47 8.89527 274.526C8.73894 274.583 8.57691 274.554 8.42966 274.443C8.2824 274.332 8.15655 274.144 8.068 273.903C7.97945 273.662 7.93219 273.378 7.93219 273.088C7.93219 272.699 8.0171 272.326 8.16824 272.051C8.31938 271.776 8.52457 271.622 8.73831 271.622ZM2.45117 341.744H41.6747V348.204H2.45117V341.744Z" fill="#CAC3D6"/>
<path d="M25.8314 314.789L22.5953 309.713L20.8609 299.389L20.3153 289.533H7.68102V306.811C7.68102 306.811 7.76991 314.91 5.77344 319.261L8.23783 326.237L10.4196 338.597L26.6949 338.156L27.8892 330.051L31.1635 319.865L34.3522 316.211L25.8314 314.789ZM12.3741 296.631C12.3741 295.97 12.4817 295.324 12.6835 294.775C12.8852 294.226 13.1719 293.798 13.5074 293.545C13.8428 293.292 14.2119 293.226 14.5681 293.355C14.9242 293.484 15.2513 293.802 15.508 294.269C15.7648 294.736 15.9396 295.331 16.0105 295.979C16.0813 296.627 16.0449 297.299 15.906 297.909C15.767 298.519 15.5317 299.041 15.2298 299.408C14.9279 299.775 14.573 299.971 14.2099 299.971C13.723 299.971 13.2561 299.619 12.9118 298.993C12.5675 298.366 12.3741 297.517 12.3741 296.631ZM28.515 325.474L24.7317 318.59L20.2816 326.687V314.597H13.9883L18.7072 306.011L16.5083 302.01L17.2833 300.6L20.2573 306.011L16.6346 312.602H21.3777V321.872L24.7317 315.769L29.29 324.064L28.515 325.474Z" fill="#FFDAA3"/>
<path d="M156.631 338.339L170.811 292.433L184.598 338.339H156.631ZM169.359 227.927L216.285 336.999H210.306L169.636 241.532L169.359 227.927Z" fill="#CAC3D6"/>
<path d="M169.36 227.927L130.324 322.31V338.703H135.175L169.609 249.596L169.36 227.927Z" fill="#CAC3D6"/>
<path d="M390.087 5.77344L357.117 88.7904L358.944 90.2466L376.08 73.9475L382.544 87.3012L392.225 80.5469L406.043 97.5096L410.353 84.7278L419.926 93.8727V82.4506L390.087 5.77344ZM392.877 78.776L391.799 78.4054C391.899 77.4452 391.996 76.4963 392.09 75.5586L393.168 75.9154C393.074 76.8574 392.977 77.811 392.877 78.776ZM393.449 73.0501L392.369 72.7082C392.462 71.7412 392.551 70.7895 392.637 69.853L393.718 70.1815C393.631 71.1224 393.542 72.0786 393.449 73.0501ZM393.976 67.3093L392.894 66.9939C392.979 66.0204 393.061 65.0667 393.139 64.1329L394.223 64.4331C394.144 65.3711 394.062 66.3298 393.976 67.3093ZM394.458 61.5544L393.373 61.268C393.451 60.2831 393.525 59.3271 393.595 58.3998L394.682 58.6717C394.611 59.6029 394.537 60.5638 394.458 61.5544ZM394.894 55.7847L393.807 55.529C393.878 54.5268 393.945 53.5684 394.006 52.6539L395.094 52.8961C395.032 53.8135 394.966 54.7764 394.894 55.7847ZM395.282 50.0029L394.193 49.7781C394.258 48.732 394.315 47.77 394.366 46.8976L395.456 47.105C395.405 47.9832 395.348 48.951 395.282 50.0029ZM395.615 44.2023L394.524 44.0156C394.619 42.1714 394.66 41.1445 394.66 41.134L395.754 41.2772C395.752 41.3192 395.712 42.3335 395.615 44.2023Z" fill="#D5EEFF"/>
<path d="M254.895 318.523C254.895 318.523 259.156 309.847 259.9 301.757C260.645 293.668 259.675 284.384 259.675 284.384L255.805 271.287L253.108 265.769C253.108 265.769 253.819 274.541 249.883 278.529C245.948 282.518 244.054 276.444 243.656 272.818C243.257 269.192 242.965 260.762 244.979 253.963C244.979 253.963 236.481 258.767 234.09 273.09C231.698 287.413 232.844 294.575 234.339 300.92C235.833 307.266 237.179 310.452 237.179 310.452C237.179 310.452 233.492 308.283 232.396 303.06C231.3 297.838 230.552 289.493 230.552 289.493C230.552 289.493 228.211 293.833 229.058 303.768C229.905 313.702 232.944 326.363 236.382 329.596C236.382 329.596 246.994 331.016 250.93 327.844C250.93 327.844 249.64 331.832 246 334.371C246 334.371 249.926 335.966 253.246 332.368C256.567 328.769 260.07 325.02 261.254 319.316C262.438 313.611 263.409 307.829 263.409 307.829V301.757C263.409 301.757 261.252 315.003 254.895 318.523L254.895 318.523ZM235.962 287.495C235.962 278.415 237.934 269.861 241.238 264.611L241.959 266.113C238.89 270.989 237.059 278.983 237.059 287.495C237.059 294.308 238.431 299.822 239.582 303.247L238.647 304.288C237.422 300.644 235.962 294.772 235.962 287.495ZM250.566 323.457C254.148 315.493 247.21 300.104 247.21 300.104C239.77 311.77 242.97 322.033 244.413 325.439C242.834 323.914 234.66 314.624 243.924 293.18C244.212 292.508 244.49 291.823 244.759 291.124L247.11 285.056C247.11 285.056 252.099 296.055 252.826 306.087C253.396 313.95 252.377 320.03 250.566 323.456V323.457Z" fill="#FFB3AD"/>
<path d="M215.045 277.409H216.141V282.119H215.045V277.409ZM217.004 283.387H219.439V285.381H217.004V283.387ZM215.045 287.267H216.141V291.722H215.045V287.267ZM211.681 283.387H214.255V285.382H211.681V283.387ZM320.898 262.724H321.994V267.434H320.898V262.724ZM322.857 268.702H325.292V270.696H322.857V268.702ZM320.898 272.582H321.994V277.036H320.898V272.582ZM317.534 268.703H320.108V270.697H317.534V268.703ZM382.207 172.745H383.303V177.454H382.207V172.745ZM384.166 178.723H386.601V180.718H384.166V178.723ZM382.207 182.603H383.303V187.057H382.207V182.603ZM378.843 178.724H381.417V180.718H378.843V178.724ZM292.606 140.284H293.702V144.994H292.606V140.284ZM294.564 146.262H297V148.256H294.564V146.262ZM292.606 150.142H293.702V154.597H292.606V150.142ZM289.242 146.262H291.816V148.257H289.242V146.262ZM379.615 49.6924H380.711V54.4023H379.615V49.6924ZM381.574 55.6707H384.009V57.665H381.574V55.6707ZM379.615 59.5509H380.711V64.0051H379.615V59.5509ZM376.251 55.671H378.825V57.6653H376.251V55.671ZM165.175 173.925H166.271V178.634H165.175V173.925ZM167.133 179.903H169.569V181.897H167.133V179.903ZM165.175 183.783H166.271V188.237H165.175V183.783ZM161.811 179.903H164.385V181.897H161.811V179.903ZM34.5286 267.113H35.6247V272.647H34.5286V267.113ZM36.4872 274.312H38.9225V276.306H36.4872V274.312ZM34.5284 278.696H35.6245V283.93H34.5284V278.696ZM31.1644 274.312H33.7384V276.307H31.1644V274.312ZM42.2205 349.201H0.0234375V337.16H42.2205V349.201ZM1.11952 347.207H41.1244V339.155H1.11952V347.207Z" fill="#6786AC"/>
<path d="M42.22 342.891H41.124V334.574C41.1203 329.722 40.0602 325.071 38.1757 321.638C36.2912 318.206 33.7359 316.272 31.0695 316.26L29.5736 316.257C27.1178 316.247 24.7644 314.466 23.0288 311.304C21.2932 308.143 20.3168 303.859 20.3135 299.391V289.535H21.4096V299.391C21.4125 303.331 22.2733 307.108 23.8037 309.895C25.334 312.683 27.409 314.253 29.5744 314.263L31.0705 314.266C34.0273 314.279 36.8608 316.423 38.9505 320.23C41.0402 324.036 42.2158 329.194 42.2198 334.574L42.22 342.891ZM0.0229738 338.165L0.000254915 332.235C-0.0180846 327.179 0.953678 322.276 2.74146 318.404C4.34488 314.93 5.22446 310.539 5.22579 306.003V289.535H6.32187V306.003C6.32038 311.009 5.34978 315.854 3.58047 319.687C1.96028 323.196 1.07958 327.639 1.09614 332.221L1.11886 338.151L0.0229738 338.165ZM22.6234 287.692H4.18511V265.798H22.6234V287.692ZM5.28119 285.698H21.5274V267.792H5.28119V285.698Z" fill="#6786AC"/>
<path d="M18.5787 268.057H19.6747V287.62H18.5787V268.057ZM14.7633 268.057H15.8594V287.62H14.7633V268.057ZM10.9479 268.057H12.044V287.62H10.9479V268.057ZM7.13275 276.745H8.22883V287.62H7.13275V276.745ZM6.87487 272.363C6.87487 272.653 6.92214 272.936 7.01069 273.178C7.09925 273.419 7.22511 273.607 7.37238 273.718C7.51964 273.829 7.68168 273.858 7.83802 273.801C7.99435 273.745 8.13795 273.605 8.25066 273.4C8.36337 273.195 8.44013 272.933 8.47123 272.649C8.50232 272.365 8.48636 272.07 8.42536 271.802C8.36437 271.534 8.26107 271.305 8.12854 271.144C7.996 270.983 7.84019 270.897 7.68079 270.897C7.46705 270.897 7.26206 271.051 7.11092 271.326C6.95978 271.601 6.87487 271.974 6.87487 272.363ZM27.6208 338.598H26.5247C26.5247 327.739 28.8575 320.566 34.0883 315.338L34.616 317.086C29.7129 321.986 27.6208 328.42 27.6208 338.598ZM10.3622 338.165L9.26613 338.15C9.26818 337.653 9.262 337.156 9.24759 336.659C9.14606 332.979 8.58266 329.39 7.60059 326.167C6.61852 322.944 5.24386 320.173 3.58203 318.067L4.21138 316.435C6.0097 318.714 7.49724 321.712 8.55995 325.2C9.62265 328.687 10.2323 332.571 10.3421 336.554C10.3577 337.09 10.3644 337.628 10.3622 338.165Z" fill="#6786AC"/>
<path d="M20.7687 324.905V312.815H14.4756L19.1943 304.229L16.9954 300.228L17.7706 298.817L20.7444 304.229L17.1217 310.82H21.8648V320.09L25.2188 313.987L29.7771 322.281L29.0021 323.691L25.2188 316.807L20.7687 324.905ZM13.8448 299.525C13.3733 299.525 12.9124 299.271 12.5204 298.794C12.1284 298.318 11.8228 297.64 11.6424 296.848C11.462 296.055 11.4148 295.183 11.5067 294.342C11.5987 293.5 11.8258 292.727 12.1592 292.121C12.4926 291.514 12.9173 291.101 13.3798 290.934C13.8422 290.766 14.3215 290.852 14.7571 291.18C15.1927 291.509 15.565 292.065 15.827 292.778C16.0889 293.491 16.2287 294.33 16.2287 295.188C16.228 296.338 15.9766 297.44 15.5297 298.253C15.0828 299.066 14.4768 299.524 13.8448 299.525ZM13.8448 292.845C13.5901 292.845 13.3411 292.982 13.1294 293.239C12.9176 293.497 12.7525 293.863 12.6551 294.291C12.5576 294.719 12.5321 295.19 12.5818 295.645C12.6315 296.099 12.7541 296.517 12.9342 296.845C13.1143 297.172 13.3438 297.395 13.5936 297.486C13.8434 297.576 14.1023 297.53 14.3376 297.353C14.573 297.175 14.7741 296.875 14.9156 296.49C15.0571 296.104 15.1326 295.651 15.1326 295.188C15.1322 294.567 14.9964 293.971 14.755 293.532C14.5136 293.092 14.1862 292.845 13.8448 292.845ZM19.5082 327.704C19.5082 327.994 19.5555 328.278 19.644 328.519C19.7326 328.76 19.8584 328.948 20.0057 329.059C20.153 329.17 20.315 329.199 20.4713 329.143C20.6277 329.086 20.7713 328.946 20.884 328.741C20.9967 328.536 21.0735 328.275 21.1045 327.99C21.1356 327.706 21.1197 327.411 21.0587 327.143C20.9977 326.875 20.8944 326.646 20.7619 326.485C20.6293 326.324 20.4735 326.238 20.3141 326.238C20.1004 326.238 19.8954 326.392 19.7443 326.667C19.5932 326.942 19.5082 327.316 19.5082 327.704ZM12.5969 313.846C12.5968 314.136 12.6441 314.419 12.7326 314.66C12.8211 314.902 12.947 315.09 13.0943 315.201C13.2415 315.312 13.4036 315.341 13.5599 315.284C13.7163 315.228 13.8599 315.088 13.9726 314.883C14.0853 314.678 14.1621 314.417 14.1932 314.132C14.2243 313.848 14.2084 313.553 14.1474 313.285C14.0864 313.017 13.9831 312.788 13.8506 312.627C13.718 312.466 13.5622 312.38 13.4028 312.38C13.1891 312.38 12.9841 312.534 12.833 312.809C12.6819 313.084 12.5969 313.457 12.5969 313.846ZM304.365 264.4H305.461V312.289H304.365V264.4ZM299.771 347.265H288.86C287.291 347.262 285.785 346.126 284.675 344.106C283.565 342.087 282.941 339.348 282.939 336.492V264.401H284.035V336.492C284.037 338.82 284.546 341.051 285.45 342.697C286.355 344.343 287.581 345.269 288.86 345.271H299.771V347.265ZM316.222 346.096H306.252C303.088 346.096 300.515 341.189 300.515 335.158V317.591H321.959V335.157C321.959 341.189 319.386 346.096 316.222 346.096ZM301.611 319.586V335.158C301.611 340.089 303.693 344.102 306.252 344.102H316.222C318.781 344.102 320.863 340.089 320.863 335.158V319.586L301.611 319.586Z" fill="#6786AC"/>
<path d="M283.489 317.248H278.347C277.633 317.246 276.95 316.73 276.445 315.812C275.941 314.894 275.657 313.65 275.656 312.352V292.47C275.657 291.172 275.941 289.928 276.445 289.01C276.95 288.092 277.633 287.576 278.347 287.575H283.777V289.569H278.347C277.924 289.57 277.519 289.876 277.22 290.42C276.921 290.963 276.753 291.701 276.752 292.47V312.352C276.753 313.121 276.921 313.859 277.22 314.402C277.519 314.946 277.924 315.252 278.347 315.253H283.489V317.248ZM286.03 271.59H302.034V273.585H286.03V271.59ZM315.758 299.157H316.854V312.289H315.758V299.157ZM310.616 299.157H311.712V312.289H310.616V299.157ZM310.616 291.572H311.712V295.697H310.616V291.572ZM305.463 265.398H282.941V264.401C282.942 262.47 283.364 260.619 284.115 259.253C284.865 257.888 285.883 257.119 286.944 257.117H301.46C302.521 257.119 303.539 257.887 304.289 259.253C305.04 260.618 305.462 262.47 305.463 264.401V265.398ZM284.089 263.404H304.315C304.187 262.197 303.832 261.108 303.311 260.325C302.79 259.542 302.136 259.113 301.46 259.112H286.944C286.268 259.113 285.614 259.542 285.093 260.325C284.572 261.108 284.217 262.197 284.089 263.404Z" fill="#6786AC"/>
<path d="M297.967 258.164H296.871V252.094H291.217V258.164H290.121V250.1H297.967V258.164Z" fill="#6786AC"/>
<path d="M297.965 250.958H296.869C296.869 249.672 296.587 248.439 296.088 247.529C295.588 246.62 294.91 246.108 294.203 246.107H293.882C293.175 246.108 292.498 246.62 291.998 247.529C291.498 248.438 291.217 249.672 291.216 250.958H290.12C290.121 249.143 290.518 247.403 291.223 246.12C291.928 244.836 292.885 244.114 293.882 244.112H294.203C295.201 244.114 296.157 244.836 296.862 246.12C297.568 247.403 297.964 249.143 297.965 250.958ZM290.668 338.457C289.949 338.457 289.246 338.069 288.649 337.342C288.051 336.615 287.585 335.582 287.31 334.374C287.035 333.165 286.963 331.835 287.103 330.552C287.243 329.269 287.589 328.091 288.098 327.166C288.606 326.241 289.254 325.611 289.959 325.356C290.664 325.101 291.395 325.232 292.059 325.732C292.724 326.233 293.291 327.081 293.691 328.169C294.09 329.256 294.303 330.535 294.303 331.843C294.302 333.597 293.919 335.278 293.237 336.518C292.556 337.758 291.632 338.455 290.668 338.457ZM290.668 327.223C290.166 327.223 289.675 327.494 289.258 328.002C288.84 328.509 288.515 329.231 288.322 330.075C288.13 330.919 288.08 331.848 288.178 332.744C288.276 333.64 288.518 334.463 288.873 335.109C289.228 335.755 289.68 336.195 290.173 336.374C290.665 336.552 291.176 336.46 291.64 336.111C292.104 335.761 292.5 335.169 292.779 334.41C293.058 333.65 293.207 332.757 293.207 331.843C293.206 330.618 292.939 329.444 292.463 328.578C291.987 327.712 291.341 327.225 290.668 327.224V327.223ZM237.743 304.287C236.519 300.643 235.059 294.771 235.059 287.494H236.155C236.155 294.307 237.527 299.821 238.678 303.247L237.743 304.287ZM236.155 287.494H235.059C235.059 278.415 237.031 269.86 240.334 264.61L241.055 266.112C237.987 270.989 236.155 278.982 236.155 287.494Z" fill="#6786AC"/>
<path d="M233.599 308.349C231.466 302.098 230.322 294.897 230.293 287.539C230.293 269.584 236.571 254.347 244.895 252.097L245.056 254.069C237.264 256.175 231.389 270.564 231.389 287.539C231.389 296.142 233.1 303.039 234.534 307.309L233.599 308.349ZM258.568 310.925L257.603 309.98C259.108 304.847 259.893 299.118 259.888 293.3C259.888 280.977 255.262 270.975 252.525 266.137C252.259 271.347 251.053 275.572 249.302 277.21C248.833 277.686 248.298 277.909 247.762 277.854C247.225 277.798 246.708 277.465 246.271 276.895C244.348 274.391 243.67 267.698 244.411 258.533L245.495 258.823C244.504 271.088 246.327 274.515 246.909 275.273C247.182 275.63 247.506 275.835 247.842 275.864C248.178 275.893 248.511 275.744 248.801 275.436C250.136 274.187 251.484 270.146 251.484 263.937V261.705L252.398 263.194C254.979 267.401 260.984 278.758 260.984 293.3C260.989 299.447 260.159 305.502 258.568 310.925Z" fill="#6786AC"/>
<path d="M245.858 336.286V334.292C255.515 334.292 263.372 319.698 263.372 301.759H264.468C264.468 320.797 256.119 336.286 245.858 336.286ZM231.713 324.719C229.451 320.144 227.892 314.564 227.192 308.543C226.492 302.522 226.677 296.272 227.727 290.423L228.769 291.044C227.779 296.56 227.605 302.453 228.264 308.131C228.924 313.808 230.394 319.069 232.527 323.384L231.713 324.719ZM266.42 270.453C265.715 270.453 265.026 270.073 264.439 269.36C263.853 268.647 263.396 267.634 263.126 266.448C262.856 265.262 262.785 263.958 262.923 262.699C263.061 261.44 263.4 260.284 263.899 259.377C264.398 258.469 265.033 257.852 265.725 257.601C266.417 257.351 267.134 257.479 267.785 257.971C268.437 258.462 268.994 259.293 269.386 260.36C269.777 261.428 269.987 262.682 269.986 263.965C269.985 265.686 269.609 267.335 268.941 268.551C268.272 269.767 267.366 270.452 266.42 270.453ZM266.42 259.471C265.932 259.471 265.454 259.735 265.048 260.229C264.642 260.722 264.325 261.424 264.138 262.246C263.951 263.067 263.903 263.97 263.998 264.842C264.093 265.714 264.328 266.515 264.674 267.143C265.019 267.772 265.459 268.2 265.939 268.373C266.418 268.547 266.914 268.458 267.366 268.117C267.817 267.777 268.203 267.201 268.474 266.462C268.746 265.723 268.89 264.854 268.89 263.965C268.89 262.774 268.629 261.631 268.166 260.789C267.703 259.946 267.075 259.473 266.42 259.471ZM223.824 328.6H247.521V330.595H223.824V328.6ZM223.219 346.814H266.42V348.808H223.219V346.814Z" fill="#6786AC"/>
<path d="M270.612 347.81H269.516V330.594H260.075V328.599H270.612V347.81ZM248.075 323.992L247.171 322.865C247.869 321.011 248.701 318.14 248.701 314.991C248.701 310.204 246.814 306.045 245.999 304.471C245.184 306.048 243.295 310.218 243.295 314.991C243.295 317.381 243.758 319.888 244.67 322.443L243.751 323.529C242.721 320.645 242.199 317.773 242.199 314.991C242.199 308.039 245.491 302.55 245.631 302.32L245.998 301.717L246.365 302.32C246.505 302.55 249.797 308.039 249.797 314.991C249.797 317.888 249.202 321 248.075 323.992ZM223.223 348.807C222.125 348.807 221.051 348.214 220.138 347.104C219.225 345.994 218.513 344.416 218.093 342.57C217.672 340.723 217.562 338.692 217.777 336.732C217.991 334.772 218.52 332.971 219.296 331.558C220.073 330.145 221.062 329.183 222.14 328.793C223.217 328.403 224.333 328.603 225.348 329.368C226.363 330.133 227.23 331.428 227.84 333.089C228.451 334.751 228.776 336.705 228.776 338.703C228.775 341.382 228.189 343.95 227.148 345.844C226.107 347.738 224.695 348.804 223.223 348.807ZM223.223 330.593C222.342 330.593 221.48 331.069 220.747 331.96C220.014 332.851 219.443 334.118 219.105 335.599C218.768 337.081 218.68 338.712 218.852 340.285C219.024 341.858 219.448 343.303 220.071 344.437C220.695 345.571 221.489 346.344 222.354 346.657C223.218 346.97 224.114 346.809 224.929 346.195C225.743 345.581 226.439 344.542 226.929 343.208C227.419 341.875 227.68 340.307 227.68 338.703C227.679 336.553 227.209 334.492 226.373 332.971C225.538 331.451 224.405 330.596 223.223 330.593Z" fill="#6786AC"/>
<path d="M224.162 338.703C224.162 339.04 224.107 339.37 224.004 339.65C223.901 339.93 223.755 340.149 223.584 340.278C223.413 340.407 223.224 340.44 223.043 340.375C222.861 340.309 222.694 340.147 222.563 339.908C222.432 339.67 222.343 339.366 222.307 339.036C222.271 338.705 222.289 338.362 222.36 338.051C222.431 337.74 222.551 337.473 222.705 337.286C222.859 337.099 223.04 336.999 223.225 336.999C223.348 336.999 223.47 337.043 223.584 337.129C223.697 337.214 223.801 337.34 223.888 337.498C223.975 337.656 224.044 337.844 224.091 338.051C224.138 338.258 224.162 338.479 224.162 338.703ZM217.359 333.391L169.575 221.172L130.016 315.989L129.143 314.783L169.566 217.896L170.004 218.923L218.225 332.169L217.359 333.391Z" fill="#6786AC"/>
<path d="M154.449 338.332L143.839 319.341L144.31 318.637C144.374 318.542 150.714 309.043 156.911 298.017C166.535 280.896 168.877 272.635 169.018 268.666C169.01 268.387 169.01 268.108 169.02 267.83H170.114C170.123 268.108 170.123 268.387 170.115 268.665C170.251 272.63 172.553 280.838 182.013 297.75C188.107 308.642 194.342 318.007 194.404 318.1L194.871 318.799L184.391 337.837L169.594 290.566L154.449 338.332ZM145.474 319.47L154.207 335.102L169.6 286.556L184.632 334.58L193.244 318.937C191.681 316.552 186.416 308.414 181.25 299.181C174.844 287.73 170.931 278.844 169.563 272.654C168.173 278.877 164.192 287.854 157.673 299.451C152.416 308.802 147.06 317.058 145.474 319.47ZM133.355 337.341H148.912V339.336H133.355V337.341ZM191.437 337.341H213.542V339.336H191.437V337.341ZM402.625 135.123H407.064V137.117H402.625V135.123ZM402.625 128.761H407.064V130.755H402.625V128.761ZM402.625 148.254H407.064V150.248H402.625V148.254ZM402.625 141.802H407.064V143.796H402.625V141.802Z" fill="#6786AC"/>
<path d="M402.574 175.863C400.952 175.86 399.397 174.686 398.251 172.6C397.104 170.514 396.459 167.685 396.457 164.734L396.459 164.652L397.55 140.6V115.373C397.55 112.949 398.08 110.624 399.022 108.91C399.964 107.195 401.242 106.232 402.574 106.232C403.906 106.232 405.184 107.195 406.126 108.91C407.068 110.624 407.598 112.949 407.598 115.373V140.594L408.691 161.751C408.691 171.5 405.618 175.863 402.574 175.863ZM397.553 164.774C397.56 167.189 398.092 169.501 399.033 171.205C399.974 172.909 401.247 173.866 402.574 173.869C405.618 173.869 407.586 169.132 407.594 161.797L406.502 140.641V115.373C406.502 113.478 406.088 111.66 405.351 110.32C404.615 108.98 403.616 108.227 402.574 108.227C401.532 108.227 400.533 108.98 399.797 110.32C399.06 111.66 398.646 113.478 398.646 115.373L398.644 140.723L397.553 164.774Z" fill="#6786AC"/>
<path d="M414.505 200.744H390.883L397.725 175.635L398.707 176.521L392.65 198.75H412.73L406.558 176.307L407.539 175.415L414.505 200.744Z" fill="#6786AC"/>
<path d="M413.201 200.189C411.485 193.954 407.361 189.925 402.695 189.925C398.106 189.925 394.007 193.864 392.254 199.959L391.283 199.035C393.223 192.289 397.703 187.931 402.695 187.931C407.773 187.931 412.281 192.392 414.181 199.296L413.201 200.189ZM402.764 209.454C401.118 209.464 399.483 208.978 397.924 208.015L398.28 206.128C399.724 207.02 401.239 207.47 402.764 207.46C404.509 207.476 406.239 206.884 407.86 205.716L408.268 207.567C406.517 208.831 404.648 209.471 402.764 209.454ZM402.535 216.467H403.631V227.157H402.535V216.467Z" fill="#6786AC"/>
<path d="M392.629 219.821L396.526 212.73L397.301 214.14L393.404 221.231L392.629 219.821Z" fill="#6786AC"/>
<path d="M408.844 214.189L409.619 212.779L413.489 219.822L412.714 221.232L408.844 214.189Z" fill="#6786AC"/>
<path d="M397.089 151.681L394.195 148.405V129.592L397.674 126.33L398.176 128.103L395.291 130.808V147.297L397.668 149.988L397.089 151.681ZM401.727 164.259C401.727 163.955 401.777 163.657 401.87 163.404C401.963 163.15 402.095 162.953 402.25 162.836C402.405 162.72 402.575 162.689 402.739 162.749C402.903 162.808 403.054 162.955 403.172 163.17C403.291 163.386 403.371 163.66 403.404 163.959C403.437 164.258 403.42 164.567 403.356 164.849C403.292 165.13 403.183 165.371 403.044 165.54C402.905 165.709 402.741 165.8 402.574 165.8C402.349 165.8 402.134 165.637 401.975 165.348C401.816 165.06 401.727 164.668 401.727 164.259ZM72.3706 321.73H49.7849C48.5708 321.73 47.4064 320.852 46.5479 319.29C45.6893 317.728 45.207 315.61 45.207 313.401C45.207 311.191 45.6893 309.073 46.5479 307.511C47.4064 305.949 48.5708 305.071 49.7849 305.071H72.3706C73.5847 305.071 74.7491 305.949 75.6076 307.511C76.4661 309.073 76.9483 311.191 76.9483 313.4C76.9483 315.609 76.4661 317.728 75.6076 319.29C74.7491 320.852 73.5847 321.73 72.3706 321.73ZM49.7849 307.065C48.8615 307.065 47.9759 307.733 47.323 308.921C46.67 310.109 46.3032 311.72 46.3032 313.4C46.3032 315.081 46.67 316.692 47.323 317.88C47.9759 319.068 48.8615 319.735 49.7849 319.735H72.3706C72.8278 319.735 73.2805 319.571 73.7029 319.253C74.1253 318.935 74.5091 318.468 74.8324 317.88C75.1557 317.292 75.4122 316.593 75.5871 315.825C75.7621 315.056 75.8522 314.232 75.8522 313.401C75.8522 312.569 75.7621 311.745 75.5871 310.976C75.4122 310.208 75.1557 309.509 74.8324 308.921C74.5091 308.333 74.1253 307.866 73.7029 307.548C73.2805 307.23 72.8278 307.066 72.3706 307.066L49.7849 307.065Z" fill="#6786AC"/>
<path d="M46.7142 310.186H45.6181V301.3L46.1948 300.925C46.5663 300.686 47.258 300.242 47.3304 299.927C47.2582 299.635 46.5665 299.191 46.195 298.952C45.3207 298.39 44.3301 297.753 44.3301 296.085C44.3301 294.416 45.3209 293.78 46.195 293.219C46.5665 292.98 47.2578 292.536 47.3304 292.221C47.2582 291.929 46.5667 291.485 46.195 291.245C45.3209 290.683 44.3301 290.047 44.3301 288.377C44.3301 286.708 45.3205 286.071 46.1946 285.509C46.5137 285.304 47.1508 284.894 47.3031 284.584C47.1117 284.305 46.5414 283.966 46.2209 283.775C46.0818 283.693 45.9465 283.612 45.8212 283.532L45.4557 283.296V277.678H46.5517V281.875L46.5617 281.88C47.435 282.4 48.4251 282.989 48.4251 284.52C48.4251 286.189 47.4342 286.827 46.5601 287.389C46.2147 287.611 45.4963 288.073 45.4248 288.388C45.4965 288.681 46.1884 289.126 46.5601 289.365C47.4342 289.927 48.4251 290.564 48.4251 292.233C48.4251 293.901 47.4342 294.537 46.5597 295.099C46.1884 295.337 45.4971 295.782 45.4246 296.097C45.4969 296.388 46.1884 296.833 46.5599 297.072C47.4342 297.633 48.4251 298.27 48.4251 299.939C48.4251 301.51 47.5466 302.166 46.7142 302.705V310.186Z" fill="#6786AC"/>
<path d="M47.9293 308.058L47.1543 306.647L63.0954 277.643L63.483 278.348C64.3556 279.939 64.8456 282.096 64.8456 284.344C64.8456 286.592 64.3556 288.748 63.483 290.339L54.4341 306.804L53.6589 305.394L62.7079 288.929C63.3082 287.834 63.674 286.385 63.7396 284.843C63.8052 283.301 63.5662 281.767 63.0657 280.517L47.9293 308.058Z" fill="#6786AC"/>
<path d="M55.0332 297.499L61.2079 286.264L61.9829 287.674L55.8081 298.909L55.0332 297.499Z" fill="#6786AC"/>
<path d="M58.7544 349.133L58.3668 348.428C57.4929 346.838 57.002 344.681 57.002 342.432C57.002 340.184 57.4929 338.027 58.3668 336.437L58.3813 336.411L59.5392 334.454L61.1798 333.262L61.8824 330.055L63.6469 328.774L64.3512 325.563L66.1161 324.281L66.8226 321.067L68.5544 319.807L68.9616 321.658L67.666 322.601L66.9593 325.816L65.1946 327.098L64.4903 330.309L62.7262 331.589L62.0237 334.797L60.1355 336.168L59.1351 337.86C58.5368 338.955 58.1727 340.402 58.1084 341.942C58.044 343.481 58.2835 345.012 58.7839 346.259L73.497 319.489L74.272 320.899L58.7544 349.133Z" fill="#6786AC"/>
<path d="M72.9185 320.603H74.0146V333.18H72.9185V320.603ZM74.6055 318.302H75.7016V333.18H74.6055V318.302ZM74.3101 341.216C73.9206 341.216 73.5399 341.006 73.216 340.612C72.8922 340.218 72.6398 339.659 72.4907 339.004C72.3416 338.349 72.3026 337.629 72.3786 336.934C72.4546 336.239 72.6422 335.6 72.9176 335.099C73.193 334.598 73.5439 334.257 73.926 334.118C74.308 333.98 74.7039 334.051 75.0638 334.322C75.4236 334.593 75.7312 335.053 75.9476 335.642C76.164 336.231 76.2795 336.924 76.2795 337.633C76.2789 338.583 76.0713 339.493 75.7021 340.165C75.3329 340.837 74.8323 341.215 74.3101 341.216ZM74.3101 336.043C74.1374 336.043 73.9686 336.137 73.825 336.311C73.6814 336.486 73.5695 336.734 73.5034 337.024C73.4373 337.315 73.42 337.634 73.4536 337.942C73.4873 338.25 73.5705 338.534 73.6926 338.756C73.8147 338.978 73.9703 339.129 74.1397 339.191C74.309 339.252 74.4846 339.221 74.6442 339.1C74.8038 338.98 74.9402 338.777 75.0362 338.515C75.1321 338.254 75.1834 337.947 75.1834 337.633C75.1832 337.211 75.0912 336.807 74.9274 336.509C74.7637 336.211 74.5417 336.044 74.3101 336.043ZM75.9905 349.146H72.6298V341.84H73.7258V347.152H74.8945V341.84H75.9905V349.146ZM50.2178 316.984C49.8283 316.984 49.4474 316.774 49.1235 316.38C48.7996 315.986 48.5471 315.427 48.398 314.772C48.2489 314.117 48.2099 313.396 48.2859 312.701C48.3618 312.006 48.5494 311.367 48.8248 310.866C49.1003 310.365 49.4512 310.024 49.8333 309.885C50.2154 309.747 50.6114 309.818 50.9713 310.089C51.3312 310.36 51.6388 310.82 51.8552 311.409C52.0717 311.998 52.1872 312.691 52.1872 313.4C52.1866 314.35 51.9789 315.261 51.6097 315.933C51.2405 316.605 50.74 316.983 50.2178 316.984ZM50.2178 311.811C50.045 311.811 49.8761 311.904 49.7325 312.079C49.5888 312.253 49.4768 312.501 49.4107 312.792C49.3445 313.082 49.3272 313.402 49.3609 313.71C49.3946 314.018 49.4777 314.302 49.5999 314.524C49.7221 314.746 49.8777 314.898 50.0471 314.959C50.2166 315.02 50.3922 314.989 50.5518 314.869C50.7115 314.748 50.8479 314.545 50.9439 314.283C51.0399 314.022 51.0911 313.714 51.0911 313.4C51.0909 312.979 50.9988 312.575 50.8351 312.277C50.6714 311.979 50.4494 311.811 50.2178 311.811ZM72.0903 316.984C71.7007 316.984 71.3199 316.774 70.996 316.38C70.6721 315.986 70.4196 315.427 70.2705 314.772C70.1214 314.117 70.0824 313.396 70.1583 312.701C70.2343 312.006 70.4219 311.367 70.6973 310.866C70.9728 310.365 71.3237 310.024 71.7058 309.885C72.0878 309.747 72.4839 309.818 72.8438 310.089C73.2037 310.36 73.5113 310.82 73.7277 311.409C73.9441 311.998 74.0596 312.691 74.0596 313.4C74.0591 314.35 73.8514 315.261 73.4822 315.933C73.113 316.605 72.6124 316.983 72.0903 316.984ZM72.0903 311.811C71.9175 311.811 71.7486 311.904 71.6049 312.079C71.4613 312.253 71.3493 312.501 71.2831 312.792C71.217 313.082 71.1997 313.402 71.2334 313.71C71.267 314.018 71.3502 314.302 71.4724 314.524C71.5945 314.746 71.7502 314.898 71.9196 314.959C72.089 315.02 72.2647 314.989 72.4243 314.869C72.5839 314.748 72.7204 314.545 72.8163 314.283C72.9123 314.022 72.9636 313.714 72.9636 313.4C72.9633 312.979 72.8713 312.575 72.7076 312.277C72.5438 311.979 72.3218 311.811 72.0903 311.811ZM143.25 273.714H129.777V218.582H156.265V246.148H155.169V220.577H130.873V271.719H143.25V273.714ZM133.359 202.082L132.978 201.409C132.543 200.642 130.373 196.676 130.373 193.942C130.373 193.229 130.45 192.522 130.6 191.863C130.75 191.204 130.97 190.605 131.248 190.1C131.525 189.596 131.854 189.195 132.216 188.922C132.579 188.649 132.967 188.509 133.359 188.509C133.751 188.509 134.139 188.649 134.502 188.922C134.864 189.195 135.193 189.596 135.471 190.1C135.748 190.605 135.968 191.204 136.118 191.863C136.268 192.522 136.345 193.229 136.345 193.942C136.345 196.676 134.175 200.642 133.74 201.409L133.359 202.082ZM133.359 190.503C132.858 190.504 132.378 190.867 132.023 191.512C131.669 192.156 131.47 193.03 131.469 193.942C131.469 195.16 132.476 197.571 133.359 199.272C134.242 197.569 135.249 195.158 135.249 193.942C135.248 193.03 135.049 192.156 134.695 191.512C134.341 190.867 133.86 190.504 133.359 190.503Z" fill="#6786AC"/>
<path d="M131.689 198.705H132.786V216.092H131.689V198.705ZM133.845 198.705H134.941V216.092H133.845V198.705ZM139.823 202.082L139.442 201.409C139.007 200.642 136.837 196.676 136.837 193.942C136.837 192.501 137.151 191.119 137.711 190.1C138.271 189.081 139.031 188.509 139.823 188.509C140.615 188.509 141.374 189.081 141.935 190.1C142.495 191.119 142.809 192.501 142.809 193.942C142.809 196.676 140.639 200.642 140.204 201.409L139.823 202.082ZM139.823 190.503C139.322 190.504 138.841 190.867 138.487 191.512C138.133 192.156 137.934 193.03 137.933 193.942C137.933 195.158 138.94 197.568 139.823 199.272C140.706 197.568 141.713 195.158 141.713 193.942C141.712 193.03 141.513 192.156 141.159 191.512C140.804 190.867 140.324 190.504 139.823 190.503Z" fill="#6786AC"/>
<path d="M138.16 198.705H139.256V216.092H138.16V198.705ZM140.316 198.705H141.412V216.092H140.316V198.705ZM146.294 202.082L145.912 201.409C145.477 200.642 143.308 196.676 143.308 193.942C143.308 192.501 143.622 191.119 144.182 190.1C144.742 189.081 145.502 188.509 146.294 188.509C147.086 188.509 147.845 189.081 148.405 190.1C148.965 191.119 149.28 192.501 149.28 193.942C149.28 196.676 147.11 200.642 146.675 201.409L146.294 202.082ZM146.294 190.503C145.793 190.504 145.312 190.867 144.958 191.512C144.604 192.156 144.404 193.03 144.404 193.942C144.404 195.158 145.411 197.568 146.294 199.272C147.177 197.568 148.184 195.158 148.184 193.942C148.183 193.03 147.984 192.156 147.63 191.512C147.275 190.867 146.795 190.504 146.294 190.503Z" fill="#6786AC"/>
<path d="M144.629 198.705H145.725V216.092H144.629V198.705ZM146.785 198.705H147.881V216.092H146.785V198.705ZM152.762 202.082L152.381 201.409C151.946 200.642 149.776 196.676 149.776 193.942C149.776 192.501 150.091 191.119 150.651 190.1C151.211 189.081 151.971 188.509 152.763 188.509C153.555 188.509 154.314 189.081 154.874 190.1C155.434 191.119 155.749 192.501 155.749 193.942C155.749 196.676 153.579 200.642 153.144 201.409L152.762 202.082ZM152.762 190.503C152.261 190.504 151.781 190.867 151.427 191.512C151.072 192.156 150.873 193.031 150.872 193.942C150.872 195.16 151.879 197.571 152.762 199.272C153.645 197.569 154.653 195.158 154.653 193.942C154.652 193.03 154.453 192.156 154.098 191.512C153.744 190.867 153.264 190.504 152.762 190.503Z" fill="#6786AC"/>
<path d="M151.093 198.705H152.189V216.092H151.093V198.705ZM153.249 198.705H154.345V216.092H153.249V198.705ZM138.351 250.116C137.519 247.677 137.073 244.867 137.062 241.996C137.063 234.965 139.539 228.993 142.824 228.105L142.985 230.078C140.233 230.821 138.159 235.945 138.159 241.996C138.171 244.5 138.561 246.948 139.286 249.076L138.351 250.116Z" fill="#6786AC"/>
<path d="M148.297 251.052L147.331 250.107C147.868 248.276 148.148 246.231 148.146 244.155C148.146 240.401 146.926 237.228 145.955 235.297C145.74 236.874 145.286 238.118 144.681 238.684C144.449 238.916 144.186 239.024 143.922 238.995C143.658 238.965 143.404 238.8 143.19 238.518C142.349 237.424 142.052 234.769 142.353 231.043L143.437 231.333C143.164 234.709 143.477 236.44 143.827 236.896C143.878 236.965 143.939 237.003 144.002 237.005C144.066 237.008 144.128 236.975 144.18 236.91C144.574 236.541 144.999 235.209 144.999 233.158V230.926L145.912 232.415C146.914 234.046 149.242 238.457 149.242 244.155C149.244 246.561 148.919 248.93 148.297 251.052Z" fill="#6786AC"/>
<path d="M143.246 263.501C141.861 263.499 140.498 262.891 139.269 261.729C138.041 260.566 136.985 258.883 136.19 256.822C135.394 254.76 134.883 252.381 134.699 249.884C134.516 247.388 134.665 244.847 135.134 242.478L136.165 243.156C135.748 245.258 135.621 247.514 135.793 249.727C135.965 251.939 136.433 254.041 137.155 255.85C137.876 257.658 138.83 259.118 139.933 260.102C141.036 261.085 142.254 261.563 143.482 261.492C144.709 261.422 145.909 260.807 146.976 259.699C148.043 258.592 148.944 257.026 149.602 255.139C150.26 253.251 150.654 251.1 150.75 248.872C150.846 246.644 150.64 244.407 150.152 242.357L151.157 241.562C151.726 243.949 151.959 246.557 151.837 249.15C151.714 251.742 151.239 254.239 150.455 256.415C149.67 258.591 148.6 260.377 147.342 261.614C146.084 262.851 144.676 263.499 143.246 263.501Z" fill="#6786AC"/>
<path d="M144.995 257.729L144.139 256.484C144.449 255.777 144.819 254.695 144.819 253.552C144.819 251.936 144.121 249.707 143.585 248.277C143.049 249.708 142.35 251.94 142.35 253.552C142.35 254.686 142.715 255.76 143.021 256.462L142.162 257.701C141.559 256.319 141.254 254.923 141.254 253.552C141.254 250.303 143.08 246.143 143.158 245.967L143.585 245.004L144.011 245.967C144.089 246.143 145.915 250.303 145.915 253.552C145.915 254.933 145.605 256.339 144.995 257.729ZM311.816 238.794C306.823 237.173 302.218 232.83 298.611 226.343C295.004 219.855 292.564 211.527 291.615 202.461L292.692 202.09C293.6 210.759 295.932 218.721 299.381 224.925C302.83 231.128 307.233 235.28 312.007 236.83L311.816 238.794ZM321.181 238.594L320.964 236.639C325.616 234.92 329.883 230.723 333.222 224.582C336.561 218.441 338.822 210.633 339.717 202.149L340.794 202.523C339.858 211.395 337.494 219.562 334.002 225.985C330.509 232.407 326.047 236.796 321.181 238.594ZM304.365 215.579L310.785 186.043L320.04 202.883L304.365 215.579ZM311.19 189.601L306.372 211.771L318.137 202.241L311.19 189.601ZM321.49 200.377L320.471 199.643L325.596 176.06L313.102 186.18L312.656 184.358L327.603 172.252L321.49 200.377Z" fill="#6786AC"/>
<path d="M306.756 205.361L316.626 197.37L317.072 199.192L307.202 207.184L306.756 205.361Z" fill="#6786AC"/>
<path d="M308.654 196.624L313.887 192.387L314.333 194.209L309.1 198.446L308.654 196.624Z" fill="#6786AC"/>
<path d="M339.551 184.302C338.609 176.784 336.589 169.854 333.696 164.22C330.802 158.586 327.139 154.449 323.08 152.23L322.689 152.018L322.69 143.999C322.688 141.347 322.108 138.804 321.078 136.928C320.047 135.053 318.649 133.998 317.192 133.995H316.008C314.55 133.998 313.153 135.053 312.122 136.929C311.091 138.804 310.511 141.347 310.51 144V151.644L310.101 151.84C305.874 153.874 302.033 157.974 298.995 163.696C295.957 169.418 293.837 176.544 292.866 184.301L291.797 183.861C292.797 175.876 294.96 168.528 298.06 162.589C301.16 156.651 305.082 152.341 309.414 150.114V144C309.416 140.818 310.111 137.769 311.347 135.519C312.584 133.27 314.26 132.005 316.008 132.001H317.192C318.94 132.005 320.616 133.27 321.852 135.519C323.089 137.769 323.784 140.818 323.786 144L323.785 150.539C327.943 152.946 331.683 157.287 334.635 163.132C337.588 168.976 339.651 176.122 340.62 183.862L339.551 184.302Z" fill="#6786AC"/>
<path d="M316.831 161.669H316.366C315.622 161.667 314.909 161.129 314.383 160.172C313.857 159.215 313.561 157.918 313.56 156.565V145.73C313.561 144.377 313.857 143.08 314.383 142.123C314.909 141.166 315.622 140.628 316.366 140.626H316.831C317.575 140.628 318.288 141.166 318.814 142.123C319.34 143.08 319.636 144.377 319.637 145.73V156.565C319.636 157.918 319.34 159.216 318.814 160.173C318.288 161.13 317.575 161.668 316.831 161.669V161.669ZM316.366 142.62C315.913 142.621 315.478 142.949 315.158 143.532C314.837 144.115 314.657 144.905 314.657 145.73V156.565C314.657 157.389 314.837 158.18 315.158 158.763C315.478 159.346 315.913 159.674 316.366 159.675H316.831C317.285 159.674 317.719 159.346 318.039 158.763C318.36 158.18 318.54 157.389 318.54 156.565V145.73C318.54 144.906 318.36 144.115 318.039 143.532C317.719 142.949 317.285 142.621 316.831 142.62L316.366 142.62ZM316.908 245.968H316.442C315.698 245.967 314.985 245.428 314.459 244.472C313.933 243.515 313.637 242.217 313.637 240.864V230.029C313.637 228.676 313.933 227.378 314.459 226.421C314.985 225.465 315.698 224.926 316.442 224.925H316.908C317.651 224.926 318.364 225.465 318.89 226.421C319.416 227.378 319.712 228.676 319.713 230.029V240.864C319.712 242.217 319.416 243.515 318.89 244.472C318.364 245.428 317.651 245.967 316.908 245.968ZM316.442 226.919C315.989 226.92 315.554 227.248 315.234 227.831C314.913 228.414 314.733 229.204 314.733 230.029V240.864C314.733 241.689 314.913 242.479 315.234 243.062C315.554 243.645 315.989 243.973 316.442 243.974H316.908C317.361 243.973 317.795 243.645 318.115 243.062C318.436 242.479 318.616 241.689 318.617 240.864V230.029C318.616 229.204 318.436 228.414 318.115 227.831C317.795 227.248 317.361 226.92 316.908 226.919H316.442ZM342.467 198.824H336.512C335.769 198.823 335.056 198.285 334.53 197.328C334.004 196.371 333.708 195.074 333.707 193.72V192.873C333.708 191.52 334.004 190.222 334.53 189.266C335.056 188.309 335.769 187.771 336.512 187.769H342.467C343.211 187.771 343.924 188.309 344.45 189.266C344.976 190.222 345.272 191.52 345.273 192.873V193.72C345.272 195.074 344.976 196.371 344.45 197.328C343.924 198.285 343.211 198.823 342.467 198.824ZM336.512 189.763C336.059 189.764 335.625 190.092 335.304 190.675C334.984 191.258 334.804 192.049 334.803 192.873V193.72C334.804 194.545 334.984 195.335 335.304 195.918C335.625 196.501 336.059 196.829 336.512 196.83H342.467C342.921 196.829 343.355 196.501 343.675 195.918C343.996 195.335 344.176 194.545 344.176 193.72V192.873C344.176 192.049 343.996 191.258 343.675 190.675C343.355 190.092 342.921 189.764 342.467 189.763H336.512ZM296.096 198.824H290.141C289.398 198.823 288.684 198.285 288.159 197.328C287.633 196.371 287.337 195.074 287.336 193.72V192.873C287.337 191.52 287.633 190.222 288.158 189.266C288.684 188.309 289.397 187.771 290.141 187.769H296.096C296.84 187.77 297.553 188.309 298.079 189.265C298.605 190.222 298.901 191.52 298.901 192.873V193.72C298.901 195.074 298.605 196.371 298.079 197.328C297.553 198.285 296.84 198.823 296.096 198.824ZM290.141 189.763C289.688 189.764 289.254 190.092 288.933 190.675C288.613 191.258 288.433 192.049 288.432 192.873V193.72C288.433 194.545 288.613 195.335 288.933 195.918C289.254 196.501 289.688 196.829 290.141 196.83H296.096C296.549 196.829 296.984 196.501 297.304 195.918C297.625 195.335 297.805 194.545 297.805 193.72V192.873C297.805 192.049 297.625 191.258 297.304 190.675C296.984 190.092 296.549 189.764 296.096 189.763H290.141Z" fill="#6786AC"/>
<path d="M297.18 188.979L296.092 188.74C296.639 180.431 298.698 172.695 301.942 166.763C305.186 160.831 309.427 157.044 313.99 156.006L314.127 157.985C309.806 158.968 305.79 162.553 302.719 168.17C299.648 173.787 297.698 181.112 297.18 188.979ZM314.042 230.599C309.519 229.579 305.31 225.863 302.069 220.033C298.829 214.203 296.74 206.585 296.128 198.368L297.214 198.101C297.793 205.882 299.771 213.095 302.839 218.615C305.908 224.136 309.894 227.653 314.176 228.619L314.042 230.599ZM319.138 230.603L319.005 228.623C323.286 227.665 327.274 224.155 330.345 218.642C333.416 213.129 335.398 205.922 335.982 198.144L337.068 198.413C336.451 206.627 334.358 214.239 331.115 220.061C327.871 225.884 323.66 229.591 319.138 230.603ZM336.015 188.909C335.488 181.065 333.537 173.765 330.473 168.165C327.409 162.565 323.406 158.984 319.097 157.99L319.236 156.012C323.786 157.062 328.014 160.843 331.25 166.758C334.486 172.672 336.546 180.381 337.103 188.665L336.015 188.909ZM320.105 129.284H319.009C319.009 128.122 318.755 127.007 318.303 126.184C317.851 125.362 317.239 124.901 316.6 124.901C315.961 124.901 315.348 125.362 314.896 126.184C314.444 127.007 314.191 128.122 314.191 129.284H313.094C313.094 127.593 313.464 125.97 314.121 124.774C314.779 123.578 315.67 122.906 316.6 122.906C317.529 122.906 318.421 123.578 319.078 124.774C319.736 125.97 320.105 127.593 320.105 129.284ZM307.99 174.155C307.99 174.519 307.93 174.875 307.819 175.178C307.708 175.481 307.55 175.716 307.365 175.856C307.18 175.995 306.977 176.032 306.781 175.961C306.585 175.89 306.404 175.714 306.263 175.457C306.122 175.2 306.025 174.872 305.986 174.515C305.947 174.158 305.967 173.788 306.044 173.452C306.12 173.115 306.25 172.828 306.416 172.626C306.583 172.423 306.778 172.316 306.978 172.316C307.246 172.316 307.504 172.509 307.693 172.854C307.883 173.199 307.989 173.667 307.99 174.155Z" fill="#6786AC"/>
<path d="M327.611 212.098C327.611 212.462 327.551 212.818 327.44 213.121C327.329 213.423 327.171 213.659 326.986 213.799C326.802 213.938 326.598 213.974 326.402 213.904C326.206 213.833 326.026 213.657 325.884 213.4C325.743 213.143 325.646 212.815 325.607 212.458C325.568 212.101 325.588 211.731 325.665 211.394C325.741 211.058 325.871 210.771 326.037 210.569C326.204 210.366 326.399 210.258 326.599 210.258C326.867 210.258 327.125 210.452 327.314 210.797C327.504 211.142 327.611 211.61 327.611 212.098ZM370.706 266.214L370.309 265.454C369.77 264.424 357.115 240.059 357.115 226.708C357.115 220.15 358.547 213.86 361.096 209.223C363.645 204.586 367.101 201.98 370.706 201.98C374.31 201.98 377.767 204.586 380.316 209.223C382.864 213.86 384.296 220.15 384.296 226.708C384.296 240.059 371.642 264.424 371.103 265.454L370.706 266.214ZM370.706 203.974C367.393 203.981 364.217 206.379 361.875 210.641C359.533 214.903 358.215 220.681 358.211 226.708C358.211 238.006 368.534 259.01 370.706 263.304C372.878 259.01 383.2 238.002 383.2 226.708C383.197 220.681 381.879 214.902 379.537 210.64C377.194 206.378 374.018 203.981 370.706 203.974Z" fill="#6786AC"/>
<path d="M370.714 238.233C369.419 238.234 368.155 237.519 367.09 236.183C366.024 234.846 365.207 232.951 364.748 230.749C364.289 228.547 364.208 226.144 364.518 223.857C364.827 221.57 365.512 219.509 366.481 217.947C367.45 216.386 368.657 215.398 369.942 215.115C371.227 214.831 372.529 215.266 373.675 216.362C374.82 217.457 375.756 219.161 376.357 221.247C376.957 223.333 377.195 225.702 377.038 228.04C376.845 230.847 376.097 233.431 374.933 235.307C373.769 237.183 372.269 238.223 370.714 238.233ZM370.699 217.023C369.682 217.027 368.688 217.564 367.835 218.571C366.982 219.577 366.308 221.011 365.891 222.698C365.475 224.385 365.336 226.256 365.49 228.084C365.643 229.912 366.084 231.621 366.758 233.004C367.433 234.388 368.312 235.389 369.292 235.885C370.271 236.381 371.308 236.353 372.279 235.803C373.249 235.254 374.112 234.206 374.763 232.786C375.414 231.366 375.827 229.634 375.95 227.798C376.119 225.269 375.729 222.723 374.867 220.716C374.004 218.71 372.74 217.408 371.35 217.096C371.134 217.047 370.917 217.023 370.699 217.023ZM389.204 344.874L370.984 329.656L353.01 344.521L333.457 327.673V242.345L353.096 259.266L357.971 257.875L358.14 259.845L352.933 261.331L334.553 245.495V326.411L353.019 342.322L370.987 327.463L389.186 342.665L403.921 329.406L404.407 331.194L389.204 344.874ZM410.047 325.5H408.951V243.982L389.257 261.704L382.59 258.655L382.857 256.72L389.133 259.59L410.047 240.772V325.5Z" fill="#6786AC"/>
<path d="M352.465 317.18H353.561V343.422H352.465V317.18ZM370.436 285.454H371.532V328.56H370.436V285.454ZM389.741 345.561H388.645V343.662H389.741V345.561ZM389.741 340.761H388.645V337.86H389.741V340.761ZM389.741 334.959H388.645V332.059H389.741V334.959ZM389.741 329.158H388.645V326.257H389.741V329.158ZM389.741 323.356H388.645V320.455H389.741V323.356ZM389.741 317.554H388.645V314.654H389.741V317.554ZM389.741 311.753H388.645V308.852H389.741V311.753ZM389.741 305.951H388.645V303.05H389.741V305.951ZM389.741 300.149H388.645V297.249H389.741V300.149ZM389.741 294.348H388.645V291.447H389.741V294.348ZM389.741 288.546H388.645V285.645H389.741V288.546ZM389.741 282.744H388.645V279.844H389.741V282.744ZM389.741 276.943H388.645V274.042H389.741V276.943ZM389.741 271.141H388.645V268.24H389.741V271.141ZM389.741 265.339H388.645V262.438H389.741V265.339ZM352.465 300.589H353.561V308.849H352.465V300.589Z" fill="#6786AC"/>
<path d="M300.611 90.4986L323.022 54.4434L346.506 92.2406L337.072 91.7699L333.797 102.592L322.764 91.7699L311.386 102.592L303.973 88.79L300.611 90.4986Z" fill="#8ED9EF"/>
<path d="M350.636 98.0966L349.75 96.9233L388.514 0L420 81.1434L419.105 82.2936L388.5 3.42299L350.636 98.0966Z" fill="#6786AC"/>
<path d="M352.412 203.24L351.71 201.709C352.116 201.092 352.52 200.472 352.92 199.848L353.633 201.362C353.229 201.992 352.822 202.618 352.412 203.24ZM354.839 199.456L354.115 197.959C354.514 197.322 354.908 196.682 355.3 196.037L356.034 197.517C355.64 198.167 355.241 198.813 354.839 199.456ZM357.215 195.549L356.47 194.087C356.859 193.43 357.244 192.771 357.626 192.109L358.382 193.553C357.997 194.221 357.608 194.886 357.215 195.549ZM359.534 191.528L358.768 190.102C359.147 189.427 359.523 188.749 359.895 188.069L360.672 189.475C360.296 190.162 359.917 190.846 359.534 191.528ZM361.793 187.394L361.006 186.007C361.375 185.313 361.74 184.617 362.102 183.919L362.9 185.287C362.535 185.992 362.166 186.694 361.793 187.394ZM363.99 183.152L363.182 181.804C363.541 181.092 363.896 180.379 364.247 179.663L365.065 180.99C364.71 181.713 364.352 182.433 363.99 183.152L363.99 183.152ZM366.122 178.8L365.294 177.493C365.642 176.764 365.985 176.032 366.325 175.299L367.163 176.583C366.82 177.324 366.473 178.062 366.122 178.8ZM368.186 174.34L367.338 173.077C367.674 172.329 368.006 171.58 368.333 170.83L369.192 172.069C368.861 172.827 368.526 173.584 368.186 174.34ZM370.178 169.773L369.31 168.555C369.634 167.79 369.954 167.023 370.268 166.256L371.146 167.448C370.829 168.223 370.506 168.999 370.178 169.773ZM372.095 165.096L371.206 163.928C371.518 163.144 371.824 162.36 372.125 161.576L373.023 162.718C372.719 163.511 372.409 164.303 372.095 165.096ZM373.93 160.312L373.022 159.198C373.319 158.396 373.61 157.594 373.897 156.793L374.816 157.88C374.524 158.695 374.229 159.506 373.93 160.312ZM375.678 155.42L374.749 154.361C375.026 153.556 375.305 152.729 375.578 151.904L376.517 152.932C376.242 153.766 375.962 154.595 375.678 155.42ZM377.332 150.416L376.382 149.42C376.645 148.587 376.905 147.75 377.16 146.909L378.12 147.873C377.861 148.725 377.599 149.573 377.332 150.416ZM378.88 145.301L377.91 144.373C378.156 143.523 378.396 142.668 378.632 141.809L379.613 142.7C379.374 143.572 379.13 144.438 378.88 145.301ZM380.314 140.071L379.323 139.219C379.549 138.351 379.768 137.479 379.982 136.603L380.984 137.411C380.767 138.303 380.543 139.189 380.314 140.071ZM381.618 134.724L380.606 133.959C380.746 133.344 380.883 132.73 381.015 132.118L381.195 131.286L382.216 132.011L382.035 132.85C381.9 133.472 381.761 134.097 381.618 134.724ZM382.788 129.289L381.761 128.59C381.947 127.688 382.129 126.784 382.308 125.878L383.339 126.554C383.159 127.468 382.975 128.379 382.788 129.289ZM383.873 123.807L382.837 123.154C383.01 122.244 383.181 121.332 383.348 120.42L384.388 121.051C384.219 121.97 384.047 122.889 383.873 123.807ZM384.885 118.287L383.842 117.677C384.004 116.76 384.162 115.843 384.318 114.926L385.365 115.516C385.208 116.439 385.048 117.363 384.885 118.287ZM385.83 112.729L384.78 112.159C384.932 111.233 385.081 110.307 385.226 109.384L386.28 109.934C386.133 110.865 385.983 111.796 385.83 112.729ZM386.715 107.131L385.658 106.599C385.8 105.666 385.939 104.735 386.075 103.807L387.134 104.322C386.997 105.256 386.858 106.192 386.715 107.131ZM387.54 101.506L386.478 101.009C386.611 100.07 386.741 99.1347 386.868 98.203L387.932 98.6831C387.804 99.6201 387.673 100.561 387.54 101.506ZM388.31 95.8544L387.244 95.3906C387.368 94.4464 387.489 93.5071 387.607 92.5728L388.675 93.0203C388.556 93.9594 388.434 94.9041 388.31 95.8544ZM389.027 90.1807L387.957 89.7503C388.073 88.8005 388.185 87.8575 388.295 86.9213L389.367 87.3368C389.257 88.2779 389.144 89.2259 389.027 90.1807ZM389.694 84.4886L388.621 84.0875C388.728 83.1327 388.833 82.1865 388.935 81.249L390.01 81.6352C389.908 82.577 389.803 83.5281 389.694 84.4886ZM390.314 78.7772L389.237 78.4066C389.337 77.4464 389.434 76.4975 389.528 75.5598L390.606 75.9166C390.512 76.8586 390.415 77.8122 390.314 78.7772ZM390.886 73.0513L389.806 72.7093C389.899 71.7424 389.989 70.7907 390.074 69.8542L391.155 70.1827C391.069 71.1235 390.979 72.0797 390.886 73.0513ZM391.414 67.3105L390.331 66.995C390.417 66.0216 390.499 65.0679 390.577 64.1341L391.66 64.4343C391.582 65.3723 391.499 66.331 391.414 67.3105ZM391.895 61.5556L390.81 61.2691C390.889 60.2843 390.963 59.3282 391.033 58.4009L392.119 58.6729C392.049 59.6041 391.974 60.565 391.895 61.5556ZM392.332 55.7858L391.244 55.5302C391.316 54.5279 391.382 53.5696 391.444 52.6551L392.531 52.8973C392.47 53.8147 392.403 54.7775 392.331 55.7858H392.332ZM392.719 50.0037L391.63 49.7793C391.695 48.7332 391.753 47.7712 391.803 46.8987L392.893 47.1061C392.843 47.9844 392.785 48.9522 392.719 50.0037ZM393.052 44.2035L391.961 44.0168C392.056 42.1722 392.097 41.1449 392.098 41.1348L393.191 41.2787C393.189 41.3208 393.149 42.3346 393.052 44.2035ZM406.201 98.9449L395.791 85.3791L396.43 83.7579L405.882 96.0767L410.148 83.4261L418.877 91.411L418.384 93.1929L410.556 86.0311L406.201 98.9449ZM359.935 90.3744L359.429 88.6063L376.206 72.7032L382.692 86.1025L385.855 83.6509L386.285 85.4861L382.394 88.5019L375.951 75.1939L359.935 90.3744ZM292.575 96.4415L291.852 94.9435L321.055 48.2331L347.478 93.8713L346.723 95.3174L321.026 50.9338L292.575 96.4415Z" fill="#6786AC"/>
<path d="M334.013 103.94L322.758 92.9L311.277 103.82L303.823 89.9412L296.221 94.7522L295.861 92.8681L304.12 87.6415L311.491 101.366L322.766 90.6425L333.577 101.246L336.768 90.703L346.704 92.8199L346.576 94.8005L337.373 92.8395L334.013 103.94ZM364.172 137.669H346.122V135.675H363.049C362.911 133.187 362.271 130.88 361.252 129.201C360.233 127.522 358.908 126.591 357.534 126.588C357.249 126.592 356.964 126.637 356.683 126.721L356.047 126.9L356.053 125.591C356.053 121.852 355.327 118.233 354.002 115.374C352.677 112.515 350.84 110.6 348.814 109.968C346.788 109.336 344.705 110.027 342.933 111.919C341.16 113.811 339.812 116.782 339.127 120.308L338.975 121.092L338.523 120.96C338.097 120.834 337.666 120.771 337.234 120.771C331.543 120.771 329.357 128.291 329.179 135.675H337.783V137.669H328.071V136.672C328.071 128.416 330.471 118.776 337.234 118.776C337.574 118.777 337.914 118.811 338.253 118.88C339.091 115.122 340.608 111.995 342.554 110.016C344.5 108.036 346.758 107.322 348.957 107.99C351.156 108.658 353.164 110.67 354.651 113.693C356.137 116.716 357.014 120.57 357.135 124.62C357.268 124.603 357.401 124.594 357.534 124.594C359.294 124.598 360.981 125.871 362.226 128.136C363.47 130.4 364.17 133.47 364.172 136.672L364.172 137.669ZM343.107 66.9593V65.9596C343.107 60.5328 344.688 54.1949 349.144 54.1949C349.317 54.1949 349.492 54.2086 349.667 54.2366C350.256 51.7591 351.296 49.7268 352.612 48.4824C353.929 47.238 355.441 46.8576 356.893 47.4054C358.346 47.9531 359.65 49.3954 360.587 51.4892C361.523 53.583 362.034 56.2001 362.033 58.8993H360.937C360.937 56.6017 360.491 54.3781 359.677 52.6214C358.863 50.8647 357.734 49.688 356.49 49.2995C355.245 48.911 353.965 49.3356 352.876 50.4982C351.787 51.6608 350.959 53.4867 350.538 55.6529L350.385 56.4372L349.934 56.3049C349.673 56.2283 349.409 56.1896 349.144 56.1892C345.757 56.1892 344.397 60.5513 344.223 64.9606L354.319 64.924L354.321 66.9183L343.107 66.9593ZM349.59 70.5846H360.563V72.5789H349.59V70.5846ZM417.589 62.5427L416.674 60.1677L417.571 59.0226L418.487 61.3976L417.589 62.5427ZM415.759 57.7919L414.844 55.4168L415.741 54.2721L416.656 56.6471L415.759 57.7919ZM413.928 53.041L413.013 50.666L413.911 49.5212L414.826 51.8967L413.928 53.041ZM412.098 48.2909L411.183 45.9159L412.08 44.7707L412.995 47.1458L412.098 48.2909ZM410.267 43.5401L409.352 41.165L410.25 40.0203L411.165 42.3957L410.267 43.5401ZM408.437 38.7899L407.522 36.4145L408.419 35.2694L409.335 37.6445L408.437 38.7899ZM406.607 34.0391L405.691 31.664L406.589 30.5189L407.504 32.894L406.607 34.0391ZM404.776 29.289L403.861 26.9135L404.759 25.7684L405.674 28.1435L404.776 29.289ZM402.946 24.5381L402.031 22.163L402.928 21.0176L403.844 23.3926L402.946 24.5381ZM401.116 19.7873L400.2 17.4122L401.098 16.2671L402.013 18.6422L401.116 19.7873ZM399.285 15.0371L398.37 12.6617L399.268 11.5166L400.183 13.8917L399.285 15.0371ZM352.001 184.762L351.276 183.267C366.382 158.987 372.312 134.447 372.37 134.202L373.377 134.993C373.318 135.242 367.289 160.19 352.001 184.762V184.762Z" fill="#6786AC"/>
<path d="M373.852 129.988L375.104 125.777L376.068 126.726L374.816 130.937L373.852 129.988Z" fill="#6786AC"/>
<path d="M309.424 131.368L278.584 88.5143L245.269 126.66L244.686 124.972L278.645 86.0889L310.089 129.783L309.424 131.368Z" fill="#6786AC"/>
<path d="M280.92 136.428L267.706 121.947L250.897 126.962L253.024 115.686L254.061 116.333L252.529 124.454L267.926 119.861L280.849 134.022L291.017 119.944L301.972 125.531L301.676 127.451L291.246 122.133L280.92 136.428ZM174.616 218.571C172.897 210.509 171.838 195.523 178.346 189.064C176.266 184.565 175.684 177.918 176.992 172.745C177.402 171.189 177.993 169.815 178.723 168.716C179.454 167.616 180.307 166.819 181.224 166.378C182.189 165.859 183.204 165.728 184.2 165.993C185.195 166.258 186.147 166.913 186.99 167.913L186.38 169.572C185.669 168.732 184.867 168.183 184.028 167.963C183.189 167.743 182.334 167.857 181.522 168.298C180.758 168.66 180.046 169.32 179.436 170.232C178.826 171.143 178.331 172.285 177.987 173.578C176.765 178.416 177.454 184.755 179.627 188.651L180.191 189.663L179.471 190.267C172.967 195.723 174.001 210.172 175.638 217.85L174.616 218.571ZM210.508 209.375C209.333 206.078 207.516 203.79 205.767 203.404C205.21 203.258 204.642 203.343 204.106 203.654C203.569 203.964 203.079 204.491 202.67 205.196L201.919 203.742C202.443 202.834 203.074 202.154 203.763 201.752C204.452 201.351 205.182 201.239 205.899 201.425C207.993 201.886 210.06 204.452 211.428 208.29L210.508 209.375Z" fill="#6786AC"/>
<path d="M202.489 231.539C200.82 231.539 198.859 230.865 196.594 229.07L197.032 227.241C202.858 231.861 206.423 228.473 208.029 226.043C210.376 222.493 211.512 216.641 210.857 211.482C210.293 207.048 208.536 203.964 205.908 202.797L205.216 202.491L205.556 201.352C206.66 197.659 208.671 185.818 208.523 179.324C208.251 167.361 204.429 159.631 198.788 159.631C197.804 159.65 196.833 160.032 195.933 160.755L195.251 161.285L195.173 159.943C194.877 154.844 193.255 148.95 189.661 148.95C189.617 148.95 189.573 148.951 189.529 148.953C187.584 149.03 186.016 150.253 184.995 152.488C183.936 154.806 183.529 158.047 183.849 161.615L182.768 161.937C182.395 157.79 182.887 153.981 184.152 151.213C185.382 148.52 187.233 147.049 189.504 146.959C192.948 146.814 195.509 151.293 196.167 158.456C197.01 157.922 197.896 157.645 198.788 157.637C201.761 157.637 204.358 159.588 206.297 163.28C208.32 167.13 209.468 172.65 209.618 179.241C209.764 185.612 208.022 196.418 206.821 201.195C209.477 202.751 211.321 206.282 211.925 211.033C212.671 216.908 211.387 223.557 208.73 227.576C206.973 230.198 204.761 231.603 202.489 231.539Z" fill="#6786AC"/>
<path d="M191.434 251.198L195.433 172.404L196.525 172.588L192.525 251.382L191.434 251.198Z" fill="#6786AC"/>
<path d="M183.555 204.367L184.181 202.73L193.841 214.965L193.215 216.602L183.555 204.367Z" fill="#6786AC"/>
<path d="M212.137 247.304C210.846 244.344 208.2 243.611 206.239 245.67L205.691 243.942C208.104 241.41 211.381 242.362 212.995 246.064L212.137 247.304Z" fill="#6786AC"/>
<path d="M213.141 264.96C208.825 264.96 205.543 262.253 204.066 257.425C203.013 253.982 203.073 249.932 204.223 246.854C205.305 243.956 207.135 242.442 209.316 242.586C209.124 240.128 209.168 237.628 209.447 235.198C210.092 230.953 211.39 227.834 213.104 226.415C214.828 224.987 216.943 225.284 219.22 227.271C220.129 228.161 221.01 229.138 221.861 230.198C222.654 227.479 224.228 223.061 227.217 222.964C228.671 222.917 230.736 223.808 232.164 226.451C232.665 227.382 233.053 228.493 233.304 229.712C233.555 230.931 233.664 232.232 233.624 233.532L232.529 233.463C232.566 232.433 232.483 231.401 232.285 230.434C232.088 229.466 231.78 228.586 231.383 227.85C230.197 225.655 228.411 224.915 227.237 224.959C224.825 225.037 223.518 228.613 222.558 232.101L222.276 233.123L221.758 232.476C221.08 231.63 219.452 229.685 218.746 229.069C216.742 227.321 214.997 227.039 213.558 228.23C212.145 229.4 211.06 232.063 210.503 235.729C210.357 236.693 210.085 240.957 210.549 243.366L210.843 244.895L209.96 244.684C207.859 244.182 206.098 245.381 205.129 247.975C204.214 250.425 204.173 253.675 205.024 256.455C206.383 260.899 209.621 263.265 213.907 262.936L213.952 264.929C213.678 264.95 213.408 264.96 213.141 264.96ZM246.356 210.518L230.794 185.022L233.231 169.172L234.287 169.709L232.033 184.368L247.09 209.036L246.356 210.518Z" fill="#6786AC"/>
<path d="M247.276 229.093H246.18V209.546L252.466 186.45L247.078 153.474L248.129 152.906L253.64 186.633L247.276 210.012V229.093Z" fill="#6786AC"/>
<path d="M253.486 187.14L252.61 185.941C254.561 181.22 259.156 170.162 259.671 169.46L260.328 171.055L260.342 171.035C259.9 171.751 255.902 181.293 253.486 187.14ZM266.896 186.903C265.189 186.876 263.511 186.089 262.009 184.611L262.577 182.905C262.803 183.152 268.176 188.868 272.692 180.072C274.795 175.976 275.784 169.817 275.275 163.998C275.043 161.232 274.46 158.601 273.572 156.317C272.684 154.032 271.516 152.155 270.159 150.836C263.984 144.646 260.617 154.594 260.477 155.021L259.535 154.001C259.574 153.88 263.573 141.957 270.689 149.089C272.192 150.553 273.487 152.634 274.471 155.167C275.455 157.701 276.101 160.617 276.357 163.684C276.919 170.097 275.821 176.898 273.493 181.434C271.315 185.676 268.927 186.902 266.896 186.903ZM220.639 189.762C220.572 189.674 213.937 180.813 217.637 165.897C221.364 150.872 229.51 156.313 229.592 156.37L229.202 158.234C228.907 158.032 221.933 153.424 218.636 166.717C215.313 180.117 221.032 187.82 221.277 188.141L220.639 189.762Z" fill="#6786AC"/>
<path d="M228.376 209.504C225.96 209.505 223.163 208.013 220.627 202.948C216.652 195.01 218.448 185.44 218.527 185.036L219.56 185.701L219.044 185.369L219.561 185.699C219.492 186.058 217.913 194.567 221.437 201.605C226.951 212.618 233.655 205.077 233.937 204.75L234.526 206.432C232.653 208.39 230.537 209.447 228.376 209.504ZM262.271 214.315C260.344 214.27 258.498 212.889 257.11 210.455L257.915 209.101C258.058 209.378 261.498 215.882 266.552 209.645C271.594 203.422 268.499 192.804 268.365 192.355L269.327 191.399C269.365 191.525 273.038 204.049 267.167 211.295C265.348 213.54 263.691 214.315 262.271 214.315Z" fill="#6786AC"/>
<path d="M251.954 215.856L251.851 213.87C257.509 212.906 259.404 202.876 259.482 202.45L260.523 203.075C260.436 203.551 258.336 214.768 251.954 215.856ZM241.172 224.777C236.28 223.977 233.585 219.452 232.184 215.797C231.269 213.44 230.629 210.767 230.303 207.943L231.385 207.617C231.437 208.179 232.756 221.399 241.27 222.791L241.172 224.777ZM169.021 219.534H170.118V267.893H169.021V219.534ZM254.515 256.745C254.072 256.744 253.64 256.506 253.272 256.058C252.904 255.611 252.617 254.975 252.447 254.23C252.278 253.486 252.234 252.667 252.32 251.878C252.406 251.088 252.62 250.362 252.933 249.792C253.246 249.223 253.644 248.835 254.079 248.678C254.513 248.521 254.963 248.601 255.372 248.91C255.781 249.218 256.13 249.74 256.376 250.409C256.622 251.079 256.753 251.866 256.754 252.672C256.753 253.752 256.517 254.787 256.097 255.55C255.678 256.314 255.109 256.743 254.515 256.745ZM254.515 250.594C254.289 250.594 254.068 250.716 253.881 250.944C253.693 251.172 253.546 251.497 253.46 251.877C253.374 252.256 253.351 252.674 253.395 253.077C253.439 253.48 253.548 253.851 253.708 254.141C253.868 254.432 254.071 254.63 254.293 254.71C254.514 254.79 254.744 254.749 254.952 254.592C255.161 254.434 255.339 254.168 255.465 253.826C255.59 253.485 255.657 253.083 255.657 252.672C255.657 252.121 255.537 251.593 255.322 251.203C255.108 250.813 254.818 250.594 254.515 250.594ZM272.796 246.375C272.199 246.375 271.615 246.053 271.119 245.45C270.622 244.846 270.235 243.989 270.007 242.985C269.778 241.982 269.719 240.877 269.835 239.812C269.951 238.747 270.239 237.768 270.661 237C271.083 236.232 271.621 235.709 272.206 235.497C272.792 235.285 273.399 235.393 273.95 235.809C274.502 236.225 274.973 236.929 275.305 237.832C275.637 238.735 275.814 239.797 275.814 240.883C275.813 242.339 275.495 243.735 274.929 244.765C274.363 245.794 273.596 246.373 272.796 246.375ZM272.796 237.385C272.415 237.385 272.044 237.59 271.728 237.975C271.411 238.359 271.165 238.905 271.019 239.544C270.874 240.183 270.836 240.887 270.91 241.565C270.984 242.244 271.167 242.867 271.436 243.356C271.705 243.845 272.047 244.179 272.42 244.314C272.793 244.449 273.18 244.379 273.531 244.115C273.882 243.85 274.182 243.402 274.394 242.826C274.605 242.251 274.718 241.575 274.718 240.883C274.717 239.956 274.514 239.067 274.154 238.411C273.794 237.755 273.305 237.387 272.796 237.385ZM237.447 151.324L236.369 150.972C236.383 150.821 237.958 135.899 247.02 135.367C256.029 134.839 258.783 148.182 258.81 148.317L257.778 148.992C257.679 148.499 255.249 136.866 247.055 137.36C238.871 137.841 237.461 151.189 237.447 151.324V151.324ZM226.568 242.856L226.09 241.062C226.151 241.007 232.339 235.602 242.777 231.056C252.398 226.864 267.721 222.553 286.084 225.811L285.977 227.796C267.766 224.564 252.572 228.84 243.032 232.995C232.709 237.492 226.628 242.803 226.568 242.856Z" fill="#6786AC"/>
<path d="M226.072 180.787L226.576 179.017L231.663 183.811L231.159 185.582L226.072 180.787Z" fill="#6786AC"/>
<path d="M335.591 143.996H354.324V145.99H335.591V143.996ZM278.378 290.732H279.475V313.245H278.378V290.732ZM206.194 338.942L205.23 336.631L206.103 335.425L207.067 337.736L206.194 338.942ZM204.266 334.321L203.302 332.01L204.175 330.804L205.139 333.115L204.266 334.321ZM202.338 329.7L201.374 327.389L202.247 326.183L203.211 328.494L202.338 329.7ZM200.41 325.079L199.446 322.768L200.319 321.562L201.283 323.872L200.41 325.079ZM198.482 320.457L197.518 318.147L198.391 316.941L199.356 319.251L198.482 320.457ZM196.555 315.836L195.591 313.526L196.464 312.32L197.428 314.63L196.555 315.836ZM194.627 311.215L193.663 308.905L194.536 307.699L195.5 310.009L194.627 311.215ZM192.699 306.594L191.735 304.283L192.608 303.077L193.572 305.388L192.699 306.594ZM149.338 303.781L148.441 302.633L149.359 300.26L150.255 301.408L149.338 303.781ZM190.771 301.973L189.807 299.662L190.68 298.456L191.644 300.767L190.771 301.973ZM151.172 299.035L150.275 297.887L151.193 295.515L152.089 296.662L151.172 299.035ZM188.843 297.352L187.879 295.041L188.752 293.835L189.716 296.146L188.843 297.352ZM153.006 294.289L152.11 293.141L153.027 290.768L153.923 291.916L153.006 294.289ZM186.915 292.731L185.951 290.42L186.824 289.214L187.788 291.525L186.915 292.731ZM154.84 289.543L153.944 288.396L154.861 286.023L155.757 287.17L154.84 289.543ZM184.987 288.11L184.023 285.799L184.896 284.593L185.86 286.903L184.987 288.11ZM156.674 284.797L155.777 283.649L156.695 281.277L157.591 282.424L156.674 284.797ZM183.059 283.489L182.095 281.178L182.968 279.972L183.932 282.282L183.059 283.489ZM158.508 280.051L157.611 278.904L158.529 276.53L159.425 277.678L158.508 280.051ZM181.131 278.867L180.167 276.557L181.04 275.351L182.004 277.661L181.131 278.867ZM160.342 275.305L159.446 274.158L160.363 271.785L161.259 272.932L160.342 275.305ZM179.203 274.246L178.239 271.936L179.112 270.73L180.076 273.04L179.203 274.246ZM162.176 270.559L161.28 269.412L162.196 267.039L163.093 268.185L162.176 270.559ZM177.275 269.625L176.311 267.315L177.184 266.109L178.148 268.419L177.275 269.625ZM164.01 265.813L163.114 264.666L164.031 262.293L164.927 263.44L164.01 265.813ZM175.347 265.004L174.384 262.694L175.256 261.488L176.22 263.798L175.347 265.004ZM165.844 261.067L164.948 259.92L165.865 257.547L166.761 258.694L165.844 261.067ZM173.42 260.383L172.455 258.073L173.329 256.867L174.292 259.177L173.42 260.383ZM167.678 256.321L166.782 255.174L167.699 252.801L168.595 253.948L167.678 256.321ZM171.491 255.762L170.528 253.452L171.401 252.245L172.365 254.556L171.491 255.762ZM169.512 251.575L168.616 250.428L169.59 247.906L170.437 249.935L169.813 250.796L169.512 251.575ZM296.097 198.825H290.142C289.398 198.823 288.685 198.285 288.159 197.328C287.633 196.372 287.337 195.074 287.337 193.721V192.873C287.337 191.52 287.633 190.223 288.159 189.266C288.685 188.309 289.398 187.771 290.142 187.769H296.097C296.84 187.771 297.554 188.309 298.079 189.266C298.605 190.223 298.901 191.52 298.902 192.873V193.721C298.901 195.074 298.605 196.372 298.079 197.328C297.554 198.285 296.84 198.823 296.097 198.825ZM290.142 189.764C289.689 189.765 289.254 190.093 288.934 190.675C288.614 191.258 288.433 192.049 288.433 192.873V193.721C288.433 194.545 288.613 195.336 288.934 195.919C289.254 196.502 289.689 196.83 290.142 196.831H296.097C296.55 196.83 296.984 196.502 297.305 195.919C297.625 195.336 297.806 194.545 297.806 193.721V192.873C297.806 192.049 297.625 191.258 297.305 190.675C296.984 190.093 296.55 189.765 296.097 189.764H290.142ZM316.908 245.969H316.442C315.699 245.967 314.986 245.429 314.46 244.472C313.934 243.515 313.638 242.218 313.637 240.865V230.029C313.638 228.676 313.934 227.379 314.46 226.422C314.986 225.465 315.699 224.927 316.442 224.925H316.908C317.652 224.927 318.365 225.465 318.891 226.422C319.417 227.379 319.713 228.676 319.713 230.029V240.865C319.713 242.218 319.417 243.515 318.891 244.472C318.365 245.429 317.652 245.967 316.908 245.969ZM316.442 226.92C315.989 226.92 315.555 227.248 315.235 227.831C314.914 228.414 314.734 229.205 314.733 230.029V240.865C314.734 241.689 314.914 242.479 315.235 243.062C315.555 243.645 315.989 243.973 316.442 243.974H316.908C317.361 243.973 317.796 243.645 318.116 243.062C318.437 242.479 318.617 241.689 318.617 240.865V230.029C318.617 229.205 318.437 228.414 318.116 227.831C317.796 227.248 317.361 226.92 316.908 226.92H316.442Z" fill="#6786AC"/>
</svg>
