<svg width="32" height="32" viewBox="0 0 32 32" fill="none" xmlns="http://www.w3.org/2000/svg">
<path d="M29.292 30.2249H9.02704C9.02704 30.2249 6.97954 29.8149 6.97954 29.0299C6.97454 28.1049 7.35204 27.6599 7.18954 26.8724C7.16373 26.7481 7.14785 26.6218 7.14204 26.4949C7.12862 26.2138 7.17023 25.9327 7.26454 25.6674C7.3232 25.4867 7.40829 25.3157 7.51704 25.1599C7.95355 24.5524 8.45854 23.997 9.02204 23.5049C9.05 23.4798 9.07262 23.4494 9.08856 23.4153C9.10451 23.3813 9.11344 23.3444 9.11484 23.3069C9.11624 23.2693 9.11007 23.2319 9.09671 23.1967C9.08334 23.1616 9.06305 23.1296 9.03704 23.1024L8.72454 22.7774C8.51204 22.5524 8.65704 22.2399 8.97204 22.1699C11.0945 21.6849 17.707 20.8499 21.742 22.1299C22.3114 22.3254 22.8482 22.6052 23.3345 22.9599C23.3352 22.9599 23.3358 22.9602 23.3363 22.9607C23.3368 22.9611 23.337 22.9618 23.337 22.9624C24.617 23.8649 25.597 25.0674 25.7545 25.1649C26.1345 25.3274 28.307 25.7074 29.4295 26.7499L29.452 26.7724C29.7309 27.0722 29.931 27.4364 30.0345 27.8324H30.037C30.074 27.9622 30.0974 28.0954 30.107 28.2299C30.1395 28.8024 30.0345 30.2249 29.292 30.2249Z" fill="#FF6161"/>
<path d="M8.93961 25.9853L8.71711 26.2103C8.62417 26.3031 8.51385 26.3767 8.39246 26.4269C8.27106 26.4771 8.14097 26.5029 8.00961 26.5028H7.14461L7.14211 26.4953C7.12869 26.2141 7.1703 25.933 7.26461 25.6678H8.80711C8.84403 25.6675 8.8802 25.6782 8.91101 25.6985C8.94183 25.7189 8.96588 25.7479 8.9801 25.782C8.99432 25.8161 8.99806 25.8536 8.99085 25.8898C8.98364 25.926 8.9658 25.9593 8.93961 25.9853ZM30.0346 27.8328C29.9446 27.8428 28.1196 28.0278 28.1471 26.9603C28.1921 26.6703 28.9896 26.7203 29.4521 26.7728C29.7309 27.0725 29.9311 27.4367 30.0346 27.8328ZM25.7546 25.1653C25.7546 25.1653 25.4396 25.3853 24.5671 24.8578C23.957 24.4338 23.4221 23.9108 22.9846 23.3103C22.9629 23.277 22.9505 23.2385 22.9485 23.1987C22.9465 23.159 22.9551 23.1195 22.9734 23.0841C22.9917 23.0488 23.0191 23.019 23.0526 22.9977C23.0862 22.9764 23.1249 22.9643 23.1646 22.9628C23.1796 22.9628 23.2446 22.9603 23.3371 22.9628C24.6171 23.8653 25.5971 25.0678 25.7546 25.1653ZM10.4134 23.955C10.3384 24.1833 10.4604 24.455 10.8816 24.5095C13.9316 24.868 22.8016 25.336 22.8016 25.336C23.3629 25.336 23.3386 24.961 23.2219 24.7593C22.9986 24.3733 21.9219 22.948 20.8431 22.6815C18.8431 22.1868 13.5791 22.144 11.7529 22.5533C11.1399 22.6908 10.6071 23.3573 10.4134 23.955Z" fill="#FCE8C0"/>
<path d="M18.0104 25.3681C17.9275 25.3681 17.848 25.3352 17.7894 25.2766C17.7308 25.218 17.6979 25.1385 17.6979 25.0556V22.3376C17.6979 22.2547 17.7308 22.1753 17.7894 22.1167C17.848 22.058 17.9275 22.0251 18.0104 22.0251C18.0932 22.0251 18.1727 22.058 18.2313 22.1167C18.2899 22.1753 18.3229 22.2547 18.3229 22.3376V25.0556C18.3229 25.1385 18.2899 25.218 18.2313 25.2766C18.1727 25.3352 18.0932 25.3681 18.0104 25.3681ZM19.5864 26.5966H18.8424C18.7595 26.5966 18.68 26.5637 18.6214 26.5051C18.5628 26.4465 18.5299 26.367 18.5299 26.2841C18.5299 26.2012 18.5628 26.1218 18.6214 26.0632C18.68 26.0045 18.7595 25.9716 18.8424 25.9716H19.5864C19.6692 25.9716 19.7487 26.0045 19.8073 26.0632C19.8659 26.1218 19.8989 26.2012 19.8989 26.2841C19.8989 26.367 19.8659 26.4465 19.8073 26.5051C19.7487 26.5637 19.6692 26.5966 19.5864 26.5966ZM13.7709 26.5966H13.0459C12.963 26.5966 12.8835 26.5637 12.8249 26.5051C12.7663 26.4465 12.7334 26.367 12.7334 26.2841C12.7334 26.2012 12.7663 26.1218 12.8249 26.0632C12.8835 26.0045 12.963 25.9716 13.0459 25.9716H13.7709C13.8537 25.9716 13.9332 26.0045 13.9918 26.0632C14.0504 26.1218 14.0834 26.2012 14.0834 26.2841C14.0834 26.367 14.0504 26.4465 13.9918 26.5051C13.9332 26.5637 13.8537 26.5966 13.7709 26.5966ZM12.9861 25.0171C12.9343 25.0171 12.8833 25.0043 12.8378 24.9797C12.7922 24.9551 12.7535 24.9195 12.725 24.8762C12.6966 24.8329 12.6794 24.7832 12.675 24.7316C12.6705 24.68 12.679 24.6281 12.6996 24.5806L13.7331 22.1881C13.766 22.1119 13.8278 22.0518 13.905 22.0212C13.9822 21.9905 14.0684 21.9917 14.1446 22.0246C14.2209 22.0575 14.2809 22.1193 14.3116 22.1965C14.3422 22.2737 14.341 22.3599 14.3081 22.4361L13.2746 24.8286C13.2503 24.8849 13.21 24.9327 13.1587 24.9662C13.1074 24.9998 13.0474 25.0174 12.9861 25.0171Z" fill="#332C44"/>
<path d="M13.3162 29.6748C13.2613 29.6749 13.2074 29.6605 13.1599 29.6331C13.1124 29.6058 13.0729 29.5663 13.0454 29.5188L11.9924 27.6973C11.9845 27.6835 11.9775 27.6692 11.9717 27.6543C11.6374 26.7966 12.3079 25.4726 12.3857 25.3243C12.4245 25.2517 12.4905 25.1973 12.5693 25.173C12.648 25.1488 12.7331 25.1566 12.8061 25.1948C12.8792 25.233 12.9341 25.2985 12.9591 25.377C12.984 25.4555 12.977 25.5407 12.9394 25.6141C12.7014 26.0706 12.3894 26.9528 12.5469 27.4073L13.5864 29.2058C13.6139 29.2533 13.6284 29.3072 13.6284 29.3621C13.6285 29.4169 13.6141 29.4708 13.5867 29.5184C13.5593 29.5659 13.5199 29.6054 13.4724 29.6329C13.4249 29.6603 13.371 29.6748 13.3162 29.6748ZM18.0109 29.5281C17.9281 29.5281 17.8486 29.4952 17.79 29.4366C17.7314 29.378 17.6984 29.2985 17.6984 29.2156V25.8358C17.6984 25.753 17.7314 25.6735 17.79 25.6149C17.8486 25.5563 17.9281 25.5233 18.0109 25.5233C18.0938 25.5233 18.1733 25.5563 18.2319 25.6149C18.2905 25.6735 18.3234 25.753 18.3234 25.8358V29.2156C18.3234 29.2985 18.2905 29.378 18.2319 29.4366C18.1733 29.4952 18.0938 29.5281 18.0109 29.5281Z" fill="#332C44"/>
<path d="M22.8023 25.6481C22.697 25.6429 13.87 25.1749 10.8458 24.8191C10.7147 24.8113 10.5871 24.7736 10.4728 24.7089C10.3585 24.6442 10.2605 24.5542 10.1863 24.4459C10.1322 24.3591 10.0979 24.2614 10.0859 24.1598C10.0739 24.0582 10.0844 23.9552 10.1168 23.8581C10.3353 23.1831 10.944 22.4139 11.685 22.2476C13.6063 21.8174 18.9565 21.8919 20.9188 22.3774C22.1548 22.6831 23.2805 24.2346 23.4938 24.6024C23.5593 24.708 23.5964 24.8288 23.6014 24.953C23.6064 25.0772 23.5791 25.2006 23.5223 25.3111C23.4454 25.4287 23.3374 25.5225 23.2102 25.582C23.083 25.6415 22.9418 25.6644 22.8023 25.6481ZM15.6875 22.5841C14.1293 22.5841 12.648 22.6724 11.8218 22.8576C11.333 22.9671 10.8735 23.5501 10.7115 24.0504C10.7074 24.0602 10.7055 24.0708 10.7061 24.0814C10.7067 24.092 10.7096 24.1023 10.7148 24.1116C10.77 24.1668 10.8447 24.1981 10.9228 24.1989C13.9228 24.5516 22.7303 25.0186 22.8188 25.0239C22.8765 25.0293 22.9347 25.0182 22.9863 24.9916C22.9795 24.9916 22.9755 24.9554 22.9523 24.9166C22.7453 24.5586 21.7163 23.2199 20.769 22.9856C19.7115 22.7229 17.639 22.5841 15.6875 22.5841Z" fill="#3D335B"/>
<path d="M18.0104 25.3681C17.9275 25.3681 17.848 25.3352 17.7894 25.2766C17.7308 25.218 17.6979 25.1385 17.6979 25.0556V22.3376C17.6979 22.2547 17.7308 22.1753 17.7894 22.1167C17.848 22.058 17.9275 22.0251 18.0104 22.0251C18.0932 22.0251 18.1727 22.058 18.2313 22.1167C18.2899 22.1753 18.3229 22.2547 18.3229 22.3376V25.0556C18.3229 25.1385 18.2899 25.218 18.2313 25.2766C18.1727 25.3352 18.0932 25.3681 18.0104 25.3681ZM19.5864 26.5966H18.8424C18.7595 26.5966 18.68 26.5637 18.6214 26.5051C18.5628 26.4465 18.5299 26.367 18.5299 26.2841C18.5299 26.2012 18.5628 26.1218 18.6214 26.0632C18.68 26.0045 18.7595 25.9716 18.8424 25.9716H19.5864C19.6692 25.9716 19.7487 26.0045 19.8073 26.0632C19.8659 26.1218 19.8989 26.2012 19.8989 26.2841C19.8989 26.367 19.8659 26.4465 19.8073 26.5051C19.7487 26.5637 19.6692 26.5966 19.5864 26.5966ZM13.7709 26.5966H13.0459C12.963 26.5966 12.8835 26.5637 12.8249 26.5051C12.7663 26.4465 12.7334 26.367 12.7334 26.2841C12.7334 26.2012 12.7663 26.1218 12.8249 26.0632C12.8835 26.0045 12.963 25.9716 13.0459 25.9716H13.7709C13.8537 25.9716 13.9332 26.0045 13.9918 26.0632C14.0504 26.1218 14.0834 26.2012 14.0834 26.2841C14.0834 26.367 14.0504 26.4465 13.9918 26.5051C13.9332 26.5637 13.8537 26.5966 13.7709 26.5966ZM12.9861 25.0171C12.9343 25.0171 12.8833 25.0043 12.8378 24.9797C12.7922 24.9551 12.7535 24.9195 12.725 24.8762C12.6966 24.8329 12.6794 24.7832 12.675 24.7316C12.6705 24.68 12.679 24.6281 12.6996 24.5806L13.7331 22.1881C13.766 22.1119 13.8278 22.0518 13.905 22.0212C13.9822 21.9905 14.0684 21.9917 14.1446 22.0246C14.2209 22.0575 14.2809 22.1193 14.3116 22.1965C14.3422 22.2737 14.341 22.3599 14.3081 22.4361L13.2746 24.8286C13.2503 24.8849 13.21 24.9327 13.1587 24.9662C13.1074 24.9998 13.0474 25.0174 12.9861 25.0171Z" fill="#3D335B"/>
<path d="M13.3162 29.6748C13.2613 29.6749 13.2074 29.6605 13.1599 29.6331C13.1124 29.6058 13.0729 29.5663 13.0454 29.5188L11.9924 27.6973C11.9845 27.6835 11.9775 27.6692 11.9717 27.6543C11.6374 26.7966 12.3079 25.4726 12.3857 25.3243C12.4245 25.2517 12.4905 25.1973 12.5693 25.173C12.648 25.1488 12.7331 25.1566 12.8061 25.1948C12.8792 25.233 12.9341 25.2985 12.9591 25.377C12.984 25.4555 12.977 25.5407 12.9394 25.6141C12.7014 26.0706 12.3894 26.9528 12.5469 27.4073L13.5864 29.2058C13.6139 29.2533 13.6284 29.3072 13.6284 29.3621C13.6285 29.4169 13.6141 29.4708 13.5867 29.5184C13.5593 29.5659 13.5199 29.6054 13.4724 29.6329C13.4249 29.6603 13.371 29.6748 13.3162 29.6748ZM18.0109 29.5281C17.9281 29.5281 17.8486 29.4952 17.79 29.4366C17.7314 29.378 17.6984 29.2985 17.6984 29.2156V25.8358C17.6984 25.753 17.7314 25.6735 17.79 25.6149C17.8486 25.5563 17.9281 25.5233 18.0109 25.5233C18.0938 25.5233 18.1733 25.5563 18.2319 25.6149C18.2905 25.6735 18.3234 25.753 18.3234 25.8358V29.2156C18.3234 29.2985 18.2905 29.378 18.2319 29.4366C18.1733 29.4952 18.0938 29.5281 18.0109 29.5281Z" fill="#3D335B"/>
<path d="M6.85116 7.5H2.28516C1.87094 7.5 1.53516 7.83579 1.53516 8.25V18.758C1.53516 19.1722 1.87094 19.508 2.28516 19.508H6.85116C7.26537 19.508 7.60116 19.1722 7.60116 18.758V8.25C7.60116 7.83579 7.26537 7.5 6.85116 7.5Z" fill="#3DD396"/>
<path d="M4.56738 31.8123C4.4845 31.8123 4.40502 31.7794 4.34641 31.7208C4.28781 31.6622 4.25488 31.5827 4.25488 31.4998V19.5078C4.25488 19.4249 4.28781 19.3454 4.34641 19.2868C4.40502 19.2282 4.4845 19.1953 4.56738 19.1953C4.65026 19.1953 4.72975 19.2282 4.78835 19.2868C4.84696 19.3454 4.87988 19.4249 4.87988 19.5078V31.4998C4.87988 31.5827 4.84696 31.6622 4.78835 31.7208C4.72975 31.7794 4.65026 31.8123 4.56738 31.8123Z" fill="#3D335B"/>
<path d="M30.8254 31.8125H1.61266C1.52978 31.8125 1.45029 31.7796 1.39169 31.721C1.33308 31.6624 1.30016 31.5829 1.30016 31.5C1.30016 31.4171 1.33308 31.3376 1.39169 31.279C1.45029 31.2204 1.52978 31.1875 1.61266 31.1875H30.8254C30.9083 31.1875 30.9878 31.2204 31.0464 31.279C31.105 31.3376 31.1379 31.4171 31.1379 31.5C31.1379 31.5829 31.105 31.6624 31.0464 31.721C30.9878 31.7796 30.9083 31.8125 30.8254 31.8125ZM6.85041 19.8205H2.28516C2.00344 19.8202 1.73335 19.7082 1.53415 19.509C1.33495 19.3098 1.22292 19.0397 1.22266 18.758V8.25C1.22292 7.96829 1.33495 7.69819 1.53415 7.49899C1.73335 7.29979 2.00344 7.18776 2.28516 7.1875H6.85041C7.1322 7.18763 7.40243 7.2996 7.60174 7.49882C7.80105 7.69803 7.91314 7.9682 7.91341 8.25V18.758C7.91314 19.0398 7.80105 19.31 7.60174 19.5092C7.40243 19.7084 7.1322 19.8204 6.85041 19.8205ZM2.28516 7.8125C2.16916 7.81263 2.05796 7.85877 1.97594 7.94079C1.89392 8.02281 1.84779 8.13401 1.84766 8.25V18.758C1.84779 18.874 1.89392 18.9852 1.97594 19.0672C2.05796 19.1492 2.16916 19.1954 2.28516 19.1955H6.85041C6.9664 19.1954 7.0776 19.1492 7.15962 19.0672C7.24164 18.9852 7.28777 18.874 7.28791 18.758V8.25C7.28777 8.13401 7.24164 8.02281 7.15962 7.94079C7.0776 7.85877 6.9664 7.81263 6.85041 7.8125H2.28516ZM30.4204 28.214C30.3605 27.5776 30.0865 26.9803 29.6432 26.5198C28.7137 25.658 27.1609 25.236 26.3267 25.0095C26.1574 24.9635 25.9962 24.9198 25.9134 24.8908C25.8652 24.8458 25.7634 24.7385 25.6634 24.6345C25.0116 23.9234 24.2921 23.2775 23.5152 22.7057C23.0031 22.3314 22.4372 22.037 21.8367 21.8328C17.8367 20.562 11.2797 21.3225 8.90316 21.8645C8.77422 21.8903 8.65434 21.9495 8.55552 22.0363C8.45671 22.123 8.38244 22.2342 8.34016 22.3587C8.3078 22.4691 8.3056 22.5861 8.33378 22.6976C8.36196 22.8091 8.4195 22.911 8.50041 22.9928L8.78866 23.2945C8.21547 23.7966 7.70238 24.3633 7.25966 24.9835C7.14487 25.1543 7.05245 25.3392 6.98466 25.5335C6.97881 25.547 6.97388 25.5609 6.96991 25.575C6.87059 25.8697 6.8252 26.1799 6.83591 26.4907C6.83591 26.495 6.83341 26.4985 6.83341 26.503C6.83455 26.5102 6.83605 26.5174 6.83791 26.5245C6.84315 26.6627 6.85937 26.8003 6.88641 26.936C6.94282 27.2718 6.91874 27.6163 6.81616 27.941C6.7219 28.2964 6.67268 28.6623 6.66966 29.03C6.66966 30.022 8.58441 30.455 8.96816 30.5317C8.98831 30.5359 9.00884 30.5379 9.02941 30.5378H29.2944C29.413 30.5376 29.5302 30.5128 29.6386 30.4647C29.747 30.4167 29.8442 30.3465 29.9239 30.2588C30.4922 29.6558 30.4234 28.2728 30.4204 28.214ZM29.3102 27.077C29.4252 27.2167 29.5209 27.3713 29.5947 27.5365C29.2447 27.531 28.8007 27.4775 28.5832 27.279C28.5183 27.2225 28.4763 27.1443 28.4649 27.059C28.7457 27.0175 29.0314 27.0236 29.3102 27.077ZM24.7712 24.6122C24.7597 24.6055 24.7499 24.601 24.7382 24.5938C24.2805 24.2729 23.8647 23.8962 23.5004 23.4722C23.9476 23.8251 24.372 24.2059 24.7712 24.6122ZM7.50041 25.98H8.50516L8.49691 25.9877C8.4332 26.0519 8.3574 26.1028 8.27388 26.1374C8.19037 26.172 8.10081 26.1897 8.01041 26.1895H7.46541C7.47311 26.1191 7.48479 26.0491 7.50041 25.98ZM29.4689 29.8283C29.4478 29.8543 29.4211 29.8754 29.3909 29.8898C29.3606 29.9043 29.3275 29.9118 29.2939 29.9118H9.05916C8.21916 29.7385 7.29291 29.3285 7.29291 29.027C7.29658 28.7075 7.34034 28.3896 7.42316 28.081C7.54633 27.6704 7.57201 27.2368 7.49816 26.8145H8.00991C8.1824 26.8149 8.35327 26.7812 8.51264 26.7152C8.67202 26.6492 8.81672 26.5523 8.93841 26.43L9.16141 26.207C9.23078 26.137 9.27793 26.0481 9.29693 25.9514C9.31593 25.8547 9.30593 25.7545 9.26818 25.6635C9.23044 25.5725 9.16664 25.4946 9.08479 25.4397C9.00294 25.3848 8.9067 25.3554 8.80816 25.355H7.76316C7.76716 25.3487 7.77041 25.3423 7.77466 25.3363C8.19699 24.7487 8.68563 24.2119 9.23091 23.7362C9.29003 23.6833 9.33788 23.619 9.37163 23.5471C9.40537 23.4753 9.42431 23.3974 9.42732 23.3181C9.43033 23.2388 9.41735 23.1597 9.38914 23.0855C9.36094 23.0113 9.31809 22.9435 9.26316 22.8862L8.95316 22.5613C8.94699 22.5552 8.94184 22.5482 8.93791 22.5405C8.93916 22.5305 8.96691 22.4905 9.04216 22.4727C11.3672 21.9422 17.7699 21.1952 21.6477 22.4272C22.019 22.5514 22.3746 22.7184 22.7072 22.925C22.7042 22.9302 22.6997 22.9343 22.6969 22.9395C22.6534 23.0239 22.633 23.1183 22.6377 23.2131C22.6424 23.3079 22.6721 23.3998 22.7237 23.4795C23.187 24.1192 23.7562 24.6752 24.4067 25.1232C24.7412 25.3566 25.1328 25.4948 25.5397 25.5233C25.6125 25.5235 25.685 25.5143 25.7554 25.4958C25.8554 25.5285 25.9882 25.5645 26.1627 25.612C26.9453 25.8022 27.7049 26.0776 28.4277 26.433C28.2952 26.4504 28.1683 26.4969 28.0559 26.569C27.998 26.6083 27.9489 26.6592 27.9115 26.7184C27.8742 26.7776 27.8495 26.8438 27.8389 26.913C27.8368 26.9259 27.8355 26.9389 27.8352 26.952C27.8281 27.0993 27.8538 27.2464 27.9103 27.3826C27.9668 27.5188 28.0527 27.6409 28.1619 27.74C28.5527 28.0972 29.2074 28.1637 29.6427 28.1637C29.6942 28.1637 29.7427 28.1637 29.7859 28.1612C29.7897 28.1905 29.7949 28.221 29.7964 28.2477C29.8227 28.7325 29.7384 29.5428 29.4682 29.8283H29.4689Z" fill="#3D335B"/>
<path d="M25.1861 31.5001C26.2349 31.5001 27.0851 30.6499 27.0851 29.6011C27.0851 28.5524 26.2349 27.7021 25.1861 27.7021C24.1373 27.7021 23.2871 28.5524 23.2871 29.6011C23.2871 30.6499 24.1373 31.5001 25.1861 31.5001Z" fill="#433C68"/>
<path d="M25.186 30.1728C25.5018 30.1728 25.7578 29.9168 25.7578 29.601C25.7578 29.2853 25.5018 29.0293 25.186 29.0293C24.8702 29.0293 24.6143 29.2853 24.6143 29.601C24.6143 29.9168 24.8702 30.1728 25.186 30.1728Z" fill="#FCE8C0"/>
<path d="M25.1861 31.8126C24.7487 31.8126 24.3211 31.6829 23.9575 31.4399C23.5938 31.1969 23.3103 30.8516 23.143 30.4475C22.9756 30.0434 22.9318 29.5987 23.0171 29.1697C23.1024 28.7407 23.3131 28.3467 23.6223 28.0374C23.9316 27.7281 24.3257 27.5175 24.7547 27.4321C25.1837 27.3468 25.6283 27.3906 26.0324 27.558C26.4365 27.7254 26.7819 28.0088 27.0249 28.3725C27.2679 28.7362 27.3976 29.1638 27.3976 29.6011C27.3969 30.1875 27.1637 30.7496 26.7491 31.1642C26.3346 31.5788 25.7724 31.812 25.1861 31.8126ZM25.1861 28.0149C24.8723 28.0149 24.5656 28.108 24.3047 28.2823C24.0438 28.4566 23.8404 28.7044 23.7204 28.9943C23.6003 29.2842 23.5689 29.6032 23.6301 29.911C23.6913 30.2188 23.8425 30.5014 24.0644 30.7233C24.2863 30.9452 24.569 31.0963 24.8768 31.1574C25.1845 31.2186 25.5035 31.1872 25.7934 31.0671C26.0833 30.9469 26.3311 30.7436 26.5054 30.4826C26.6797 30.2217 26.7727 29.9149 26.7726 29.6011C26.7721 29.1806 26.6048 28.7774 26.3073 28.48C26.0099 28.1826 25.6067 28.0154 25.1861 28.0149Z" fill="#3D335B"/>
<path d="M25.186 30.4853C25.0111 30.4853 24.8402 30.4334 24.6947 30.3363C24.5493 30.2391 24.436 30.101 24.3691 29.9394C24.3021 29.7779 24.2846 29.6001 24.3187 29.4285C24.3529 29.257 24.4371 29.0995 24.5607 28.9758C24.6844 28.8521 24.842 28.7679 25.0135 28.7338C25.185 28.6997 25.3628 28.7172 25.5244 28.7841C25.686 28.851 25.8241 28.9644 25.9212 29.1098C26.0184 29.2552 26.0703 29.4262 26.0703 29.601C26.07 29.8355 25.9767 30.0602 25.811 30.226C25.6452 30.3918 25.4204 30.485 25.186 30.4853ZM25.186 29.3418C25.1347 29.3418 25.0846 29.357 25.042 29.3855C24.9993 29.414 24.9661 29.4545 24.9465 29.5018C24.9269 29.5492 24.9217 29.6013 24.9317 29.6516C24.9417 29.7019 24.9664 29.7481 25.0027 29.7844C25.0389 29.8206 25.0851 29.8453 25.1354 29.8553C25.1857 29.8653 25.2378 29.8602 25.2852 29.8406C25.3326 29.8209 25.3731 29.7877 25.4016 29.7451C25.4301 29.7024 25.4453 29.6523 25.4453 29.601C25.4452 29.5323 25.4179 29.4664 25.3693 29.4178C25.3206 29.3692 25.2547 29.3419 25.186 29.3418Z" fill="#3D335B"/>
<path d="M10.3844 31.5001C11.4331 31.5001 12.2834 30.6499 12.2834 29.6011C12.2834 28.5524 11.4331 27.7021 10.3844 27.7021C9.33556 27.7021 8.48535 28.5524 8.48535 29.6011C8.48535 30.6499 9.33556 31.5001 10.3844 31.5001Z" fill="#433C68"/>
<path d="M10.3852 30.1728C10.701 30.1728 10.957 29.9168 10.957 29.601C10.957 29.2853 10.701 29.0293 10.3852 29.0293C10.0695 29.0293 9.81348 29.2853 9.81348 29.601C9.81348 29.9168 10.0695 30.1728 10.3852 30.1728Z" fill="#FCE8C0"/>
<path d="M10.3844 31.8126C9.94696 31.8126 9.51939 31.6829 9.15571 31.4399C8.79203 31.1969 8.50858 30.8516 8.34119 30.4475C8.17381 30.0434 8.13001 29.5987 8.21535 29.1697C8.30068 28.7407 8.5113 28.3467 8.82059 28.0374C9.12987 27.7281 9.52392 27.5175 9.95291 27.4321C10.3819 27.3468 10.8266 27.3906 11.2307 27.558C11.6348 27.7254 11.9801 28.0088 12.2231 28.3725C12.4662 28.7362 12.5959 29.1638 12.5959 29.6011C12.5952 30.1875 12.362 30.7496 11.9474 31.1642C11.5328 31.5788 10.9707 31.812 10.3844 31.8126ZM10.3844 28.0149C10.0706 28.0149 9.76382 28.108 9.50291 28.2823C9.24201 28.4566 9.03866 28.7044 8.91859 28.9943C8.79852 29.2842 8.76712 29.6032 8.82836 29.911C8.88959 30.2188 9.04072 30.5014 9.26262 30.7233C9.48452 30.9452 9.76723 31.0963 10.075 31.1574C10.3828 31.2186 10.7018 31.1872 10.9917 31.0671C11.2815 30.9469 11.5293 30.7436 11.7036 30.4826C11.8779 30.2217 11.9709 29.9149 11.9709 29.6011C11.9703 29.1806 11.803 28.7774 11.5056 28.48C11.2082 28.1826 10.8049 28.0154 10.3844 28.0149Z" fill="#3D335B"/>
<path d="M10.385 30.4853C10.2101 30.4853 10.0392 30.4334 9.89376 30.3363C9.74834 30.2391 9.63501 30.101 9.56808 29.9394C9.50115 29.7779 9.48364 29.6001 9.51776 29.4285C9.55188 29.257 9.6361 29.0995 9.75976 28.9758C9.88343 28.8521 10.041 28.7679 10.2125 28.7338C10.384 28.6997 10.5618 28.7172 10.7234 28.7841C10.885 28.851 11.0231 28.9644 11.1202 29.1098C11.2174 29.2552 11.2693 29.4262 11.2693 29.6011C11.269 29.8355 11.1758 30.0603 11.01 30.226C10.8442 30.3918 10.6195 30.485 10.385 30.4853ZM10.385 29.3418C10.3337 29.3418 10.2836 29.357 10.241 29.3855C10.1984 29.414 10.1651 29.4545 10.1455 29.5018C10.1259 29.5492 10.1207 29.6013 10.1308 29.6516C10.1408 29.7019 10.1654 29.7481 10.2017 29.7844C10.238 29.8206 10.2842 29.8453 10.3344 29.8553C10.3847 29.8653 10.4369 29.8602 10.4842 29.8406C10.5316 29.8209 10.5721 29.7877 10.6006 29.7451C10.6291 29.7025 10.6443 29.6523 10.6443 29.6011C10.6442 29.5323 10.6169 29.4664 10.5683 29.4178C10.5197 29.3692 10.4538 29.3419 10.385 29.3418ZM4.33702 13.9568V14.4933C4.33918 14.5565 4.32756 14.6194 4.30299 14.6776C4.27842 14.7358 4.24147 14.788 4.19471 14.8305C4.14795 14.8731 4.09249 14.9049 4.0322 14.9239C3.9719 14.9428 3.9082 14.9484 3.84552 14.9403C3.78282 14.9485 3.71909 14.9429 3.65877 14.924C3.59844 14.905 3.54295 14.8732 3.49616 14.8306C3.44938 14.7881 3.4124 14.7359 3.38782 14.6777C3.36323 14.6194 3.35161 14.5565 3.35377 14.4933V12.2133C3.35165 12.1501 3.3633 12.0872 3.3879 12.029C3.41251 11.9708 3.44948 11.9186 3.49626 11.8761C3.54304 11.8335 3.5985 11.8017 3.65881 11.7828C3.71912 11.7638 3.78283 11.7582 3.84552 11.7663H4.73952C5.63352 11.7663 6.12527 12.2583 6.12527 12.8616C6.12527 13.4648 5.63352 13.9568 4.73952 13.9568H4.33702ZM4.73952 13.1523C4.96302 13.1523 5.09727 13.0183 5.09727 12.8616C5.09727 12.7048 4.96302 12.5711 4.73952 12.5711H4.33702V13.1523H4.73952Z" fill="#3D335B"/>
</svg>
