<svg width="414" height="289" viewBox="0 0 414 289" fill="none" xmlns="http://www.w3.org/2000/svg">
<g filter="url(#filter0_d_286_1118)">
<path opacity="0.5" d="M9.78048 264.787H402.15C402.15 264.787 412.301 214.917 394.51 187.367C372.931 153.967 349.36 167.227 339.87 153.787C327.3 135.997 330.79 64.9974 251.14 69.6674C204.56 72.3774 186.55 128.607 171.53 128.607C152.43 128.607 125.93 98.2474 77.8805 113.027C-4.94952 138.507 9.78048 264.787 9.78048 264.787Z" fill="#0F111A"/>
<path d="M206.9 280.248C318.959 280.248 409.8 273.465 409.8 265.098C409.8 256.731 318.959 249.948 206.9 249.948C94.8414 249.948 4 256.731 4 265.098C4 273.465 94.8414 280.248 206.9 280.248Z" fill="#C5EAE2"/>
<path d="M31.8599 263.147C31.8599 263.147 43.7299 241.417 35.8599 238.647C30.6499 236.827 28.9599 257.147 28.9599 257.147C28.9599 257.147 28.4899 234.617 21.5799 237.497C16.3699 239.667 23.3399 255.937 23.3399 255.937C23.3399 255.937 15.7699 249.807 14.8099 253.657C13.2899 259.787 21.9999 263.267 21.9999 263.267L31.8599 263.147Z" fill="#A2DDD0"/>
<path d="M29.41 263.178L35.16 245.178C35.1677 245.155 35.1707 245.13 35.1688 245.106C35.1669 245.082 35.1601 245.059 35.1489 245.037C35.1377 245.016 35.1223 244.997 35.1036 244.981C35.0849 244.966 35.0632 244.955 35.04 244.948C35.0165 244.938 34.9912 244.934 34.9659 244.935C34.9406 244.936 34.9158 244.943 34.8932 244.954C34.8705 244.965 34.8505 244.981 34.8345 245.001C34.8184 245.021 34.8067 245.043 34.8 245.068L29 263.188L29.41 263.178Z" fill="#E0FBF0"/>
<path d="M27.9197 263.198L23.7997 243.568C23.7982 243.541 23.791 243.514 23.7786 243.49C23.7661 243.466 23.7486 243.445 23.7273 243.428C23.706 243.412 23.6813 243.4 23.655 243.393C23.6286 243.387 23.6012 243.386 23.5746 243.391C23.548 243.396 23.5227 243.407 23.5006 243.422C23.4784 243.438 23.4598 243.458 23.4461 243.481C23.4324 243.505 23.4238 243.531 23.421 243.558C23.4181 243.585 23.4211 243.612 23.4297 243.638L27.5297 263.198H27.9197Z" fill="#E0FBF0"/>
<path d="M25.8003 263.217L18.0003 256.487C17.9826 256.47 17.9616 256.455 17.9384 256.446C17.9153 256.436 17.8904 256.431 17.8653 256.431C17.8402 256.431 17.8153 256.436 17.7922 256.446C17.769 256.455 17.748 256.47 17.7303 256.487C17.7128 256.504 17.6988 256.524 17.6893 256.547C17.6797 256.569 17.6748 256.593 17.6748 256.617C17.6748 256.642 17.6797 256.666 17.6893 256.688C17.6988 256.71 17.7128 256.731 17.7303 256.747L25.2303 263.207L25.8003 263.217Z" fill="#E0FBF0"/>
<path d="M378.06 265.228C378.06 265.228 367.96 250.228 374.39 244.518C378.34 240.998 380.27 252.258 380.27 252.258C380.27 252.258 382.51 230.768 389.79 235.258C393.35 237.478 385.87 257.258 385.87 257.258C385.87 257.258 391.19 246.948 395.39 249.778C402.17 254.348 386.01 264.988 386.01 264.988L378.06 265.228Z" fill="#A2DDD0"/>
<path d="M381.91 265.148L387.13 240.808C387.143 240.743 387.13 240.676 387.095 240.62C387.059 240.565 387.004 240.524 386.94 240.508C386.908 240.5 386.875 240.499 386.842 240.505C386.81 240.511 386.779 240.523 386.751 240.54C386.723 240.558 386.699 240.581 386.68 240.608C386.661 240.635 386.648 240.666 386.64 240.698L381.4 265.158L381.91 265.148Z" fill="#E0FBF0"/>
<path d="M384.69 265.098L394.3 253.408C394.329 253.384 394.352 253.355 394.367 253.321C394.383 253.288 394.391 253.251 394.391 253.214C394.391 253.177 394.383 253.141 394.367 253.107C394.351 253.074 394.328 253.045 394.299 253.021C394.27 252.998 394.237 252.981 394.201 252.972C394.165 252.963 394.128 252.962 394.092 252.97C394.055 252.977 394.021 252.992 393.992 253.014C393.962 253.037 393.938 253.065 393.92 253.098L384.03 265.098H384.69Z" fill="#E0FBF0"/>
<path d="M380.13 265.188L376.18 247.348C376.174 247.315 376.162 247.284 376.143 247.256C376.124 247.229 376.1 247.206 376.071 247.189C376.043 247.171 376.011 247.161 375.978 247.157C375.945 247.154 375.911 247.157 375.88 247.168C375.848 247.174 375.818 247.186 375.791 247.204C375.764 247.222 375.741 247.245 375.723 247.272C375.705 247.299 375.693 247.33 375.687 247.362C375.682 247.393 375.682 247.426 375.69 247.458L379.62 265.198L380.13 265.188Z" fill="#E0FBF0"/>
<path d="M32.5101 190.337C29.2516 191.653 25.9113 192.755 22.5101 193.637C22.4328 193.667 22.3639 193.715 22.3089 193.777C22.2539 193.839 22.2145 193.913 22.194 193.993C22.1735 194.074 22.1724 194.158 22.1908 194.238C22.2093 194.319 22.2467 194.394 22.3001 194.457L29.7501 202.857C32.5212 205.906 35.9375 208.297 39.7501 209.857C42.469 211.014 45.4503 211.414 48.3779 211.014C51.3056 210.615 54.0706 209.431 56.3801 207.587C60.6201 204.137 58.0801 198.827 55.5401 195.107C52.4101 190.527 46.8201 189.037 41.8101 188.657C38.6209 188.475 35.4339 189.051 32.5101 190.337Z" fill="#A2DDD0"/>
<path d="M22.5396 194.158C24.8223 194.99 27.1616 195.659 29.5396 196.158L30.1296 196.258C29.4596 196.408 28.7796 196.548 28.1296 196.728C27.2937 196.938 26.5038 197.301 25.7996 197.798C25.5696 197.968 25.7996 198.368 26.0296 198.188C26.7217 197.704 27.5038 197.364 28.3296 197.188C29.3296 196.938 30.2696 196.738 31.2396 196.518C31.2758 196.507 31.3097 196.49 31.3396 196.468C33.0596 196.658 34.7996 196.708 36.5196 196.918C38.3502 197.145 40.1617 197.506 41.9396 197.998C40.5396 199.618 38.1196 199.998 36.1696 200.578L32.6196 201.578C31.6766 201.729 30.8281 202.238 30.2496 202.998C30.0896 203.248 30.4796 203.458 30.6396 203.218C31.2696 202.218 32.7796 202.038 33.8296 201.748L37.4696 200.748C39.2696 200.238 41.1896 199.698 42.4096 198.198C45.0196 198.948 47.5896 199.888 50.1196 200.828C50.9596 201.138 51.7996 201.448 52.6296 201.828C47.7777 205.479 41.8514 207.417 35.7796 207.338C35.7281 207.349 35.6818 207.377 35.6486 207.418C35.6154 207.459 35.5973 207.51 35.5973 207.563C35.5973 207.615 35.6154 207.666 35.6486 207.707C35.6818 207.748 35.7281 207.777 35.7796 207.788C42.0426 207.87 48.1507 205.841 53.1196 202.028C54.8212 202.692 56.4498 203.53 57.9796 204.528C58.2196 204.688 58.4396 204.288 58.1996 204.128C57.6396 203.748 57.0496 203.408 56.4696 203.128C55.3302 200.36 53.827 197.758 51.9996 195.388C50.1896 193.078 47.9996 190.478 45.1396 189.468C44.8696 189.378 44.7596 189.818 45.0296 189.908C46.502 190.504 47.8237 191.419 48.8996 192.588C49.9113 193.588 50.8566 194.654 51.7296 195.778C53.3737 197.899 54.7538 200.213 55.8396 202.668C54.9996 202.248 54.1396 201.868 53.2796 201.518C53.2602 201.478 53.2271 201.448 53.1866 201.431C53.1461 201.415 53.101 201.413 53.0596 201.428C52.5996 201.238 52.1396 201.068 51.6696 200.888L48.7996 199.818C47.7381 197.816 46.3906 195.98 44.7996 194.368C43.0296 192.558 41.1996 190.788 39.4096 188.988C39.1996 188.788 38.8796 189.108 39.0896 189.308C40.8296 191.048 42.5796 192.758 44.2996 194.508C45.7986 196.015 47.0839 197.721 48.1196 199.578C46.9796 199.168 45.8496 198.778 44.6996 198.398C43.9796 198.168 43.2596 197.948 42.5296 197.738C42.4949 197.694 42.4469 197.662 42.3929 197.648C42.3389 197.634 42.2816 197.637 42.2296 197.658C40.8396 197.278 39.4296 196.938 38.0096 196.658C36.8696 195.718 36.3196 194.328 35.4596 193.168C34.5103 192.012 33.2614 191.141 31.8496 190.648C31.5896 190.528 31.3696 190.928 31.6396 191.038C32.3369 191.306 33.0067 191.641 33.6396 192.038C34.2729 192.484 34.8187 193.044 35.2496 193.688C35.8187 194.676 36.464 195.619 37.1796 196.508C34.9696 196.208 32.7196 196.198 30.5096 195.858C27.7988 195.361 25.1381 194.621 22.5596 193.648C22.3696 193.628 22.2596 194.068 22.5396 194.158Z" fill="#E0FBF0"/>
<path d="M55 191.138C57.8968 193.135 61.1328 194.589 64.55 195.428C67.21 196.088 69.62 196.798 71.82 194.218C73.8841 191.691 75.3955 188.759 76.2567 185.613C77.118 182.466 77.3099 179.173 76.82 175.948C76.6418 174.849 76.3777 173.765 76.03 172.708C75.5168 170.136 74.497 167.692 73.03 165.518C70.1658 161.635 66.3261 158.578 61.9 156.658C59.7026 155.651 57.4527 154.763 55.16 153.998C52.38 152.998 49.06 152.398 47.69 149.598C47.38 148.988 46.5 149.268 46.22 149.888C44.45 153.888 42.66 157.948 41.89 162.148C41.2219 166.017 41.5383 169.992 42.81 173.708C45.09 180.608 49.07 186.998 55 191.138Z" fill="#A2DDD0"/>
<path d="M53.9099 189.518C55.03 189.158 56.218 189.061 57.3816 189.234C58.5453 189.408 59.6534 189.847 60.6199 190.518C61.7019 191.294 62.9145 191.87 64.1999 192.218C65.4957 192.489 66.816 192.626 68.1399 192.628C67.5827 190.099 66.868 187.607 65.9999 185.168C65.9672 185.107 65.9405 185.043 65.9199 184.978C59.9199 182.488 53.2399 184.728 47.1599 182.598C46.7199 182.448 46.9199 181.748 47.3699 181.908C53.2399 183.958 59.7099 181.908 65.5499 184.048C64.3166 181.24 62.7772 178.577 60.9599 176.108L59.1499 173.598C57.4589 173.311 55.7447 173.184 54.0299 173.218C52.555 173.142 51.1055 172.803 49.7499 172.218C46.9999 171.018 44.6599 169.068 41.8999 167.888C41.4699 167.708 41.6699 166.998 42.1099 167.188C44.8099 168.348 47.1099 170.188 49.7899 171.438C51.3261 172.125 52.9871 172.489 54.6699 172.508C55.953 172.497 57.2356 172.567 58.5099 172.718C56.5099 169.928 54.4199 167.138 52.5999 164.208C48.9099 162.678 45.0199 160.818 43.5999 156.788C43.4499 156.348 44.1599 156.158 44.3099 156.598C45.5199 160.048 48.7799 161.788 51.9599 163.158C51.2899 162.028 50.6499 160.878 50.0699 159.688C48.4319 156.481 47.2504 153.061 46.5599 149.528C46.4599 149.058 47.1699 148.878 47.2599 149.338C48.3339 154.411 50.3084 159.251 53.0899 163.628C53.1616 163.658 53.222 163.71 53.2632 163.776C53.3043 163.842 53.3241 163.92 53.3199 163.998C53.5999 164.468 53.8899 164.918 54.1899 165.378C54.6329 164.366 54.9681 163.31 55.1899 162.228C55.5729 159.774 55.717 157.289 55.6199 154.808C55.6199 154.709 55.6589 154.615 55.7283 154.546C55.7977 154.477 55.8918 154.438 55.9899 154.438C56.088 154.438 56.1821 154.477 56.2515 154.546C56.3209 154.615 56.3599 154.709 56.3599 154.808C56.3599 158.628 56.3599 162.578 54.6899 166.088C54.9199 166.448 55.1599 166.808 55.3999 167.158C56.7499 169.158 58.2199 171.068 59.6599 173.008C60.4299 174.008 61.1899 175.078 61.9199 176.138C63.6899 173.878 63.9199 170.898 64.0299 168.138C64.0374 165.145 64.5305 162.173 65.4899 159.338C65.6599 158.908 66.3599 159.108 66.1999 159.548C65.5913 161.142 65.1783 162.804 64.9699 164.498C64.7899 166.148 64.7999 167.818 64.6999 169.498C64.707 172.121 63.8845 174.68 62.3499 176.808C63.9028 179.06 65.2134 181.47 66.2599 183.998C66.9056 185.591 67.4598 187.221 67.9199 188.878C70.6499 186.818 71.1099 183.118 71.4799 179.938C71.7167 176.632 72.7457 173.432 74.4799 170.608C74.7399 170.218 75.3599 170.608 75.0999 170.988C74.0839 172.523 73.3208 174.211 72.8399 175.988C72.4229 177.985 72.1191 180.005 71.9299 182.038C71.5099 184.908 70.5599 187.848 68.1099 189.578C68.6099 191.418 69.0399 193.288 69.4699 195.148C69.4793 195.236 69.4564 195.325 69.4055 195.398C69.3547 195.471 69.2792 195.523 69.1929 195.545C69.1066 195.567 69.0153 195.557 68.9358 195.517C68.8563 195.477 68.7938 195.41 68.7599 195.328C68.6099 194.668 68.4499 194.008 68.2999 193.328C65.8899 193.238 63.4299 193.088 61.2999 191.808C60.2636 191.032 59.1132 190.421 57.8899 189.998C56.6308 189.7 55.313 189.766 54.0899 190.188C53.6499 190.368 53.4599 189.668 53.9099 189.518Z" fill="#E0FBF0"/>
<path d="M247.79 91.9978C241.91 94.6978 235.79 98.9978 234.08 105.918C232.67 111.548 231.97 119.088 238.63 121.378C242.243 122.569 246.11 122.763 249.824 121.94C253.538 121.116 256.96 119.305 259.73 116.698C263.63 113.124 266.682 108.723 268.66 103.818C270.42 99.3378 272.174 94.8478 273.92 90.3478C273.957 90.2473 273.969 90.1394 273.956 90.0333C273.942 89.9271 273.904 89.8257 273.843 89.7376C273.782 89.6495 273.701 89.5772 273.607 89.5267C273.512 89.4763 273.407 89.4492 273.3 89.4478C268.799 89.9031 264.273 90.0634 259.75 89.9278C255.656 89.6668 251.559 90.376 247.79 91.9978Z" fill="#A2DDD0"/>
<path d="M273.5 90.0677C271.133 92.0936 268.627 93.9515 266 95.6277L265.34 96.0077C266.22 95.8877 267.09 95.7777 267.97 95.6877C269.077 95.5696 270.196 95.6578 271.27 95.9477C271.63 96.0577 271.52 96.6177 271.17 96.5177C270.113 96.2286 269.009 96.1471 267.92 96.2777C266.64 96.4077 265.37 96.6077 264.11 96.7677C264.061 96.7789 264.01 96.7789 263.96 96.7677C261.96 97.7677 259.9 98.6077 257.96 99.6277C255.832 100.735 253.787 101.995 251.84 103.398C254.24 104.738 257.36 104.148 259.97 103.958L264.7 103.588C265.899 103.341 267.147 103.559 268.19 104.198C268.49 104.428 268.1 104.868 267.81 104.638C266.61 103.708 264.7 104.168 263.3 104.278L258.43 104.648C256.04 104.838 253.43 105.048 251.34 103.778C248.51 105.838 245.83 108.128 243.19 110.398C242.32 111.138 241.44 111.888 240.59 112.658C248.079 114.909 256.103 114.606 263.4 111.798C263.75 111.658 263.94 112.208 263.6 112.348C256.072 115.237 247.791 115.509 240.09 113.118C238.325 114.675 236.727 116.411 235.32 118.298C235.1 118.598 234.66 118.218 234.88 117.918C235.39 117.208 235.94 116.538 236.51 115.918C236.51 115.918 236.51 115.918 236.51 115.858C236.69 112.077 237.363 108.335 238.51 104.728C239.67 101.138 241.17 97.0077 244.16 94.5277C244.45 94.2877 244.78 94.7677 244.49 95.0077C242.971 96.393 241.782 98.1017 241.01 100.008C238.747 104.797 237.429 109.979 237.13 115.268C237.95 114.388 238.81 113.548 239.7 112.748C239.705 112.692 239.73 112.64 239.771 112.601C239.811 112.562 239.864 112.54 239.92 112.538L241.36 111.258L244.36 108.688C244.738 105.803 245.536 102.99 246.73 100.338C248.05 97.3377 249.47 94.3977 250.84 91.4377C250.873 91.3674 250.933 91.3132 251.006 91.2869C251.079 91.2607 251.16 91.2646 251.23 91.2977C251.301 91.3309 251.355 91.3906 251.381 91.4637C251.407 91.5369 251.403 91.6174 251.37 91.6877C250.04 94.5477 248.68 97.4077 247.37 100.288C246.236 102.739 245.439 105.333 245 107.998C246.18 106.998 247.38 105.998 248.6 104.998C249.36 104.398 250.14 103.808 250.92 103.238C250.94 103.167 250.984 103.104 251.044 103.061C251.104 103.017 251.176 102.995 251.25 102.998C252.751 101.914 254.31 100.912 255.92 99.9977C256.92 98.3577 256.92 96.4377 257.45 94.6477C258.072 92.8317 259.182 91.2225 260.66 89.9977C260.92 89.7377 261.37 90.1177 261.09 90.3677C260.355 91.0284 259.685 91.7585 259.09 92.5477C258.519 93.3628 258.109 94.2791 257.88 95.2477C257.631 96.7001 257.27 98.1311 256.8 99.5277C259.33 98.1677 262.05 97.1577 264.57 95.7577C267.622 93.9519 270.507 91.8769 273.19 89.5577C273.46 89.3477 273.79 89.8277 273.5 90.0677Z" fill="#E0FBF0"/>
<path d="M367.43 238.297C367.17 231.207 367.31 222.297 364.53 218.497C356.53 207.497 317.94 201.277 299.65 198.927C291.54 197.877 269.13 184.477 269.13 184.477C247.39 173.007 237.59 165.597 198.23 165.247C155.96 164.857 122.9 174.437 106.15 179.617C89.4004 184.797 55.8704 196.717 55.8704 196.717C54.5528 196.908 53.3439 197.555 52.454 198.546C51.5642 199.536 51.0498 200.807 51.0004 202.137C50.9304 203.737 50.9404 205.577 51.0004 207.457C50.2462 207.885 49.5916 208.467 49.0804 209.167C47.2204 211.947 49.5404 226.107 47.7204 227.867C46.0604 229.467 44.7204 230.067 44.6504 232.817C44.6504 236.077 45.6504 243.947 49.3504 247.097C51.7304 249.097 70.9804 254.517 74.4404 254.817L333.7 257.047C359.32 257.287 368.12 257.257 367.43 238.297Z" fill="#98D4FC"/>
<path d="M335.63 212.838L345.52 217.738C347.917 218.898 350.488 219.662 353.13 219.998L359.93 220.858L363.17 221.148C363.7 221.148 364.1 220.798 363.89 220.438C363.24 219.218 361.33 216.878 355.95 215.188C349.463 213.352 342.799 212.216 336.07 211.798C335.31 211.778 335 212.518 335.63 212.838Z" fill="#29566D"/>
<path d="M50.7004 207.697L67.1704 207.977C70.1704 207.977 70.6604 204.977 68.2404 204.657L51.0004 201.777C49.4604 205.377 50.7004 207.697 50.7004 207.697Z" fill="#29566D"/>
<g style="mix-blend-mode:multiply" opacity="0.3">
<path d="M271.51 253.647L132.67 252.427C134.43 236.557 162.15 239.817 182.53 242.267C213.05 245.937 271.51 253.647 271.51 253.647Z" fill="#98D4FC"/>
</g>
<g style="mix-blend-mode:multiply" opacity="0.3">
<path d="M311 212.627C305.828 212.584 300.737 213.906 296.241 216.461C291.744 219.015 288.002 222.711 285.391 227.176C282.781 231.64 281.395 236.714 281.373 241.885C281.352 247.057 282.696 252.142 285.27 256.627L333.77 257.038H335.93C338.578 252.601 340.009 247.545 340.078 242.379C340.147 237.213 338.852 232.12 336.323 227.614C333.794 223.109 330.121 219.351 325.674 216.719C321.228 214.088 316.166 212.677 311 212.627Z" fill="#98D4FC"/>
</g>
<g style="mix-blend-mode:multiply" opacity="0.3">
<path d="M101 212.627C96.0005 212.578 91.0718 213.807 86.681 216.197C82.2903 218.588 78.5832 222.061 75.9114 226.286C73.2397 230.511 71.692 235.35 71.4151 240.341C71.1383 245.333 72.1415 250.312 74.3296 254.807H74.4996L126.91 255.267C128.972 251.242 130.065 246.79 130.1 242.267C130.169 234.479 127.142 226.981 121.686 221.423C116.229 215.865 108.788 212.701 101 212.627Z" fill="#98D4FC"/>
</g>
<path d="M76.5401 241.778C76.4949 246.556 77.8677 251.241 80.485 255.239C83.1023 259.237 86.8465 262.37 91.2441 264.24C95.6417 266.11 100.495 266.634 105.191 265.746C109.886 264.857 114.212 262.596 117.623 259.249C121.033 255.901 123.374 251.618 124.35 246.94C125.326 242.262 124.892 237.399 123.104 232.968C121.317 228.536 118.255 224.734 114.306 222.043C110.357 219.351 105.699 217.891 100.92 217.848C94.5142 217.789 88.3471 220.277 83.7752 224.765C79.2033 229.252 76.6009 235.372 76.5401 241.778Z" fill="#254D62"/>
<path d="M81.4798 241.728C81.4364 245.531 82.5223 249.261 84.6002 252.447C86.678 255.633 89.6543 258.13 93.1523 259.623C96.6503 261.117 100.513 261.539 104.251 260.836C107.988 260.133 111.434 258.337 114.15 255.675C116.867 253.013 118.733 249.605 119.511 245.882C120.29 242.159 119.947 238.289 118.525 234.761C117.103 231.234 114.666 228.207 111.523 226.065C108.381 223.923 104.673 222.761 100.87 222.728C95.7793 222.677 90.877 224.65 87.2409 228.213C83.6048 231.776 81.5325 236.637 81.4798 241.728ZM100.15 227.128C100.23 227.129 100.309 227.146 100.382 227.179C100.455 227.212 100.521 227.259 100.575 227.318C100.629 227.377 100.671 227.446 100.698 227.522C100.724 227.597 100.735 227.678 100.73 227.758L99.9998 238.468C99.994 238.581 99.9552 238.69 99.888 238.782C99.8208 238.873 99.7282 238.943 99.6218 238.982C99.5153 239.022 99.3996 239.029 99.289 239.003C99.1785 238.977 99.0779 238.92 98.9998 238.838L91.2898 231.368C91.2237 231.32 91.1699 231.258 91.1327 231.186C91.0956 231.114 91.0762 231.034 91.0762 230.953C91.0762 230.871 91.0956 230.791 91.1327 230.719C91.1699 230.647 91.2237 230.585 91.2898 230.538C93.6809 228.282 96.8633 227.057 100.15 227.128ZM111.55 232.308C111.602 232.369 111.641 232.441 111.663 232.518C111.686 232.596 111.693 232.677 111.682 232.757C111.672 232.837 111.645 232.914 111.603 232.983C111.562 233.052 111.506 233.111 111.44 233.158L102.62 239.278C102.528 239.339 102.421 239.373 102.311 239.376C102.201 239.378 102.093 239.35 101.998 239.293C101.904 239.236 101.828 239.154 101.778 239.056C101.729 238.957 101.709 238.847 101.72 238.738L102.72 228.058C102.72 227.578 103.01 227.468 103.38 227.538C106.624 227.994 109.558 229.707 111.55 232.308ZM113.92 245.228L103.67 242.048C103.563 242.014 103.467 241.95 103.395 241.864C103.323 241.778 103.277 241.673 103.262 241.562C103.248 241.451 103.265 241.338 103.312 241.236C103.36 241.134 103.435 241.048 103.53 240.988L112.6 235.248C112.94 235.048 113.17 235.078 113.42 235.448C115.034 238.284 115.479 241.638 114.66 244.798C114.641 244.875 114.607 244.949 114.559 245.013C114.512 245.077 114.451 245.131 114.382 245.171C114.313 245.212 114.236 245.237 114.157 245.247C114.077 245.257 113.997 245.25 113.92 245.228ZM107.15 254.998C107.077 255.032 106.999 255.05 106.919 255.053C106.839 255.055 106.759 255.041 106.685 255.01C106.611 254.98 106.543 254.935 106.487 254.878C106.431 254.821 106.388 254.752 106.36 254.678L102.54 244.678C102.501 244.574 102.492 244.461 102.515 244.353C102.538 244.244 102.592 244.144 102.67 244.066C102.747 243.987 102.846 243.932 102.954 243.907C103.063 243.883 103.176 243.89 103.28 243.928L113.39 247.518C113.472 247.532 113.549 247.566 113.615 247.617C113.681 247.668 113.734 247.734 113.769 247.809C113.805 247.885 113.821 247.967 113.818 248.051C113.814 248.134 113.791 248.215 113.75 248.288C112.504 251.296 110.138 253.703 107.15 254.998ZM94.3898 254.888C94.3204 254.847 94.26 254.792 94.2122 254.727C94.1643 254.662 94.1301 254.588 94.1114 254.51C94.0927 254.432 94.0901 254.35 94.1035 254.271C94.117 254.191 94.1463 254.115 94.1898 254.048L100.08 245.048C100.145 244.969 100.23 244.909 100.326 244.874C100.421 244.838 100.524 244.828 100.625 244.844C100.726 244.86 100.821 244.902 100.9 244.966C100.98 245.029 101.042 245.113 101.08 245.208L104.08 255.508C104.115 255.583 104.132 255.666 104.129 255.749C104.127 255.832 104.105 255.913 104.065 255.986C104.025 256.059 103.968 256.122 103.9 256.169C103.831 256.216 103.752 256.247 103.67 256.258C100.515 257.006 97.1935 256.516 94.3898 254.888ZM86.4798 244.998C86.4686 244.92 86.4737 244.84 86.4947 244.764C86.5158 244.688 86.5524 244.617 86.6022 244.556C86.652 244.495 86.714 244.445 86.7841 244.409C86.8543 244.373 86.9311 244.352 87.0098 244.348L97.7098 243.468C97.8208 243.458 97.9324 243.48 98.0312 243.532C98.1299 243.584 98.2116 243.663 98.2665 243.76C98.3214 243.857 98.3471 243.968 98.3406 244.079C98.3341 244.19 98.2956 244.297 98.2298 244.388L91.9998 253.058C91.9561 253.125 91.8987 253.182 91.8313 253.226C91.7639 253.269 91.6881 253.298 91.6088 253.31C91.5296 253.323 91.4486 253.318 91.3712 253.297C91.2938 253.276 91.2218 253.238 91.1598 253.188C88.5974 251.167 86.9195 248.231 86.4798 244.998ZM86.2098 242.188C86.0435 238.918 87.1552 235.712 89.3098 233.248C89.3655 233.192 89.4317 233.147 89.5047 233.117C89.5776 233.087 89.6558 233.071 89.7348 233.071C89.8137 233.071 89.8919 233.087 89.9649 233.117C90.0378 233.147 90.104 233.192 90.1598 233.248L97.8798 240.698C97.9613 240.774 98.0188 240.873 98.0454 240.982C98.0719 241.091 98.0663 241.205 98.0293 241.311C97.9923 241.417 97.9254 241.51 97.8367 241.578C97.7481 241.647 97.6415 241.688 97.5298 241.698L86.8498 242.698C86.3398 242.728 86.2398 242.438 86.2098 242.148V242.188Z" fill="#DBF1FF"/>
<path d="M286.52 241.777C286.476 246.555 287.851 251.239 290.469 255.236C293.088 259.233 296.833 262.364 301.231 264.232C305.628 266.101 310.481 266.624 315.176 265.734C319.871 264.844 324.197 262.583 327.606 259.235C331.015 255.887 333.356 251.603 334.33 246.926C335.305 242.248 334.871 237.386 333.083 232.955C331.295 228.524 328.233 224.722 324.284 222.032C320.336 219.341 315.678 217.881 310.9 217.837C304.493 217.781 298.326 220.272 293.754 224.761C289.182 229.25 286.58 235.37 286.52 241.777Z" fill="#254D62"/>
<path d="M291.42 241.928C291.377 245.73 292.463 249.46 294.54 252.646C296.617 255.831 299.593 258.329 303.09 259.822C306.588 261.316 310.45 261.738 314.187 261.036C317.925 260.334 321.37 258.539 324.087 255.878C326.804 253.217 328.671 249.81 329.451 246.088C330.23 242.366 329.888 238.496 328.468 234.968C327.048 231.44 324.613 228.413 321.471 226.27C318.33 224.127 314.623 222.963 310.82 222.928C305.73 222.882 300.83 224.857 297.194 228.418C293.557 231.98 291.481 236.838 291.42 241.928ZM310.09 227.328C310.171 227.326 310.251 227.341 310.325 227.372C310.399 227.403 310.466 227.449 310.522 227.508C310.577 227.566 310.62 227.635 310.647 227.711C310.675 227.787 310.686 227.867 310.68 227.948L309.98 238.668C309.974 238.781 309.936 238.89 309.868 238.982C309.801 239.073 309.709 239.143 309.602 239.182C309.496 239.222 309.38 239.229 309.269 239.203C309.159 239.177 309.058 239.12 308.98 239.038L301.27 231.568C300.93 231.248 300.96 230.998 301.27 230.738C303.654 228.495 306.818 227.272 310.09 227.328ZM321.5 232.498C321.55 232.559 321.587 232.631 321.608 232.708C321.629 232.785 321.634 232.865 321.623 232.944C321.612 233.022 321.584 233.098 321.542 233.166C321.501 233.234 321.445 233.292 321.38 233.338L312.57 239.468C312.479 239.531 312.372 239.567 312.262 239.572C312.151 239.576 312.041 239.549 311.946 239.494C311.85 239.438 311.772 239.356 311.722 239.257C311.671 239.159 311.65 239.048 311.66 238.938L312.66 228.248C312.71 227.718 312.98 227.698 313.31 227.718C316.559 228.183 319.498 229.898 321.5 232.498ZM323.87 245.418L313.62 242.228C313.525 242.19 313.441 242.128 313.377 242.047C313.314 241.966 313.273 241.87 313.259 241.768C313.244 241.667 313.257 241.563 313.296 241.468C313.335 241.373 313.399 241.29 313.48 241.228L322.55 235.488C323 235.248 323.21 235.408 323.37 235.668C324.964 238.504 325.404 241.845 324.6 244.998C324.582 245.074 324.548 245.146 324.501 245.209C324.453 245.272 324.394 245.325 324.326 245.365C324.257 245.404 324.182 245.429 324.103 245.438C324.025 245.447 323.946 245.44 323.87 245.418ZM317.1 255.188C317.027 255.222 316.948 255.241 316.867 255.243C316.786 255.245 316.706 255.231 316.631 255.201C316.556 255.171 316.488 255.126 316.431 255.069C316.374 255.011 316.33 254.943 316.3 254.868L312.49 244.868C312.45 244.764 312.44 244.652 312.461 244.543C312.483 244.434 312.535 244.334 312.612 244.254C312.689 244.174 312.787 244.117 312.895 244.092C313.002 244.066 313.115 244.071 313.22 244.108L323.34 247.688C323.65 247.818 323.8 247.928 323.69 248.458C322.459 251.477 320.093 253.893 317.1 255.188ZM304.33 255.068C304.261 255.028 304.201 254.976 304.154 254.913C304.106 254.85 304.072 254.777 304.053 254.701C304.035 254.624 304.032 254.544 304.045 254.466C304.058 254.388 304.087 254.314 304.13 254.248L310.03 245.248C310.089 245.152 310.174 245.076 310.275 245.028C310.377 244.98 310.49 244.962 310.601 244.977C310.712 244.992 310.816 245.038 310.901 245.111C310.986 245.184 311.048 245.28 311.08 245.388L314.08 255.688C314.19 256.118 314.08 256.368 313.67 256.428C310.499 257.209 307.147 256.721 304.33 255.068ZM296.43 245.158C296.419 245.078 296.424 244.997 296.445 244.919C296.465 244.841 296.502 244.769 296.551 244.705C296.601 244.642 296.662 244.589 296.733 244.55C296.803 244.511 296.88 244.486 296.96 244.478L307.66 243.628C307.77 243.617 307.881 243.639 307.979 243.69C308.077 243.741 308.158 243.82 308.212 243.916C308.266 244.013 308.291 244.123 308.283 244.233C308.276 244.343 308.237 244.449 308.17 244.538L301.9 253.248C301.6 253.588 301.37 253.618 301.07 253.378C298.514 251.345 296.849 248.397 296.43 245.158ZM296.16 242.328C295.992 239.064 297.104 235.863 299.26 233.408C299.315 233.35 299.381 233.305 299.454 233.274C299.527 233.243 299.606 233.227 299.685 233.227C299.765 233.227 299.843 233.243 299.916 233.274C299.989 233.305 300.055 233.35 300.11 233.408L307.83 240.858C307.908 240.936 307.962 241.035 307.986 241.143C308.01 241.25 308.003 241.362 307.967 241.467C307.93 241.571 307.866 241.663 307.779 241.732C307.693 241.801 307.59 241.844 307.48 241.858L296.79 242.858C296.27 242.908 296.18 242.648 296.16 242.328Z" fill="#DBF1FF"/>
<path d="M359.57 220.818C359.761 219.876 359.612 218.896 359.149 218.054C358.685 217.211 357.938 216.561 357.04 216.218C356.034 215.737 354.943 215.458 353.83 215.398C352.717 215.319 351.614 215.663 350.742 216.359C349.869 217.055 349.29 218.054 349.12 219.158C352.212 220.002 355.382 220.535 358.58 220.748L359.57 220.818Z" fill="#DBF1FF"/>
<path d="M51.3996 204.868C51.3807 205.182 51.4854 205.492 51.6913 205.731C51.8973 205.969 52.1883 206.118 52.5024 206.146C52.8165 206.173 53.1289 206.077 53.3731 205.877C53.6172 205.678 53.7739 205.391 53.8096 205.078C53.8298 204.759 53.727 204.444 53.5224 204.199C53.3178 203.953 53.027 203.795 52.7096 203.758C52.3891 203.733 52.0716 203.835 51.8263 204.043C51.581 204.251 51.4277 204.547 51.3996 204.868Z" fill="#DBF1FF"/>
<path d="M54.8198 205.168C54.7914 205.465 54.88 205.762 55.0666 205.995C55.2533 206.229 55.5234 206.38 55.8198 206.418C56.1162 206.441 56.4104 206.351 56.6426 206.165C56.8748 205.979 57.0275 205.712 57.0698 205.418C57.0925 205.12 56.997 204.824 56.804 204.596C56.611 204.367 56.3359 204.224 56.0381 204.196C55.7403 204.169 55.4435 204.259 55.2119 204.449C54.9802 204.638 54.8322 204.91 54.7998 205.208L54.8198 205.168Z" fill="#DBF1FF"/>
<path d="M58.2399 205.477C58.2205 205.756 58.3109 206.031 58.4916 206.244C58.6724 206.457 58.9292 206.591 59.2073 206.617C59.4853 206.643 59.7626 206.559 59.9798 206.384C60.197 206.208 60.337 205.955 60.3699 205.677C60.3892 205.399 60.2989 205.124 60.1181 204.911C59.9374 204.698 59.6805 204.564 59.4025 204.538C59.1244 204.512 58.8472 204.595 58.6299 204.771C58.4127 204.946 58.2727 205.2 58.2399 205.477Z" fill="#DBF1FF"/>
<path d="M61.66 205.797C61.6429 205.994 61.6846 206.192 61.78 206.366C61.8754 206.539 62.02 206.68 62.1957 206.771C62.3714 206.863 62.5701 206.9 62.7668 206.878C62.9635 206.856 63.1493 206.776 63.3006 206.649C63.4519 206.521 63.562 206.351 63.617 206.161C63.6719 205.971 63.6692 205.769 63.6091 205.58C63.5491 205.392 63.4345 205.225 63.2798 205.102C63.1251 204.979 62.9372 204.904 62.74 204.887C62.4762 204.865 62.2143 204.948 62.0119 205.119C61.8094 205.29 61.6829 205.534 61.66 205.797Z" fill="#DBF1FF"/>
<path d="M65.0804 206.108C65.0651 206.291 65.1046 206.475 65.1939 206.636C65.2833 206.797 65.4184 206.928 65.5821 207.012C65.7459 207.096 65.9309 207.13 66.1138 207.109C66.2967 207.087 66.4692 207.013 66.6095 206.893C66.7497 206.774 66.8515 206.616 66.9018 206.439C66.9521 206.262 66.9487 206.074 66.892 205.898C66.8353 205.723 66.728 205.569 66.5835 205.455C66.439 205.341 66.2639 205.272 66.0804 205.258C65.8357 205.241 65.5943 205.32 65.4075 205.479C65.2206 205.638 65.1033 205.863 65.0804 206.108Z" fill="#DBF1FF"/>
<path d="M117.93 195.517C117.726 195.516 117.524 195.468 117.34 195.377L101.08 187.727C100.829 187.607 100.617 187.417 100.471 187.179C100.326 186.941 100.253 186.666 100.26 186.387C100.267 186.108 100.354 185.836 100.51 185.604C100.665 185.372 100.884 185.189 101.14 185.077C101.5 184.937 137.62 169.967 189.88 169.527C191.88 169.527 193.99 169.527 196.16 169.527C215.6 169.717 237.71 172.887 267.65 194.757C267.899 194.936 268.085 195.19 268.18 195.481C268.275 195.773 268.275 196.087 268.179 196.378C268.083 196.669 267.896 196.922 267.647 197.1C267.397 197.278 267.097 197.372 266.79 197.367L117.93 195.517Z" fill="#29566D"/>
<path d="M234.38 171.338C234.38 171.338 249.03 175.338 276.21 195.518C279.85 198.208 296.68 198.228 296.68 198.228C287.1 195.228 269.13 184.488 269.13 184.488C257.82 178.488 249.75 173.658 239.06 170.308L234.38 171.338Z" fill="#29566D"/>
<path d="M348.36 215.758C348.362 216.065 348.273 216.365 348.103 216.622C347.934 216.878 347.693 217.078 347.41 217.197C347.127 217.316 346.815 217.348 346.514 217.289C346.212 217.231 345.935 217.084 345.717 216.867C345.5 216.651 345.351 216.375 345.29 216.074C345.23 215.773 345.26 215.461 345.377 215.177C345.494 214.893 345.692 214.65 345.948 214.48C346.203 214.309 346.503 214.218 346.81 214.218C347.219 214.218 347.612 214.38 347.902 214.668C348.193 214.957 348.357 215.348 348.36 215.758Z" fill="#DBF1FF"/>
<path d="M197.71 196.508C197.622 196.422 197.528 196.342 197.43 196.268L187.74 169.558H187L196.76 196.488L197.71 196.508Z" fill="#1F4152"/>
<path d="M132.24 195.688L143.71 173.688L142.81 173.837L131.43 195.628C131.69 195.688 132 195.688 132.24 195.688Z" fill="#1F4152"/>
<path d="M272.57 195.667C239.57 170.207 216.71 167.897 196.18 167.667C193.99 167.667 191.86 167.667 189.86 167.667C188.93 167.667 188 167.667 187.07 167.727C186.877 167.716 186.683 167.716 186.49 167.727C172.307 168.014 158.165 169.351 144.18 171.727C144.11 171.727 142.4 172.017 141.61 172.167C116.52 176.687 101.08 183.107 100.44 183.387C99.8603 183.631 99.3634 184.037 99.01 184.558C98.6565 185.078 98.4616 185.69 98.4489 186.318C98.4362 186.947 98.6062 187.566 98.9384 188.1C99.2706 188.635 99.7506 189.061 100.32 189.327L116.57 196.997C116.987 197.203 117.446 197.309 117.91 197.307L129.41 197.737C127.17 198.897 122.95 201.617 122.91 205.607C123.005 209.982 123.338 214.349 123.91 218.687C123.916 218.74 123.934 218.79 123.961 218.835C123.989 218.88 124.026 218.919 124.07 218.947C124.2 219.027 136.35 227.647 131.9 252.667C131.89 252.719 131.891 252.772 131.905 252.822C131.919 252.873 131.945 252.919 131.98 252.957C132.012 253 132.052 253.034 132.099 253.058C132.146 253.083 132.198 253.096 132.25 253.097L271.83 254.367C271.916 254.367 271.998 254.336 272.064 254.282C272.129 254.227 272.174 254.151 272.19 254.067C272.34 252.977 272.63 251.547 273.02 249.567C274.27 243.167 276.6 231.267 278.79 209.947C279.68 201.157 275.9 198.247 272.57 195.667ZM117.92 196.597C117.574 196.592 117.234 196.513 116.92 196.367L100.66 188.707C100.219 188.497 99.8476 188.163 99.5912 187.747C99.3347 187.331 99.2039 186.849 99.2145 186.36C99.2251 185.871 99.3765 185.396 99.6507 184.991C99.9249 184.586 100.31 184.269 100.76 184.077C101.4 183.817 116.76 177.407 141.76 172.907C142.34 172.797 142.92 172.717 143.49 172.617L142.84 173.877L143.74 173.727L144.39 172.457C158.345 170.082 172.457 168.745 186.61 168.457L187 169.517H187.77L187.39 168.457L189.9 168.397C191.9 168.397 194.02 168.397 196.2 168.397C216.61 168.587 239.3 170.887 272.2 196.217C273.086 196.883 273.937 197.594 274.75 198.347L198.84 197.657C198.53 197.228 198.174 196.832 197.78 196.477H196.78L196.84 196.597C196.865 196.674 196.915 196.741 196.98 196.787C197.325 197.035 197.632 197.331 197.89 197.667L131.57 197.057L132.29 195.667C132.02 195.667 131.74 195.667 131.48 195.667L130.76 197.057L117.92 196.597ZM132.67 252.387C136.77 228.627 125.95 219.497 124.6 218.467C124.035 214.205 123.701 209.916 123.6 205.617C123.65 201.017 130.26 198.097 130.96 197.787L198.35 198.407C199.756 200.797 200.421 203.55 200.26 206.317C200.26 209.177 196.62 248.917 196.26 252.957L132.67 252.387ZM278.06 209.887C276.802 223.163 274.876 236.366 272.29 249.447C271.94 251.237 271.68 252.587 271.51 253.647L197 252.997C197.42 248.387 201 209.267 201 206.357C201.147 203.608 200.535 200.872 199.23 198.447L275.35 199.137C277.26 201.287 278.62 204.367 278.06 209.887Z" fill="#7ABDE1"/>
<path opacity="0.5" d="M267.65 194.748C237.71 172.878 215.65 169.748 196.16 169.518C193.99 169.518 191.86 169.518 189.88 169.518C137.62 169.958 101.5 184.928 101.14 185.068C100.884 185.18 100.665 185.362 100.51 185.594C100.354 185.826 100.267 186.098 100.26 186.378C100.253 186.656 100.326 186.931 100.471 187.169C100.617 187.407 100.829 187.598 101.08 187.718L117.34 195.368C117.524 195.458 117.726 195.506 117.93 195.508L266.79 197.348C267.097 197.352 267.397 197.258 267.647 197.081C267.896 196.903 268.083 196.65 268.179 196.358C268.275 196.067 268.275 195.753 268.18 195.461C268.085 195.17 267.899 194.916 267.65 194.738V194.748ZM118.12 193.348L103.53 186.478C110.92 183.668 144.27 172.078 189.89 171.688H193.89H196.12C214.79 171.848 235.99 174.848 264.51 195.158L118.12 193.348Z" fill="#1F4152"/>
<g style="mix-blend-mode:multiply" opacity="0.3">
<path d="M60.0004 226.577C60.8604 223.137 52.1303 221.287 48.4403 220.667C48.5103 223.887 48.5004 226.737 47.8604 227.667C51.4504 227.817 59.6704 227.917 60.0004 226.577Z" fill="#98D4FC"/>
</g>
<g style="mix-blend-mode:multiply" opacity="0.3">
<path d="M367.43 238.298C367.28 234.248 367.26 229.578 366.75 225.628C363.656 225.945 360.531 225.773 357.49 225.118C356.17 224.858 355.82 226.198 355.78 227.578C355.62 232.088 355.31 238.758 356.68 240.228C358.3 241.988 361.56 240.228 367.37 242.998C367.472 241.433 367.492 239.864 367.43 238.298Z" fill="#98D4FC"/>
</g>
<path d="M221 205.377L205.1 205.177V204.997C205.118 204.112 205.484 203.27 206.118 202.652C206.753 202.035 207.604 201.692 208.49 201.697L217.78 201.817C218.244 201.823 218.702 201.924 219.126 202.115C219.549 202.306 219.928 202.583 220.24 202.927C220.813 203.589 221.113 204.443 221.08 205.317C221.075 205.335 221.065 205.35 221.05 205.361C221.036 205.372 221.018 205.378 221 205.377ZM205.47 204.817L220.71 205.007C220.667 204.252 220.34 203.54 219.795 203.015C219.25 202.491 218.526 202.191 217.77 202.177L208.48 202.067H208.37C207.628 202.082 206.917 202.371 206.376 202.879C205.835 203.387 205.501 204.078 205.44 204.817H205.47Z" fill="#7ABDE1"/>
<path d="M143.5 204.818L127.6 204.368V204.178C127.634 203.292 128.014 202.454 128.659 201.846C129.305 201.239 130.163 200.909 131.05 200.928L140.34 201.198C140.804 201.209 141.261 201.32 141.68 201.521C142.099 201.723 142.471 202.011 142.77 202.368C143.329 203.035 143.621 203.887 143.59 204.758C143.589 204.768 143.585 204.778 143.58 204.787C143.575 204.796 143.567 204.803 143.559 204.809C143.55 204.815 143.54 204.818 143.53 204.82C143.52 204.821 143.51 204.821 143.5 204.818ZM128 203.998L143.23 204.438C143.2 203.682 142.885 202.965 142.35 202.431C141.814 201.897 141.096 201.585 140.34 201.558L131 201.298H130.88C130.154 201.323 129.463 201.611 128.933 202.107C128.403 202.604 128.072 203.275 128 203.998Z" fill="#7ABDE1"/>
<path d="M87.0003 269.198C87.0003 269.198 104.28 236.708 90.2403 237.048C84.4703 237.198 79.4903 263.048 79.4903 263.048C79.4903 263.048 80.6203 239.478 69.0803 243.178C62.8303 245.178 72.2803 263.048 72.2803 263.048C72.2803 263.048 63.7303 251.508 58.9103 254.788C51.0703 260.128 65.4603 269.308 65.4603 269.308L87.0003 269.198Z" fill="#A2DDD0"/>
<path d="M94.5596 269.168C94.5596 269.168 97.5596 251.968 104.29 252.258C109.08 252.478 104.76 264.118 100.71 269.148L94.5596 269.168Z" fill="#A2DDD0"/>
<path d="M82.79 269.207L90 243.757C90.0112 243.717 90.0303 243.679 90.0562 243.645C90.0821 243.612 90.1143 243.584 90.1509 243.563C90.1876 243.542 90.2281 243.529 90.2699 243.524C90.3118 243.518 90.3543 243.521 90.395 243.532C90.4357 243.544 90.4739 243.563 90.5072 243.589C90.5405 243.614 90.5685 243.647 90.5893 243.683C90.6102 243.72 90.6237 243.76 90.629 243.802C90.6342 243.844 90.6312 243.887 90.62 243.927L83.48 269.207H82.79Z" fill="#E0FBF0"/>
<path d="M76.8299 269.237L71.8299 248.637C71.8195 248.596 71.8175 248.553 71.824 248.511C71.8306 248.469 71.8454 248.428 71.8678 248.392C71.8901 248.355 71.9195 248.324 71.9543 248.299C71.989 248.274 72.0283 248.257 72.0699 248.247C72.1533 248.229 72.2406 248.244 72.3133 248.289C72.3861 248.333 72.4386 248.405 72.4599 248.487L77.4599 269.237H76.8299Z" fill="#E0FBF0"/>
<path d="M97.71 269.147L102.32 257.667C102.334 257.627 102.357 257.59 102.386 257.558C102.415 257.527 102.451 257.502 102.49 257.485C102.53 257.468 102.572 257.46 102.615 257.46C102.658 257.46 102.701 257.47 102.74 257.487C102.818 257.521 102.881 257.583 102.914 257.661C102.948 257.739 102.95 257.828 102.92 257.907L98.41 269.147H97.71Z" fill="#E0FBF0"/>
<path d="M71.5403 269.268L62.4703 259.048C62.4104 258.986 62.377 258.904 62.377 258.818C62.377 258.732 62.4104 258.649 62.4703 258.588C62.5001 258.557 62.5359 258.532 62.5754 258.516C62.6149 258.499 62.6574 258.49 62.7003 258.49C62.7432 258.49 62.7857 258.499 62.8252 258.516C62.8647 258.532 62.9005 258.557 62.9303 258.588L72.3603 269.238L71.5403 269.268Z" fill="#E0FBF0"/>
<path d="M241.77 122.668C234.86 103.198 230.17 101.178 221.65 103.668C213.13 106.158 210.26 110.378 214.89 130.518C220.09 153.158 223.06 154.518 226.78 155.518C230.047 156.112 233.408 155.937 236.596 155.009C239.784 154.08 242.713 152.423 245.15 150.168C247.76 147.298 249.54 144.568 241.77 122.668ZM226.4 108.088C226.37 108.149 226.328 108.203 226.276 108.248C226.225 108.293 226.165 108.327 226.1 108.348L220.42 109.998C220.357 110.025 220.289 110.039 220.22 110.039C220.151 110.039 220.083 110.025 220.02 109.998C219.964 109.958 219.916 109.908 219.88 109.849C219.844 109.791 219.82 109.726 219.81 109.658L219.59 107.868C219.578 107.756 219.606 107.644 219.668 107.551C219.73 107.458 219.823 107.39 219.93 107.358L225.06 105.858C225.168 105.827 225.283 105.836 225.385 105.882C225.487 105.927 225.57 106.007 225.62 106.108L226.39 107.738C226.438 107.849 226.442 107.974 226.4 108.088Z" fill="#2F627C"/>
<path d="M231.71 105.638C230.496 104.557 228.961 103.904 227.34 103.778C225.497 103.695 223.655 103.959 221.91 104.558C220.12 104.994 218.425 105.757 216.91 106.808C215.614 107.792 214.673 109.171 214.23 110.738C213.06 114.488 213.54 120.518 215.79 130.298C218.18 140.668 220.21 147.138 222.2 150.658C223.96 153.768 225.45 154.168 227.02 154.588C230.124 155.14 233.313 154.969 236.339 154.088C239.366 153.207 242.148 151.64 244.47 149.508C245.57 148.308 246.62 147.178 246.42 143.598C246.21 139.598 244.42 133.008 240.9 122.978C237.54 113.528 234.71 108.188 231.71 105.638ZM226.4 108.088C226.37 108.149 226.328 108.203 226.277 108.248C226.225 108.293 226.165 108.327 226.1 108.348L220.42 109.998C220.357 110.025 220.289 110.038 220.22 110.038C220.152 110.038 220.084 110.025 220.02 109.998C219.964 109.958 219.917 109.907 219.881 109.849C219.844 109.791 219.821 109.725 219.81 109.658L219.59 107.868C219.579 107.756 219.606 107.644 219.668 107.551C219.73 107.458 219.823 107.39 219.93 107.358L225.06 105.858C225.168 105.827 225.283 105.836 225.385 105.881C225.488 105.927 225.571 106.007 225.62 106.108L226.39 107.738C226.439 107.849 226.442 107.974 226.4 108.088Z" fill="#29566D"/>
<g style="mix-blend-mode:multiply" opacity="0.2">
<path d="M218.64 144.507C221.73 153.837 224.06 154.757 226.78 155.507C230.047 156.101 233.407 155.927 236.596 154.999C239.784 154.07 242.712 152.413 245.15 150.157C247.06 148.077 248.53 146.057 246.15 136.527C243.543 141.208 239.197 144.673 234.053 146.171C228.908 147.668 223.381 147.078 218.67 144.527L218.64 144.507Z" fill="#2F627C"/>
</g>
<path d="M230.71 120.228C230.698 120.456 230.616 120.675 230.474 120.854C230.333 121.033 230.139 121.164 229.92 121.228L224.12 122.918C223.898 122.981 223.662 122.974 223.444 122.899C223.226 122.824 223.036 122.684 222.9 122.498L219.35 123.498C219.78 126.706 220.422 129.883 221.27 133.008L225.6 131.748C225.615 131.519 225.7 131.301 225.843 131.122C225.986 130.943 226.18 130.813 226.4 130.748L232.2 129.058C232.422 128.995 232.657 129.001 232.875 129.077C233.094 129.152 233.283 129.292 233.42 129.478L237.76 128.218C236.792 125.145 235.626 122.139 234.27 119.218L230.71 120.228Z" fill="#4693B9"/>
<path d="M232.85 131.318L227.05 133.008C226.83 133.07 226.596 133.063 226.379 132.988C226.163 132.913 225.975 132.773 225.84 132.588L221.49 133.858C222.36 136.858 223.29 139.208 224.04 139.928C226.65 142.418 232.39 140.538 232.39 140.538C232.39 140.538 238.24 139.038 239.11 135.538C239.36 134.538 238.89 132.038 238 129.038L233.65 130.298C233.641 130.53 233.558 130.754 233.415 130.937C233.271 131.12 233.074 131.253 232.85 131.318Z" fill="#4693B9"/>
<path d="M223.47 120.697L229.27 119.007C229.49 118.944 229.725 118.95 229.942 119.025C230.158 119.1 230.346 119.241 230.48 119.427L233.9 118.427C232.49 115.507 231 113.117 229.72 112.137C227.8 110.677 224.09 112.037 224.09 112.037C224.09 112.037 220.24 112.877 219.4 115.147C218.85 116.657 218.87 119.477 219.25 122.687L222.67 121.687C222.686 121.46 222.771 121.243 222.914 121.066C223.057 120.889 223.251 120.76 223.47 120.697Z" fill="#4693B9"/>
<path d="M226.38 114.578C226.255 114.234 226.004 113.951 225.679 113.786C225.353 113.621 224.976 113.585 224.626 113.687C224.275 113.789 223.976 114.02 223.789 114.334C223.602 114.648 223.542 115.021 223.62 115.378C223.552 115.396 223.488 115.428 223.433 115.471C223.377 115.515 223.331 115.569 223.296 115.63C223.262 115.692 223.24 115.759 223.232 115.829C223.224 115.899 223.23 115.97 223.25 116.038L223.93 118.378C223.949 118.446 223.982 118.51 224.026 118.566C224.071 118.621 224.126 118.668 224.188 118.702C224.25 118.736 224.319 118.758 224.389 118.766C224.46 118.774 224.531 118.768 224.6 118.748L227.46 117.918C227.595 117.874 227.707 117.78 227.774 117.655C227.841 117.53 227.858 117.384 227.82 117.248L227.14 114.908C227.116 114.833 227.076 114.764 227.024 114.706C226.971 114.648 226.907 114.601 226.835 114.57C226.763 114.539 226.685 114.523 226.606 114.525C226.528 114.526 226.451 114.544 226.38 114.578ZM226.09 117.418C226.096 117.432 226.1 117.448 226.101 117.464C226.101 117.48 226.099 117.495 226.093 117.51C226.088 117.525 226.079 117.539 226.068 117.55C226.057 117.562 226.044 117.571 226.03 117.578H225.85L225.6 117.658H225.43C225.414 117.662 225.397 117.663 225.381 117.66C225.365 117.658 225.349 117.651 225.336 117.641C225.322 117.632 225.311 117.619 225.303 117.605C225.295 117.59 225.291 117.574 225.29 117.558L225.17 116.448C225.098 116.432 225.032 116.396 224.979 116.345C224.926 116.294 224.888 116.229 224.87 116.158C224.841 116.062 224.847 115.959 224.885 115.866C224.923 115.773 224.992 115.696 225.08 115.648H225.16H225.24C225.327 115.639 225.414 115.656 225.491 115.698C225.568 115.74 225.63 115.805 225.669 115.883C225.708 115.961 225.722 116.05 225.71 116.136C225.698 116.223 225.659 116.304 225.6 116.368L226.09 117.418ZM223.94 115.288C223.901 115.036 223.955 114.778 224.092 114.563C224.23 114.348 224.44 114.191 224.685 114.12C224.93 114.049 225.192 114.069 225.423 114.177C225.654 114.286 225.838 114.474 225.94 114.708L223.94 115.288Z" fill="#29566D"/>
<path d="M232.29 134.868C232.344 134.516 232.267 134.156 232.072 133.858C231.877 133.56 231.578 133.345 231.234 133.254C230.889 133.163 230.524 133.203 230.207 133.367C229.89 133.53 229.646 133.804 229.52 134.138L229.88 134.278C229.979 134.018 230.175 133.808 230.428 133.692C230.68 133.576 230.968 133.563 231.23 133.658C231.362 133.699 231.484 133.767 231.588 133.857C231.693 133.948 231.777 134.059 231.836 134.184C231.896 134.309 231.928 134.445 231.932 134.584C231.936 134.722 231.912 134.859 231.86 134.988L229.94 135.548L229.56 135.658C229.493 135.677 229.43 135.71 229.376 135.754C229.321 135.797 229.276 135.851 229.242 135.913C229.209 135.974 229.188 136.041 229.181 136.111C229.173 136.18 229.18 136.251 229.2 136.318L229.88 138.658C229.899 138.726 229.932 138.79 229.976 138.845C230.021 138.901 230.076 138.947 230.138 138.982C230.2 139.016 230.269 139.038 230.339 139.046C230.41 139.054 230.481 139.047 230.55 139.028L233.4 138.198C233.468 138.178 233.532 138.145 233.588 138.101C233.643 138.057 233.69 138.002 233.724 137.939C233.758 137.877 233.78 137.809 233.788 137.738C233.796 137.667 233.79 137.596 233.77 137.528L233.09 135.188C233.066 135.108 233.025 135.035 232.969 134.974C232.913 134.913 232.844 134.865 232.767 134.834C232.69 134.804 232.607 134.791 232.525 134.796C232.442 134.802 232.362 134.827 232.29 134.868ZM232 137.708C232.008 137.721 232.013 137.736 232.015 137.752C232.016 137.767 232.014 137.783 232.008 137.798C232.002 137.812 231.993 137.826 231.981 137.836C231.969 137.846 231.955 137.854 231.94 137.858L231.76 137.918L231.51 137.988H231.34C231.324 137.992 231.307 137.993 231.291 137.99C231.275 137.987 231.259 137.981 231.246 137.971C231.232 137.962 231.221 137.949 231.213 137.935C231.205 137.92 231.201 137.904 231.2 137.888L231.08 136.778C231.009 136.76 230.944 136.723 230.891 136.673C230.839 136.622 230.8 136.558 230.78 136.488C230.757 136.393 230.766 136.294 230.806 136.205C230.846 136.117 230.914 136.044 231 135.998H231.08H231.17C231.269 135.989 231.368 136.015 231.45 136.072C231.532 136.129 231.592 136.212 231.62 136.308C231.639 136.379 231.64 136.454 231.622 136.525C231.605 136.597 231.569 136.663 231.52 136.718L232 137.708Z" fill="#29566D"/>
<path d="M232.48 124.158C232.48 124.158 232.35 124.078 232.14 124.068L232.44 123.368C232.456 123.34 232.466 123.308 232.469 123.276C232.473 123.244 232.469 123.211 232.459 123.18C232.448 123.15 232.432 123.121 232.41 123.098C232.388 123.074 232.361 123.055 232.331 123.042C232.301 123.029 232.269 123.023 232.237 123.023C232.204 123.024 232.172 123.031 232.143 123.045C232.114 123.059 232.087 123.079 232.066 123.103C232.045 123.128 232.029 123.157 232.02 123.188L231.64 124.038H230.77C229.855 124.018 228.942 124.133 228.06 124.378H227.99C227.301 124.524 226.671 124.872 226.18 125.378L226.05 125.508C225.851 125.736 225.626 125.941 225.38 126.118C224.32 126.588 223.71 126.988 223.58 127.338C223.542 127.553 223.563 127.774 223.64 127.978V128.058C223.654 128.162 223.69 128.262 223.745 128.352C223.8 128.441 223.873 128.518 223.96 128.578C224.242 128.691 224.558 128.691 224.84 128.578H224.94C225.057 128.68 225.198 128.752 225.351 128.785C225.503 128.818 225.661 128.812 225.81 128.768C225.958 128.718 226.092 128.634 226.201 128.522C226.31 128.411 226.392 128.276 226.44 128.128L230.81 126.818C230.93 126.932 231.079 127.013 231.24 127.052C231.402 127.091 231.571 127.086 231.73 127.038C231.897 126.99 232.048 126.896 232.165 126.767C232.281 126.638 232.359 126.479 232.39 126.308C233.01 125.978 233.08 125.798 233.1 125.738C233.27 125.338 232.58 124.238 232.48 124.158ZM232.67 125.578C232.487 125.722 232.289 125.846 232.08 125.948C232.044 125.968 232.013 125.997 231.991 126.032C231.968 126.067 231.954 126.106 231.95 126.148C231.948 126.248 231.913 126.344 231.852 126.423C231.791 126.503 231.706 126.56 231.61 126.588C231.515 126.612 231.416 126.608 231.323 126.576C231.231 126.544 231.15 126.485 231.09 126.408C231.064 126.368 231.025 126.337 230.98 126.321C230.935 126.305 230.886 126.303 230.84 126.318L226.2 127.718C226.157 127.73 226.118 127.755 226.088 127.788C226.058 127.822 226.038 127.863 226.03 127.908C226.022 128 225.986 128.087 225.927 128.159C225.868 128.23 225.789 128.282 225.7 128.308C225.611 128.336 225.516 128.337 225.427 128.311C225.337 128.284 225.258 128.23 225.2 128.158C225.17 128.122 225.131 128.097 225.086 128.084C225.041 128.072 224.994 128.073 224.95 128.088L224.73 128.158C224.567 128.219 224.394 128.246 224.22 128.238C224.22 128.238 224.16 128.188 224.12 128.008V127.938C224.076 127.819 224.053 127.694 224.05 127.568C224.481 127.134 225.009 126.808 225.59 126.618C225.894 126.423 226.17 126.187 226.41 125.918C226.454 125.869 226.501 125.822 226.55 125.778C226.972 125.307 227.532 124.981 228.15 124.848H228.23C229.063 124.616 229.926 124.508 230.79 124.528H231.47L231.39 124.718C231.377 124.745 231.37 124.775 231.369 124.805C231.368 124.836 231.373 124.866 231.384 124.894C231.396 124.922 231.413 124.948 231.434 124.969C231.456 124.99 231.482 125.007 231.51 125.018C231.533 125.03 231.559 125.036 231.585 125.036C231.611 125.036 231.637 125.03 231.66 125.018C231.694 125.009 231.725 124.993 231.751 124.971C231.777 124.948 231.797 124.92 231.81 124.888L231.97 124.538H232.22C232.417 124.862 232.569 125.212 232.67 125.578Z" fill="#29566D"/>
<path d="M202.86 119.237L193.86 147.627L195.24 151.347L196.82 150.267L199.27 149.097C199.681 148.964 200.071 148.775 200.43 148.537C200.7 148.277 200.78 147.657 200.91 147.317C200.929 147.255 200.932 147.189 200.922 147.126C200.911 147.062 200.886 147.001 200.848 146.948C200.811 146.895 200.762 146.851 200.705 146.82C200.648 146.789 200.585 146.771 200.52 146.767C199.93 146.767 199.91 145.897 200.13 145.507C200.505 145.016 200.962 144.593 201.48 144.257C201.92 143.977 202.256 143.56 202.436 143.07C202.617 142.581 202.632 142.046 202.48 141.547V141.497L202.36 141.287L202.27 141.137C202.273 141.117 202.273 141.097 202.27 141.077V140.907V140.837C202.266 140.605 202.292 140.373 202.35 140.147C202.372 140.079 202.388 140.008 202.4 139.937L202.58 139.767C203.2 139.197 203.95 138.587 203.93 137.657C203.877 137.24 203.744 136.836 203.54 136.467C203.404 136.102 203.386 135.703 203.49 135.327C203.593 134.958 203.799 134.627 204.084 134.371C204.37 134.116 204.722 133.948 205.1 133.887C205.227 133.877 205.35 133.839 205.46 133.777C205.649 133.64 205.778 133.436 205.82 133.207C205.9 132.917 205.96 132.627 206.04 132.337C206.37 131.117 206.7 129.907 207.04 128.697C207.051 128.661 207.051 128.623 207.04 128.587C207.05 128.534 207.049 128.48 207.036 128.427C207.024 128.375 207 128.326 206.967 128.283C206.934 128.241 206.892 128.206 206.844 128.181C206.797 128.155 206.744 128.141 206.69 128.137C206.231 128.117 205.776 128.05 205.33 127.937L206.52 127.087C207.038 126.812 207.488 126.426 207.84 125.957C208.114 125.321 208.289 124.646 208.36 123.957C208.44 123.597 208.61 121.447 208.69 121.087L202.86 119.237Z" fill="#98D4FC"/>
<path d="M204.49 122.208C204.461 122.206 204.433 122.214 204.41 122.231C204.386 122.247 204.369 122.27 204.36 122.298L195.25 150.678C195.241 150.711 195.245 150.746 195.262 150.776C195.279 150.806 195.307 150.828 195.34 150.838C195.372 150.847 195.406 150.844 195.436 150.83C195.466 150.815 195.489 150.789 195.5 150.758L204.61 122.378C204.619 122.345 204.615 122.309 204.598 122.279C204.581 122.249 204.553 122.227 204.52 122.218L204.49 122.208Z" fill="#7ABDE1"/>
<path d="M206.25 128.507C206.221 128.506 206.193 128.514 206.169 128.53C206.146 128.547 206.128 128.57 206.12 128.597L204.47 133.777C204.46 133.811 204.465 133.846 204.482 133.876C204.498 133.906 204.526 133.928 204.56 133.937C204.575 133.944 204.592 133.947 204.609 133.946C204.626 133.945 204.642 133.941 204.657 133.933C204.673 133.926 204.686 133.915 204.697 133.902C204.707 133.889 204.715 133.874 204.72 133.857L206.37 128.677C206.379 128.644 206.375 128.609 206.358 128.579C206.341 128.549 206.313 128.527 206.28 128.517L206.25 128.507Z" fill="#7ABDE1"/>
<path d="M216.06 121.997L218.4 109.817C218.529 109.144 218.406 108.446 218.053 107.858C217.701 107.269 217.144 106.831 216.49 106.627L205.21 103.057C204.555 102.85 203.847 102.89 203.22 103.17C202.593 103.45 202.091 103.951 201.81 104.577L196.73 115.887C196.569 116.248 196.486 116.639 196.486 117.033C196.487 117.428 196.57 117.819 196.732 118.179C196.893 118.54 197.128 118.862 197.423 119.125C197.717 119.389 198.064 119.587 198.44 119.707L212.44 124.137C212.817 124.256 213.216 124.293 213.609 124.247C214.002 124.2 214.38 124.071 214.72 123.867C215.064 123.67 215.362 123.401 215.593 123.078C215.824 122.755 215.983 122.387 216.06 121.997ZM212.67 110.087C212.609 110.117 212.542 110.132 212.475 110.132C212.407 110.132 212.34 110.117 212.28 110.087L206.63 108.307C206.565 108.286 206.505 108.25 206.455 108.204C206.405 108.157 206.366 108.1 206.34 108.037C206.31 107.977 206.294 107.91 206.294 107.842C206.294 107.775 206.31 107.708 206.34 107.647L207.15 106.027C207.201 105.929 207.285 105.852 207.388 105.81C207.49 105.768 207.604 105.764 207.71 105.797L212.81 107.407C212.917 107.44 213.009 107.511 213.068 107.607C213.127 107.702 213.149 107.817 213.13 107.927L212.87 109.707C212.869 109.781 212.85 109.853 212.816 109.917C212.781 109.982 212.731 110.037 212.67 110.077V110.087Z" fill="#4693B9"/>
<path d="M203.35 114.467C202.946 114.341 202.608 114.06 202.409 113.685C202.211 113.311 202.168 112.873 202.29 112.467L202.53 111.697C202.671 111.306 202.957 110.983 203.33 110.797C203.702 110.611 204.132 110.575 204.53 110.697L212.63 113.257C213.033 113.386 213.369 113.668 213.567 114.042C213.765 114.415 213.809 114.852 213.69 115.257L213.45 116.027C213.309 116.419 213.023 116.742 212.65 116.928C212.278 117.114 211.848 117.15 211.45 117.027L203.35 114.467Z" fill="#2F627C"/>
<path d="M225.62 106.057C225.571 105.957 225.488 105.877 225.385 105.831C225.283 105.786 225.168 105.777 225.06 105.807L223.52 106.257C222.352 107.125 221.038 107.775 219.64 108.177C219.206 108.3 218.766 108.397 218.32 108.467C218.457 108.901 218.485 109.361 218.4 109.807V109.927C221.164 109.487 223.726 108.209 225.74 106.267L225.62 106.057Z" fill="#98D4FC"/>
<path d="M216 82.9977C212.402 83.079 208.984 84.5839 206.494 87.1821C204.005 89.7804 202.647 93.26 202.72 96.8577C202.766 98.9942 203.321 101.089 204.34 102.968C205.04 104.244 205.938 105.402 207 106.398C208.664 107.957 210.692 109.074 212.9 109.648L213.12 108.218C211.672 107.81 210.314 107.132 209.12 106.218C208.039 105.42 207.096 104.451 206.33 103.348C205.089 101.551 204.357 99.4535 204.209 97.2756C204.061 95.0976 204.504 92.9202 205.491 90.9729C206.478 89.0257 207.972 87.3807 209.815 86.2117C211.659 85.0426 213.783 84.3927 215.966 84.3304C218.148 84.2682 220.306 84.796 222.213 85.8581C224.12 86.9203 225.706 88.4774 226.802 90.3652C227.898 92.2531 228.464 94.4018 228.441 96.5846C228.417 98.7674 227.806 100.904 226.67 102.768C227.199 102.769 227.728 102.816 228.25 102.908C229.359 100.821 229.904 98.4814 229.83 96.1197C229.756 93.7579 229.065 91.4566 227.827 89.4441C226.589 87.4316 224.846 85.7779 222.771 84.647C220.696 83.5162 218.362 82.9476 216 82.9977Z" fill="#98D4FC"/>
<mask id="mask0_286_1118" style="mask-type:luminance" maskUnits="userSpaceOnUse" x="74" y="0" width="197" height="131">
<path d="M243.35 124.908C178.76 152.268 116.88 60.5375 114.26 64.9975C105.68 79.5375 94.15 87.9075 85.26 84.7575C73.59 80.6275 70.79 58.4775 79 35.2675C87.21 12.0575 103.24 -3.44246 114.88 0.657536C120.15 2.51754 237.3 24.4975 263.62 39.5475C283.81 51.0975 257.3 118.998 243.35 124.908Z" fill="white"/>
</mask>
<g mask="url(#mask0_286_1118)">
<path d="M121.131 50.1275C112.941 73.3375 96.8708 88.8375 85.2308 84.7275C73.5908 80.6175 70.7908 58.4775 79.0008 35.2675C87.2108 12.0575 103.241 -3.44246 114.881 0.657536C126.521 4.75754 129.311 26.9075 121.131 50.1275Z" fill="#DBF1FF"/>
<path d="M145.86 58.9374C148.35 60.4174 150.76 61.9974 153.13 63.6574C155.538 65.3589 158.111 66.8129 160.81 67.9974C166.11 70.2974 171.71 71.7474 177.11 73.7374C183.001 75.8817 188.431 79.1259 193.11 83.2974C196.74 86.5074 200.78 91.4474 205.93 92.0374C207.83 92.2574 209.48 91.2874 209.6 89.2774C209.73 86.9474 208.24 84.5074 206.95 82.6874C205.179 80.2857 203.078 78.1448 200.71 76.3274C198.29 74.3274 195.61 72.6674 193.57 70.3274C189.26 65.3274 190.28 58.2674 194.04 53.3274C196.92 51.0874 201.04 52.5374 203.57 54.8574C206.57 57.6274 208.79 61.3674 211.18 64.6574C213.57 67.9474 216.28 71.3574 218.5 74.9074C219.594 76.6038 220.436 78.4497 221 80.3874C221.52 82.3874 221.43 84.5274 222.19 86.4474C223.19 88.8674 225.62 90.5374 228.12 89.0874C231.01 87.4274 231.05 83.6774 230.8 80.7574C230.15 73.4374 226.69 66.7574 223.03 60.5674C221.43 57.8374 219.76 55.1474 218.18 52.3974C225.32 52.2574 231.81 56.5574 238.18 59.3974C241.405 60.8882 244.75 62.1026 248.18 63.0274C251.18 63.7974 255 64.8174 258.04 63.9574C260.04 63.3974 261.96 61.3174 261.04 59.1374C260.485 58.1375 259.57 57.3866 258.48 57.0374C256.7 56.2174 246.14 50.3174 242.59 48.2674C245.531 47.7926 248.438 47.1245 251.29 46.2674C252.85 45.7774 254.45 44.8774 254.94 43.2074C255.115 42.5388 255.066 41.8317 254.803 41.193C254.54 40.5543 254.075 40.0188 253.48 39.6674C251.73 38.5074 249.41 38.7974 247.43 38.8474C244.85 38.9074 242.27 38.9874 239.69 39.0374C237.11 39.0874 227.29 37.2074 224.99 37.0374C219.79 36.6774 214.53 37.6574 209.39 36.6274C206.61 32.8274 203.12 29.7574 198.28 28.4274C194.644 27.5586 190.907 27.1853 187.17 27.3174C182.72 27.3174 178.27 27.3674 173.82 27.3874L146.05 27.5474C134.54 27.6174 98.1705 25.9174 70.4805 24.8374V61.2374C92.7805 59.9074 119.76 58.1274 126.14 57.7074C132.52 57.2874 143.35 57.4374 145.86 58.9374Z" fill="#FFA18A"/>
<path d="M218.34 52.1374C217.385 49.4122 216.201 46.7727 214.8 44.2474C214.1 42.9774 213.34 41.7374 212.52 40.5374C211.7 39.3374 210.73 38.1074 209.9 36.8374C209.7 36.5374 209.21 36.8374 209.41 37.1274C210.99 39.5374 212.76 41.7774 214.18 44.2974C215.614 46.8556 216.825 49.5321 217.8 52.2974C217.92 52.6474 218.46 52.4974 218.34 52.1474V52.1374Z" fill="#FF7A5A"/>
<path d="M209.571 37.3976C215.269 38.0322 220.897 39.1939 226.381 40.8676C232.001 42.5976 237.631 44.5676 242.111 48.4876C242.391 48.7276 242.791 48.3276 242.511 48.0876C238.101 44.2176 232.631 42.2376 227.101 40.4976C221.389 38.716 215.518 37.4903 209.571 36.8376C209.201 36.7876 209.211 37.3576 209.571 37.3976Z" fill="#FF7A5A"/>
<path d="M144.221 57.9974C143.691 52.2074 143.521 46.1574 145.881 40.7174C146.031 40.3874 145.541 40.0974 145.391 40.4374C143.001 45.9974 143.111 52.0974 143.661 57.9974C143.661 58.3574 144.261 58.3574 144.221 57.9974Z" fill="#FF7A5A"/>
</g>
<path d="M169.42 250.658C168.9 249.097 168.024 247.68 166.86 246.518C164.613 244.011 162.237 241.625 159.74 239.368H142.89C143.411 240.698 144.151 241.932 145.08 243.018C145.918 243.935 146.861 244.75 147.89 245.448C148.952 246.184 149.974 246.979 150.95 247.828L151.66 248.478C149.17 249.348 146.37 251.768 143.97 252.938L144.77 261.068C146.77 260.808 157.91 258.508 159.84 257.878C161.403 257.725 162.956 257.477 164.49 257.138C165.8 256.788 168.26 255.578 169 254.398C169.321 253.836 169.525 253.214 169.597 252.571C169.669 251.928 169.609 251.277 169.42 250.658Z" fill="#4087AA"/>
<path d="M186.8 232.387C180.684 232.191 174.59 231.569 168.56 230.527C168.56 230.427 164.3 216.527 158.43 211.917C154.43 214.497 156.05 225.817 156.05 225.817C156.53 227.037 157.2 228.927 157.72 230.117C157.977 230.968 158.554 231.685 159.33 232.117C160.363 232.692 161.48 233.1 162.64 233.327C163.916 233.612 165.167 234 166.38 234.487C167.6 235.007 168.79 235.557 170.02 236.027C171.522 236.591 173.087 236.971 174.68 237.157C175.97 237.267 187.06 236.557 187.06 236.557C187.06 235.047 186.8 232.387 186.8 232.387Z" fill="#29566D"/>
<path d="M186.9 231.577C186.585 231.464 186.283 231.317 186 231.137C185.473 230.799 184.918 230.508 184.34 230.267C184.24 230.236 184.133 230.238 184.034 230.272C183.935 230.306 183.849 230.371 183.79 230.457C183.756 230.562 183.749 230.675 183.77 230.783C183.791 230.891 183.839 230.993 183.91 231.077C184.077 231.325 184.295 231.533 184.55 231.687C184.75 231.807 185.55 232.547 186.28 233.147C185.13 234.457 183.28 235.687 186.57 234.837C186.7 235.207 184.34 235.437 184.82 236.717C184.73 237.017 184.49 237.717 185.62 237.797C184.56 239.327 191.04 238.397 189.62 235.017C188.82 233.737 190 233.287 186.9 231.577Z" fill="#FFA18A"/>
<path d="M213.17 263.658H179.07V268.748H213.17V263.658Z" fill="#FFD471"/>
<path d="M183.06 263.658H182.56V268.748H183.06V263.658Z" fill="#FFBC33"/>
<path d="M186.76 263.658H186.26V268.748H186.76V263.658Z" fill="#FFBC33"/>
<path d="M190.37 263.658H189.87V268.748H190.37V263.658Z" fill="#FFBC33"/>
<path d="M194.08 263.658H193.58V268.748H194.08V263.658Z" fill="#FFBC33"/>
<path d="M197.94 263.658H197.44V268.748H197.94V263.658Z" fill="#FFBC33"/>
<path d="M202.04 263.658H201.54V268.748H202.04V263.658Z" fill="#FFBC33"/>
<path d="M205.91 263.658H205.41V268.748H205.91V263.658Z" fill="#FFBC33"/>
<path d="M209.61 263.658H209.11V268.748H209.61V263.658Z" fill="#FFBC33"/>
<path d="M214.13 258.268H180.03V263.508H214.13V258.268Z" fill="#FFD471"/>
<path d="M184.01 258.268H183.51V263.358H184.01V258.268Z" fill="#FFBC33"/>
<path d="M187.71 258.268H187.21V263.358H187.71V258.268Z" fill="#FFBC33"/>
<path d="M191.32 258.268H190.82V263.358H191.32V258.268Z" fill="#FFBC33"/>
<path d="M195.03 258.268H194.53V263.358H195.03V258.268Z" fill="#FFBC33"/>
<path d="M198.89 258.268H198.39V263.358H198.89V258.268Z" fill="#FFBC33"/>
<path d="M202.99 258.268H202.49V263.358H202.99V258.268Z" fill="#FFBC33"/>
<path d="M206.85 258.268H206.35V263.358H206.85V258.268Z" fill="#FFBC33"/>
<path d="M210.56 258.268H210.06V263.358H210.56V258.268Z" fill="#FFBC33"/>
<path d="M209.37 252.888H175.27V257.978H209.37V252.888Z" fill="#FFD471"/>
<path d="M179.25 252.888H178.75V257.978H179.25V252.888Z" fill="#FFBC33"/>
<path d="M182.95 252.888H182.45V257.978H182.95V252.888Z" fill="#FFBC33"/>
<path d="M186.56 252.888H186.06V257.978H186.56V252.888Z" fill="#FFBC33"/>
<path d="M190.27 252.888H189.77V257.978H190.27V252.888Z" fill="#FFBC33"/>
<path d="M194.13 252.888H193.63V257.978H194.13V252.888Z" fill="#FFBC33"/>
<path d="M198.23 252.888H197.73V257.978H198.23V252.888Z" fill="#FFBC33"/>
<path d="M202.1 252.888H201.6V257.978H202.1V252.888Z" fill="#FFBC33"/>
<path d="M205.8 252.888H205.3V257.978H205.8V252.888Z" fill="#FFBC33"/>
<path d="M213.17 263.368H180.02V263.658H213.17V263.368Z" fill="#FFBC33"/>
<path d="M209.37 257.978H180.02V258.268H209.37V257.978Z" fill="#FFBC33"/>
<path d="M215.07 269.038H180.97V274.128H215.07V269.038Z" fill="#FFD471"/>
<path d="M184.96 269.038H184.46V274.128H184.96V269.038Z" fill="#FFBC33"/>
<path d="M188.66 269.038H188.16V274.128H188.66V269.038Z" fill="#FFBC33"/>
<path d="M192.27 269.038H191.77V274.128H192.27V269.038Z" fill="#FFBC33"/>
<path d="M195.98 269.038H195.48V274.128H195.98V269.038Z" fill="#FFBC33"/>
<path d="M199.83 269.038H199.33V274.128H199.83V269.038Z" fill="#FFBC33"/>
<path d="M203.93 269.038H203.43V274.128H203.93V269.038Z" fill="#FFBC33"/>
<path d="M207.8 269.038H207.3V274.128H207.8V269.038Z" fill="#FFBC33"/>
<path d="M211.51 269.038H211.01V274.128H211.51V269.038Z" fill="#FFBC33"/>
<path d="M213.17 268.748H180.97V269.038H213.17V268.748Z" fill="#FFBC33"/>
<path d="M216.21 230.408H180.06V235.808H216.21V230.408Z" fill="#FFD471"/>
<path d="M184.28 230.408H183.75V235.808H184.28V230.408Z" fill="#FFBC33"/>
<path d="M188.21 230.408H187.68V235.808H188.21V230.408Z" fill="#FFBC33"/>
<path d="M192.04 230.408H191.5V235.808H192.04V230.408Z" fill="#FFBC33"/>
<path d="M195.97 230.408H195.44V235.808H195.97V230.408Z" fill="#FFBC33"/>
<path d="M200.06 230.408H199.53V235.808H200.06V230.408Z" fill="#FFBC33"/>
<path d="M204.4 230.408H203.87V235.808H204.4V230.408Z" fill="#FFBC33"/>
<path d="M208.5 230.408H207.97V235.808H208.5V230.408Z" fill="#FFBC33"/>
<path d="M212.43 230.408H211.9V235.808H212.43V230.408Z" fill="#FFBC33"/>
<path d="M214.04 236.118H177.89V241.508H214.04V236.118Z" fill="#FFD471"/>
<path d="M182.11 236.118H181.58V241.508H182.11V236.118Z" fill="#FFBC33"/>
<path d="M186.04 236.118H185.51V241.508H186.04V236.118Z" fill="#FFBC33"/>
<path d="M189.87 236.118H189.34V241.508H189.87V236.118Z" fill="#FFBC33"/>
<path d="M193.8 236.118H193.27V241.508H193.8V236.118Z" fill="#FFBC33"/>
<path d="M197.89 236.118H197.36V241.508H197.89V236.118Z" fill="#FFBC33"/>
<path d="M202.24 236.118H201.71V241.508H202.24V236.118Z" fill="#FFBC33"/>
<path d="M206.33 236.118H205.8V241.508H206.33V236.118Z" fill="#FFBC33"/>
<path d="M210.27 236.118H209.73V241.508H210.27V236.118Z" fill="#FFBC33"/>
<path d="M217.46 241.828H181.31V247.228H217.46V241.828Z" fill="#FFD471"/>
<path d="M185.53 241.828H185V247.228H185.53V241.828Z" fill="#FFBC33"/>
<path d="M189.46 241.828H188.93V247.228H189.46V241.828Z" fill="#FFBC33"/>
<path d="M193.29 241.828H192.76V247.228H193.29V241.828Z" fill="#FFBC33"/>
<path d="M197.22 241.828H196.69V247.228H197.22V241.828Z" fill="#FFBC33"/>
<path d="M201.31 241.828H200.78V247.228H201.31V241.828Z" fill="#FFBC33"/>
<path d="M205.65 241.828H205.12V247.228H205.65V241.828Z" fill="#FFBC33"/>
<path d="M209.76 241.828H209.23V247.228H209.76V241.828Z" fill="#FFBC33"/>
<path d="M213.68 241.828H213.15V247.228H213.68V241.828Z" fill="#FFBC33"/>
<path d="M214.04 235.797H180.06V236.107H214.04V235.797Z" fill="#FFBC33"/>
<path d="M214.04 241.507H181.31V241.817H214.04V241.507Z" fill="#FFBC33"/>
<path d="M212.88 247.538H176.73V252.938H212.88V247.538Z" fill="#FFD471"/>
<path d="M180.95 247.538H180.42V252.938H180.95V247.538Z" fill="#FFBC33"/>
<path d="M184.88 247.538H184.35V252.938H184.88V247.538Z" fill="#FFBC33"/>
<path d="M188.71 247.538H188.17V252.938H188.71V247.538Z" fill="#FFBC33"/>
<path d="M192.63 247.538H192.1V252.938H192.63V247.538Z" fill="#FFBC33"/>
<path d="M196.72 247.538H196.19V252.938H196.72V247.538Z" fill="#FFBC33"/>
<path d="M201.07 247.538H200.54V252.938H201.07V247.538Z" fill="#FFBC33"/>
<path d="M205.17 247.538H204.64V252.938H205.17V247.538Z" fill="#FFBC33"/>
<path d="M209.1 247.538H208.57V252.938H209.1V247.538Z" fill="#FFBC33"/>
<path d="M212.88 247.228H181.31V247.538H212.88V247.228Z" fill="#FFBC33"/>
<path d="M218.22 224.698H182.07V230.088H218.22V224.698Z" fill="#FFD471"/>
<path d="M186.29 224.698H185.76V230.088H186.29V224.698Z" fill="#FFBC33"/>
<path d="M190.22 224.698H189.69V230.088H190.22V224.698Z" fill="#FFBC33"/>
<path d="M194.05 224.698H193.52V230.088H194.05V224.698Z" fill="#FFBC33"/>
<path d="M197.98 224.698H197.45V230.088H197.98V224.698Z" fill="#FFBC33"/>
<path d="M202.07 224.698H201.54V230.088H202.07V224.698Z" fill="#FFBC33"/>
<path d="M206.41 224.698H205.88V230.088H206.41V224.698Z" fill="#FFBC33"/>
<path d="M210.51 224.698H209.98V230.088H210.51V224.698Z" fill="#FFBC33"/>
<path d="M214.44 224.698H213.91V230.088H214.44V224.698Z" fill="#FFBC33"/>
<path d="M216.21 230.098H182.07V230.408H216.21V230.098Z" fill="#FFBC33"/>
<path d="M209.37 252.667H176.73V252.957H209.37V252.667Z" fill="#FFBC33"/>
<path d="M187 242.897C186.58 242.327 187 242.967 183.47 239.387C185.98 240.387 186.93 237.387 178.18 237.167C178.025 238.6 177.727 240.014 177.29 241.387C180.08 240.507 181.36 245.147 184.29 245.627C184.59 246.097 185.47 246.267 185.29 245.167C186.08 245.597 187.38 245.317 184.39 242.167C184.42 242.047 187.47 245.767 187 242.897Z" fill="#FFA18A"/>
<path d="M152 210.247C153 211.027 156.15 215.247 157.91 214.197L160.28 203.337L153.09 201.688C153.09 201.688 152.96 202.377 152.69 203.387C152.27 204.957 150.93 206.388 149.83 207.988C149.75 208.158 151.87 210.127 152 210.247Z" fill="#FFA18A"/>
<path d="M153.12 201.687C155.24 202.447 157.9 196.157 161.84 193.907C173.85 191.717 165.17 220.147 153.12 201.687Z" fill="#FFA18A"/>
<path d="M167.89 196.708C168.47 196.448 169.16 196.448 169.64 195.978C169.996 195.592 170.226 195.107 170.3 194.588C170.709 193.268 170.73 191.859 170.36 190.528C169.989 189.709 169.436 188.986 168.742 188.414C168.049 187.842 167.234 187.436 166.36 187.228C163.463 186.584 160.451 186.676 157.6 187.498C156.83 187.758 156.37 188.498 155.6 188.828C150.82 190.918 153.04 196.128 152.83 197.188C152.45 199.008 151.37 201.128 151.99 202.898C152.3 203.778 153.9 204.448 154.9 204.538C155.124 204.579 155.355 204.568 155.574 204.503C155.793 204.439 155.994 204.324 156.16 204.168C156.204 204.081 156.227 203.985 156.227 203.888C156.227 203.79 156.204 203.694 156.16 203.608C159.24 198.968 153.96 201.118 162.95 196.918C163.78 196.368 165.63 196.918 167.19 196.448C167.19 196.588 167.36 196.808 167.88 196.738L167.89 196.708Z" fill="#A55852"/>
<path d="M156.86 198.378C156.79 199.208 157.09 199.908 157.93 199.988C158.301 200.033 158.675 199.936 158.977 199.717C159.279 199.499 159.487 199.174 159.56 198.808C159.656 198.444 159.604 198.058 159.417 197.733C159.23 197.407 158.922 197.168 158.56 197.068C157.21 196.768 156.93 197.598 156.86 198.378Z" fill="#FFA18A"/>
<path d="M178.68 236.907C176.067 235.886 173.396 235.022 170.68 234.317C169.3 233.867 161.92 230.477 161.2 230.317V230.267C161.376 229.598 161.463 228.909 161.46 228.217C161.329 225.788 161.062 223.367 160.66 220.967C160.33 219.227 160.02 217.467 159.66 215.737C159.365 214.455 158.977 213.195 158.5 211.967C158.4 212.447 158.31 212.897 158.21 213.317C157.41 211.317 154.61 209.177 152.45 208.157C151.257 207.503 149.903 207.196 148.544 207.272C147.185 207.348 145.874 207.804 144.76 208.587C142.279 210.183 140.316 212.466 139.11 215.157C135.67 222.157 134.53 223.907 131.52 230.827C130.03 234.277 128.52 239.327 129.84 243.757L129.97 243.667C135.97 239.807 143.19 239.247 149.91 240.497C151.91 240.887 156.19 241.857 156.19 241.857C156.82 240.437 157.46 239.027 158.1 237.607C158.943 237.76 159.775 237.967 160.59 238.227C161.84 238.637 163.07 239.087 164.34 239.457C165.61 239.827 166.89 240.147 168.17 240.457C170.689 240.98 173.242 241.314 175.81 241.457C176.54 241.457 178.81 241.697 178.81 241.697C178.37 240.136 178.326 238.49 178.68 236.907Z" fill="#2F627C"/>
<path d="M154 247.728C153.82 250.868 154.86 254.108 154.91 257.248H163C163.27 256.028 165.65 245.808 165.81 243.778C166.266 242.274 166.634 240.744 166.91 239.198C167.09 237.848 166.91 235.118 166.1 233.978C165.701 233.468 165.203 233.045 164.636 232.734C164.069 232.423 163.444 232.23 162.8 232.168C161.165 232.047 159.525 232.311 158.01 232.938C154.666 234.104 151.39 235.459 148.2 236.998L147.84 237.098C146.34 237.558 144.98 238.318 143.52 238.868C142.06 239.385 140.562 239.79 139.04 240.078C137.505 240.384 135.994 240.802 134.52 241.328C132.923 241.933 131.391 242.7 129.95 243.618C130.772 245.661 132.062 247.483 133.715 248.938C135.368 250.394 137.339 251.441 139.47 251.998C141.784 252.559 144.209 252.462 146.47 251.718C147.641 251.302 148.756 250.745 149.79 250.058C150.89 249.378 152 248.708 153.16 248.138L154 247.728Z" fill="#4693B9"/>
<path d="M172.93 273.418C172.814 272.943 172.601 272.497 172.305 272.108C172.009 271.719 171.636 271.396 171.21 271.158C169.66 270.158 164.8 268.727 164.29 268.267C163.85 267.784 163.521 267.21 163.324 266.587C163.128 265.964 163.068 265.306 163.15 264.658C163.25 261.948 163.59 259.237 163.82 256.547C160.752 257.072 157.614 257.035 154.56 256.438C154.56 256.438 154.96 261.267 155.15 263.688C155.285 264.862 155.325 266.046 155.27 267.228C155.161 268.264 154.988 269.293 154.75 270.307C154.513 271.316 154.366 272.343 154.31 273.378C154.31 273.558 154.31 273.948 154.31 273.948C154.95 274.598 156.48 274.547 157.2 274.517C158.99 274.337 160.79 274.257 162.59 274.277C164.95 274.427 167.29 274.808 169.65 274.908C170.421 274.951 171.195 274.917 171.96 274.807C172.265 274.738 172.534 274.557 172.713 274.3C172.893 274.043 172.97 273.728 172.93 273.418Z" fill="#12252E"/>
<path d="M131.83 274.157C132.266 273.94 132.654 273.635 132.969 273.261C133.284 272.888 133.519 272.455 133.66 271.987C134.34 270.247 134.66 265.207 134.98 264.597C135.357 264.063 135.845 263.618 136.412 263.292C136.978 262.965 137.609 262.766 138.26 262.707C140.91 262.207 143.64 261.957 146.31 261.587C145.126 258.709 144.478 255.639 144.4 252.527L137.46 254.687C136.337 255.07 135.187 255.364 134.02 255.567C132.985 255.694 131.942 255.751 130.9 255.737C129.865 255.732 128.831 255.813 127.81 255.977L127.26 256.097C126.76 256.867 127.14 258.347 127.33 259.047C127.895 260.757 128.366 262.496 128.74 264.257C129.1 266.587 129.24 268.957 129.67 271.257C129.791 272.022 129.989 272.772 130.26 273.497C130.389 273.785 130.623 274.014 130.915 274.136C131.206 274.259 131.533 274.266 131.83 274.157Z" fill="#12252E"/>
<path d="M225.28 265.997C224.513 268.813 222.927 271.337 220.724 273.25C218.52 275.164 215.799 276.38 212.903 276.745C210.008 277.11 207.07 276.608 204.46 275.301C201.851 273.995 199.688 271.943 198.246 269.406C196.803 266.87 196.146 263.962 196.358 261.051C196.57 258.141 197.641 255.359 199.435 253.058C201.229 250.756 203.666 249.039 206.437 248.124C209.208 247.209 212.189 247.137 215 247.917C218.756 248.96 221.946 251.447 223.873 254.835C225.799 258.224 226.306 262.237 225.28 265.997Z" fill="#FFBC33"/>
<path d="M223.35 265.507C222.682 267.937 221.308 270.114 219.403 271.763C217.497 273.412 215.145 274.459 212.645 274.771C210.144 275.084 207.607 274.647 205.355 273.518C203.102 272.388 201.235 270.615 199.99 268.425C198.745 266.234 198.177 263.723 198.359 261.209C198.542 258.696 199.465 256.293 201.013 254.304C202.561 252.316 204.664 250.831 207.055 250.037C209.447 249.244 212.021 249.178 214.45 249.847C216.063 250.29 217.573 251.047 218.894 252.074C220.214 253.101 221.319 254.378 222.146 255.833C222.973 257.287 223.504 258.89 223.711 260.55C223.918 262.21 223.795 263.895 223.35 265.507Z" fill="#FFD471"/>
<path d="M211.93 264.997C212.028 264.597 211.967 264.174 211.76 263.817C211.449 263.406 211.053 263.065 210.6 262.817C210.102 262.512 209.621 262.178 209.16 261.817C208.783 261.531 208.447 261.194 208.16 260.817C207.903 260.464 207.719 260.063 207.62 259.637C207.52 259.153 207.52 258.652 207.62 258.167C207.692 257.731 207.852 257.314 208.089 256.942C208.326 256.569 208.636 256.248 209 255.997C209.775 255.502 210.699 255.296 211.61 255.417L211.96 253.607L213.31 253.877L213 255.697C213.889 255.964 214.637 256.572 215.08 257.387C215.521 258.262 215.638 259.265 215.41 260.217L212.98 259.747C213.124 259.219 213.081 258.658 212.86 258.157C212.758 257.97 212.615 257.809 212.442 257.684C212.269 257.56 212.07 257.475 211.86 257.437C211.667 257.391 211.467 257.384 211.271 257.417C211.075 257.449 210.888 257.521 210.72 257.627C210.399 257.87 210.187 258.229 210.13 258.627C210.085 258.811 210.077 259.002 210.106 259.189C210.135 259.377 210.201 259.556 210.3 259.717C210.635 260.146 211.05 260.505 211.52 260.777C212.042 261.106 212.543 261.467 213.02 261.857C213.381 262.143 213.698 262.48 213.96 262.857C214.196 263.205 214.359 263.596 214.44 264.007C214.535 264.466 214.535 264.939 214.44 265.397C214.376 265.828 214.223 266.241 213.993 266.611C213.762 266.981 213.459 267.3 213.1 267.547C212.313 268.046 211.373 268.248 210.45 268.117L210.12 269.797L208.79 269.537L209.11 267.867C208.109 267.618 207.238 267 206.67 266.137C206.162 265.242 206.019 264.186 206.27 263.187L208.7 263.657C208.552 264.2 208.612 264.778 208.87 265.277C209.009 265.497 209.196 265.682 209.415 265.82C209.635 265.959 209.883 266.047 210.14 266.077C210.559 266.184 211.002 266.126 211.38 265.917C211.528 265.808 211.653 265.67 211.747 265.512C211.841 265.354 211.904 265.179 211.93 264.997Z" fill="#FFBC33"/>
<path d="M208 272.717C205.904 272.139 204.027 270.953 202.605 269.309C201.183 267.665 200.28 265.637 200.01 263.48C199.74 261.323 200.115 259.134 201.088 257.19C202.061 255.246 203.588 253.634 205.476 252.557C207.365 251.481 209.53 250.988 211.698 251.141C213.867 251.293 215.941 252.085 217.66 253.416C219.379 254.747 220.664 256.558 221.355 258.619C222.046 260.68 222.11 262.9 221.54 264.997C220.761 267.812 218.9 270.205 216.363 271.651C213.826 273.098 210.819 273.481 208 272.717ZM213.75 251.817C211.721 251.258 209.572 251.313 207.574 251.975C205.576 252.637 203.82 253.876 202.527 255.537C201.233 257.198 200.462 259.204 200.309 261.303C200.157 263.402 200.63 265.5 201.67 267.33C202.709 269.16 204.268 270.64 206.149 271.584C208.03 272.528 210.149 272.893 212.238 272.633C214.326 272.372 216.29 271.498 217.882 270.121C219.474 268.745 220.622 266.927 221.18 264.897C221.922 262.174 221.553 259.267 220.154 256.815C218.756 254.363 216.442 252.566 213.72 251.817H213.75Z" fill="#FFBC33"/>
<path d="M243 142.108C241.372 141.196 239.814 140.163 238.34 139.018C237.721 138.46 237.179 137.821 236.73 137.118C236.282 136.52 235.865 135.899 235.48 135.258C235.27 134.908 233.64 132.768 233.22 133.698C233.04 134.108 233.49 134.698 233.7 135.048C234.112 135.569 234.49 136.117 234.83 136.688C234.492 136.581 234.136 136.545 233.783 136.583C233.431 136.621 233.09 136.732 232.782 136.909C232.475 137.086 232.207 137.324 231.997 137.61C231.787 137.895 231.638 138.222 231.56 138.568C231.478 138.893 231.479 139.234 231.562 139.559C231.646 139.884 231.811 140.183 232.04 140.428C232.28 140.648 232.49 140.618 232.62 140.428C232.634 140.518 232.673 140.603 232.733 140.672C232.794 140.741 232.872 140.792 232.96 140.818C233.23 140.908 233.4 140.748 233.5 140.528C233.851 141.232 234.444 141.786 235.17 142.088C235.683 142.253 236.213 142.361 236.75 142.408C237.324 142.529 237.868 142.763 238.35 143.098C238.83 143.428 239.27 143.798 239.71 144.158L240.41 144.738C241.69 144.428 243 142.128 243 142.108Z" fill="#FFA18A"/>
<path d="M256.94 242.048C256.81 244.708 256.26 247.228 256.37 249.918C256.61 255.098 258.11 260.068 259.6 264.918H264C263.94 262.118 263.84 259.318 263.85 256.518C263.86 253.718 264.27 251.108 264.12 248.408C264.05 247.088 263.91 245.778 263.97 244.408C264.054 243.031 264.207 241.659 264.43 240.298C264.821 238.189 264.868 236.031 264.57 233.908H255.84V233.978C256.59 236.601 256.961 239.319 256.94 242.048Z" fill="#FFA18A"/>
<path d="M276.9 242.048C277.03 244.708 277.58 247.228 277.46 249.918C277.23 255.098 275.73 260.068 274.24 264.918H269.84C269.9 262.118 270 259.318 269.99 256.518C269.98 253.718 269.57 251.108 269.72 248.408C269.79 247.088 269.93 245.778 269.87 244.408C269.81 243.038 269.6 241.668 269.41 240.298C269.009 238.19 268.962 236.031 269.27 233.908H278V233.978C277.25 236.601 276.879 239.319 276.9 242.048Z" fill="#FFA18A"/>
<path d="M272.74 147.387C273.113 147 273.448 146.578 273.74 146.127C274.439 144.923 275.319 143.833 276.35 142.897L285.81 146.117C285.81 146.177 285.88 146.227 285.9 146.277C286.416 147.628 286.634 149.075 286.54 150.517C286.495 152.235 286.135 153.929 285.48 155.517C285.29 155.947 284.48 157.517 283.78 157.807L283.33 159.367C283.198 159.992 283.024 160.606 282.81 161.207L273.22 157.937C273.42 157.257 273.65 156.587 273.9 155.937C273.274 155.212 272.866 154.325 272.72 153.377C272.696 152.776 272.784 152.176 272.98 151.607C273.149 151.17 273.21 150.697 273.158 150.231C273.106 149.764 272.942 149.317 272.68 148.927C272.45 148.597 272.24 148.337 272.38 147.927C272.464 147.726 272.587 147.543 272.74 147.387Z" fill="#FFA18A"/>
<path d="M306.12 186.507C305.53 184.297 303.96 182.377 302.69 180.507C301.42 178.637 300.1 176.827 298.69 175.067C295.875 171.5 292.457 168.454 288.59 166.067C287.331 165.386 286.217 164.466 285.31 163.357C284.759 162.381 284.105 161.466 283.36 160.627C282.144 159.628 280.702 158.941 279.16 158.627C277.308 157.931 275.392 157.419 273.44 157.097C270.34 156.917 269.44 157.097 266.5 155.887C262.955 154.383 259.628 152.409 256.61 150.017C251.92 146.017 246.41 143.307 240.92 140.647C240.235 141.975 239.333 143.179 238.25 144.207C243.02 147.957 246.34 153.207 251.25 156.867C253.9 158.867 256.35 160.627 258.2 163.447C258.841 164.452 259.416 165.498 259.92 166.577C260.902 170.449 261.267 174.452 261 178.437C260.613 183.347 259.357 188.148 257.29 192.617C255.325 196.884 253.914 201.383 253.09 206.007C252.27 210.837 251.76 215.757 251.38 220.647C251.05 224.797 250.87 228.967 250.81 233.127C261.29 235.897 272.11 236.257 282.81 235.317C283.204 227.828 282.926 220.318 281.98 212.877C281.45 208.727 280.53 204.637 279.93 200.477C279.279 196.04 279.572 191.514 280.79 187.197C282.01 182.942 283.732 178.846 285.92 174.997C287.92 177.567 290.01 180.107 292.21 182.547C293.351 183.843 294.598 185.041 295.94 186.127C291.026 188.007 285.923 189.348 280.72 190.127C280.72 190.127 281.93 191.427 282.51 195.487C282.51 195.487 288.18 194.487 291.04 194.157C293.6 193.857 296.18 193.767 298.72 193.407C302.31 192.867 307.36 191.107 306.12 186.507Z" fill="#2A817D"/>
<path d="M289.86 147.127C289.958 145.012 289.214 142.945 287.79 141.377C286.686 139.969 285.177 138.931 283.467 138.404C281.756 137.877 279.926 137.885 278.22 138.427C276.941 138.678 275.804 139.405 275.039 140.461C274.275 141.517 273.939 142.824 274.1 144.117C274.05 144.947 274.141 145.779 274.37 146.577C274.903 147.797 275.273 149.081 275.47 150.397C275.352 151.63 275.299 152.869 275.31 154.107C275.454 155.237 275.877 156.312 276.54 157.237C277.101 158.079 277.883 158.75 278.8 159.177C278.216 160.001 277.935 161.001 278.002 162.008C278.069 163.015 278.482 163.969 279.17 164.707C279.547 165.247 280.096 165.643 280.726 165.83C281.357 166.018 282.033 165.986 282.643 165.74C283.254 165.494 283.763 165.048 284.087 164.476C284.412 163.903 284.533 163.237 284.43 162.587C284.415 161.693 284.294 160.803 284.07 159.937C283.997 159.62 283.906 159.306 283.8 158.997C284.664 158.822 285.473 158.439 286.156 157.882C286.839 157.324 287.375 156.609 287.72 155.797C288.221 154.415 288.557 152.979 288.72 151.517C288.94 150.247 289.86 149.127 289.86 147.127Z" fill="#12252E"/>
<path d="M282 192.578C281.793 191.936 281.504 191.324 281.14 190.758C280.946 190.887 280.728 190.976 280.5 191.018C280.3 191.018 280.09 191.138 279.96 191.018V190.748C279.585 191.016 279.292 191.384 279.115 191.81C278.939 192.236 278.885 192.703 278.96 193.158C278.96 193.588 279.13 193.988 279.18 194.408C279.19 194.772 279.24 195.134 279.33 195.488C279.359 195.608 279.413 195.722 279.489 195.82C279.565 195.919 279.66 196.001 279.77 196.06C279.879 196.119 280 196.155 280.124 196.165C280.248 196.175 280.372 196.159 280.49 196.118C280.784 195.925 281.047 195.689 281.27 195.418C281.59 195.142 281.982 194.962 282.4 194.898C282.32 194.116 282.186 193.341 282 192.578Z" fill="#FFA18A"/>
<path d="M276.4 257.797C276.47 257.337 276.54 256.867 276.62 256.407C276.62 256.227 276.67 256.147 276.67 256.147C274.443 256.455 272.186 256.489 269.95 256.247C269.95 256.247 269.95 256.927 269.87 257.797H276.4Z" fill="#FFD471"/>
<path d="M269.38 271.077C269.49 272.147 269.6 273.157 270.53 273.637C270.908 273.862 271.333 273.997 271.771 274.032C272.21 274.067 272.651 274 273.06 273.837C273.92 273.437 274.5 272.447 275.24 271.837C275.591 271.618 275.892 271.326 276.121 270.981C276.351 270.636 276.504 270.246 276.57 269.837C276.65 268.677 275.83 267.837 275.63 266.737C275.529 265.924 275.529 265.101 275.63 264.287C275.63 263.617 275.72 262.937 275.78 262.287C275.93 260.767 276.15 259.287 276.42 257.757L276.48 257.487C274.205 257.788 271.903 257.825 269.62 257.597C269.62 257.597 269.42 260.877 269.5 262.517C269.58 264.157 269.76 265.667 269.71 267.227C269.69 268.557 269.23 269.737 269.38 271.077Z" fill="#12252E"/>
<path d="M257.47 257.998C257.4 257.538 257.33 257.068 257.24 256.608C257.24 256.438 257.24 256.348 257.24 256.348C259.467 256.66 261.725 256.694 263.96 256.448C263.96 256.448 263.96 257.128 264.03 257.998H257.47Z" fill="#FFD471"/>
<path d="M264.11 267.227C264.06 265.667 264.25 264.077 264.32 262.517C264.39 260.957 264.21 257.607 264.2 257.597C261.917 257.825 259.615 257.788 257.34 257.487L257.4 257.757C257.67 259.247 257.89 260.757 258.04 262.287C258.1 262.947 258.15 263.627 258.19 264.287C258.291 265.101 258.291 265.924 258.19 266.737C257.98 267.807 257.19 268.677 257.19 269.837C257.264 270.245 257.42 270.633 257.651 270.978C257.882 271.322 258.181 271.615 258.53 271.837C259.27 272.437 259.84 273.427 260.71 273.837C261.119 274 261.56 274.067 261.999 274.032C262.437 273.997 262.862 273.862 263.24 273.637C264.17 273.157 264.24 272.147 264.4 271.077C264.388 269.789 264.292 268.503 264.11 267.227Z" fill="#12252E"/>
</g>
<defs>
<filter id="filter0_d_286_1118" x="0" y="0" width="413.8" height="288.248" filterUnits="userSpaceOnUse" color-interpolation-filters="sRGB">
<feFlood flood-opacity="0" result="BackgroundImageFix"/>
<feColorMatrix in="SourceAlpha" type="matrix" values="0 0 0 0 0 0 0 0 0 0 0 0 0 0 0 0 0 0 127 0" result="hardAlpha"/>
<feOffset dy="4"/>
<feGaussianBlur stdDeviation="2"/>
<feComposite in2="hardAlpha" operator="out"/>
<feColorMatrix type="matrix" values="0 0 0 0 0 0 0 0 0 0 0 0 0 0 0 0 0 0 0.25 0"/>
<feBlend mode="normal" in2="BackgroundImageFix" result="effect1_dropShadow_286_1118"/>
<feBlend mode="normal" in="SourceGraphic" in2="effect1_dropShadow_286_1118" result="shape"/>
</filter>
</defs>
</svg>
