<svg xmlns="http://www.w3.org/2000/svg" enable-background="new 0 0 496 496" viewBox="0 0 496 496"><g><path fill="#655f68" d="M391.079,15.733L113.91,0C77.458,2.907,39.393,2.725,0,0c9.92,26.866,9.416,53.588,0.39,80.19
		l0.31,62.85c8.956,19.75,8.555,35.525,0.24,47.94c11.164,42.157,9.888,80.532,0,116.29c6.26,15.071,6.572,29.812,0,44.17V496
		h126.78c9.418-5.946,18.368-6.786,26.62,0H342.6c8.252-11.167,17.202-9.785,26.62,0H496V351.44c-5.416-14.358-5.159-29.099,0-44.17
		c-9.66-37.658-9.136-76.481,0-116.29c-4.557-16.02-6.023-31.976,0-47.78V84.7c-10.821-26.785-12.084-54.849,0-84.7L391.079,15.733z
		"/><path fill="#ceabd8" d="M463.42,110.6c-19.19,6.55-36.65,0.82-48.63,5.47c-11.97,4.65-16.07,19.01-48.73,26.5
		c-15.11,3.47-34.16,3.73-50.27,3c-8.41-0.37-10.5-11.5-2.77-14.76c8.19-3.46,15.99-7.12,20.41-10.14
		c12.36-8.46,20.9-26.28,37.08-36.22c16.19-9.95,37.73-8.06,49.36-17.08c11.62-9.02,14.98-33.82,33.2-47.93C471.3,5.32,496,0,496,0
		h-98.19h-283.9H0c0,0,56.14,9.32,84.74,34.81c28.6,25.5,38.29,67.41,61,87.54c9,7.97,27.94,17.71,47.55,26.56
		c13.24,5.98,7.89,25.3-6.67,24.1c-18.02-1.48-36.21-4.31-49.73-9.46c-39.2-14.95-47.9-37.04-61.83-43.44
		c-13.93-6.4-34.99-5.68-50.19-13.06C11.45,100.53,2.33,83.97,0.39,80.19l0.31,62.85c9.34,6.3,20.04,12.97,32.01,19.61
		c45.96,25.48,120.69,55.86,215.76,55.86s169.8-30.38,215.76-55.86c11.87-6.58,22.48-13.2,31.77-19.45V84.7
		C496,84.7,482.61,104.05,463.42,110.6z"/><ellipse cx="113.91" cy="11.43" fill="#ffc05a" rx="11.78" ry="11.43"/><path fill="#ffc05a" d="M233.03 173.19c5.72 0 10.35 4.5 10.35 10.04 0 5.55-4.63 10.04-10.35 10.04-5.71 0-10.34-4.49-10.34-10.04C222.69 177.69 227.32 173.19 233.03 173.19zM336.12 46.55c6.51 0 11.78 5.12 11.78 11.43s-5.27 11.43-11.78 11.43c-6.5 0-11.77-5.12-11.77-11.43S329.62 46.55 336.12 46.55z"/><ellipse cx="248.47" cy="101.53" fill="#ffc05a" rx="29.03" ry="32.12"/><path fill="#995899" d="M496 0v84.7c0 0-13.39 19.35-32.58 25.9-19.19 6.55-36.65.82-48.63 5.47-11.97 4.65-16.07 19.01-48.73 26.5-15.11 3.47-34.16 3.73-50.27 3-8.41-.37-10.5-11.5-2.77-14.76 8.19-3.46 15.99-7.12 20.41-10.14 12.36-8.46 20.9-26.28 37.08-36.22 16.19-9.95 37.73-8.06 49.36-17.08 11.62-9.02 14.98-33.82 33.2-47.93C471.3 5.32 496 0 496 0zM193.29 148.91c13.24 5.98 7.89 25.3-6.67 24.1-18.02-1.48-36.21-4.31-49.73-9.46-39.2-14.95-47.9-37.04-61.83-43.44s-34.99-5.68-50.19-13.06C11.45 100.53 2.33 83.97.39 80.19L0 0c0 0 56.14 9.32 84.74 34.81 28.6 25.5 38.29 67.41 61 87.54C154.74 130.32 173.68 140.06 193.29 148.91z"/><path fill="#e7f2f1" d="M496,143.2v47.78c-3.54,2.09-7.2,4.19-10.97,6.28c-50.36,27.98-132.27,61.32-236.56,61.32
		s-186.2-33.34-236.56-61.32c-3.77-2.09-7.43-4.19-10.97-6.28L0.7,143.04c9.34,6.3,20.04,12.97,32.01,19.61
		c45.96,25.48,120.69,55.86,215.76,55.86s169.8-30.38,215.76-55.86C476.1,156.07,486.71,149.45,496,143.2z"/><path fill="#a35757" d="M440.53,362.87l-23.9,4.93l-5.88-19.74c-2.5-8.4-11.14-13.61-20.01-12.06l-58.35,10.17
		c-7.31,1.28-13.01,6.88-14.24,13.99l-4.38,25.46c-4.42-2.42-9.52-3.79-14.9-3.79h-4.02l-6.11-23.69c-1.72-6.68-7.91-11.37-15-11.37
		H223.2c-7.09,0-13.28,4.69-15,11.37l-6.11,23.69h-4.02c-5.38,0-10.48,1.37-14.9,3.79l-4.38-25.46
		c-1.22-7.11-6.92-12.71-14.24-13.99L106.2,336c-8.87-1.55-17.5,3.66-20.01,12.06l-5.88,19.74l-23.9-4.93l-4.35-28.5
		c-1.05-6.86-5.98-12.55-12.76-14.74L0.94,307.27V190.98c3.54,2.09,7.2,4.19,10.97,6.28c50.36,27.98,132.27,61.32,236.56,61.32
		s186.2-33.34,236.56-61.32c3.77-2.09,7.43-4.19,10.97-6.28v116.29l-38.36,12.36c-6.78,2.19-11.71,7.88-12.75,14.74L440.53,362.87z"/><polygon fill="#bcb9ad" points="160.12 458.24 154.34 496 127.72 496 124.57 452.32 124.58 452.32"/><polygon fill="#bcb9ad" points="372.37 452.32 369.22 496 342.6 496 336.82 458.24"/><path fill="#5d5560" d="M496 307.27v44.17l-55.47 11.43 4.36-28.5c1.04-6.86 5.97-12.55 12.75-14.74L496 307.27zM410.75 348.06l5.88 19.74-14.49 2.99c-14.36 2.95-24.96 14.79-25.99 29l-3.78 52.53-35.55 5.92-7.85-51.22c-1.43-9.3-7.23-17.06-15.2-21.4l4.38-25.46c1.23-7.11 6.93-12.71 14.24-13.99L390.74 336C399.61 334.45 408.25 339.66 410.75 348.06zM288.74 358.14l6.11 23.69h-92.76l6.11-23.69c1.72-6.68 7.91-11.37 15-11.37h50.54C280.83 346.77 287.02 351.46 288.74 358.14zM178.79 360.16l4.38 25.46c-7.97 4.34-13.77 12.1-15.2 21.4l-7.85 51.22-35.54-5.92h-.01l-3.78-52.53c-1.02-14.21-11.63-26.05-25.98-29l-14.5-2.99 5.88-19.74c2.51-8.4 11.14-13.61 20.01-12.06l58.35 10.17C171.87 347.45 177.57 353.05 178.79 360.16zM52.06 334.37l4.35 28.5L.94 351.44v-44.17l38.36 12.36C46.08 321.82 51.01 327.51 52.06 334.37z"/><path fill="#655f68" d="M496 351.44V496H369.22l3.15-43.68 3.78-52.53c1.03-14.21 11.63-26.05 25.99-29l14.49-2.99 23.9-4.93L496 351.44zM336.82 458.24L342.6 496H154.34l5.78-37.76 7.85-51.22c1.43-9.3 7.23-17.06 15.2-21.4 4.42-2.42 9.52-3.79 14.9-3.79h4.02 92.76 4.02c5.38 0 10.48 1.37 14.9 3.79 7.97 4.34 13.77 12.1 15.2 21.4L336.82 458.24zM124.57 452.32l3.15 43.68H.94V351.44l55.47 11.43 23.9 4.93 14.5 2.99c14.35 2.95 24.96 14.79 25.98 29L124.57 452.32z"/><path fill="#e7f2f1" d="M416.4 14.05H401.81V5.43c0-2.209-1.791-4-4-4s-4 1.791-4 4v8.62h-14.59c-2.209 0-4 1.791-4 4s1.791 4 4 4h14.59v14.04c0 2.209 1.791 4 4 4s4-1.791 4-4V22.05H416.4c2.209 0 4-1.791 4-4S418.609 14.05 416.4 14.05zM175.18 53.04h-14.6V39c0-2.209-1.791-4-4-4s-4 1.791-4 4v14.04h-14.59c-2.209 0-4 1.791-4 4s1.791 4 4 4h14.59v14.05c0 2.209 1.791 4 4 4s4-1.791 4-4V61.04h14.6c2.209 0 4-1.791 4-4S177.389 53.04 175.18 53.04zM308.22 176.76h-8.45v-8.08c0-2.209-1.791-4-4-4s-4 1.791-4 4v8.08h-8.46c-2.209 0-4 1.791-4 4s1.791 4 4 4h8.46v8.09c0 2.209 1.791 4 4 4s4-1.791 4-4v-8.09h8.45c2.209 0 4-1.791 4-4S310.429 176.76 308.22 176.76z"/></g></svg>