<svg width="32" height="32" viewBox="0 0 32 32" fill="none" xmlns="http://www.w3.org/2000/svg">
<path d="M19.835 3.96983C19.7912 3.83908 19.7182 3.71595 19.614 3.6117C19.2542 3.25183 18.6708 3.25183 18.3109 3.6117C17.951 3.97158 17.951 4.55495 18.3109 4.91483C18.415 5.01895 18.5382 5.09208 18.669 5.13583L19.835 3.96983ZM22.031 6.75133L19.9558 4.37008L19.069 5.25683L21.4503 7.33208C21.4945 7.3707 21.5612 7.36845 21.6028 7.32683L22.0259 6.9037C22.0673 6.8622 22.0697 6.79558 22.031 6.75133Z" fill="#58595B"/>
<path d="M19.0688 5.25735L18.668 5.13748L19.8357 3.96973L19.9556 4.3706L19.0688 5.25735Z" fill="#58595B"/>
<path d="M29.3686 31.4375H2.63086C2.49273 31.4375 2.38086 31.3256 2.38086 31.1875V21.6426H29.6187V31.1875C29.6186 31.3256 29.5067 31.4375 29.3686 31.4375Z" fill="#FCC4AE"/>
<path d="M3.13086 29.8955C2.99286 29.8955 2.88086 29.7835 2.88086 29.6455V26.0205C2.88086 25.8825 2.99286 25.7705 3.13086 25.7705C3.26886 25.7705 3.38086 25.8825 3.38086 26.0205V29.6455C3.38086 29.7835 3.26898 29.8955 3.13086 29.8955ZM3.13086 25.2705C2.99286 25.2705 2.88086 25.1585 2.88086 25.0205V24.8955C2.88086 24.7575 2.99286 24.6455 3.13086 24.6455C3.26886 24.6455 3.38086 24.7575 3.38086 24.8955V25.0205C3.38086 25.1585 3.26898 25.2705 3.13086 25.2705Z" fill="#FFD2C0"/>
<path d="M28.3686 21.6426V29.9375C28.3686 30.0756 28.2567 30.1875 28.1186 30.1875H2.38086V31.1875C2.38086 31.3256 2.49273 31.4375 2.63086 31.4375H29.3687C29.5069 31.4375 29.6187 31.3256 29.6187 31.1875V21.6426H28.3686Z" fill="#F2AD97"/>
<path d="M28.9936 21.6426V30.5625C28.9936 30.7006 28.8817 30.8125 28.7436 30.8125H2.38086V31.1875C2.38086 31.3256 2.49273 31.4375 2.63086 31.4375H29.3687C29.5069 31.4375 29.6187 31.3256 29.6187 31.1875V21.6426H28.9936Z" fill="#E59076"/>
<path d="M30.0927 19.6289H1.90723C1.7691 19.6289 1.65723 19.7408 1.65723 19.8789V21.3927C1.65723 21.5308 1.7691 21.6427 1.90723 21.6427H30.0926C30.2307 21.6427 30.3426 21.5308 30.3426 21.3927V19.8789C30.3427 19.7409 30.2307 19.6289 30.0927 19.6289Z" fill="#995222"/>
<path d="M30.0927 19.6289H1.90723C1.7691 19.6289 1.65723 19.7408 1.65723 19.8789V21.3927C1.65723 21.5308 1.7691 21.6427 1.90723 21.6427H30.0926C30.2307 21.6427 30.3426 21.5308 30.3426 21.3927V19.8789C30.3427 19.7409 30.2307 19.6289 30.0927 19.6289Z" fill="#995222"/>
<path d="M30.0927 19.6289H29.7177V20.7677C29.7177 20.9058 29.6059 21.0177 29.4677 21.0177H1.65723V21.3927C1.65723 21.5308 1.7691 21.6427 1.90723 21.6427H30.0926C30.2307 21.6427 30.3426 21.5308 30.3426 21.3927V19.8789C30.3427 19.7408 30.2307 19.6289 30.0927 19.6289Z" fill="#8C3F0A"/>
<path d="M8.49283 26.7269C9.51469 26.7269 10.3431 25.8985 10.3431 24.8766C10.3431 23.8548 9.51469 23.0264 8.49283 23.0264C7.47096 23.0264 6.64258 23.8548 6.64258 24.8766C6.64258 25.8985 7.47096 26.7269 8.49283 26.7269Z" fill="#377DE2"/>
<path d="M13.0425 22.1484H13.0404C12.703 22.1478 12.3955 22.3413 12.2503 22.6458L10.0468 27.2628H6.90878L4.73428 22.6496C4.58978 22.3431 4.28115 22.1477 3.94228 22.1484C3.3059 22.1497 2.8844 22.8091 3.15028 23.3872L6.26528 30.1603V31.4371H10.6904V30.2143L13.8345 23.3876C14.1007 22.8094 13.6792 22.1497 13.0425 22.1484Z" fill="#377DE2"/>
<path d="M9.44926 23.2959C9.61863 23.5753 9.71788 23.9019 9.71788 24.2524C9.71788 25.2743 8.88951 26.1026 7.86763 26.1026C7.51701 26.1026 7.19051 26.0034 6.91113 25.834C7.23538 26.369 7.82138 26.7276 8.49263 26.7276C9.51451 26.7276 10.3429 25.8993 10.3429 24.8774C10.3429 24.2061 9.98413 23.6203 9.44926 23.2959Z" fill="#2266D3"/>
<path d="M13.2605 22.1768C13.3098 22.3625 13.3 22.5673 13.2098 22.763L10.0656 29.5898V30.5625C10.0656 30.7006 9.95375 30.8125 9.81563 30.8125H6.26562V31.4375H10.6908V30.2148L13.8349 23.388C14.0693 22.8789 13.77 22.3069 13.2605 22.1768Z" fill="#2266D3"/>
<path d="M23.5085 26.7269C24.5303 26.7269 25.3587 25.8985 25.3587 24.8766C25.3587 23.8548 24.5303 23.0264 23.5085 23.0264C22.4866 23.0264 21.6582 23.8548 21.6582 24.8766C21.6582 25.8985 22.4866 26.7269 23.5085 26.7269Z" fill="#A54AF4"/>
<path d="M28.0582 22.1484H28.056C27.7187 22.1478 27.4112 22.3413 27.2659 22.6458L25.0624 27.2628H21.9244L19.7499 22.6496C19.6054 22.3431 19.2968 22.1477 18.9579 22.1484C18.3215 22.1497 17.9 22.8091 18.1659 23.3872L21.2809 30.1603V31.4371H25.706V30.2143L28.8502 23.3876C29.1163 22.8094 28.6948 22.1497 28.0582 22.1484Z" fill="#A54AF4"/>
<path d="M23.5085 26.7269C24.5303 26.7269 25.3587 25.8985 25.3587 24.8766C25.3587 23.8548 24.5303 23.0264 23.5085 23.0264C22.4866 23.0264 21.6582 23.8548 21.6582 24.8766C21.6582 25.8985 22.4866 26.7269 23.5085 26.7269Z" fill="#A54AF4"/>
<path d="M28.0582 22.1484H28.056C27.7187 22.1478 27.4112 22.3413 27.2659 22.6458L25.0624 27.2628H21.9244L19.7499 22.6496C19.6054 22.3431 19.2968 22.1477 18.9579 22.1484C18.3215 22.1497 17.9 22.8091 18.1659 23.3872L21.2809 30.1603V31.4371H25.706V30.2143L28.8502 23.3876C29.1163 22.8094 28.6948 22.1497 28.0582 22.1484Z" fill="#A54AF4"/>
<path d="M24.4649 23.2959C24.6343 23.5753 24.7335 23.9019 24.7335 24.2524C24.7335 25.2743 23.9051 26.1026 22.8833 26.1026C22.5326 26.1026 22.2061 26.0034 21.9268 25.834C22.251 26.369 22.837 26.7276 23.5083 26.7276C24.5301 26.7276 25.3585 25.8993 25.3585 24.8774C25.3585 24.2061 24.9998 23.6203 24.4649 23.2959Z" fill="#893ADD"/>
<path d="M28.2753 22.1768C28.3245 22.3625 28.3148 22.5673 28.2245 22.763L25.0804 29.5898V30.5625C25.0804 30.7006 24.9685 30.8125 24.8304 30.8125H21.2803V31.4375H25.7054V30.2148L28.8495 23.388C29.084 22.8789 28.7848 22.3069 28.2753 22.1768Z" fill="#893ADD"/>
<path d="M16.0006 26.7269C17.0225 26.7269 17.8509 25.8985 17.8509 24.8766C17.8509 23.8548 17.0225 23.0264 16.0006 23.0264C14.9788 23.0264 14.1504 23.8548 14.1504 24.8766C14.1504 25.8985 14.9788 26.7269 16.0006 26.7269Z" fill="#FFC91D"/>
<path d="M20.5503 22.1484H20.5482C20.2108 22.1478 19.9033 22.3413 19.7581 22.6458L17.5546 27.2628H14.4166L12.2421 22.6496C12.0976 22.3431 11.789 22.1477 11.4501 22.1484C10.8137 22.1497 10.3922 22.8091 10.6581 23.3872L13.7731 30.1603V30.9008C13.7731 31.1969 14.0132 31.4371 14.3093 31.4371H17.6618C17.958 31.4371 18.1981 31.1969 18.1981 30.9008V30.2143L21.3422 23.3876C21.6085 22.8094 21.187 22.1497 20.5503 22.1484Z" fill="#FFC91D"/>
<path d="M20.5503 22.1484H20.5482C20.2108 22.1478 19.9033 22.3413 19.7581 22.6458L17.5546 27.2628H14.4166L12.2421 22.6496C12.0976 22.3431 11.789 22.1477 11.4501 22.1484C10.8137 22.1497 10.3922 22.8091 10.6581 23.3872L13.7731 30.1603V31.4371H18.1982V30.2143L21.3423 23.3876C21.6085 22.8094 21.187 22.1497 20.5503 22.1484Z" fill="#FFC91D"/>
<path d="M16.9571 23.2959C17.1264 23.5753 17.2257 23.9019 17.2257 24.2524C17.2257 25.2743 16.3973 26.1026 15.3754 26.1026C15.0248 26.1026 14.6983 26.0034 14.4189 25.834C14.7432 26.369 15.3292 26.7276 16.0004 26.7276C17.0223 26.7276 17.8507 25.8993 17.8507 24.8774C17.8507 24.2061 17.4921 23.6203 16.9571 23.2959Z" fill="#FFA91A"/>
<path d="M20.7675 22.1768C20.8167 22.3625 20.807 22.5673 20.7167 22.763L17.5726 29.5898V30.5625C17.5726 30.7006 17.4607 30.8125 17.3226 30.8125H13.7725V31.4375H18.1976V30.2148L21.3417 23.388C21.5762 22.8789 21.277 22.3069 20.7675 22.1768Z" fill="#FFA91A"/>
<path d="M14.6344 4.263C15.6563 4.263 16.4847 3.43461 16.4847 2.41275C16.4847 1.39089 15.6563 0.5625 14.6344 0.5625C13.6126 0.5625 12.7842 1.39089 12.7842 2.41275C12.7842 3.43461 13.6126 4.263 14.6344 4.263Z" fill="#E63950"/>
<path d="M19.7163 8.75183L20.6977 6.71358C20.9942 6.09758 20.5462 5.3832 19.8625 5.38195C19.5058 5.38133 19.1803 5.58508 19.0248 5.90608L18.4362 7.12233L17.2838 5.71495C16.8089 5.13508 16.099 4.79883 15.3495 4.79883H12.9072C12.3877 4.79883 11.8812 4.96058 11.4579 5.26183L9.6809 6.52595C9.26528 6.82158 8.95015 7.23733 8.77753 7.71733L8.20065 9.32195C7.98853 9.91195 8.42578 10.5337 9.05278 10.5337C9.42265 10.5337 9.7554 10.3087 9.89315 9.96545L10.6503 8.07858L11.793 7.2622L11.3179 10.9721C11.2603 11.4216 11.2518 11.8761 11.2925 12.3275L11.614 15.8915L10.1312 18.2695C9.75965 18.8652 10.1967 19.6356 10.8987 19.6223L10.9205 19.622C11.2269 19.6162 11.5038 19.461 11.6657 19.2075C12.0882 18.5457 12.9303 17.2311 13.4174 16.471C13.6605 16.0916 13.7964 15.6537 13.811 15.2033L13.8775 13.1516L15.8222 15.2472L14.928 18.3311C14.742 18.9725 15.2233 19.613 15.891 19.613H15.916C16.3739 19.613 16.772 19.3177 16.9029 18.8851C17.1975 17.9115 17.7137 16.206 17.98 15.3261C18.0875 14.9708 18.0315 14.5863 17.8272 14.2765L15.6849 11.0262L16.1862 7.3497L17.647 9.02995C18.236 9.70758 19.3267 9.5612 19.7163 8.75183Z" fill="#E63950"/>
<path d="M14.6344 4.263C15.6563 4.263 16.4847 3.43461 16.4847 2.41275C16.4847 1.39089 15.6563 0.5625 14.6344 0.5625C13.6126 0.5625 12.7842 1.39089 12.7842 2.41275C12.7842 3.43461 13.6126 4.263 14.6344 4.263Z" fill="#E63950"/>
<path d="M19.7163 8.75183L20.6977 6.71358C20.9942 6.09758 20.5462 5.3832 19.8625 5.38195C19.5058 5.38133 19.1803 5.58508 19.0248 5.90608L18.4362 7.12233L17.2838 5.71495C16.8089 5.13508 16.099 4.79883 15.3495 4.79883H12.9072C12.3877 4.79883 11.8812 4.96058 11.4579 5.26183L9.6809 6.52595C9.26528 6.82158 8.95015 7.23733 8.77753 7.71733L8.20065 9.32195C7.98853 9.91195 8.42578 10.5337 9.05278 10.5337C9.42265 10.5337 9.7554 10.3087 9.89315 9.96545L10.6503 8.07858L11.793 7.2622L11.3179 10.9721C11.2603 11.4216 11.2518 11.8761 11.2925 12.3275L11.614 15.8915L10.1312 18.2695C9.75965 18.8652 10.1967 19.6356 10.8987 19.6223L10.9205 19.622C11.2269 19.6162 11.5038 19.461 11.6657 19.2075C12.0882 18.5457 12.9303 17.2311 13.4174 16.471C13.6605 16.0916 13.7964 15.6537 13.811 15.2033L13.8775 13.1516L15.8222 15.2472L14.928 18.3311C14.742 18.9725 15.2233 19.613 15.891 19.613H15.916C16.3739 19.613 16.772 19.3177 16.9029 18.8851C17.1975 17.9115 17.7137 16.206 17.98 15.3261C18.0875 14.9708 18.0315 14.5863 17.8272 14.2765L15.6849 11.0262L16.1862 7.3497L17.647 9.02995C18.236 9.70758 19.3267 9.5612 19.7163 8.75183Z" fill="#E63950"/>
<path d="M15.5909 0.831055C15.7602 1.11043 15.8595 1.43705 15.8595 1.78755C15.8595 2.80943 15.0311 3.6378 14.0092 3.6378C13.6586 3.6378 13.3321 3.53855 13.0527 3.36918C13.377 3.90418 13.963 4.2628 14.6342 4.2628C15.6561 4.2628 16.4845 3.43443 16.4845 2.41255C16.4845 1.7413 16.1257 1.15543 15.5909 0.831055ZM15.6842 11.0256L16.1855 7.34905L15.9169 7.08043C15.7706 6.93418 15.5204 7.01855 15.4924 7.22343L15.0909 10.1681C15.0705 10.3179 15.105 10.4702 15.1882 10.5964L17.2016 13.6511C17.4057 13.9608 17.4619 14.3451 17.3544 14.7002C17.0881 15.5801 16.5719 17.2858 16.2772 18.2596C16.1464 18.6922 15.7481 18.9874 15.2904 18.9874H15.2654C15.1511 18.9874 15.0429 18.9674 14.9419 18.9332C15.0747 19.3202 15.4396 19.6124 15.8904 19.6124H15.9154C16.3732 19.6124 16.7714 19.3172 16.9022 18.8846C17.1969 17.9108 17.7131 16.2051 17.9794 15.3252C18.0869 14.9701 18.0309 14.5858 17.8266 14.2761L15.6842 11.0256ZM20.1249 5.42005C20.1882 5.63018 20.1795 5.86543 20.0722 6.08805L19.0909 8.1263C18.7601 8.81343 17.925 9.02043 17.3194 8.65318L17.6462 9.02918C18.2356 9.70705 19.3261 9.56055 19.7159 8.7513L20.6972 6.71305C20.9537 6.18043 20.6529 5.57518 20.1249 5.42005Z" fill="#D10028"/>
<path d="M21.3186 9.73724V12.4781C21.1022 12.3084 20.7982 12.2021 20.4612 12.2021C19.8063 12.2021 19.2734 12.6017 19.2734 13.093C19.2734 13.5842 19.8063 13.9839 20.4612 13.9839C21.1161 13.9839 21.6489 13.5842 21.6489 13.093C21.6489 13.0864 21.6489 10.545 21.6489 10.545L24.5122 9.53449V11.9275C24.2958 11.7577 23.9918 11.6515 23.6548 11.6515C22.9999 11.6515 22.4671 12.0511 22.4671 12.5424C22.4671 13.0336 22.9999 13.4332 23.6548 13.4332C24.3097 13.4332 24.8426 13.0336 24.8426 12.5424V8.56424C24.8426 8.40999 24.6882 8.30349 24.5441 8.35836L21.4606 9.53136C21.3749 9.56386 21.3186 9.64586 21.3186 9.73724Z" fill="#FFC91D"/>
<path d="M6.39252 4.15273V7.18323C6.15039 6.99335 5.81014 6.87435 5.43289 6.87435C4.69989 6.87435 4.10352 7.3216 4.10352 7.87148C4.10352 8.42135 4.69989 8.8686 5.43289 8.8686C6.16589 8.8686 6.76227 8.42135 6.76227 7.87148C6.76227 7.86398 6.76227 5.63585 6.76227 5.63585L7.98852 6.30598C8.07064 6.35085 8.17089 6.29148 8.17089 6.19785V5.05698C8.17089 4.9666 8.12139 4.88335 8.04189 4.84023L6.57452 4.04435C6.49239 3.99985 6.39252 4.05935 6.39252 4.15273Z" fill="#FFC91D"/>
</svg>
