<svg xmlns="http://www.w3.org/2000/svg" width="1909.409" height="1441.451" enable-background="new 0 0 2000 2000" viewBox="39.722 426.939 1909.409 1441.451"><g opacity=".45"><path fill="#abe9ff" d="M137.67,932.69L137.67,932.69c0-101.81,88.52-184.34,197.71-184.34h41.24     c-19.29-15.57-31.51-38.55-31.51-64.2v0c0-46.89,40.77-84.91,91.07-84.91h137.26c-13.88-11.14-22.71-27.61-22.71-46.03     c0-33.55,29.17-60.75,65.16-60.75h344.67c35.99,0,65.16,27.2,65.16,60.75c0,33.55-29.17,60.75-65.16,60.75H831.51     c-24.03,15.29-39.81,41.01-39.81,70.18v0c0,25.66,12.22,48.64,31.51,64.2h212.24c109.19,0,197.71,82.53,197.71,184.34l0,0     c0,101.81-88.52,184.34-197.71,184.34h281.18c50.29,0,91.07,38.02,91.07,84.91c0,46.89-40.77,84.91-91.07,84.91h114.57     c125.17,0,229.08,84.61,249.7,195.82h40.12c78.05,0,141.32,58.99,141.32,131.76v13.35c0,72.77-63.27,131.76-141.32,131.76     h-289.82H482.7h-91.55c-139.99,0-253.49-105.81-253.49-236.34v0c0-130.53,113.49-236.34,253.49-236.34h443.77     c-50.3,0-91.07-38.02-91.07-84.91c0-46.89,40.77-84.91,91.07-84.91H335.38C226.19,1117.03,137.67,1034.5,137.67,932.69z"/><ellipse cx="1145.23" cy="553.21" fill="#abe9ff" rx="59.2" ry="60.75"/></g><ellipse cx="1000" cy="1762.22" fill="#231f20" opacity=".15" rx="857.84" ry="40.65"/><path fill="#66e8c4" d="M221.93,1696.34c2.69-1.96,8.14,0.39,25.85-6.99c25.84-10.76,35.93-66.37,35.93-66.37      c-39.32-4.92-36.83,51.73-52.05,61.42c-6.87,4.37-10.1,8.61-11.58,11.94H221.93z"/><path fill="#3fd2c5" d="M271.52,1639.54c-8.08,16.48-17.63,40.79-33.73,48.54c-4.49,2.16-7.78,4.61-10.23,7.02      c3.88-0.48,10.01-1.49,20.23-5.75c25.84-10.76,35.93-66.37,35.93-66.37S279.6,1623.06,271.52,1639.54z"/><path fill="#35bfe6" d="M205.34,1696.34h4.26c2.77-5.89,3.66-16.96-5.6-37.28c-17.14-37.61-25.79-86.39-13.84-100.74      c0,0-40.9,29.15-31.6,59.47C167.29,1646.25,211.23,1665.2,205.34,1696.34z"/><path fill="#0a88d2" d="M207.08,1696.34h2.53c2.77-5.89,3.66-16.95-5.6-37.28c-17.14-37.61-25.79-86.39-13.84-100.74      c0,0-26.99,30.02-16.75,58.76C183.52,1645.46,214.68,1660.24,207.08,1696.34z"/><path fill="#49d3d5" d="M164.96,1680.44c15.56,6.34,22.22,10.56,26.56,15.9h5.46c-4.08-12.35-6.52-25.56-16.11-35.54      c-10.89-11.34-52.84-30.01-54.28-32.17C125.16,1626.46,143.94,1671.88,164.96,1680.44z"/><path fill="#0fa1b8" d="M192.18,1692.85c0.32,0.99,0.8,2.19,1.36,3.49h3.44c-4.09-12.35-6.52-25.56-16.11-35.54      c-10.89-11.34-52.84-30-54.28-32.17c0,0,20.36,25.54,43.01,37.21C185.82,1674.19,190.11,1686.54,192.18,1692.85z"/><path fill="#66e8c7" d="M217.15,1678.51c-0.52,7.45-2.21,13.39-3.99,17.83h2.98c10.22-13.19,25.93-38.79,22.99-68.68      c-4.3-43.68-8.98-98.44-8.98-98.44s-57.5,43.6-29.21,91.95C215.05,1645.28,218.14,1664.51,217.15,1678.51z"/><path fill="#3fd2c5" d="M220.07,1597.92c5.83,36.2,5.9,76.73-3.39,93.88c1.69-1.2,3.51-2.46,5.36-3.74       c9.36-14.27,19.49-35.89,17.08-60.41c-4.3-43.68-8.98-98.44-8.98-98.44S212.48,1550.81,220.07,1597.92z"/><path fill="#cadbf9" d="M250.95,1693.69h-65.45c-5.8,0-10.2,5.23-9.21,10.95l8.36,48.16c1.3,6.84,7.28,11.79,14.24,11.79h38.66     c6.96,0,12.94-4.95,14.24-11.79l8.36-48.16C261.16,1698.92,256.76,1693.69,250.95,1693.69z"/><path fill="#a1b7eb" d="M260.29,1703.36c0.19-5.19-3.97-9.67-9.33-9.67h-65.45c-5.37,0-9.52,4.47-9.33,9.67H260.29z"/><path fill="#a1b7eb" d="M250.95,1693.69h-18.2c5.8,0,10.2,5.23,9.21,10.95l-8.36,48.16c-1.3,6.84-7.28,11.79-14.24,11.79h18.2     c6.96,0,12.94-4.95,14.24-11.79l8.36-48.16C261.16,1698.92,256.76,1693.69,250.95,1693.69z"/><g><path fill="#66e8c4" d="M1788.41,1696.34c2.69-1.96,8.14,0.39,25.85-6.99c25.84-10.76,35.93-66.37,35.93-66.37      c-39.32-4.92-36.83,51.73-52.05,61.42c-6.87,4.37-10.1,8.61-11.58,11.94H1788.41z"/><path fill="#3fd2c5" d="M1838,1639.54c-8.08,16.48-17.63,40.79-33.73,48.54c-4.49,2.16-7.78,4.61-10.23,7.02      c3.88-0.48,10.01-1.49,20.23-5.75c25.84-10.76,35.93-66.37,35.93-66.37S1846.09,1623.06,1838,1639.54z"/><path fill="#35bfe6" d="M1771.83,1696.34h4.26c2.77-5.89,3.66-16.96-5.6-37.28c-17.14-37.61-25.79-86.39-13.84-100.74      c0,0-40.9,29.15-31.6,59.47C1733.77,1646.25,1777.71,1665.2,1771.83,1696.34z"/><path fill="#0a88d2" d="M1773.56,1696.34h2.53c2.77-5.89,3.66-16.95-5.6-37.28c-17.14-37.61-25.79-86.39-13.84-100.74      c0,0-26.99,30.02-16.75,58.76C1750,1645.46,1781.16,1660.24,1773.56,1696.34z"/><path fill="#49d3d5" d="M1731.44,1680.44c15.56,6.34,22.22,10.56,26.56,15.9h5.46c-4.08-12.35-6.52-25.56-16.11-35.54      c-10.89-11.34-52.84-30.01-54.28-32.17C1691.65,1626.46,1710.42,1671.88,1731.44,1680.44z"/><path fill="#0fa1b8" d="M1758.67,1692.85c0.32,0.99,0.8,2.19,1.36,3.49h3.44c-4.08-12.35-6.52-25.56-16.11-35.54      c-10.89-11.34-52.84-30-54.28-32.17c0,0,20.36,25.54,43.01,37.21C1752.31,1674.19,1756.6,1686.54,1758.67,1692.85z"/><path fill="#66e8c7" d="M1783.64,1678.51c-0.52,7.45-2.21,13.39-3.99,17.83h2.98c10.22-13.19,25.93-38.79,22.99-68.68      c-4.3-43.68-8.98-98.44-8.98-98.44s-57.5,43.6-29.21,91.95C1781.53,1645.28,1784.63,1664.51,1783.64,1678.51z"/><path fill="#3fd2c5" d="M1786.55,1597.92c5.83,36.2,5.91,76.73-3.39,93.88c1.69-1.2,3.51-2.46,5.36-3.74       c9.36-14.27,19.49-35.89,17.08-60.41c-4.3-43.68-8.98-98.44-8.98-98.44S1778.97,1550.81,1786.55,1597.92z"/><path fill="#cadbf9" d="M1817.44,1693.69H1752c-5.8,0-10.2,5.23-9.21,10.95l8.36,48.16c1.3,6.84,7.28,11.79,14.24,11.79h38.66     c6.96,0,12.94-4.95,14.24-11.79l8.36-48.16C1827.64,1698.92,1823.24,1693.69,1817.44,1693.69z"/><path fill="#a1b7eb" d="M1826.77,1703.36c0.19-5.19-3.97-9.67-9.33-9.67H1752c-5.37,0-9.52,4.47-9.33,9.67H1826.77z"/><path fill="#a1b7eb" d="M1817.44,1693.69h-18.2c5.8,0,10.2,5.23,9.21,10.95l-8.36,48.16c-1.3,6.84-7.28,11.79-14.24,11.79h18.2     c6.96,0,12.94-4.95,14.24-11.79l8.36-48.16C1827.64,1698.92,1823.24,1693.69,1817.44,1693.69z"/></g><g><circle cx="1332.26" cy="714.48" r="62.56" fill="#f26b6b" transform="rotate(-80.781 1332.27 714.462)"/><path fill="#fff" d="M1341.51,714.48l16.74-23.13c2.38-3.29,1.49-7.79-1.99-10.05c-3.48-2.25-8.24-1.41-10.62,1.88l-13.39,18.5    l-13.39-18.5c-2.38-3.29-7.14-4.14-10.62-1.88c-3.48,2.25-4.37,6.75-1.99,10.05l16.74,23.13l-16.74,23.13    c-2.38,3.29-1.49,7.79,1.99,10.05c3.48,2.26,8.24,1.41,10.62-1.88l13.39-18.5l13.39,18.5c2.38,3.29,7.14,4.14,10.62,1.88    c3.48-2.25,4.37-6.75,1.99-10.05L1341.51,714.48z"/></g><g><polygon fill="#f3b344" points="808.96 1170.64 657.28 1042.01 759.23 921.78 767.9 911.57 798.06 937.14 803.34 959.19 910.92 1050.42"/><rect width="9.37" height="185.45" x="817.95" y="908.39" fill="#f1f2f2" transform="rotate(-49.701 822.63 1001.092)"/><path fill="#d89030" d="M812.02,1173.23l-160.94-136.48c-2.54-2.15-2.85-5.96-0.7-8.5l78.51-92.58c2.15-2.54,5.96-2.85,8.5-0.7     l160.94,136.48c2.54,2.15,2.85,5.96,0.7,8.5l-78.51,92.58C818.36,1175.07,814.56,1175.38,812.02,1173.23z"/><path fill="#f3b344" d="M811.9,1162.89l-155.98-132.27c-2.43-2.06-2.72-5.69-0.67-8.12l73.81-87.04c2.06-2.43,5.69-2.72,8.12-0.67     l155.98,132.27c2.43,2.06,2.72,5.69,0.67,8.12l-73.82,87.04C817.96,1164.65,814.32,1164.95,811.9,1162.89z"/><path fill="#f9be69" d="M771.53,1015.65c17.41-0.27,31.44-8.41,45.94-12.77l-80.28-68.08c-2.43-2.06-6.06-1.76-8.12,0.67     l-53.24,62.78C694.1,1003.3,731.73,1016.27,771.53,1015.65z"/><path fill="#e8b795" d="M1532.95,1465.78c0,0,10.35,196.55,17.26,238.66c0,0-4.14,11.14-28.53,18.27     c-24.39,7.13-38.66,14.26-28.99,25.85c0,0,92.05,2.23,99.41-3.12c7.36-5.35,4.6-13.82-5.98-33.87c0,0,15.19-225.96,6.44-245.79     H1532.95z"/><path fill="#e8b795" d="M1608.66,1465.78c0,0,1.38,57.72,19.33,97.38c17.95,39.67,52.01,119.44,52.01,132.37     c0,12.92,0,32.09,0,32.09s20.25,13.37,30.84-9.36c0,0-4.6-34.32-8.74-61.06c-4.14-26.74-20.25-108.75-26.23-134.15     c-5.98-25.4-7.36-57.27-7.36-57.27H1608.66z"/><path fill="#01153e" d="M1519.61,1723.34c-23.1,6.93-36.31,13.98-26.93,25.23c0,0,92.05,2.23,99.41-3.12     c6.84-4.97,4.93-12.64-3.85-29.78C1588.2,1715.68,1541.92,1736.43,1519.61,1723.34z"/><path fill="#01153e" d="M1679.99,1727.62c0,0-13.81,11.92-6.56,24.62c7.25,12.7,40.73,3.59,44.87-3.22     c4.14-6.81-7.48-30.77-7.48-30.77L1679.99,1727.62z"/><path fill="#1c1715" d="M1619.64,866.56c0,0,17.11-8.86,30.14,25.67c13.04,34.53,13.71,88.34,9.01,106.67     c0,0,37.85,40.75,6.92,67.37c0,0-42.61,44.82-45.42,56.36c-1.1-2.71-19.39-35.63-49.02-37.46     c-29.63-1.83-102.66-78.54-63.71-90.46c0,0-2.91,12.4,10.39,9.42c13.29-2.98,4.92-48.73,5.05-64.92     c0.13-16.18,9.88-56.06,38.22-72.98C1589.55,849.32,1622.18,850.51,1619.64,866.56z"/><path fill="#e55daa" d="M1419.11,1092.16c-18.84,14.4-42.39,0.67-42.39,0.67l0,0l-1.01,33.8c29.46,28.48,65.69,8.45,65.69,8.45     c33.35-11.77,97.79-129.08,97.79-129.08C1498.06,999.07,1437.95,1077.76,1419.11,1092.16z"/><path fill="#eba97a" d="M1571.27,973.04c0,0-6.13,22.8-10.14,25.84c0,0-4.03,10.51,7.85,40.23c11.88,29.72,41.97,13.12,46.78,5.01     c4.81-8.11,15.44-23.63,5.74-39.07c0,0-13.28-9.64-6.34-30.58C1615.16,974.47,1573.38,966.04,1571.27,973.04z"/><path fill="#fdc596" d="M1620.34,974.99c0,0-20.14,15.62-36.6,9.59c-16.46-6.03-31.06-21.96-35.57-37.9     c-4.51-15.94,2.81-47.92,13.89-59.3c11.08-11.38,52.23-18.85,63.79-4.03C1637.42,898.18,1641.91,957.97,1620.34,974.99z"/><path fill="#e55daa" d="M1657.48,1257.07c0,0,43.8,23.59,46.21,35.47l-48.28-15.45L1657.48,1257.07z"/><path fill="#314452" d="M1528.63,1269.93c0,0-17.6,128.38-0.52,210.21c0,0,123.79,9.79,147.05-3.22c0,0,7.77-140.89-1.83-206.25     L1528.63,1269.93z"/><path fill="#153047" d="M1615.96,1270.37c19.02,12.35,40.03,32.06,40.03,58.93c0,36.62-3.9,115.35-5.88,153.02     c11.29-1.03,20.29-2.74,25.06-5.41c0,0,7.77-140.89-1.83-206.25L1615.96,1270.37z"/><path fill="#f6f6f6" d="M1614.73,997.42c0,0-36.01,15.77-53.45-2.22c0,0-75.5,75.63-32.65,274.03c0,0,143.98,7.43,146.84,7.93     c2.85,0.5-10.34-43.02-27.18-55.09c-16.73-11.99-113.35-67.66-33.19-221.47C1615.65,999.55,1615.57,998.94,1614.73,997.42z"/><path fill="#dce2ea" d="M1628.25,1274.34c-113.96-25.87-78.73-142.4-82.63-165.76c-3.24-19.42,28.94-83.68,39.88-104.79     c-8.77,0.08-17.77-1.94-24.22-8.6c0,0-75.5,75.63-32.65,274.03c0,0,57.22,2.95,100.23,5.26     C1628.65,1274.44,1628.46,1274.39,1628.25,1274.34z"/><path fill="#ff77c4" d="M1503.29,1055.71c0,0,2.27-14.42,7.14-33.4c1.4-5.46,5.04-11.95,10.08-15.06     c10.93-6.75,28.48-10.1,42-12.05c0,0-37.55,143.07-34.99,252.07c1.84,9.59,2.62,17.89,1.1,21.96c0,0-8.94,3.52-24.29,13.81     c-14.09,9.44,5.46-71.35,8.78-84.72C1504.03,1146.33,1497.96,1109.8,1503.29,1055.71z"/><path fill="#ff77c4" d="M1615.8,996.98c0,0,9.45,0.99,22.43,4.89c5.22,1.59,40.46,14.46,38.06,70.49     c-2.59,60.5-8.09,111.5,0.61,132.28c8.71,20.79,28.56,55.33,29.63,92.6c-44.92-36.21-99.22-75.11-128.96-137.61     C1536.22,1072.72,1615.8,996.98,1615.8,996.98z"/><path fill="#e55daa" d="M1648.16,1006.55c12.04,7.48,29.85,25.44,28.12,65.81c-2.59,60.5-8.09,111.5,0.61,132.28     c8.71,20.79,28.56,55.33,29.63,92.6c0,0-19.44-62.18-51.12-94.72C1655.41,1202.52,1680.84,1071.68,1648.16,1006.55z"/><polygon fill="#f3b344" points="1605.32 1263.83 1369.02 1220.52 1403.35 1033.22 1406.26 1017.31 1453.24 1025.92 1472.06 1045.82 1639.65 1076.53"/><rect width="11.32" height="224.02" x="1511.85" y="966.08" fill="#f1f2f2" transform="rotate(-79.613 1517.556 1078.104)"/><path fill="#d89030" d="M1610.07,1264.7l-250.72-45.95c-3.96-0.73-6.58-4.52-5.85-8.48l26.43-144.23      c0.73-3.96,4.52-6.58,8.48-5.85l250.71,45.95c3.96,0.73,6.58,4.52,5.85,8.48l-26.43,144.23      C1617.83,1262.8,1614.03,1265.42,1610.07,1264.7z"/><path fill="#f3b344" d="M1603.72,1253.95l-242.99-44.53c-3.78-0.69-6.28-4.32-5.59-8.1l24.85-135.6c0.69-3.78,4.32-6.28,8.1-5.59      l242.99,44.53c3.78,0.69,6.28,4.32,5.59,8.1l-24.85,135.6C1611.13,1252.14,1607.5,1254.64,1603.72,1253.95z"/><path fill="#f9be69" d="M1472.76,1124.1c18.07-10.77,27.86-27.74,40.4-41.05l-125.07-22.92c-3.78-0.69-7.41,1.81-8.1,5.59      l-17.92,97.8C1384.25,1157.8,1431.46,1148.72,1472.76,1124.1z"/><path fill="#f9c2aa" d="M1600.82,1215.23c0,0-11.3,6.62-17.64,4.95c-5.71-1.5-3.75-0.89-6.14-1.67c-0.82-0.27-2.49-0.69-2.49-0.69      s-15.59-4.17-19.4-1.04c-3.81,3.13-1.7,6.47,7.08,7.39c8.78,0.92,8.34,12.29-5.98,13.77c-14.32,1.48-30.3,7-26.58,10.58      c3.72,3.58,15.51,0.63,15.51,0.63s0.18,0.49-2.86,1.09c-3.04,0.6-10.96-0.42-10.1,1.22c0.85,1.64,5.47,12.6,24.85,12.29      c19.38-0.32,28.07-9.04,32.17-12.22c4.1-3.17,21.11-11.57,27.47-11.66C1616.7,1239.85,1611.76,1214.3,1600.82,1215.23z"/><path fill="#ff77c4" d="M1600.42,1253.27c-7.97,1.55-12.26-36.76-12.26-36.76s85.81-33.61,90.86-47.75      c5.05-14.13-53-106.89-54.82-114.61c-1.25-5.32-9.62-23.45,2.55-38.98c7.68-9.8,20.61-11.84,30.35-5.33      c6.86,4.59,13.07,9.96,18.11,16.26c30.86,38.61,74.29,157.03,63.79,166.57c-12.01,10.91-85.01,39.64-85.01,39.64      S1610.04,1251.4,1600.42,1253.27z"/><polygon fill="#9cd6e2" points="1619.51 996.94 1587.57 1023.35 1582.47 1004.54 1608.09 997.33"/><path fill="#9cd6e2" d="M1562.52,995.2l18.74,8.59l-17.71,20.38C1563.54,1024.17,1554.94,1003.32,1562.52,995.2z"/><path fill="#442b19" d="M1643.22,1026.15c0,0,16.51,6.39,25.9-6.35c9.38-12.75-6.36-20.41-6.36-20.41s10.24,12.9-4.69,14.51     c-14.93,1.61-15.02-23.45-9.78-37.28c15.14-39.94,6.37-66.21-0.64-80.51c-7.01-14.31-19.48-24.79-19.48-24.79l-8.53-4.76     l-5.92,14.5c0,0,10.75,16.42,16.19,31.57c5.44,15.15,7.76,34.6-4.99,59.69C1612.17,997.41,1608.98,1022.05,1643.22,1026.15z"/><path fill="#513826" d="M1613.72,881.06l5.92-14.5l0,0l0,0c0,0,17.11-8.86,30.14,25.67c4.48,11.86,6.82,26.09,7.77,40.41     c-5.85,21.46-22.43,46.2-31.46,67.23c-11.39,26.54,23.47,19.45,23.47,19.45s-11.61,19.67-29.09,4.52     c-19.21-16.66-2.46-44.14,4.88-58.53c7.33-14.39,6.1-41.65-0.93-57.15C1617.38,892.65,1613.72,881.06,1613.72,881.06z"/><path fill="#442b19" d="M1613.72,881.06c0,0-39.03-10.34-58.63,36.91c-19.6,47.25,8.54,69.02,3.59,83.59     c-4.95,14.57-18.24,16.66-29.65,1.67c0,0,14.03,9.05,16.12-1.17c2.09-10.21-21.22-25.17-19.1-64.15     c0.74-13.69,2.96-25.47,5.53-35c6-14.08,15.51-28.23,29.65-36.67c28.34-16.92,60.96-15.73,58.43,0.32L1613.72,881.06z"/><path fill="#f9ceaf" d="M1386.62,1083.26c2.63-0.69,4.92,1.89,3.89,4.39c-0.84,2.03-2.35,4.29-5.08,6.17     c-6.74,4.64-10.88,11.8-9.35,12.61c1.54,0.81,13.04-10.67,17.71-6.87c4.67,3.81-14.57,14.34-14.15,17.29     c0.42,2.94,13.3-7.43,14.79-3.54c1.49,3.89-15.09,13.1-15.13,15.41c-0.04,2.31,10.11-2.09,9.29,0.98     c-0.82,3.07-5.2,7.78-17.49,8.73c0,0-18.98,2.51-21.91-8.36C1346.41,1119.76,1358,1090.78,1386.62,1083.26z"/><g><path fill="#fad362" d="M1138.9,957.85L1138.9,957.85l-94.03,84.16c-0.7,0.62-0.36,2.01,0.49,2.02l184.78,2.44     c0.85,0.01,1.22-1.37,0.54-2.01L1138.9,957.85z"/><path fill="#da8642" d="M1226.21,1147.88l-179.44-1.06c-2.57-0.02-4.63-2.11-4.62-4.68l0.56-95.58c0.02-2.57,2.11-4.64,4.68-4.62     l179.44,1.06c2.57,0.01,4.63,2.11,4.62,4.67l-0.57,95.58C1230.87,1145.82,1228.78,1147.89,1226.21,1147.88z"/><linearGradient id="a" x1="1134.758" x2="1134.758" y1="977.379" y2="1129.47" gradientUnits="userSpaceOnUse"><stop offset="0" stop-color="#fdfdfd"/><stop offset=".479" stop-color="#fbfdfd"/><stop offset=".652" stop-color="#f4fbfd"/><stop offset=".775" stop-color="#e9f8fe"/><stop offset=".874" stop-color="#d8f4fe"/><stop offset=".958" stop-color="#c2efff"/><stop offset="1" stop-color="#b4ecff"/></linearGradient><path fill="url(#a)" d="M1194.06,1129.47h-118.6c-0.04,0-0.08-0.03-0.08-0.08V977.46c0-0.04,0.03-0.08,0.08-0.08h118.6      c0.04,0,0.08,0.03,0.08,0.08v151.94C1194.14,1129.44,1194.1,1129.47,1194.06,1129.47z"/><rect width="51" height="4.34" x="1089.6" y="1003.84" fill="#92d9ef"/><path fill="#92d9ef" d="M1123.17,1100.93h54.5c1.24,0,2.25-1.11,2.25-2.48l0,0c0-1.37-1.01-2.48-2.25-2.48h-54.5         c-1.24,0-2.25,1.11-2.25,2.48l0,0C1120.92,1099.82,1121.93,1100.93,1123.17,1100.93z"/><path fill="#92d9ef" d="M1152.84,1091.02h24.83c1.24,0,2.25-1.11,2.25-2.48l0,0c0-1.37-1.01-2.48-2.25-2.48h-24.83         c-1.24,0-2.25,1.11-2.25,2.48l0,0C1150.6,1089.91,1151.6,1091.02,1152.84,1091.02z"/><path fill="#92d9ef" d="M1179.66,1043.3h-72.55c-0.14,0-0.26-0.12-0.26-0.26v-3.1c0-0.14,0.12-0.26,0.26-0.26h72.55        c0.14,0,0.26,0.12,0.26,0.26v3.1C1179.92,1043.18,1179.8,1043.3,1179.66,1043.3z"/><path fill="#92d9ef" d="M1100.07,1046.46h-8.63c-0.11,0-0.2-0.09-0.2-0.2v-9.55c0-0.11,0.09-0.2,0.2-0.2h8.63        c0.11,0,0.2,0.09,0.2,0.2v9.55C1100.27,1046.37,1100.18,1046.46,1100.07,1046.46z"/><path fill="#92d9ef" d="M1179.66,1057.78h-72.55c-0.14,0-0.26-0.12-0.26-0.26v-3.1c0-0.14,0.12-0.26,0.26-0.26h72.55        c0.14,0,0.26,0.12,0.26,0.26v3.1C1179.92,1057.66,1179.8,1057.78,1179.66,1057.78z"/><path fill="#92d9ef" d="M1100.07,1060.94h-8.63c-0.11,0-0.2-0.09-0.2-0.2v-9.55c0-0.11,0.09-0.2,0.2-0.2h8.63        c0.11,0,0.2,0.09,0.2,0.2v9.55C1100.27,1060.85,1100.18,1060.94,1100.07,1060.94z"/><path fill="#92d9ef" d="M1179.66,1072.26h-72.55c-0.14,0-0.26-0.12-0.26-0.26v-3.1c0-0.14,0.12-0.26,0.26-0.26h72.55        c0.14,0,0.26,0.12,0.26,0.26v3.1C1179.92,1072.14,1179.8,1072.26,1179.66,1072.26z"/><path fill="#92d9ef" d="M1100.07,1075.43h-8.63c-0.11,0-0.2-0.09-0.2-0.2v-9.55c0-0.11,0.09-0.2,0.2-0.2h8.63        c0.11,0,0.2,0.09,0.2,0.2v9.55C1100.27,1075.34,1100.18,1075.43,1100.07,1075.43z"/><path fill="#92d9ef" d="M1178.96,1026.32h-89.23c-0.07,0-0.13-0.06-0.13-0.13v-1.55c0-0.07,0.06-0.13,0.13-0.13h89.23        c0.07,0,0.13,0.06,0.13,0.13v1.55C1179.1,1026.27,1179.04,1026.32,1178.96,1026.32z"/><path fill="#92d9ef" d="M1155.09,994.75v25.83h23.76v-25.83H1155.09z M1177.72,1019.46h-1.25c-0.91-3.66-1.92-5.7-1.92-5.7      l-1.38-0.58c-0.01-0.01-0.02-0.01-0.02-0.02c-0.05-0.02-0.1-0.03-0.15-0.05l0,0l0,0c-0.98-0.33-2.19-0.63-2.7-0.75      c0,0.01,0,0.02-0.01,0.03c-0.15-0.06-0.23-0.09-0.23-0.09l-0.86-0.86v0v0c0,0-0.01,0.01-0.03,0.03l-0.15-0.95      c0.16-0.16,0.32-0.34,0.46-0.54c0.27-0.36,0.52-0.92,0.75-1.53c0.01,0.01,0.02,0.01,0.03,0.02c0.62,0.34,1.21-0.65,1.14-1.4      c-0.05-0.58-0.47-0.45-0.65-0.36c0.03-0.15,0.07-0.29,0.09-0.43c0,0,0,0,0,0c0.01-0.01,0.02-0.04,0.03-0.08      c0-0.01,0.01-0.02,0.01-0.03c0.01-0.03,0.03-0.06,0.04-0.1c0.01-0.02,0.02-0.04,0.02-0.06c0.02-0.04,0.03-0.08,0.05-0.12      c0.01-0.03,0.02-0.06,0.03-0.08c0.02-0.05,0.03-0.09,0.05-0.14c0.01-0.03,0.02-0.07,0.03-0.1c0.02-0.05,0.03-0.11,0.05-0.16      c0.01-0.04,0.02-0.08,0.04-0.12c0.02-0.06,0.03-0.12,0.05-0.18c0.01-0.05,0.02-0.09,0.04-0.14c0.02-0.06,0.03-0.13,0.04-0.19      c0.01-0.05,0.02-0.1,0.03-0.15c0.01-0.07,0.03-0.13,0.04-0.2c0.01-0.03,0.01-0.06,0.02-0.09c0,0,0,0,0,0      c0.07-0.42,0.1-0.86,0.06-1.31c0,0,0,0,0,0.01c0-0.05-0.02-0.11-0.02-0.16c-0.01-0.07-0.02-0.14-0.03-0.21      c-0.01-0.06-0.03-0.12-0.04-0.17c-0.02-0.07-0.03-0.13-0.05-0.19c-0.02-0.07-0.05-0.14-0.08-0.21c-0.02-0.05-0.03-0.1-0.06-0.15      c-0.05-0.12-0.11-0.23-0.18-0.34c-1.16-1.86-5.14-3.1-7.15-0.32c0,0-0.01,0.01-0.01,0.01c-0.01,0-0.04,0-0.07,0      c-0.04,0-0.08,0.01-0.13,0.02c-0.13,0.03-0.3,0.1-0.47,0.26c-0.07,0.06-0.13,0.14-0.19,0.23c-0.13,0.2-0.24,0.48-0.29,0.86      c0,0,0,0,0,0c-0.01,0.05-0.01,0.1-0.02,0.16c-0.01,0.11-0.02,0.23-0.03,0.34c0,0.04,0,0.07-0.01,0.11      c0,0.08-0.01,0.15-0.01,0.23c0,0.04,0,0.07,0,0.11c0,0.08,0,0.16-0.01,0.24c0,0.03,0,0.05,0,0.08c0,0.1,0,0.21,0,0.31      c0,0.02,0,0.03,0,0.05c0,0.08,0,0.17,0.01,0.25c0,0.03,0,0.05,0,0.08c0,0.07,0.01,0.14,0.01,0.21c0,0.02,0,0.05,0.01,0.07      c0.01,0.08,0.01,0.17,0.02,0.24c0,0,0,0.01,0,0.01c0.01,0.09,0.02,0.17,0.03,0.25c0,0,0,0.01,0,0.01c0,0,0,0,0,0      c0.05,0.37,0.12,0.66,0.2,0.81c0,0.01,0.01,0.01,0.02,0.01c0.01,0,0.02,0,0.03,0c0.04,0.22,0.09,0.46,0.16,0.71      c-0.01-0.01-0.01-0.02-0.02-0.03c0,0,0-0.01-0.01-0.01c-0.01-0.01-0.01-0.02-0.01-0.02s-0.68-0.41-0.73,0.33      c-0.03,0.47,0.2,1.02,0.52,1.29c0.06,0.05,0.13,0.09,0.21,0.12c0.07,0.03,0.15,0.04,0.22,0.03c0.08-0.01,0.15-0.03,0.23-0.07      c0,0,0,0,0,0c0.04-0.02,0.07-0.05,0.09-0.07c0.14,0.33,0.29,0.66,0.48,0.95c0.09,0.14,0.18,0.28,0.28,0.41      c0.05,0.06,0.1,0.13,0.15,0.19c0.07,0.08,0.15,0.16,0.23,0.23l-0.14,0.56c0,0,0,0,0-0.01l-1.06,0.89c0,0-0.81,0.15-2,0.66      c0,0-0.01,0.01-0.02,0.01c-0.01-0.01-0.02-0.02-0.02-0.02l-1.19,0.43c-0.47,0.17-0.85,0.51-1.04,0.95      c-0.41,0.97-1.16,2.92-1.81,5.7h-1.24v-23.58h21.5V1019.46z M1169.85,1004.51c0.03-0.01,0.06-0.01,0.08-0.02      c0.01,0,0.03,0.01,0.02,0.02c0,0.01,0,0.01,0,0.02C1169.92,1004.53,1169.88,1004.52,1169.85,1004.51z"/><polygon fill="#da8642" points="1068.45 1064.14 1068.45 1130.34 1207.63 1130.34 1207.63 1063.3 1137.75 1118.96"/><polygon fill="#da8642" points="1106.4 1093.21 1111.53 1097.18 1137.18 1116.43 1163.97 1097.49 1167.12 1093.57 1186.99 1109 1140.7 1134.74 1095.27 1101.64"/><path fill="#fad362" d="M1106.4,1093.21l-63.29-48.49c-0.25,0.56-0.39,1.18-0.39,1.83l-0.56,95.32L1106.4,1093.21z"/><path fill="#fad362" d="M1230.89,1143.08l0.56-95.4c0-0.67-0.14-1.31-0.4-1.89l-63.93,47.79L1230.89,1143.08z"/><path fill="#fad362" d="M1226.21,1147.88c1.2,0.01,2.29-0.46,3.12-1.2l-65.37-49.18l-26.79,18.94l-25.65-19.25l-64.48,49.63     L1226.21,1147.88z"/></g><g><path fill="#fff" d="M1053.52,1093.32l-154.5,41.14c-5.26,1.4-10.65-1.73-12.05-6.98l-25.2-94.64     c-1.4-5.26,1.73-10.65,6.98-12.05l154.5-41.14c5.26-1.4,10.65,1.73,12.05,6.98l25.2,94.64     C1061.9,1086.52,1058.77,1091.92,1053.52,1093.32z"/><path fill="#3885c6" d="M993.53,1044.12l-10.54,25.24l-45.11-34.8l-49.87,96.03c1.66,4,7.13,6.06,12.92,4.51l151.23-40.27     c6.16-1.64,10.18-6.64,8.97-11.17l-3.05-11.46L993.53,1044.12z"/><path fill="#3885c6" d="M1011.16,1012c1.46,5.47-1.86,11.11-7.41,12.59s-11.23-1.76-12.69-7.24c-1.46-5.47,1.86-11.11,7.41-12.59     C1004.02,1003.29,1009.7,1006.53,1011.16,1012z"/></g><g><path fill="#5a89dd" d="M698.53,1093.16l69.67,647.7c1.08,10.1,9.61,17.75,19.76,17.75h445.72c10.11,0,18.61-7.59,19.75-17.63     l73.53-647.81H698.53z"/><path fill="#fff" d="M785.6,1739.47l-68.58-646.3h-18.49l69.67,647.7c1.08,10.1,9.61,17.75,19.76,17.75l17.4-1.15     C795.21,1757.46,786.69,1749.7,785.6,1739.47z" opacity=".2"/><path d="M1134.29,1093.16c20.05,14.45,23.47,55.12,17.34,113.43c-10.05,95.45-42.52,423.3-100.01,552.02h182.07     c10.11,0,18.61-7.59,19.75-17.63l73.53-647.81H1134.29z" opacity=".2"/><path d="M1012.74,1687.88c-16.39,0-29.68-9.91-29.68-22.13v-487.3c0-12.22,13.29-22.13,29.68-22.13      c16.39,0,29.68,9.91,29.68,22.13v487.3C1042.42,1677.97,1029.13,1687.88,1012.74,1687.88z" opacity=".2"/><path fill="#1d3b77" d="M1012.74,1683c-12,0-21.72-9.73-21.72-21.72v-478.35c0-11.99,9.73-21.72,21.72-21.72       c12,0,21.72,9.73,21.72,21.72v478.35C1034.46,1673.27,1024.74,1683,1012.74,1683z"/><path fill="#25497c" d="M1016.33,1679.16c-8.54,0-15.46-9.58-15.46-21.4v-471.32c0-11.82,6.92-21.4,15.46-21.4       c8.54,0,15.46,9.58,15.46,21.4v471.32C1031.79,1669.58,1024.87,1679.16,1016.33,1679.16z"/><path d="M899.33,1684.5c-15.39,1.89-29.08-6.39-30.57-18.49l-59.25-482.54c-1.49-12.1,9.79-23.44,25.18-25.33      c15.39-1.89,29.08,6.39,30.57,18.49l59.25,482.54C926,1671.27,914.72,1682.61,899.33,1684.5z" opacity=".2"/><path fill="#1d3b77" d="M892.49,1681.05c-11.91,1.46-22.74-7.01-24.21-18.91l-58.3-474.78c-1.46-11.91,7.01-22.74,18.91-24.21       c11.91-1.46,22.74,7.01,24.21,18.91l58.3,474.78C912.87,1668.75,904.4,1679.59,892.49,1681.05z"/><path fill="#25497c" d="M853.11,1182.06c-0.87-7.11-5.11-12.98-10.9-16.25c-10.62,2.48-17.91,12.28-16.6,22.94l56.06,456.54     c1.41,11.45,12.2,19.55,24.1,18.08c1.99-0.24,3.88-0.76,5.65-1.47c0.18-1.65,0.2-3.33-0.01-5.05L853.11,1182.06z"/><path d="M1133,1686.96c14.45,1.78,27.38-6.64,28.87-18.79l59.5-484.57c1.49-12.15-9.02-23.44-23.47-25.22      c-14.45-1.77-27.38,6.64-28.87,18.79l-59.5,484.57C1108.04,1673.89,1118.55,1685.18,1133,1686.96z" opacity=".2"/><path fill="#1d3b77" d="M1129.04,1681.05c11.91,1.46,22.74-7.01,24.21-18.91l58.3-474.78c1.46-11.91-7.01-22.74-18.91-24.21      c-11.91-1.46-22.74,7.01-24.21,18.91l-58.3,474.78C1108.67,1668.75,1117.14,1679.59,1129.04,1681.05z"/><path fill="#25497c" d="M1193.34,1163.27c-0.24-0.04-0.47-0.09-0.71-0.12c-11.91-1.46-22.74,7.01-24.21,18.91l-58.3,474.78     c-0.93,7.56,2.16,14.68,7.57,19.25c0.24,0.04,0.47,0.09,0.71,0.12c11.91,1.46,22.74-7.01,24.21-18.91l58.3-474.78     C1201.84,1174.96,1198.76,1167.85,1193.34,1163.27z"/></g><g><path fill="#25497c" d="M1164.42,945.03l-27.76-14.18l20.32-39.78c1.79-3.51,0.52-7.77-2.84-9.49l-126.6-64.66      c-3.36-1.72-7.56-0.25-9.36,3.26l-20.32,39.78l-27.76-14.18L990.42,806c9.97-19.51,33.27-27.63,51.93-18.1l126.6,64.66      c18.67,9.53,25.75,33.17,15.79,52.68L1164.42,945.03z"/><path fill="#92bff7" d="M1363.8,1046.85L786.99,752.28c-6.19-3.16-13.77-0.71-16.94,5.48l-25.37,49.68     c-3.16,6.19-0.71,13.78,5.49,16.94l576.81,294.57c6.19,3.16,13.78,0.71,16.94-5.49l25.37-49.68     C1372.45,1057.6,1369.99,1050.01,1363.8,1046.85z"/><path d="M1363.8,1046.85l-85.88-43.86c-8.3,21.02-20.47,45.79-36.67,63.73c-1.85,2.04-3.17,4.17-4.09,6.36     l89.82,45.87c6.19,3.16,13.78,0.71,16.94-5.49l25.37-49.68C1372.45,1057.6,1369.99,1050.01,1363.8,1046.85z" opacity=".2"/></g><g><path fill="#fbc0a4" d="M603.2,944.03c0,0-14.81,2.77-6.99,22.62c1.8,4.58-1.55,8.63-7.93,12.55l11.74,17.7      c16.56-14.61,28.68-26.33,30.57-29.81c5.25-9.65,7.73-15.21-0.44-17.51c-8.16-2.3-1.48-12.93-8.56-13.56      c-7.08-0.63-1.27-13.82-8.8-11.29C605.27,927.25,603.2,944.03,603.2,944.03z"/><path fill="#3ea5eb" d="M374.56,1070.44c0,0,134.58,18.8,157.8,8.34c23.22-10.46,81.76-89.58,81.76-89.58l-22.17-25.13      l-79.46,73.84C512.49,1037.91,388.95,980.9,374.56,1070.44z"/><path fill="#2b85c2" d="M558.35,1042.1c-27.19,23.07-33.06,24.53-33.06,24.53c-15.65,7.35-132.87,6.14-132.93,6.14      c37.35,4.68,122.02,14.11,139.99,6.01c18.45-8.31,59.17-59.94,75.14-80.81C595.18,1009.45,575.44,1027.6,558.35,1042.1z"/><polygon fill="#da8642" points="685.25 965.53 692.88 970.57 731 994.9 766.65 965.41 770.67 959.56 800.26 979.14 737.9 1020.27 670.5 978.57"/><path fill="#ef9b06" d="M859.57,1029.62l-252.44,17.65c-3.61,0.25-6.74-2.47-6.99-6.08l-9.4-134.46c-0.25-3.61,2.47-6.74,6.08-7      l252.44-17.65c3.61-0.25,6.74,2.47,7,6.08l9.4,134.47C865.9,1026.23,863.18,1029.37,859.57,1029.62z"/><path fill="#fac762" d="M591.09,904.12c-0.16,0.48-0.16,1.01-0.21,1.52c-0.04,0.37-0.16,0.72-0.14,1.11l9.4,134.44      c0.13,1.91,1.1,3.53,2.49,4.64l85.15-79L591.09,904.12z"/><path fill="#fac762" d="M770.8,961.41l94.3,64.16c0.38-0.9,0.61-1.87,0.55-2.91l-9.4-134.43c-0.07-0.97-0.35-1.88-0.77-2.69      c0,0,0,0,0-0.01L770.8,961.41z"/><path fill="#ffdb96" d="M849.77,882.12l-253.19,17.66c-2.44,0.26-4.41,1.84-5.3,3.97l137.72,90c2.38,1.55,5.48,1.31,7.58-0.6      l118.75-107.81C854.2,883.4,852.13,882.14,849.77,882.12z"/><path fill="#f9c2aa" d="M598.18,1054.35c0,0,13.35-3.3,16.89-9.2c3.2-5.32,2.16-3.42,3.39-5.75c0.42-0.8,1.36-2.35,1.36-2.35     s8.67-14.55,13.83-14.99c5.16-0.44,6.01,3.62,0.08,10.74c-5.93,7.13,2.73,15.35,14.58,5.98c11.85-9.37,27.91-16.93,27.74-11.51     c-0.17,5.42-11.2,11.83-11.2,11.83s0.23,0.5,2.95-1.28c2.73-1.78,7.93-8.34,8.49-6.49c0.56,1.86,5.11,13.49-9.69,27.44     c-14.8,13.96-27.73,13.76-33.14,14.37c-5.41,0.62-24.35,6.76-29.2,11.35C604.27,1084.5,589.27,1061.66,598.18,1054.35z"/><g><path fill="#22313b" d="M402.79,1697.19l-2.34,24.9c0,0,23.15,10.38,27.26,5.45c4.11-4.93,6.94-3.64,6.94-3.64l1.96-31.49      L402.79,1697.19z"/><polygon fill="#22313b" points="301.85 1689.57 303.29 1713.46 333.45 1711.87 337.02 1685.26"/><path fill="#3f4752" d="M309.91,1286.56c0,0-1.69,62.49,1.77,98.33c3.46,35.84,9.9,125.38,4.75,152.03      c-4.73,24.49-19.18,131.7-21.86,162.76c-0.3,3.45,2.4,6.4,5.84,6.42c13.3,0.05,34.57,2.36,38.2-4.47      c4.66-8.79,39.28-145,44.43-171.66c5.15-26.65,14.6-48.7,14.6-48.7s3.46,35.84,2.74,62.62l-4.27,157.9      c-0.1,3.87,3.14,6.97,6.97,6.61c12.12-1.15,26.89-1.36,36.74-4.36c0,0,15.84-104.99,21.59-153.96      c5.75-48.97,14.69-227.18,2.51-247.71C451.72,1281.86,309.91,1286.56,309.91,1286.56z"/><path fill="#2f3740" d="M294.57,1699.69c-0.3,3.45,2.4,6.4,5.84,6.42c2.89,0.01,6.59-0.02,10.63-0.13       c6.85-50.16,31.01-193.29,35.66-223.99c4.03-26.58-8.1-140.1-14.49-195.84c-13.45,0.12-22.29,0.41-22.29,0.41       s-1.69,62.49,1.77,98.33c3.46,35.84,9.9,125.38,4.75,152.03C311.7,1561.42,297.26,1668.63,294.57,1699.69z"/><path fill="#2f3740" d="M411.4,1381.17c-4.9,17.72-15.82,105.24-15.82,105.24v0.01c1.25-3.26,2.05-5.14,2.05-5.14       s3.46,35.84,2.74,62.62l-4.27,157.9c-0.1,3.87,3.14,6.97,6.97,6.61c10.12-0.96,21.64-1.65,33.22-4.01       c-8.28-1.74-21.06-7.84-24.35-14.98c-4.18-9.06,9.13-173.95,9.13-173.95C413.05,1483.97,411.4,1381.17,411.4,1381.17z"/><path fill="#2d313d" d="M298.35,1714.55c0,0,32.95-11.7,40.99-7.23c0,0-0.23,8.45,3.73,12.8c3.96,4.35,27.73,30.43,23.54,34.54      c-4.19,4.1-45.06,7.11-69.29-2.07L298.35,1714.55z"/><path fill="#2d313d" d="M400.09,1716.79c-1.39-0.15-2.62,0.96-2.66,2.42l-0.86,31.95c0,0-3.79,3.74,18.34,4.4      c22.13,0.66,81.15,2.43,84.94-1.31c3.79-3.74,0.21-7.7-18.03-15.95c-18.24-8.25-38.16-22.33-45.33-30.25      c0,0-14.75-0.44-11.38,11.22C425.12,1719.26,421.7,1719.15,400.09,1716.79z"/></g><path fill="#3ea5eb" d="M303.48,1313.31c0,0,21.23-214.57,40.11-261.55c18.87-46.98,95.55-46.98,126.22-22.85     c30.67,24.12,25.96,111.09,16.52,142.2c-9.96,32.81-14.16,140.93-14.16,140.93S387.24,1351.4,303.48,1313.31z"/><g><path fill="#feb48c" d="M396.19,1015.44l5.5-22.19l48.97,0.51l3.63,28.32C454.29,1022.08,429.76,1057.18,396.19,1015.44z"/><path fill="#f9c2aa" d="M476.85,927.06c0,0-0.36,25.29-1.25,38.79c-0.89,13.5-2.54,44.43-28.5,47.06       c-25.96,2.63-39.74-11.72-48.8-18.15c0,0-28.97-30.49-24.1-39.17c4.87-8.69,10.93-35.37,36.59-33.5       C436.45,923.95,476.85,927.06,476.85,927.06z"/><path fill="#221e52" d="M399.48,995.85c0,0-32.44-29.49-39.81-48.11c-7.37-18.62-6.48-32.12,2.67-40.5c0,0-7.96-9.62-12.24-9.93       c0,0,12.83,0.94,16.81,5.75c0,0-3.39-13.81,1.19-18c0,0-0.59,9,3.39,13.81c0,0,15.5-39.56,40.87-33.19       c25.37,6.37,66.66,31.99,75.51,28.11c0,0-4.57,4.19-13.13,3.56c0,0,12.54,5.43,25.37,6.37c0,0-5.76,22.19-40.57,28.69       c-34.81,6.5-60.18,0.13-60.18,0.13s6.48,32.12,1.31,45.31c0,0-7.37-18.62-15.93-19.25c-8.55-0.62-0.89,13.5,3.09,18.31       C391.81,981.73,403.76,996.17,399.48,995.85z"/></g><path fill="#2b85c2" d="M491.31,1078.48c-28.34-22.68-67.45-38.08-92.16-48.61c-15.84-6.75-35.84,1.71-44.77,20.01     c-8.88,18.18-7.92,25.08,2.61,42.9c8.6,14.56,79.52,48.29,123.15,49.55c3.54,0.1,7.47-0.28,11.67-1.06     C493.88,1122.14,494.25,1099.14,491.31,1078.48z"/><path fill="#3ea5eb" d="M397.57,1030.78c26.18,11.38,68.45,28.53,97.82,52.16c0,0,80.24-27.73,110.79-36.83l13.5,35.62     c0,0-93.65,56.53-136.28,52.77c-42.63-3.76-113.84-37.71-123.12-51.02c-11.36-16.29-12.71-22.41-5.16-37.84     C362.73,1030.1,381.71,1023.89,397.57,1030.78z"/></g></g></svg>