<?xml version="1.0" encoding="UTF-8"?>
<svg xmlns="http://www.w3.org/2000/svg" xmlns:xlink="http://www.w3.org/1999/xlink" version="1.1" id="Layer_1" x="0px" y="0px" viewBox="0 0 90 90" enable-background="new 0 0 90 90" xml:space="preserve">
<g>
	<g>
		<circle fill="#F2DFD5" cx="45" cy="45" r="44.5"/>
	</g>
	<g>
		<path d="M69,43.7H21l24-25.6L69,43.7z M25.6,41.7h38.8L45,21L25.6,41.7z"/>
	</g>
	<g>
		<path fill="#E45543" d="M67.6,69.5H22.4c-2.4,0-4.3-1.9-4.3-4.3V47c0-2.4,1.9-4.3,4.3-4.3h45.2c2.4,0,4.3,1.9,4.3,4.3v18.2    C71.9,67.5,70,69.5,67.6,69.5z"/>
		<path d="M67.6,70.5H22.4c-2.9,0-5.3-2.4-5.3-5.3V47c0-2.9,2.4-5.3,5.3-5.3h45.2c2.9,0,5.3,2.4,5.3,5.3v18.2    C72.9,68.1,70.5,70.5,67.6,70.5z M22.4,43.7c-1.8,0-3.3,1.5-3.3,3.3v18.2c0,1.8,1.5,3.3,3.3,3.3h45.2c1.8,0,3.3-1.5,3.3-3.3V47    c0-1.8-1.5-3.3-3.3-3.3H22.4z"/>
	</g>
	<g>
		<circle fill="#A096C9" cx="45" cy="19.6" r="5"/>
		<path d="M45,25.5c-3.3,0-6-2.7-6-6c0-3.3,2.7-6,6-6c3.3,0,6,2.7,6,6C51,22.8,48.3,25.5,45,25.5z M45,15.6c-2.2,0-4,1.8-4,4    s1.8,4,4,4c2.2,0,4-1.8,4-4S47.2,15.6,45,15.6z"/>
	</g>
	<g>
		<path fill="#FFFFFF" d="M33.6,56h3v4.8c-1.3,1.5-3.2,2.2-5.5,2.2c-2,0-3.6-0.7-5-2c-1.3-1.3-2-2.9-2-4.9c0-2,0.7-3.6,2-5    c1.4-1.3,3-2,4.9-2s3.6,0.6,5,1.9l-1.6,2.2c-0.6-0.5-1.2-0.9-1.7-1.1c-0.5-0.2-1.1-0.3-1.6-0.3c-1.1,0-2.1,0.4-2.9,1.2    s-1.2,1.8-1.2,3.1c0,1.3,0.4,2.3,1.1,3c0.7,0.8,1.6,1.1,2.7,1.1c1,0,1.9-0.2,2.6-0.6V56z"/>
	</g>
	<g>
		<path fill="#FFFFFF" d="M44.8,62.9h-3v-5.3l-4.6-8.1h3.2l2.9,5l2.9-5h3.2l-4.6,8.1V62.9z"/>
	</g>
	<g>
		<path fill="#FFFFFF" d="M62.9,54.4l-3.6,7.3h-1.8l-3.6-7.3v8.4h-3V49.5h4l3.5,7.4l3.5-7.4h4v13.4h-3V54.4z"/>
	</g>
</g>

	<metadata>
		<rdf:RDF xmlns:rdf="http://www.w3.org/1999/02/22-rdf-syntax-ns#" xmlns:rdfs="http://www.w3.org/2000/01/rdf-schema#" xmlns:dc="http://purl.org/dc/elements/1.1/">
			<rdf:Description about="https://iconscout.com/legal#licenses" dc:title="54" dc:description="54" dc:publisher="Iconscout" dc:date="2017-06-16" dc:format="image/svg+xml" dc:language="en">
				<dc:creator>
					<rdf:Bag>
						<rdf:li>Vectors Market</rdf:li>
					</rdf:Bag>
				</dc:creator>
			</rdf:Description>
		</rdf:RDF>
    </metadata></svg>
