<svg width="32" height="32" viewBox="0 0 32 32" fill="none" xmlns="http://www.w3.org/2000/svg">
<g clip-path="url(#clip0_254_1902)">
<path d="M25.2309 1.01503L7.34903 0C4.99729 0.187548 2.54148 0.175806 0 0C0.64 1.73329 0.607484 3.45729 0.0251613 5.17355L0.0451613 9.22839C0.622968 10.5026 0.597097 11.5203 0.0606452 12.3213C0.780903 15.0411 0.698581 17.5169 0.0606452 19.8239C0.464516 20.7962 0.484645 21.7472 0.0606452 22.6735V32H8.24C8.84761 31.6164 9.42503 31.5622 9.95742 32H22.1032C22.6356 31.2795 23.213 31.3687 23.8206 32H32V22.6735C31.6506 21.7472 31.6672 20.7962 32 19.8239C31.3768 17.3943 31.4106 14.8896 32 12.3213C31.706 11.2877 31.6114 10.2583 32 9.23871V5.46452C31.3019 3.73645 31.2204 1.92587 32 0L25.2309 1.01503Z" fill="#655F68"/>
<path d="M29.8981 7.13548C28.66 7.55806 27.5335 7.18839 26.7606 7.48839C25.9884 7.78839 25.7239 8.71484 23.6168 9.19806C22.6419 9.42194 21.4129 9.43871 20.3735 9.39161C19.831 9.36774 19.6961 8.64968 20.1948 8.43935C20.7232 8.21613 21.2264 7.98 21.5116 7.78516C22.309 7.23935 22.86 6.08968 23.9039 5.44839C24.9484 4.80645 26.3381 4.92839 27.0884 4.34645C27.8381 3.76452 28.0548 2.16452 29.2303 1.25419C30.4065 0.343226 32 0 32 0H25.6652H7.34903H0C0 0 3.62194 0.60129 5.4671 2.24581C7.31226 3.89097 7.93742 6.59484 9.40258 7.89355C9.98323 8.40774 11.2052 9.03613 12.4703 9.6071C13.3245 9.9929 12.9794 11.2394 12.04 11.1619C10.8774 11.0665 9.70387 10.8839 8.83161 10.5516C6.30258 9.5871 5.74129 8.16193 4.84258 7.74903C3.94387 7.33613 2.58516 7.38258 1.60452 6.90645C0.73871 6.48581 0.150323 5.41742 0.0251613 5.17355L0.0451613 9.22839C0.647742 9.63484 1.33806 10.0652 2.11032 10.4935C5.07548 12.1374 9.89677 14.0974 16.0303 14.0974C22.1639 14.0974 26.9852 12.1374 29.9503 10.4935C30.7161 10.069 31.4006 9.64194 32 9.23871V5.46452C32 5.46452 31.1361 6.7129 29.8981 7.13548Z" fill="#CEABD8"/>
<path d="M7.34887 1.47484C7.7686 1.47484 8.10887 1.14468 8.10887 0.737419C8.10887 0.330154 7.7686 0 7.34887 0C6.92913 0 6.58887 0.330154 6.58887 0.737419C6.58887 1.14468 6.92913 1.47484 7.34887 1.47484Z" fill="#FFC05A"/>
<path d="M15.0343 11.1733C15.4033 11.1733 15.702 11.4636 15.702 11.821C15.702 12.1791 15.4033 12.4687 15.0343 12.4687C14.6659 12.4687 14.3672 12.1791 14.3672 11.821C14.3672 11.4636 14.6659 11.1733 15.0343 11.1733ZM21.6853 3.00293C22.1053 3.00293 22.4453 3.33325 22.4453 3.74035C22.4453 4.14745 22.1053 4.47777 21.6853 4.47777C21.2659 4.47777 20.9259 4.14745 20.9259 3.74035C20.9259 3.33325 21.2659 3.00293 21.6853 3.00293Z" fill="#FFC05A"/>
<path d="M16.0301 8.62303C17.0645 8.62303 17.903 7.69525 17.903 6.55077C17.903 5.4063 17.0645 4.47852 16.0301 4.47852C14.9958 4.47852 14.1572 5.4063 14.1572 6.55077C14.1572 7.69525 14.9958 8.62303 16.0301 8.62303Z" fill="#FFC05A"/>
<path d="M32 0V5.46452C32 5.46452 31.1361 6.7129 29.8981 7.13548C28.66 7.55806 27.5335 7.18839 26.7606 7.48839C25.9884 7.78839 25.7239 8.71484 23.6168 9.19806C22.6419 9.42194 21.4129 9.43871 20.3735 9.39161C19.831 9.36774 19.6961 8.64968 20.1948 8.43935C20.7232 8.21613 21.2264 7.98 21.5116 7.78516C22.309 7.23935 22.86 6.08968 23.9039 5.44839C24.9484 4.80645 26.3381 4.92839 27.0884 4.34645C27.8381 3.76452 28.0548 2.16452 29.2303 1.25419C30.4065 0.343226 32 0 32 0ZM12.4703 9.6071C13.3245 9.9929 12.9794 11.2394 12.04 11.1619C10.8774 11.0665 9.70387 10.8839 8.83161 10.5516C6.30258 9.5871 5.74129 8.16193 4.84258 7.74903C3.94387 7.33613 2.58516 7.38258 1.60452 6.90645C0.73871 6.48581 0.150323 5.41742 0.0251613 5.17355L0 0C0 0 3.62194 0.60129 5.4671 2.24581C7.31226 3.89097 7.93742 6.59484 9.40258 7.89355C9.98323 8.40774 11.2052 9.03613 12.4703 9.6071Z" fill="#995899"/>
<path d="M31.9998 9.23884V12.3214C31.7714 12.4563 31.5352 12.5917 31.292 12.7266C28.043 14.5317 22.7585 16.6827 16.0301 16.6827C9.3017 16.6827 4.01718 14.5317 0.768148 12.7266C0.524922 12.5917 0.288793 12.4563 0.0604057 12.3214L0.0449219 9.22852C0.647503 9.63497 1.33782 10.0653 2.11008 10.4937C5.07524 12.1375 9.89653 14.0975 16.0301 14.0975C22.1636 14.0975 26.9849 12.1375 29.9501 10.4937C30.7159 10.0692 31.4004 9.64206 31.9998 9.23884Z" fill="#E7F2F1"/>
<path d="M28.4212 23.411L26.8793 23.729L26.4999 22.4555C26.3386 21.9135 25.7812 21.5774 25.2089 21.6774L21.4444 22.3335C20.9728 22.4161 20.6051 22.7774 20.5257 23.2361L20.2431 24.8787C19.958 24.7226 19.6289 24.6342 19.2818 24.6342H19.0225L18.6283 23.1058C18.5173 22.6748 18.118 22.3723 17.6605 22.3723H14.3999C13.9425 22.3723 13.5431 22.6748 13.4322 23.1058L13.038 24.6342H12.7786C12.4315 24.6342 12.1025 24.7226 11.8173 24.8787L11.5347 23.2361C11.456 22.7774 11.0883 22.4161 10.616 22.3335L6.85151 21.6774C6.27926 21.5774 5.72248 21.9135 5.56055 22.4555L5.18119 23.729L3.63926 23.411L3.35861 21.5723C3.29087 21.1297 2.97281 20.7626 2.53539 20.6213L0.0605469 19.8239V12.3213C0.288934 12.4561 0.525063 12.5916 0.768289 12.7265C4.01732 14.5316 9.30184 16.6826 16.0302 16.6826C22.7586 16.6826 28.0431 14.5316 31.2922 12.7265C31.5354 12.5916 31.7715 12.4561 31.9999 12.3213V19.8239L29.5251 20.6213C29.0876 20.7626 28.7696 21.1297 28.7025 21.5723L28.4212 23.411Z" fill="#A35757"/>
<path d="M10.3307 29.5636L9.95775 31.9997H8.24034L8.03711 29.1816H8.03775L10.3307 29.5636Z" fill="#BCB9AD"/>
<path d="M24.024 29.1816L23.8208 31.9997H22.1034L21.7305 29.5636L24.024 29.1816Z" fill="#BCB9AD"/>
<path d="M31.9999 19.8242V22.6739L28.4212 23.4113L28.7025 21.5726C28.7696 21.13 29.0876 20.7629 29.5251 20.6216L31.9999 19.8242ZM26.4999 22.4558L26.8793 23.7294L25.9444 23.9223C25.018 24.1126 24.3341 24.8765 24.2676 25.7933L24.0238 29.1823L21.7302 29.5642L21.2238 26.2597C21.1315 25.6597 20.7573 25.1591 20.2431 24.8791L20.5257 23.2365C20.6051 22.7778 20.9728 22.4165 21.4444 22.3339L25.2089 21.6778C25.7812 21.5778 26.3386 21.9139 26.4999 22.4558ZM18.6283 23.1062L19.0225 24.6345H13.038L13.4322 23.1062C13.5431 22.6752 13.9425 22.3726 14.3999 22.3726H17.6605C18.118 22.3726 18.5173 22.6752 18.6283 23.1062ZM11.5347 23.2365L11.8173 24.8791C11.3031 25.1591 10.9289 25.6597 10.8367 26.2597L10.3302 29.5642L8.03732 29.1823H8.03668L7.7928 25.7933C7.727 24.8765 7.04248 24.1126 6.11668 23.9223L5.18119 23.7294L5.56055 22.4558C5.72248 21.9139 6.27926 21.5778 6.85151 21.6778L10.616 22.3339C11.0883 22.4165 11.456 22.7778 11.5347 23.2365ZM3.35861 21.5726L3.63926 23.4113L0.0605469 22.6739V19.8242L2.53539 20.6216C2.97281 20.7629 3.29087 21.13 3.35861 21.5726Z" fill="#5D5560"/>
<path d="M31.9999 22.6738V32.0003H23.8205L24.0238 29.1822L24.2676 25.7932C24.3341 24.8764 25.018 24.1125 25.9444 23.9222L26.8793 23.7293L28.4212 23.4112L31.9999 22.6738ZM21.7302 29.5641L22.1031 32.0003H9.95732L10.3302 29.5641L10.8367 26.2596C10.9289 25.6596 11.3031 25.159 11.8173 24.879C12.1025 24.7229 12.4315 24.6345 12.7786 24.6345H13.038H19.0225H19.2818C19.6289 24.6345 19.958 24.7229 20.2431 24.879C20.7573 25.159 21.1315 25.6596 21.2238 26.2596L21.7302 29.5641ZM8.03668 29.1822L8.2399 32.0003H0.0605469V22.6738L3.63926 23.4112L5.18119 23.7293L6.11668 23.9222C7.04248 24.1125 7.727 24.8764 7.7928 25.7932L8.03668 29.1822Z" fill="#655F68"/>
<path d="M26.8645 0.90599H25.9232V0.349861C25.9232 0.207345 25.8077 0.0917969 25.6652 0.0917969C25.5227 0.0917969 25.4071 0.207345 25.4071 0.349861V0.90599H24.4658C24.3233 0.90599 24.2078 1.02154 24.2078 1.16405C24.2078 1.30657 24.3233 1.42212 24.4658 1.42212H25.4071V2.32793C25.4071 2.47044 25.5227 2.58599 25.6652 2.58599C25.8077 2.58599 25.9232 2.47044 25.9232 2.32793V1.42212H26.8645C27.007 1.42212 27.1226 1.30657 27.1226 1.16405C27.1226 1.02154 27.007 0.90599 26.8645 0.90599ZM11.3019 3.42147H10.36V2.51567C10.36 2.37315 10.2445 2.2576 10.102 2.2576C9.95943 2.2576 9.84389 2.37315 9.84389 2.51567V3.42147H8.9026C8.76008 3.42147 8.64453 3.53702 8.64453 3.67954C8.64453 3.82206 8.76008 3.9376 8.9026 3.9376H9.84389V4.84406C9.84389 4.98657 9.95943 5.10212 10.102 5.10212C10.2445 5.10212 10.36 4.98657 10.36 4.84406V3.9376H11.3019C11.4445 3.9376 11.56 3.82206 11.56 3.67954C11.56 3.53702 11.4445 3.42147 11.3019 3.42147ZM19.8852 11.4034H19.34V10.8821C19.34 10.7396 19.2245 10.6241 19.082 10.6241C18.9394 10.6241 18.8239 10.7396 18.8239 10.8821V11.4034H18.2781C18.1356 11.4034 18.02 11.519 18.02 11.6615C18.02 11.804 18.1356 11.9195 18.2781 11.9195H18.8239V12.4415C18.8239 12.584 18.9394 12.6995 19.082 12.6995C19.2245 12.6995 19.34 12.584 19.34 12.4415V11.9195H19.8852C20.0277 11.9195 20.1432 11.804 20.1432 11.6615C20.1432 11.519 20.0277 11.4034 19.8852 11.4034Z" fill="#E7F2F1"/>
</g>
<defs>
<clipPath id="clip0_254_1902">
<rect width="32" height="32" rx="12" fill="white"/>
</clipPath>
</defs>
</svg>
