<svg xmlns="http://www.w3.org/2000/svg" viewBox="0 0 512 512"><path fill="#d474a6" d="M512,256a255.37,255.37,0,0,1-85.31,190.79l-.77.68h0c-.59.53-1.18,1-1.77,1.55l-.2.17c-1.77,1.56-3.57,3.08-5.38,4.56h0q-5,4.13-10.25,8s0,0,0,0q-1.86,1.4-3.75,2.74c-1.14.81-2.28,1.61-3.44,2.41a255.71,255.71,0,0,1-288.36,1.23q-2.64-1.8-5.24-3.64l-.45-.33h0c-1.1-.79-2.2-1.58-3.29-2.4,0,0,0,0,0,0q-5.23-3.87-10.25-8h0q-3.73-3.06-7.35-6.28h0c-.78-.68-1.53-1.36-2.3-2.05A255.86,255.86,0,0,1,85.21,65.3q3.3-3,6.72-5.81a255.52,255.52,0,0,1,85.33-47.15l1.29-.41h0A256.07,256.07,0,0,1,420.07,59.49q3.42,2.84,6.72,5.81A255.45,255.45,0,0,1,512,256Z"/><path fill="#3f4a88" d="M426.69,368.22v78.57l-.77.68h0c-.59.53-1.18,1-1.77,1.55l-.2.17c-1.77,1.56-3.57,3.08-5.38,4.56h0q-5,4.13-10.25,8s0,0,0,0q-1.86,1.4-3.75,2.74c-1.14.81-2.28,1.61-3.44,2.41a255.71,255.71,0,0,1-288.36,1.23q-2.64-1.8-5.24-3.64l-.45-.33h0c-1.1-.79-2.2-1.58-3.29-2.4,0,0,0,0,0,0q-5.23-3.87-10.25-8h0q-3.73-3.06-7.35-6.28h0c-.78-.68-1.53-1.36-2.3-2.05v-77.2Z"/><path fill="#4954a3" d="M69.27,106.32H441.19a27,27,0,0,1,27,27V321.84a59.54,59.54,0,0,1-59.54,59.54H101.82a59.54,59.54,0,0,1-59.54-59.54V133.31A27,27,0,0,1,69.27,106.32Z"/><path fill="#d8b6ab" d="M401.08,467a255.71,255.71,0,0,1-288.36,1.23c0-.1,0-.19,0-.28.54-3.08,1.23-6.12,2.06-9.09a95.63,95.63,0,0,1,9.49-22.58h0c1.37-2.37,2.83-4.68,4.4-6.91,1.18-1.69,2.4-3.33,3.69-4.94h0a97.41,97.41,0,0,1,12.38-12.9c1.69-1.46,3.42-2.87,5.21-4.21q2-1.51,4.09-2.92A95.59,95.59,0,0,1,168,396.52c1.09-.51,2.19-1,3.31-1.45.81-.33,1.62-.66,2.44-1a96.9,96.9,0,0,1,34.55-6.33h97.46a96.59,96.59,0,0,1,32.71,5.67q2.94,1,5.79,2.28a94.89,94.89,0,0,1,14,7.49q2.1,1.34,4.13,2.81c1.8,1.29,3.56,2.65,5.26,4.07a96.18,96.18,0,0,1,12.5,12.46h0q2,2.32,3.74,4.77,2.39,3.23,4.48,6.64a96.61,96.61,0,0,1,9.83,21.45h0a93.3,93.3,0,0,1,2.67,10.47C401,466.24,401,466.59,401.08,467Z"/><path fill="#efc9ba" d="M401.08,467A256.33,256.33,0,0,1,148.29,488.3v-3.56a96.66,96.66,0,0,1,.74-12c.17-1.4.37-2.78.61-4.16s.5-2.85.81-4.25a95.69,95.69,0,0,1,3.9-13.41c.4-1.09.83-2.16,1.27-3.23,1.18-2.87,2.51-5.68,4-8.4q1.53-2.91,3.27-5.69a97.26,97.26,0,0,1,11.68-15.22c1.61-1.71,3.27-3.36,5-5a96.94,96.94,0,0,1,28.76-18.39c2.47-1,5-1.94,7.56-2.75,2.17-.69,4.37-1.31,6.6-1.84a94.23,94.23,0,0,1,12.44-2.16c1.18-.12,2.36-.23,3.55-.3,2.26-.17,4.55-.25,6.84-.25h60.47a96.59,96.59,0,0,1,32.71,5.67q2.94,1,5.79,2.28a94.89,94.89,0,0,1,14,7.49q2.1,1.34,4.13,2.81c1.8,1.29,3.56,2.65,5.26,4.07a96.18,96.18,0,0,1,12.5,12.46h0q2,2.32,3.74,4.77,2.39,3.23,4.48,6.64a96.61,96.61,0,0,1,9.83,21.45h0a93.3,93.3,0,0,1,2.67,10.47C401,466.24,401,466.59,401.08,467Z"/><rect width="69.11" height="85.23" x="222.45" y="333.52" fill="#d8b6ab" rx="16.27"/><rect width="53.12" height="85.23" x="238.44" y="333.52" fill="#efc9ba"/><circle cx="385.95" cy="233.52" r="26.99" fill="#efc9ba"/><circle cx="385.95" cy="233.52" r="11.67" fill="#d8b6ab"/><circle cx="128.05" cy="233.52" r="26.99" fill="#d8b6ab"/><circle cx="128.05" cy="233.52" r="11.67" fill="#c59f95"/><path fill="#d8b6ab" d="M386,170.55v63.72a129,129,0,0,1-257.9,0V170.55a92.21,92.21,0,0,1,92.22-92.22h73.47A92.21,92.21,0,0,1,386,170.55Z"/><path fill="#efc9ba" d="M386,170.55v63.72A129,129,0,0,1,272,362.35,129,129,0,0,1,158,234.27V170.55a92.21,92.21,0,0,1,92.21-92.22h43.49A92.21,92.21,0,0,1,386,170.55Z"/><rect width="28.99" height="13.74" x="246.49" y="245.6" fill="#c59f95" rx="6.87"/><path fill="none" stroke="#a77a6a" stroke-linecap="round" stroke-miterlimit="10" stroke-width="8" d="M350.84 191a37.92 37.92 0 0 0-53.12-7.38M226.94 182.37a37.94 37.94 0 0 0-52.72 9.9"/><path fill="none" stroke="#c59f95" stroke-linecap="round" stroke-miterlimit="10" stroke-width="8" d="M183.44 219.56a20.3 20.3 0 1 0 40.59 0M299.35 219.56a20.3 20.3 0 1 0 40.59 0"/><path fill="#eef1f4" d="M385.93,206.07c-22.72-38.18-52.22-72-91.29-99.75h0A341.13,341.13,0,0,0,256.48,82.9l-.56-.3.58-.61,38.32-40.37a54,54,0,0,1,76.3-2l10.77,10.24A110.47,110.47,0,0,1,385.93,206.07Z"/><path fill="#dcdee1" d="M294.64,106.32h0A341.13,341.13,0,0,0,256.48,82.9l0-.91,38.32-40.37A53.79,53.79,0,0,1,322,26.15C334.57,43.81,346.52,76.72,294.64,106.32Z"/><path fill="#dcdee1" d="M304.29,74a45.23,45.23,0,0,1-4,4.56A46.59,46.59,0,0,1,295.09,83q-10.77,4.17-21.51,9.52h0q-12.45,6.15-24.87,13.77-7.56,4.62-15.11,9.73c-25.25,17.07-50.42,38.11-75.55,61.84q-7.06,6.68-14.13,13.62-7.5,7.38-15,15.05l-.21.21-.17-.23-.49-.66-10.51-14.14A108.3,108.3,0,0,1,139.82,40.19l37.44-27.85,1.29-.41h0A257.69,257.69,0,0,1,294,2.81l10.75,14.46a46.57,46.57,0,0,1,6.64,12.48A47,47,0,0,1,304.29,74Z"/><path fill="#eef1f4" d="M304.29,74q-4.79,2.06-9.57,4.34Q282.84,84,271,91t-23.87,15.31q-6.77,4.68-13.52,9.73c-25.25,17.07-50.42,38.11-75.55,61.84q-7.06,6.68-14.13,13.62l-9-12.12A108.33,108.33,0,0,1,157.17,27.83l21.38-15.9h0A257.69,257.69,0,0,1,294,2.81l10.75,14.46a46.57,46.57,0,0,1,6.64,12.48A47,47,0,0,1,304.29,74Z"/><path fill="#bf9c93" d="M484.34,170.92h0c-1.69-.17-3.39-.31-5.09-.45-1-.07-2-.15-3-.21a3.91,3.91,0,0,0-.49,0c-.76-.06-1.52-.11-2.29-.15l-2.75-.17-2.52-.11q-1-.06-2-.09l-2-.07-4-.12c-3.46-.09-6.91-.11-10.36-.09h-1.23l-4.27.07-1.83.05-3.94.14-1.65.07-2,.09-1.81.09-1.95.12-.38,0-2.58.17-1.38.09h-.08l-3,.23-3.62.33-3.84,12.87-9.67,32.33L393.61,259.4l-3.7,12.37L370.69,336l-1.28,4.31h0l5.91,1.78,56.83,17,.16-.57,1.71-5.69.31-1.05,33.82-113v0l20.17-67.43C487,171.17,485.68,171,484.34,170.92Z"/><path fill="#bf9c93" d="M436.18,413.15l8.92-29.81a27.19,27.19,0,0,0-5.89-26.06,26.71,26.71,0,0,0-5.15-4.42,27,27,0,0,0-7.24-3.39l-43-12.85a27.25,27.25,0,0,0-6.54-1.12,26.53,26.53,0,0,0-6.62.52,27.24,27.24,0,0,0-8.64,3.35h0l-.43.26a26.94,26.94,0,0,0-10.19,11.5h0a25.8,25.8,0,0,0-1.43,3.74l-8.91,29.81,20.84,6.24,0-.12a2.23,2.23,0,0,1,.52-.91,2.35,2.35,0,0,1,4.09,1.23,2.17,2.17,0,0,1-.05,1l0,.12,20.85,6.23,0-.06a2.43,2.43,0,0,1,3-1.64l.09,0a2.4,2.4,0,0,1,1.7,1.92,2.47,2.47,0,0,1-.06,1.11l0,.06,20.84,6.24.12-.41a2,2,0,0,1,.34-.65,2.08,2.08,0,0,1,2.25-.74h0a2.07,2.07,0,0,1,1.47,1.86,1.82,1.82,0,0,1-.07.73l-.12.41Z"/><path fill="#bf9c93" d="M345.32 446.44l16.93-56.6-20.85-6.23L324.48 440.2a10.88 10.88 0 0 0 7.3 13.54 10.89 10.89 0 0 0 8.29-.84A10.89 10.89 0 0 0 345.32 446.44zM396.32 461.69l16.92-56.6-20.84-6.23-16.93 56.59A10.89 10.89 0 0 0 382.78 469a11.14 11.14 0 0 0 3.1.46 10.87 10.87 0 0 0 10.44-7.76zM421.87 461L439 403.6l-19.26-5.76-17.16 57.4a10.08 10.08 0 0 0 6.74 12.51 10.79 10.79 0 0 0 3.11.42A10.21 10.21 0 0 0 417 467 10.07 10.07 0 0 0 421.87 461zM368.41 461.79l19.24-64.35-20.84-6.23-19.24 64.34a10.88 10.88 0 0 0 7.3 13.54 10.79 10.79 0 0 0 8.29-.86A10.82 10.82 0 0 0 368.41 461.79zM361.08 366.66l.73-20.44.06-1.37.18-5.47-.43.26-36.45 22a9.52 9.52 0 0 0 1.1 17.84 9.61 9.61 0 0 0 6.54-.41l11.46-5 7.45-3.27z"/><path fill="#e1b5a8" d="M426.71,170.36a347.06,347.06,0,0,1,61.64.95l-54,180.49-.32,1.06a27,27,0,0,1,5.15,4.41l-1.08,3.62-4.68-1.4-1.27-.38-56.83-17,1.29-4.31.68-2.29L391.81,287Z"/><path fill="#e1b5a8" d="M446.24 374.89a2.09 2.09 0 0 0 0-.25 1.34 1.34 0 0 0 0-.2c0-.14 0-.29 0-.43v0s0 0 0 0 0-.31 0-.47 0-.3 0-.45l-.1-.9c0-.05 0-.09 0-.14s-.05-.38-.08-.56 0-.24-.06-.35c-.13-.8-.31-1.59-.51-2.37l-.05-.17c0-.1-.05-.2-.07-.3l-.09-.3a.09.09 0 0 1 0-.05v0a51510534221.54 51510534221.54 0 0 0 0-.06 0 0 0 0 1 0 0s0 0 0-.07l-.12-.36s0-.09 0-.13l0-.12 0 0-.18-.52c0-.12-.09-.23-.13-.35a3.17 3.17 0 0 0-.13-.36h0c0-.09-.06-.18-.1-.27l-.11-.26a2 2 0 0 0-.11-.26 1.89 1.89 0 0 1-.11-.25c-.16-.38-.33-.75-.52-1.11-.07-.15-.13-.29-.2-.43h0s0 0 0 0l0 0c-.1-.21-.21-.41-.32-.61s-.31-.56-.47-.83l-.06-.1a1.48 1.48 0 0 0-.13-.21 2.39 2.39 0 0 0-.13-.21L442 361a2.39 2.39 0 0 1-.13-.21h0l-.12-.19-.3-.44 0-.07c0-.06-.09-.12-.13-.19l-.12-.16 0 0-.1-.14a1.43 1.43 0 0 0-.14-.2c-.13-.18-.26-.35-.4-.52a2.35 2.35 0 0 0-.19-.25l-.2-.24-.15-.2 0 0 0 0h0l0-.05-.31-.35-.1-.12c-.08-.09-.15-.18-.24-.27h0a27 27 0 0 0-5.15-4.41l.32-1.06h0a16.55 16.55 0 0 0-1.59-.55L427 349.53l-1.33-.4-.38-.11-1.19-.36-.14 0-.47-.14-.44-.14-1.39-.42h0L389.8 338.4a27.07 27.07 0 0 0-13.16-.6 26.59 26.59 0 0 0-7.2 2.53h0c-.49.26-.95.53-1.43.8v0l-.44.25a27.11 27.11 0 0 0-11.63 15.26l-2 6.55-2.25 7.53v0l-3.18 10.61-1.2 4h0l-.32 1.08h0l1.85.55 13.05 3.9v0l0-.09h0a.65.65 0 0 1 0-.13l0-.05s0 0 0-.05l0-.07a2 2 0 0 1 .2-.35 2.43 2.43 0 0 1 .2-.25 2.28 2.28 0 0 1 .22-.22 2.69 2.69 0 0 1 .27-.2l.24-.13a1.78 1.78 0 0 1 .29-.12 1.67 1.67 0 0 1 .32-.08 2.08 2.08 0 0 1 .43 0h.24l.21 0 .22.05.24.09a.8.8 0 0 1 .16.08h0a2.59 2.59 0 0 1 .47.32 2.33 2.33 0 0 1 .43.51.94.94 0 0 1 .12.22.42.42 0 0 1 .06.14h0a1.27 1.27 0 0 1 .06.18 2.22 2.22 0 0 1 .09.37 2.17 2.17 0 0 1 0 .72c0 .1 0 .21-.08.32l0 .11h0l.77.24.17.05.14.05.29.09h0l0-.1a2.09 2.09 0 0 1 .53-.91 2.28 2.28 0 0 1 2.43-.68 2.35 2.35 0 0 1 1.66 1.9h0a2.55 2.55 0 0 1 0 .78l-.11.38 14.9 4.45 0-.06h0s0 0 0 0a.11.11 0 0 1 0-.08 2.43 2.43 0 0 1 .16-.37 2.47 2.47 0 0 1 .36-.49 2.84 2.84 0 0 1 .26-.24l0 0 .15-.11.05 0a.31.31 0 0 1 .1-.05 1.75 1.75 0 0 1 .44-.2l.19-.06h.06l.24 0a2.51 2.51 0 0 1 .94.09l.1 0a2.41 2.41 0 0 1 1.69 1.92 2.61 2.61 0 0 1-.06 1.11l0 .06h0l1.19.35 0-.07a2.47 2.47 0 0 1 .56-.95 2.37 2.37 0 0 1 2.46-.69l.08 0a2.42 2.42 0 0 1 1.7 1.93h0a2 2 0 0 1 0 1l0 .13 14.9 4.46.12-.4 0-.08a1.21 1.21 0 0 0 .05-.14.2.2 0 0 0 0-.08s0-.05 0-.08a1.59 1.59 0 0 1 .18-.27 2.11 2.11 0 0 1 2.26-.74h0a2.54 2.54 0 0 1 .41.18l0 0 .17.1 0 0 .13.11 0 0a1.51 1.51 0 0 1 .21.23 1.43 1.43 0 0 1 .15.22l0 0a2.13 2.13 0 0 1 .2.5 1.21 1.21 0 0 1 .06.38 1.34 1.34 0 0 1 0 .2 2.46 2.46 0 0 1 0 .26s0 0 0 .06a.13.13 0 0 1 0 .06v0l0 .08v0h0l-.12.41 1.92.58h0l.12-.39a2.1 2.1 0 0 1 2.6-1.41h0a2.07 2.07 0 0 1 1.39 2.59l-.11.4 3.82 1.14h0l9.49 2.84h0l2-6.6.88-2.95h0l6.06-20.26c.1-.32.19-.64.27-1s.17-.65.24-1 .13-.58.18-.87.11-.62.15-.94c0-.16.05-.32.07-.48l.06-.47c0-.3.07-.61.09-.93s0-.63.06-.93a2.44 2.44 0 0 0 0-.27c0-.24 0-.48 0-.72v-.35C446.25 375.25 446.24 375.06 446.24 374.89zM362 390.82a2.23 2.23 0 0 1 .52-.91l-15.14-4.53L330.42 442a10.88 10.88 0 0 0 4.46 12.22 11 11 0 0 0 5.19-1.3 10.89 10.89 0 0 0 5.25-6.46zM413 405.78a2 2 0 0 1 .34-.65l-15-4.5-16.93 56.6a10.87 10.87 0 0 0 4.47 12.22 10.87 10.87 0 0 0 10.44-7.76zM421.87 461L439 403.6l-13.32-4L408.56 457a10 10 0 0 0 3.91 11.15A10.21 10.21 0 0 0 417 467 10.07 10.07 0 0 0 421.87 461zM387.35 398.47a2.42 2.42 0 0 1 .55-1L372.75 393l-19.24 64.35A10.89 10.89 0 0 0 358 469.55a11 11 0 0 0 5.19-1.32 10.82 10.82 0 0 0 5.25-6.44z"/><path fill="#fff" d="M334.84,435.86h0a6.23,6.23,0,0,1,6.23,6.23v3.63a3.06,3.06,0,0,1-3.06,3.06h-6.35a3.06,3.06,0,0,1-3.06-3.06V442.1A6.23,6.23,0,0,1,334.84,435.86Z" transform="rotate(16.65 334.861 442.336)"/><path fill="#fff" d="M358.38,450.88h0a6.23,6.23,0,0,1,6.23,6.23v3.63a3.06,3.06,0,0,1-3.06,3.06h-6.35a3.06,3.06,0,0,1-3.06-3.06v-3.63a6.23,6.23,0,0,1,6.23-6.23Z" transform="rotate(16.65 358.383 457.357)"/><path fill="#fff" d="M386.16,451.21h0a6.23,6.23,0,0,1,6.23,6.23v3.63a3.06,3.06,0,0,1-3.06,3.06H383a3.06,3.06,0,0,1-3.06-3.06v-3.63a6.23,6.23,0,0,1,6.23-6.23Z" transform="rotate(16.65 386.178 457.687)"/><path fill="#fff" d="M412.76,449.94h0a6.23,6.23,0,0,1,6.23,6.23v3.63a3.06,3.06,0,0,1-3.06,3.06h-6.35a3.06,3.06,0,0,1-3.06-3.06v-3.63A6.23,6.23,0,0,1,412.76,449.94Z" transform="rotate(16.65 412.761 456.415)"/><path fill="#bf9c93" d="M488.36,148.43v22.49H420.07V59.49q3.42,2.84,6.72,5.81A256.6,256.6,0,0,1,488.36,148.43Z"/><path fill="#e1b5a8" d="M488.36,148.43v22.49H426.79V65.3A256.6,256.6,0,0,1,488.36,148.43Z"/><path fill="#bf9c93" d="M141.31,336l-19.22-64.25-3.93-13.14L106,218,95.77,183.79l-3.84-12.87-3.62-.33-3-.23h-.08l-2.87-.19-2-.12-2.75-.15q-4.14-.22-8.29-.34-2.28-.06-4.56-.09l-2.58,0c-2.16,0-4.31,0-6.47,0l-4.35.08q-.59,0-1.17,0c-2.65.07-5.29.17-7.94.3-1.69.09-3.39.19-5.08.3-3.18.21-6.37.46-9.54.76-1.34.12-2.67.25-4,.39l18.63,62.28v0L77.64,351.8l.31,1.05,1.71,5.69.16.57,56.83-17,5.91-1.78h0Z"/><path fill="#bf9c93" d="M75.82,413.15,66.9,383.34a27.19,27.19,0,0,1,5.89-26.06,26.71,26.71,0,0,1,5.15-4.42,27,27,0,0,1,7.24-3.39l43-12.85a27.25,27.25,0,0,1,6.54-1.12,26.53,26.53,0,0,1,6.62.52,27.24,27.24,0,0,1,8.64,3.35h0l.43.26a26.94,26.94,0,0,1,10.19,11.5h0a25.8,25.8,0,0,1,1.43,3.74l8.91,29.81-20.84,6.24,0-.12a2.23,2.23,0,0,0-.52-.91,2.35,2.35,0,0,0-4.09,1.23,2.17,2.17,0,0,0,0,1l0,.12-20.85,6.23,0-.06a2.43,2.43,0,0,0-3-1.64l-.09,0a2.4,2.4,0,0,0-1.7,1.92,2.47,2.47,0,0,0,.06,1.11l0,.06-20.84,6.24-.12-.41a2,2,0,0,0-.34-.65,2.08,2.08,0,0,0-2.25-.74h0a2.07,2.07,0,0,0-1.47,1.86A1.82,1.82,0,0,0,95,407l.12.41Z"/><path fill="#bf9c93" d="M166.68 446.44l-16.93-56.6 20.85-6.23 16.92 56.59a10.88 10.88 0 0 1-7.3 13.54 10.89 10.89 0 0 1-8.29-.84A10.89 10.89 0 0 1 166.68 446.44zM115.68 461.69l-16.92-56.6 20.84-6.23 16.93 56.59A10.89 10.89 0 0 1 129.22 469a11.14 11.14 0 0 1-3.1.46 10.87 10.87 0 0 1-10.44-7.76zM109.18 461.57a10.16 10.16 0 0 1-1.68 2.95l0 0a10 10 0 0 1-4.84 3.21 10.79 10.79 0 0 1-3.11.42A10.21 10.21 0 0 1 95 467a10.07 10.07 0 0 1-4.85-6l-3.51-11.74-.53-1.78h0l-2.3-7.7-8-26.62-2-6.6L73 403.6l10.82-3.24 2.5-.74h0l5.94-1.77 2.69 9v0l0 .1v0l.12.41 14.31 47.85A9.91 9.91 0 0 1 109.18 461.57zM143.59 461.79l-19.24-64.35 20.84-6.23 19.24 64.34a10.88 10.88 0 0 1-7.3 13.54 10.79 10.79 0 0 1-8.29-.86A10.82 10.82 0 0 1 143.59 461.79zM150.92 366.66l-.73-20.44-.06-1.37-.18-5.47.43.26 36.45 22a9.52 9.52 0 0 1-1.1 17.84 9.61 9.61 0 0 1-6.54-.41l-11.46-5-7.45-3.27z"/><path fill="#e1b5a8" d="M85.29,170.36a347.06,347.06,0,0,0-61.64.95l54,180.49.32,1.06a27,27,0,0,0-5.15,4.41l1.08,3.62,4.68-1.4,1.27-.38,56.83-17-1.29-4.31-.68-2.29L120.19,287Z"/><path fill="#e1b5a8" d="M164.66,385.39h0l-1.2-4-3.18-10.61v0L158,363.22l-2-6.55a27.11,27.11,0,0,0-11.63-15.26l-.44-.25v0c-.48-.27-.94-.54-1.43-.8h0a26.59,26.59,0,0,0-7.2-2.53,27.07,27.07,0,0,0-13.16.6l-31.85,9.52h0l-1.39.42-.44.14-.47.14-.14,0L86.7,349l-.38.11-1.33.4-5.76,1.72a16.55,16.55,0,0,0-1.59.55h0l.32,1.06a27,27,0,0,0-5.15,4.41h0c-.09.09-.16.18-.24.27l-.1.12-.31.35,0,.05h0l0,0,0,0-.15.2-.2.24a2.35,2.35,0,0,0-.19.25c-.14.17-.27.34-.4.52a1.43,1.43,0,0,0-.14.2l-.1.14,0,0-.12.16c0,.07-.09.13-.13.19l0,.07-.3.44-.12.19h0A2.39,2.39,0,0,1,70,361l-.13.21a2.39,2.39,0,0,0-.13.21,1.48,1.48,0,0,0-.13.21l-.06.1c-.16.27-.32.54-.47.83s-.22.4-.32.61l0,0s0,0,0,0h0c-.07.14-.13.28-.2.43-.19.36-.36.73-.52,1.11a1.89,1.89,0,0,1-.11.25,2,2,0,0,0-.11.26l-.11.26c0,.09-.07.18-.1.27h0a3.17,3.17,0,0,0-.13.36c0,.12-.09.23-.13.35l-.18.52,0,0s0,.08,0,.12,0,.1,0,.13l-.12.36s0,.05,0,.07a927189615391.79,927189615391.79,0,0,0,0,.09v0a.09.09,0,0,1,0,.05l-.09.3c0,.1-.05.2-.07.3-.1.38-.2.77-.29,1.16s-.2.91-.27,1.38c0,.11,0,.23-.06.35s-.06.37-.08.56,0,.09,0,.14l-.1.9c0,.15,0,.3,0,.45s0,.31,0,.47,0,0,0,0v0c0,.14,0,.29,0,.43a1.34,1.34,0,0,0,0,.2,2.09,2.09,0,0,0,0,.25c0,.17,0,.36,0,.54v.35c0,.24,0,.48,0,.72a2.44,2.44,0,0,0,0,.27c0,.3,0,.62.06.93s.06.63.09.93l.06.47c0,.16,0,.32.07.48,0,.32.09.63.15.94s.11.58.18.87.15.65.24,1,.17.65.27,1L73,403.59h0l.88,2.95,2,6.6h0l8-2.39,5.35-1.6-.11-.4a2.07,2.07,0,0,1,1.39-2.59h0a2.1,2.1,0,0,1,2.6,1.41l.12.39h0l1.92-.58L95,407h0v0l0-.08v0a.13.13,0,0,1,0-.06s0,0,0-.06a2.46,2.46,0,0,1,0-.26,1.34,1.34,0,0,1,0-.2,1.21,1.21,0,0,1,.06-.38,2.13,2.13,0,0,1,.2-.5l0,0a1.43,1.43,0,0,1,.15-.22,1.51,1.51,0,0,1,.21-.23l.1-.09.06-.06s0,0,0,0l.17-.1,0,0a2.54,2.54,0,0,1,.41-.18h0a2.11,2.11,0,0,1,2.26.74,1.59,1.59,0,0,1,.18.27s0,.05,0,.08a.2.2,0,0,0,0,.08,1.21,1.21,0,0,0,0,.14l0,.08.12.4,14.9-4.46,0-.13a2,2,0,0,1,0-1h0a2.42,2.42,0,0,1,1.7-1.93l.08,0a2.37,2.37,0,0,1,2.46.69,2.47,2.47,0,0,1,.56.95l0,.07,1.19-.35h0l0-.06a2.61,2.61,0,0,1-.06-1.11,2.41,2.41,0,0,1,1.69-1.92l.1,0a2.51,2.51,0,0,1,.94-.09l.24,0h.06l.19.06a1.75,1.75,0,0,1,.44.2l.1.05,0,0,.15.11,0,0a2.84,2.84,0,0,1,.26.24,2.47,2.47,0,0,1,.36.49,2.43,2.43,0,0,1,.16.37.11.11,0,0,1,0,.08s0,0,0,0h0l0,.06,14.9-4.45-.11-.38a2.55,2.55,0,0,1,0-.78h0a2.35,2.35,0,0,1,1.66-1.9,2.28,2.28,0,0,1,2.43.68,2.09,2.09,0,0,1,.53.91l0,.1h0l.29-.09.14-.05.17-.05.77-.24h0l0-.11c0-.11-.06-.22-.08-.32a2.17,2.17,0,0,1,0-.72,2.22,2.22,0,0,1,.09-.37,1.27,1.27,0,0,1,.06-.18h0a.42.42,0,0,1,.06-.14.94.94,0,0,1,.12-.22,2.33,2.33,0,0,1,.43-.51,2.59,2.59,0,0,1,.47-.32h0l.16-.08a1.17,1.17,0,0,1,.24-.09l.22-.05.21,0h.24a2.08,2.08,0,0,1,.43,0,1.67,1.67,0,0,1,.32.08,1.78,1.78,0,0,1,.29.12l.24.13a2.69,2.69,0,0,1,.27.2l.22.22a2.43,2.43,0,0,1,.2.25,2,2,0,0,1,.2.35l0,.07s0,0,0,.05l0,.05a.65.65,0,0,1,0,.13h0l0,.09v0l13-3.9,1.85-.55h0Z"/><path fill="#e1b5a8" d="M150 390.82a2.23 2.23 0 0 0-.52-.91l15.14-4.53L181.58 442a10.88 10.88 0 0 1-4.46 12.22 11 11 0 0 1-5.19-1.3 10.89 10.89 0 0 1-5.25-6.46zM99 405.78a2 2 0 0 0-.34-.65l15-4.5 16.93 56.6a10.87 10.87 0 0 1-4.47 12.22 10.87 10.87 0 0 1-10.44-7.76zM103.69 461.77s0 0 0 0a.5.5 0 0 1 0 .12 10.08 10.08 0 0 1-4.13 6.24A10.21 10.21 0 0 1 95 467a10.07 10.07 0 0 1-4.85-6l-3.51-11.74-.53-1.78h0l-2.3-7.7-8-26.62-2-6.6L73 403.6l10.82-3.24 2.5-.75h0L89 408.76l.11.4h0l12.32 41.22 2 6.63A10 10 0 0 1 103.69 461.77zM124.65 398.47a2.42 2.42 0 0 0-.55-1L139.25 393l19.24 64.35A10.89 10.89 0 0 1 154 469.55a11 11 0 0 1-5.19-1.32 10.82 10.82 0 0 1-5.25-6.44z"/><path fill="#fff" d="M174,435.86h6.35a3.06,3.06,0,0,1,3.06,3.06v3.63a6.23,6.23,0,0,1-6.23,6.23h0a6.23,6.23,0,0,1-6.23-6.23v-3.63A3.06,3.06,0,0,1,174,435.86Z" transform="rotate(163.35 177.156 442.322)"/><path fill="#fff" d="M150.45,450.88h6.35a3.06,3.06,0,0,1,3.06,3.06v3.63a6.23,6.23,0,0,1-6.23,6.23h0a6.23,6.23,0,0,1-6.23-6.23v-3.63A3.06,3.06,0,0,1,150.45,450.88Z" transform="rotate(163.35 153.62 457.34)"/><path fill="#fff" d="M122.67,451.21H129a3.06,3.06,0,0,1,3.06,3.06v3.63a6.23,6.23,0,0,1-6.23,6.23h0a6.23,6.23,0,0,1-6.23-6.23v-3.63a3.06,3.06,0,0,1,3.06-3.06Z" transform="rotate(163.35 125.842 457.668)"/><path fill="#fff" d="M96.07,449.94h6.35a3.06,3.06,0,0,1,3.06,3.06v3.63a6.23,6.23,0,0,1-6.23,6.23h0A6.23,6.23,0,0,1,93,456.63V453a3.06,3.06,0,0,1,3.06-3.06Z" transform="rotate(163.35 99.24 456.4)"/><path fill="#bf9c93" d="M91.93,59.49V170.92H23.64V148.43A256.6,256.6,0,0,1,85.21,65.3Q88.51,62.33,91.93,59.49Z"/><path fill="#e1b5a8" d="M85.21,65.3V170.92H23.64V148.43A256.6,256.6,0,0,1,85.21,65.3Z"/><path fill="#c7a197" d="M235.41,301.72h50.92a0,0,0,0,1,0,0v0a14.39,14.39,0,0,1-14.39,14.39H249.81a14.39,14.39,0,0,1-14.39-14.39v0a0,0,0,0,1,0,0Z"/><path fill="#c7a197" d="M261.06,302c-20.07,13.52-25.58.21-33.73-9.15h0l16.07-.87c5.91-3.69,13.93-1.45,16.64,5a12.87,12.87,0,0,1,1,5.05Z"/><path fill="#c7a197" d="M260.94,302c20.07,13.52,25.58.21,33.73-9.15h0l-16.07-.87c-5.91-3.69-13.93-1.45-16.64,5a12.87,12.87,0,0,0-1,5.05Z"/></svg>