<svg xmlns="http://www.w3.org/2000/svg" viewBox="0 0 512 512"><path fill="#e07f69" d="M70.917 360.888h235.348a24.865 24.865 0 0 1 24.865 24.865 24.864 24.864 0 0 1-24.865 24.865H70.917a24.865 24.865 0 0 1-24.865-24.865 24.866 24.866 0 0 1 24.865-24.865Z"/><path fill="#c14538" d="M101.828 360.888h68.546v49.73h-68.546z"/><path fill="#c14538" d="M328.479 374.628c-.071-.143-.134-.292-.209-.433-.249-.474-.525-.929-.8-1.384-.126-.206-.244-.416-.376-.618-.267-.409-.554-.8-.843-1.193-.171-.23-.336-.463-.514-.687-.284-.357-.584-.7-.886-1.041-.211-.238-.421-.475-.64-.7a25.49 25.49 0 0 0-.923-.908c-.25-.235-.5-.467-.761-.692q-.468-.405-.955-.785a25.53 25.53 0 0 0-1.856-1.324c-.334-.215-.654-.406-.988-.6s-.658-.38-1-.556c-.36-.188-.73-.36-1.1-.53-.333-.153-.663-.308-1-.447-.4-.162-.807-.3-1.216-.445-.33-.114-.657-.236-.993-.337-.445-.134-.9-.239-1.354-.348-.317-.076-.629-.164-.951-.227-.518-.1-1.046-.171-1.574-.241-.272-.035-.539-.088-.814-.115a25.23 25.23 0 0 0-2.457-.124H70.917a24.747 24.747 0 0 0-15.644 5.55 9.612 9.612 0 0 0 7.434 6.853 33.559 33.559 0 0 1 11.134 4.2c9.184 5.386 14.852 13.3 31.517 13.3 25.256 0 25.256-18.185 50.513-18.185 24.922 0 26.225 17.694 50.521 18.163 0 0 .322.013.487.011s.487-.011.487-.011a36.246 36.246 0 0 0 13.961-2.808c16.054-6.894 34.136 4.7 34.248 22.169v.482h50.035c12.733 0 23.878-9.309 25.35-21.957a24.706 24.706 0 0 0-2.481-14.032Z"/><path fill="#f9caaa" d="M70.1 410.618h236.978a14.063 14.063 0 0 1 14.063 14.063v19.373a22 22 0 0 1-22 21.994H78.036a21.994 21.994 0 0 1-21.994-21.994v-19.373A14.062 14.062 0 0 1 70.1 410.618Z"/><path fill="#cc8964" d="M321.12 424.278a13.988 13.988 0 0 0-3.331-8.7l-.036-.04c-.274-.319-.56-.628-.861-.922-.034-.033-.071-.063-.105-.1a14.163 14.163 0 0 0-.879-.781c-.061-.049-.127-.092-.188-.141a14.194 14.194 0 0 0-.878-.642c-.093-.062-.192-.115-.287-.174-.28-.177-.561-.352-.853-.509-.132-.07-.271-.128-.4-.195-.266-.132-.53-.266-.806-.381-.173-.072-.354-.129-.53-.194-.247-.092-.491-.19-.745-.268-.215-.066-.439-.113-.659-.169s-.444-.124-.673-.17c-.281-.057-.57-.091-.858-.131-.175-.024-.345-.061-.523-.079a14.067 14.067 0 0 0-1.415-.071H70.1a14.053 14.053 0 0 0-14.042 13.66h27.458v41.77h215.63a22 22 0 0 0 22-21.994v-19.366c-.005-.136-.022-.268-.026-.403Zm-106.62 27.94h-27.524a16.166 16.166 0 0 1-16.166-16.166v-11.774h82.166c-4.196 13.593-14.333 27.94-38.476 27.94Z"/><path fill="#f7c154" d="M83.376 348.625h68.889v86.691a14.739 14.739 0 0 1-14.739 14.739 14.739 14.739 0 0 1-14.739-14.739 8.916 8.916 0 0 0-8.916-8.917H112.8a8.916 8.916 0 0 0-8.916 8.917v6.377a10.411 10.411 0 0 1-10 10.524 10.188 10.188 0 0 1-10.379-10.186V426.4h-.131c.326 0 .002-77.775.002-77.775Z"/><path fill="#c98727" d="M129.773 447.834a14.657 14.657 0 0 0 9.543 2.113 14.993 14.993 0 0 0 12.949-15.007v-86.315H83.376s.107 26.019.135 47.959c9.346-.039 20.236.861 33.454-8.487a48.493 48.493 0 0 0 4.027-3.255c2.009-1.769 7.268-5.5 15.907-5.5a4.283 4.283 0 0 1 4.283 4.284v49.152s1.218 10.748-11.409 15.056Z"/><path fill="#ffda9f" d="M83.515 399.421c.014 14.754-.012 26.978-.139 26.978h.131v8.61a17.865 17.865 0 0 0 .008-35.588Z"/><path fill="#9bb23b" d="M46.8 345.605h283.585a9.748 9.748 0 0 1 9.748 9.748 9.7 9.7 0 0 1-7.86 9.56 33.55 33.55 0 0 0-11.134 4.2c-9.184 5.387-14.853 13.305-31.518 13.305-25.256 0-25.256-18.185-50.512-18.185-24.922 0-25.27 17.693-49.54 18.163 0 0-.322.013-.488.011s-.486-.011-.486-.011c-24.3-.469-25.6-18.163-50.522-18.163-25.256 0-25.256 18.185-50.512 18.185-16.665 0-22.334-7.918-31.518-13.305a33.542 33.542 0 0 0-11.134-4.2 9.7 9.7 0 0 1-7.86-9.56 9.748 9.748 0 0 1 9.751-9.748Z"/><path fill="#d0ed69" d="M46.8 345.605a9.5 9.5 0 0 0-9.646 10.911 33.638 33.638 0 0 1 9.889 3.939c9.185 5.387 14.853 13.305 31.518 13.305 25.256 0 25.256-18.186 50.512-18.186 24.923 0 26.225 17.694 50.522 18.164 0 0 .322.012.487.011s.487-.011.487-.011c24.27-.47 24.618-18.164 49.54-18.164 25.257 0 25.257 18.186 50.513 18.186 16.665 0 22.333-7.918 31.517-13.305a33.537 33.537 0 0 1 11.134-4.2 9.7 9.7 0 0 0 7.86-9.561 9.893 9.893 0 0 0-.059-1.053c-.228-.016-.454-.035-.686-.035Z"/><path fill="#9bb23b" d="M330.385 345.605h-98.853a70.876 70.876 0 0 1-20.992 30.042c7.629-5.168 13.762-11.413 28.569-11.413 25.256 0 25.256 18.185 50.512 18.185 16.665 0 22.334-7.918 31.518-13.305a33.55 33.55 0 0 1 11.134-4.2 9.746 9.746 0 0 0-1.888-19.308Z"/><path fill="#f4ffc7" d="M99.783 345.605H56.652a22.153 22.153 0 0 0 43.131 0Z"/><path fill="#f9caaa" d="M145.281 253.917h84.172a91.688 91.688 0 0 1 91.688 91.688H53.593a91.688 91.688 0 0 1 91.688-91.688Z"/><path fill="#cc8964" d="M321.141 345.605a91.7 91.7 0 0 0-71.294-89.383c1.864 26.684-4.619 72.878-71.888 72.878H55.1a92.062 92.062 0 0 0-1.511 16.5h267.552Z"/><path fill="#ffdfca" d="M181.543 253.917h-36.262a91.527 91.527 0 0 0-72.943 36.156 64.419 64.419 0 0 0 109.205-36.156Z"/><path fill="#fff" d="M373.136 201.534H282a10.677 10.677 0 0 0-10.678 10.678v25.551h203.629v-25.551a10.678 10.678 0 0 0-10.679-10.678zm0-79.002s-82.618-1.535-91.406 79h182.813c-8.788-80.532-91.407-79-91.407-79zM373.136 237.763h-82.491l24.241 227.568h116.5l24.241-227.568h-82.491z"/><path fill="#b7b7b7" d="M405.177 465.331h26.209l24.241-227.568H290.645l1.721 16.154h109.6a23.35 23.35 0 0 1 23.215 25.854zm59.095-263.797h-30.661l-3.9 36.229h45.242v-25.551a10.678 10.678 0 0 0-10.681-10.678z"/><path fill="#b7b7b7" d="M373.136 122.532a1.459 1.459 0 0 0-.364 2.879c11.043 2.525 24.158 7.257 35.247 16.119 18.631 14.889 8.773 45-15.037 46.364L282.77 194.2q-.624 3.549-1.04 7.336h182.813c-8.788-80.536-91.407-79.004-91.407-79.004Z"/><path fill="#d8765d" d="M314.886 465.331h116.5l20.76-194.882a175.354 175.354 0 0 0-48.246 11.774 62.991 62.991 0 0 1-42.24 1.24c-20.769-6.589-37.045-6.536-37.045-6.536-12.23-.29-21.855 1.75-29.3 4.635Z"/><path fill="#9b4738" d="M452.146 270.449a163.212 163.212 0 0 0-26.46 4.65l-20.509 190.232h26.209Z"/><path fill="#f19f93" d="M334.747 281.211a18.954 18.954 0 0 0-.352-3.6 93.49 93.49 0 0 0-9.785-.686 76.525 76.525 0 0 0-27.5 3.991c0 .1-.015.194-.015.293a18.828 18.828 0 0 0 37.656 0Z"/><circle cx="349.765" cy="299.761" r="6.57" fill="#f19f93"/><path fill="#d0ed69" d="M447.044 318.34H299.228l7.955 74.676h131.906l7.955-74.676z"/><circle cx="373.136" cy="356.511" r="19.836" fill="#9bb23b" transform="rotate(-27.122 373.14 356.512)"/><path fill="#9bb23b" d="M412.974 393.016h26.115l7.955-74.676h-26.02l-8.05 74.676z"/><path fill="#f4ffc7" d="m321.153 342.426 1.8 27.215a5.4 5.4 0 0 0 5.383 5.039h.009a5.394 5.394 0 0 0 5.383-5.753l-1.81-27.215a5.4 5.4 0 0 0-5.383-5.037 5.4 5.4 0 0 0-5.382 5.751Z"/><path fill="#333" d="M170.374 405.14a5.478 5.478 0 1 0 0 10.955h111.354a5.478 5.478 0 0 0 0-10.955Z"/><path fill="#333" d="M65.912 415.592A5.478 5.478 0 0 0 67 404.747a19.364 19.364 0 0 1-12.113-29.872 99.964 99.964 0 0 1 4.214 2.9c4.952 3.566 10.4 7.487 18.911 9.218.068 31.6-.019 37.942-.079 38.856a5.448 5.448 0 0 1 5.438-4.924 5.471 5.471 0 0 0-5.345 6.318v14.791A15.665 15.665 0 0 0 93.691 457.7h.3a15.916 15.916 0 0 0 15.374-16v-6.378a3.442 3.442 0 0 1 3.439-3.438h1.072a3.442 3.442 0 0 1 3.439 3.438 20.217 20.217 0 1 0 40.433 0v-44.481a5.478 5.478 0 1 0-10.955 0v44.474a9.262 9.262 0 1 1-18.523 0 14.41 14.41 0 0 0-14.394-14.393H112.8a14.41 14.41 0 0 0-14.394 14.393v6.378a4.718 4.718 0 0 1-8.01 3.7 4.671 4.671 0 0 1-1.411-3.361V426.4a5.29 5.29 0 0 0-.121-1.125c.115-2.392.12-6.209.13-12.595.009-6.964 0-15.837-.021-24.817 13.466-.344 20.676-5.5 27.045-10.091 6.007-4.326 11.2-8.061 22.056-8.061 10.918 0 16.35 3.76 22.64 8.113 6.626 4.587 14.138 9.786 27.677 10.047 0 0 .487.013.647.014.207 0 .618-.01.649-.012 13.671-.267 20.94-5.493 27.355-10.105 6.012-4.324 11.2-8.057 22.068-8.057s16.049 3.735 22.055 8.061c3.96 2.851 8.448 6.083 14.6 8.086a5.478 5.478 0 0 0 3.392-10.417c-4.527-1.474-7.958-3.944-11.589-6.559-6.591-4.746-14.062-10.126-28.457-10.126s-21.868 5.374-28.464 10.116c-5.857 4.213-10.916 7.85-21.28 8.052l-.306.007-.359-.01c-10.332-.2-15.624-3.863-21.753-8.105-6.813-4.715-14.534-10.06-28.874-10.06-14.4 0-21.866 5.38-28.457 10.126-6.007 4.324-11.194 8.059-22.055 8.059s-16.049-3.735-22.055-8.059c-2.087-1.5-4.246-3.057-6.692-4.492a38.836 38.836 0 0 0-12.9-4.863 4.2 4.2 0 0 1-3.383-4.175 5.478 5.478 0 0 0-10.955 0A15.162 15.162 0 0 0 43.906 370.3c.279.052.543.129.817.188a30.3 30.3 0 0 0 20.085 44.992 5.486 5.486 0 0 0 1.104.112Z"/><path fill="#333" d="M285.578 460.571H78.036a16.536 16.536 0 0 1-16.517-16.518v-15.265a5.478 5.478 0 0 0-10.955 0v15.265a27.5 27.5 0 0 0 27.472 27.473h207.542a5.478 5.478 0 0 0 0-10.955zM185.045 271.614a5.478 5.478 0 1 0 0 10.955h4.309a5.478 5.478 0 0 0 0-10.955zm25.155 37.624a5.478 5.478 0 0 0 0 10.955h4.3a5.478 5.478 0 1 0 0-10.955zm-50.3 0a5.478 5.478 0 1 0 0 10.955h4.3a5.478 5.478 0 0 0 0-10.955zm-25.156-37.624a5.478 5.478 0 0 0 0 10.955h4.309a5.478 5.478 0 0 0 0-10.955zm-25.15 37.624a5.478 5.478 0 0 0 0 10.955h4.306a5.478 5.478 0 1 0 0-10.955zm125.839-37.624a5.478 5.478 0 0 0 0 10.955h4.309a5.478 5.478 0 0 0 0-10.955zm25.237 37.624a5.478 5.478 0 0 0 0 10.955h4.309a5.478 5.478 0 1 0 0-10.955z"/><path fill="#333" d="M48 345.605a5.478 5.478 0 0 0 5.477 5.478h217.845a5.478 5.478 0 0 0 0-10.955H59.263a86.309 86.309 0 0 1 86.018-80.734h84.172a85.882 85.882 0 0 1 30.826 5.673 5.477 5.477 0 1 0 3.916-10.23 96.8 96.8 0 0 0-34.742-6.4h-84.172a97.262 97.262 0 0 0-97.134 95.948 5.427 5.427 0 0 0-.147 1.22zm323.327-138.594h4.244a5.478 5.478 0 1 0 0-10.955h-4.244a5.478 5.478 0 0 0 0 10.955z"/><path fill="#333" d="M469.483 196.935c-5.925-41.433-31.2-60.979-51.712-70.107a118.17 118.17 0 0 0-39.157-9.585V89.974a26.59 26.59 0 0 1 8.868-19.813l22.531-20.123a5.478 5.478 0 0 0-7.3-8.171L380.185 61.99a37.56 37.56 0 0 0-12.526 27.984v48.183a5.478 5.478 0 0 0 10.955 0v-9.913a107.839 107.839 0 0 1 35.04 8.743c24.979 11.24 39.956 31.1 44.6 59.069h-60.808a5.478 5.478 0 0 0 0 10.955h66.826a5.207 5.207 0 0 1 5.2 5.2v20.073H276.8v-20.072a5.207 5.207 0 0 1 5.2-5.2h66.8a5.478 5.478 0 0 0 0-10.955h-60.77c6.839-40.885 34.953-57.35 57.928-63.924a5.477 5.477 0 1 0-3.013-10.532c-26.59 7.608-59.256 26.877-66.146 75.331a16.173 16.173 0 0 0-10.955 15.281v25.551a5.478 5.478 0 0 0 5.478 5.477h14.4l23.72 222.671a5.478 5.478 0 0 0 5.446 4.9h116.5a5.479 5.479 0 0 0 5.447-4.9l23.717-222.672h14.4a5.477 5.477 0 0 0 5.477-5.477v-25.551a16.172 16.172 0 0 0-10.946-15.277Zm-35.319 190.6H312.108l-6.788-63.721h135.632Zm-7.7 72.315H319.811l-6.536-61.36H433Zm15.658-146.991H304.154l-7.417-69.622h152.8Z"/><path fill="#333" d="M316.309 282.587a86.1 86.1 0 0 1 8.172-.184h.147c.126-.058 15.609.009 35.37 6.278a70.111 70.111 0 0 0 21.195 3.294 67.22 67.22 0 0 0 24.717-4.66 179.1 179.1 0 0 1 26.823-8.286 5.478 5.478 0 0 0-2.386-10.693 190.3 190.3 0 0 0-28.468 8.791 57.72 57.72 0 0 1-38.568 1.113c-20.8-6.6-37.176-6.789-38.636-6.792-3.116-.075-6.194 0-9.145.209a5.478 5.478 0 0 0 .779 10.928zm56.827 99.238a25.314 25.314 0 1 0 0-50.627 5.477 5.477 0 0 0 0 10.954 14.341 14.341 0 1 1-13.905 10.761 5.478 5.478 0 0 0-10.609-2.733 25.333 25.333 0 0 0 24.514 31.645z"/></svg>