<svg xmlns="http://www.w3.org/2000/svg" enable-background="new 0 0 256 256" viewBox="0 0 256 256"><path fill="#58595B" d="M158.678 31.76c-.351-1.046-.935-2.031-1.768-2.865-2.879-2.879-7.546-2.879-10.425 0-2.879 2.879-2.879 7.546 0 10.425.833.833 1.818 1.418 2.865 1.768L158.678 31.76zM176.246 54.012l-16.602-19.05-7.094 7.094 19.05 16.602c.354.309.887.291 1.22-.042l3.385-3.385C176.536 54.899 176.555 54.366 176.246 54.012z"/><polygon fill="#58595B" points="152.549 42.055 149.342 41.096 158.684 31.754 159.643 34.961"/><path fill="#FCC4AE" d="M234.951,251.5H21.049c-1.105,0-2-0.895-2-2v-76.359h217.903V249.5
					C236.951,250.605,236.056,251.5,234.951,251.5z"/><path fill="#FFD2C0" d="M25.048,239.167c-1.104,0-2-0.896-2-2v-29c0-1.104,0.896-2,2-2s2,0.896,2,2v29
					C27.048,238.271,26.153,239.167,25.048,239.167z M25.048,202.167c-1.104,0-2-0.896-2-2v-1c0-1.104,0.896-2,2-2s2,0.896,2,2v1
					C27.048,201.271,26.153,202.167,25.048,202.167z"/><path fill="#F2AD97" d="M226.951,173.141V239.5c0,1.105-0.895,2-2,2H19.049v8c0,1.105,0.895,2,2,2h213.903c1.105,0,2-0.895,2-2
					v-76.359H226.951z"/><path fill="#E59076" d="M231.951,173.141V244.5c0,1.105-0.895,2-2,2H19.049v3c0,1.105,0.895,2,2,2h213.903c1.105,0,2-0.895,2-2
					v-76.359H231.951z"/><path fill="#995222" d="M240.742,157.031H15.258c-1.105,0-2,0.895-2,2v12.11c0,1.105,0.895,2,2,2h225.483c1.105,0,2-0.895,2-2
					v-12.11C242.742,157.927,241.846,157.031,240.742,157.031z"/><path fill="#995222" d="M240.742,157.031H15.258c-1.105,0-2,0.895-2,2v12.11c0,1.105,0.895,2,2,2h225.483c1.105,0,2-0.895,2-2
					v-12.11C242.742,157.927,241.846,157.031,240.742,157.031z"/><path fill="#8C3F0A" d="M240.742,157.031h-3v9.11c0,1.105-0.895,2-2,2H13.258v3c0,1.105,0.895,2,2,2h225.483
					c1.105,0,2-0.895,2-2v-12.11C242.742,157.926,241.846,157.031,240.742,157.031z"/><g><circle cx="67.941" cy="199.02" r="14.802" fill="#377DE2"/><path fill="#377DE2" d="M104.339,177.191l-0.017,0c-2.699-0.005-5.159,1.543-6.321,3.979l-17.628,36.936H55.269L37.873,181.2
						c-1.156-2.452-3.625-4.015-6.336-4.009h0c-5.091,0.01-8.463,5.285-6.336,9.91l24.92,54.185V251.5h35.401v-9.782l25.153-54.614
						C112.804,182.479,109.432,177.201,104.339,177.191z"/><path fill="#2266D3" d="M75.594,186.368c1.355,2.235,2.149,4.848,2.149,7.652c0,8.175-6.627,14.802-14.802,14.802
						c-2.805,0-5.417-0.794-7.652-2.149c2.594,4.28,7.282,7.149,12.652,7.149c8.175,0,14.802-6.627,14.802-14.802
						C82.743,193.65,79.873,188.963,75.594,186.368z"/><path fill="#2266D3" d="M106.08,177.414c0.394,1.486,0.316,3.124-0.406,4.69l-25.153,54.614v7.782c0,1.105-0.895,2-2,2H50.121
							v5h35.401v-9.782l25.153-54.614C112.55,183.031,110.156,178.455,106.08,177.414z"/><circle cx="188.065" cy="199.02" r="14.802" fill="#A54AF4"/><path fill="#A54AF4" d="M224.463,177.191l-0.017,0c-2.699-0.005-5.159,1.543-6.321,3.979l-17.628,36.936h-25.104L157.997,181.2
						c-1.156-2.452-3.625-4.015-6.336-4.009h0c-5.091,0.01-8.463,5.285-6.336,9.91l24.92,54.185V251.5h35.401v-9.782l25.153-54.614
						C232.928,182.479,229.556,177.201,224.463,177.191z"/><circle cx="188.065" cy="199.02" r="14.802" fill="#A54AF4"/><path fill="#A54AF4" d="M224.463,177.191l-0.017,0c-2.699-0.005-5.159,1.543-6.321,3.979l-17.628,36.936h-25.104L157.997,181.2
						c-1.156-2.452-3.625-4.015-6.336-4.009h0c-5.091,0.01-8.463,5.285-6.336,9.91l24.92,54.185V251.5h35.401v-9.782l25.153-54.614
						C232.928,182.479,229.556,177.201,224.463,177.191z"/><g><path fill="#893ADD" d="M195.718,186.368c1.355,2.235,2.149,4.848,2.149,7.652c0,8.175-6.627,14.802-14.802,14.802
						c-2.805,0-5.417-0.794-7.652-2.149c2.594,4.28,7.282,7.149,12.652,7.149c8.175,0,14.802-6.627,14.802-14.802
						C202.867,193.65,199.997,188.963,195.718,186.368z"/><path fill="#893ADD" d="M226.204,177.414c0.394,1.486,0.316,3.124-0.406,4.69l-25.153,54.614v7.782c0,1.105-0.895,2-2,2
							h-28.401v5h35.401v-9.782l25.153-54.614C232.674,183.031,230.28,178.455,226.204,177.414z"/></g><g><circle cx="128.003" cy="199.02" r="14.802" fill="#FFC91D"/><path fill="#FFC91D" d="M164.401,177.191l-0.017,0c-2.699-0.005-5.159,1.543-6.321,3.979l-17.628,36.936h-25.104L97.935,181.2
							c-1.156-2.452-3.625-4.015-6.336-4.009h0c-5.091,0.01-8.463,5.285-6.336,9.91l24.92,54.185v5.924
							c0,2.369,1.921,4.29,4.29,4.29h26.82c2.369,0,4.29-1.921,4.29-4.29v-5.492l25.153-54.614
							C172.866,182.479,169.494,177.201,164.401,177.191z"/><g><path fill="#FFC91D" d="M164.401,177.191l-0.017,0c-2.699-0.005-5.159,1.543-6.321,3.979l-17.628,36.936h-25.104L97.935,181.2
						c-1.156-2.452-3.625-4.015-6.336-4.009h0c-5.091,0.01-8.463,5.285-6.336,9.91l24.92,54.185V251.5h35.401v-9.782l25.153-54.614
						C172.866,182.479,169.494,177.201,164.401,177.191z"/></g></g><g><path fill="#FFA91A" d="M135.656,186.368c1.355,2.235,2.149,4.848,2.149,7.652c0,8.175-6.627,14.802-14.802,14.802
						c-2.805,0-5.417-0.794-7.652-2.149c2.594,4.28,7.282,7.149,12.652,7.149c8.175,0,14.802-6.627,14.802-14.802
						C142.805,193.65,139.936,188.963,135.656,186.368z"/><path fill="#FFA91A" d="M166.142,177.414c0.394,1.486,0.316,3.124-0.406,4.69l-25.153,54.614v7.782c0,1.105-0.895,2-2,2
							h-28.401v5h35.401v-9.782l25.153-54.614C172.612,183.031,170.218,178.455,166.142,177.414z"/></g></g><g><circle cx="117.076" cy="19.302" r="14.802" fill="#E63950"/><path fill="#E63950" d="M157.73,70.011l7.851-16.306c2.372-4.928-1.212-10.643-6.681-10.653h0
				c-2.854-0.005-5.458,1.625-6.702,4.193l-4.709,9.73l-9.219-11.259c-3.799-4.639-9.478-7.329-15.474-7.329h-19.539
				c-4.156,0-8.208,1.294-11.594,3.704L77.447,52.204c-3.325,2.365-5.846,5.691-7.227,9.531l-4.615,12.837
				c-1.697,4.72,1.801,9.694,6.817,9.694h0c2.959,0,5.621-1.8,6.723-4.546l6.057-15.095l9.142-6.531l-3.801,29.679
				c-0.461,3.596-0.529,7.232-0.203,10.843l2.572,28.512l-11.863,19.024c-2.972,4.766,0.524,10.929,6.14,10.823l0.175-0.003
				c2.451-0.046,4.666-1.288,5.961-3.316c3.38-5.294,10.117-15.811,14.014-21.892c1.945-3.035,3.032-6.538,3.149-10.141
				l0.532-16.414l15.557,16.765l-7.153,24.671c-1.488,5.131,2.362,10.255,7.704,10.255h0.2c3.663,0,6.848-2.362,7.895-5.823
				c2.357-7.789,6.486-21.433,8.617-28.472c0.86-2.842,0.412-5.918-1.223-8.397l-17.138-26.002l4.01-29.412l11.687,13.442
				C145.888,77.657,154.613,76.486,157.73,70.011z"/></g><g><circle cx="117.076" cy="19.302" r="14.802" fill="#E63950"/><path fill="#E63950" d="M157.73,70.011l7.851-16.306c2.372-4.928-1.212-10.643-6.681-10.653h0
				c-2.854-0.005-5.458,1.625-6.702,4.193l-4.709,9.73l-9.219-11.259c-3.799-4.639-9.478-7.329-15.474-7.329h-19.539
				c-4.156,0-8.208,1.294-11.594,3.704L77.447,52.204c-3.325,2.365-5.846,5.691-7.227,9.531l-4.615,12.837
				c-1.697,4.72,1.801,9.694,6.817,9.694h0c2.959,0,5.621-1.8,6.723-4.546l6.057-15.095l9.142-6.531l-3.801,29.679
				c-0.461,3.596-0.529,7.232-0.203,10.843l2.572,28.512l-11.863,19.024c-2.972,4.766,0.524,10.929,6.14,10.823l0.175-0.003
				c2.451-0.046,4.666-1.288,5.961-3.316c3.38-5.294,10.117-15.811,14.014-21.892c1.945-3.035,3.032-6.538,3.149-10.141
				l0.532-16.414l15.557,16.765l-7.153,24.671c-1.488,5.131,2.362,10.255,7.704,10.255h0.2c3.663,0,6.848-2.362,7.895-5.823
				c2.357-7.789,6.486-21.433,8.617-28.472c0.86-2.842,0.412-5.918-1.223-8.397l-17.138-26.002l4.01-29.412l11.687,13.442
				C145.888,77.657,154.613,76.486,157.73,70.011z"/></g><g><path fill="#D10028" d="M124.729 6.649c1.355 2.235 2.149 4.848 2.149 7.652 0 8.175-6.627 14.802-14.802 14.802-2.805 0-5.417-.794-7.652-2.149 2.594 4.28 7.282 7.149 12.652 7.149 8.175 0 14.802-6.627 14.802-14.802C131.878 13.931 129.008 9.244 124.729 6.649zM125.476 88.205l4.01-29.412-2.149-2.149c-1.17-1.17-3.172-.495-3.396 1.144l-3.212 23.557c-.163 1.199.113 2.417.779 3.427l16.107 24.437c1.633 2.478 2.082 5.552 1.222 8.393-2.13 7.039-6.26 20.685-8.617 28.475-1.047 3.461-4.233 5.823-7.895 5.823h-.2c-.914 0-1.78-.16-2.588-.434 1.063 3.096 3.982 5.434 7.588 5.434h.2c3.663 0 6.848-2.362 7.895-5.823 2.357-7.79 6.487-21.436 8.617-28.475.86-2.841.412-5.915-1.222-8.393L125.476 88.205zM161.001 43.361c.507 1.681.437 3.563-.421 5.344l-7.851 16.306c-2.646 5.497-9.327 7.153-14.172 4.215l2.615 3.008c4.715 5.423 13.439 4.251 16.557-2.223l7.851-16.306C167.632 49.444 165.225 44.602 161.001 43.361z"/></g><g><path fill="#FFC91D" d="M170.551,77.898v21.927c-1.731-1.358-4.163-2.208-6.859-2.208c-5.239,0-9.502,3.197-9.502,7.127
			s4.263,7.127,9.502,7.127s9.502-3.197,9.502-7.127c0-0.053,0-20.384,0-20.384l22.906-8.084V95.42
			c-1.731-1.358-4.163-2.208-6.859-2.208c-5.239,0-9.502,3.197-9.502,7.127s4.263,7.127,9.502,7.127s9.502-3.197,9.502-7.127V68.514
			c0-1.234-1.235-2.086-2.388-1.647l-24.668,9.384C171.002,76.511,170.551,77.167,170.551,77.898z"/></g><g><path fill="#FFC91D" d="M51.142,33.222v24.244c-1.937-1.519-4.659-2.471-7.677-2.471c-5.864,0-10.635,3.578-10.635,7.977
			c0,4.399,4.771,7.977,10.635,7.977S54.1,67.371,54.1,62.972c0-0.06,0-17.885,0-17.885l9.81,5.361
			c0.657,0.359,1.459-0.116,1.459-0.865v-9.127c0-0.723-0.396-1.389-1.032-1.734l-11.739-6.367
			C51.941,31.999,51.142,32.475,51.142,33.222z"/></g></svg>