<svg width="32" height="32" viewBox="0 0 32 32" fill="none" xmlns="http://www.w3.org/2000/svg">
<path d="M1.62852 22.7589L7.56663 8.17537C7.6725 7.91558 7.85341 7.69325 8.08625 7.53678C8.31908 7.3803 8.59327 7.29678 8.8738 7.29688H23.2895C23.8685 7.29688 24.3884 7.65008 24.6015 8.18804L30.3754 22.7716C30.4601 22.9856 30.4911 23.2171 30.4659 23.4458C30.4406 23.6746 30.3597 23.8937 30.2303 24.084C30.101 24.2744 29.927 24.4302 29.7236 24.5379C29.5202 24.6456 29.2935 24.7019 29.0634 24.7019H2.93569C2.70436 24.7019 2.47657 24.6451 2.27237 24.5364C2.06817 24.4277 1.89384 24.2704 1.76471 24.0785C1.63558 23.8865 1.55562 23.6658 1.53187 23.4357C1.50812 23.2056 1.54131 22.9732 1.62852 22.7589Z" fill="#F9B938"/>
<path d="M29.0643 24.7033H2.93298C2.19034 24.7033 1.61675 24.1358 1.53223 23.4595H27.7179C28.7141 23.4595 29.3964 22.4573 29.0281 21.5335L23.4009 7.30859C23.9322 7.34482 24.4032 7.68293 24.6024 8.1901L30.3745 22.7712C30.7428 23.695 30.0605 24.7033 29.0643 24.7033Z" fill="#ECB021"/>
<path d="M4.90342 20.8703L9.23368 10.2366C9.32237 10.0189 9.47393 9.83252 9.66901 9.70132C9.86408 9.57012 10.0938 9.50003 10.3289 9.5H21.8151C22.3006 9.5 22.7365 9.79585 22.9146 10.2469L27.1253 20.8811C27.1963 21.0604 27.2223 21.2544 27.2012 21.4461C27.1801 21.6378 27.1124 21.8214 27.004 21.981C26.8957 22.1405 26.75 22.2711 26.5796 22.3615C26.4092 22.4518 26.2193 22.4991 26.0264 22.4992H5.99867C5.80471 22.4993 5.61371 22.4517 5.44249 22.3606C5.27127 22.2694 5.12509 22.1376 5.01683 21.9767C4.90857 21.8157 4.84154 21.6306 4.82166 21.4377C4.80178 21.2448 4.83025 21.0499 4.90342 20.8703Z" fill="#A2A2F9"/>
<path opacity="0.3" d="M23.3824 17.3306L23.153 16.7492C23.1323 16.7044 23.121 16.6559 23.1197 16.6067C23.1184 16.5574 23.1272 16.5084 23.1455 16.4626C23.1638 16.4169 23.1912 16.3753 23.2261 16.3405C23.261 16.3058 23.3027 16.2785 23.3485 16.2603C23.3943 16.2422 23.4434 16.2336 23.4926 16.235C23.5419 16.2365 23.5903 16.248 23.635 16.2688C23.6796 16.2897 23.7196 16.3194 23.7524 16.3562C23.7851 16.393 23.8101 16.4361 23.8256 16.4829L24.0562 17.0637C24.0738 17.108 24.0824 17.1552 24.0817 17.2028C24.0809 17.2504 24.0708 17.2974 24.0519 17.341C24.033 17.3847 24.0057 17.4242 23.9715 17.4573C23.9374 17.4905 23.897 17.5165 23.8528 17.5341C23.8085 17.5516 23.7613 17.5602 23.7137 17.5595C23.6661 17.5587 23.6191 17.5486 23.5755 17.5297C23.5318 17.5108 23.4923 17.4835 23.4591 17.4494C23.426 17.4152 23.4 17.3748 23.3824 17.3306ZM22.8306 15.9365L21.9986 13.8353C21.9793 13.7908 21.9692 13.7429 21.9688 13.6943C21.9684 13.6458 21.9777 13.5977 21.9963 13.5529C22.0148 13.508 22.0422 13.4674 22.0768 13.4333C22.1113 13.3992 22.1524 13.3725 22.1975 13.3546C22.2426 13.3367 22.2909 13.3281 22.3394 13.3292C22.3879 13.3303 22.4357 13.3412 22.4799 13.3611C22.5242 13.3811 22.564 13.4097 22.5969 13.4453C22.6299 13.4809 22.6553 13.5228 22.6718 13.5685L23.5044 15.6696C23.5219 15.7138 23.5306 15.7611 23.5298 15.8087C23.5291 15.8563 23.519 15.9032 23.5001 15.9469C23.4812 15.9906 23.4539 16.0301 23.4197 16.0632C23.3855 16.0964 23.3452 16.1224 23.3009 16.1399C23.2567 16.1575 23.2094 16.1661 23.1618 16.1654C23.1143 16.1646 23.0673 16.1545 23.0236 16.1356C22.9799 16.1167 22.9404 16.0894 22.9073 16.0552C22.8742 16.0211 22.8481 15.9807 22.8306 15.9365Z" fill="white"/>
<path d="M22.9238 10.2686C22.7888 10.2113 22.6436 10.1822 22.497 10.1829H11.0114C10.7769 10.1833 10.5479 10.2534 10.3533 10.3842C10.1587 10.515 10.0074 10.7007 9.91854 10.9177L5.58466 21.5543C5.46511 21.8502 5.47658 22.1521 5.57922 22.4201C5.43191 22.3645 5.29722 22.2799 5.18306 22.1714C5.0689 22.0629 4.97758 21.9327 4.91447 21.7884C4.85135 21.6441 4.81772 21.4887 4.81554 21.3312C4.81337 21.1738 4.84269 21.0174 4.90179 20.8715L9.23507 10.2342C9.32404 10.0173 9.4754 9.8318 9.66996 9.70109C9.86452 9.57039 10.0935 9.5004 10.3279 9.5H21.8135C22.3031 9.5 22.7361 9.79585 22.9184 10.2457L22.9238 10.2686Z" fill="#7979F7"/>
<path d="M17.7732 8.76908C17.7731 8.81554 17.7638 8.86152 17.7459 8.90439C17.728 8.94726 17.7018 8.98617 17.6688 9.01888C17.6358 9.05159 17.5967 9.07745 17.5537 9.09499C17.5107 9.11253 17.4646 9.1214 17.4181 9.12108H14.4947C14.4482 9.1214 14.4021 9.11253 14.3591 9.09499C14.3161 9.07745 14.277 9.05159 14.244 9.01888C14.211 8.98617 14.1848 8.94726 14.1669 8.90439C14.149 8.86152 14.1397 8.81554 14.1396 8.76908C14.1396 8.57285 14.2984 8.41406 14.4947 8.41406H17.4181C17.6144 8.41406 17.7732 8.57285 17.7732 8.76908Z" fill="#E4E3FF"/>
<path d="M17.7722 8.7705C17.772 8.81685 17.7627 8.8627 17.7446 8.90541C17.7266 8.94811 17.7003 8.98682 17.6673 9.01928C17.6342 9.05174 17.595 9.07731 17.5519 9.09451C17.5089 9.11171 17.4629 9.1202 17.4165 9.11948H14.4967C14.4235 9.12068 14.3517 9.09914 14.2913 9.05783C14.2308 9.01653 14.1847 8.95748 14.1592 8.88884C14.1966 8.90091 14.2407 8.90695 14.2842 8.90695H17.2046C17.251 8.90767 17.297 8.89918 17.34 8.88198C17.3831 8.86478 17.4222 8.83921 17.4553 8.80675C17.4884 8.77429 17.5147 8.73558 17.5327 8.69288C17.5507 8.65017 17.5601 8.60432 17.5602 8.55797C17.5606 8.51579 17.5543 8.47381 17.5415 8.43359C17.6786 8.48974 17.7722 8.61473 17.7722 8.7705Z" fill="#C2C2EF"/>
<path d="M17.7732 10.23C17.7731 10.2765 17.7638 10.3225 17.7459 10.3653C17.728 10.4082 17.7018 10.4471 17.6688 10.4798C17.6358 10.5125 17.5967 10.5384 17.5537 10.5559C17.5107 10.5735 17.4646 10.5823 17.4181 10.582H14.4947C14.2984 10.582 14.1396 10.4256 14.1396 10.23C14.1396 10.0344 14.2984 9.875 14.4947 9.875H17.4181C17.6144 9.875 17.7732 10.0338 17.7732 10.23Z" fill="#E4E3FF"/>
<path d="M17.7722 10.2314C17.772 10.2778 17.7627 10.3236 17.7446 10.3663C17.7266 10.409 17.7003 10.4478 17.6673 10.4802C17.6342 10.5127 17.595 10.5382 17.5519 10.5554C17.5089 10.5727 17.4629 10.5811 17.4165 10.5804H14.4967C14.4235 10.5816 14.3517 10.5601 14.2913 10.5188C14.2308 10.4775 14.1847 10.4184 14.1592 10.3498C14.1966 10.3619 14.2407 10.3685 14.2842 10.3685H17.2046C17.251 10.3692 17.2971 10.3607 17.3402 10.3435C17.3832 10.3262 17.4225 10.3006 17.4555 10.2681C17.4886 10.2356 17.5149 10.1968 17.5329 10.154C17.5509 10.1112 17.5602 10.0653 17.5602 10.0189C17.5606 9.97672 17.5543 9.93475 17.5415 9.89453C17.6786 9.95068 17.7722 10.0757 17.7722 10.2314Z" fill="#C2C2EF"/>
<path d="M17.7732 11.691C17.7731 11.7374 17.7638 11.7834 17.7459 11.8263C17.728 11.8691 17.7018 11.908 17.6688 11.9408C17.6358 11.9735 17.5967 11.9993 17.5537 12.0169C17.5107 12.0344 17.4646 12.0433 17.4181 12.043H14.4947C14.4482 12.0433 14.4021 12.0344 14.3591 12.0169C14.3161 11.9993 14.277 11.9735 14.244 11.9408C14.211 11.908 14.1848 11.8691 14.1669 11.8263C14.149 11.7834 14.1397 11.7374 14.1396 11.691C14.1396 11.4947 14.2984 11.3359 14.4947 11.3359H17.4181C17.6144 11.3359 17.7732 11.4947 17.7732 11.691Z" fill="#E4E3FF"/>
<path d="M17.7722 11.6924C17.772 11.7387 17.7627 11.7846 17.7446 11.8273C17.7266 11.87 17.7003 11.9087 17.6673 11.9412C17.6342 11.9736 17.595 11.9992 17.5519 12.0164C17.5089 12.0336 17.4629 12.0421 17.4165 12.0414H14.4967C14.4235 12.0426 14.3517 12.021 14.2913 11.9797C14.2308 11.9384 14.1847 11.8794 14.1592 11.8107C14.1966 11.8228 14.2407 11.8294 14.2842 11.8294H17.2046C17.251 11.8302 17.2971 11.8216 17.3402 11.8044C17.3832 11.7872 17.4225 11.7615 17.4555 11.729C17.4886 11.6965 17.5149 11.6577 17.5329 11.6149C17.5509 11.5722 17.5602 11.5262 17.5602 11.4798C17.5606 11.4377 17.5543 11.3957 17.5415 11.3555C17.6786 11.4116 17.7722 11.5366 17.7722 11.6924Z" fill="#C2C2EF"/>
<path d="M14.5708 7.76684V12.6894C14.5708 12.7513 14.5586 12.8125 14.5349 12.8696C14.5113 12.9268 14.4766 12.9787 14.4329 13.0224C14.3891 13.0661 14.3372 13.1008 14.2801 13.1245C14.2229 13.1482 14.1617 13.1604 14.0999 13.1604C14.038 13.1604 13.9768 13.1482 13.9196 13.1245C13.8625 13.1008 13.8106 13.0661 13.7668 13.0224C13.7231 12.9787 13.6884 12.9268 13.6648 12.8696C13.6411 12.8125 13.6289 12.7513 13.6289 12.6894V7.76684C13.6289 7.705 13.6411 7.64376 13.6648 7.58662C13.6884 7.52948 13.7231 7.47757 13.7668 7.43384C13.8106 7.3901 13.8625 7.35541 13.9196 7.33175C13.9768 7.30808 14.038 7.2959 14.0999 7.2959C14.1617 7.2959 14.2229 7.30808 14.2801 7.33175C14.3372 7.35541 14.3891 7.3901 14.4329 7.43384C14.4766 7.47757 14.5113 7.52948 14.5349 7.58662C14.5586 7.64376 14.5708 7.705 14.5708 7.76684ZM18.3703 7.76684V12.6894C18.3703 12.8143 18.3207 12.9341 18.2324 13.0224C18.1441 13.1107 18.0243 13.1604 17.8994 13.1604C17.7745 13.1604 17.6547 13.1107 17.5664 13.0224C17.4781 12.9341 17.4285 12.8143 17.4285 12.6894V7.76684C17.4285 7.64194 17.4781 7.52215 17.5664 7.43384C17.6547 7.34552 17.7745 7.2959 17.8994 7.2959C18.0243 7.2959 18.1441 7.34552 18.2324 7.43384C18.3207 7.52215 18.3703 7.64194 18.3703 7.76684Z" fill="#E4E3FF"/>
<path d="M14.5738 7.7679V12.6887C14.5738 12.7988 14.5352 12.9054 14.4648 12.9901C14.3944 13.0748 14.2965 13.1321 14.1882 13.1522C14.08 13.1723 13.9681 13.1538 13.872 13.1C13.7759 13.0462 13.7016 12.9605 13.6621 12.8577C13.7335 12.885 13.8106 12.8946 13.8865 12.8855C13.9624 12.8764 14.035 12.849 14.098 12.8056C14.161 12.7623 14.2125 12.7042 14.2481 12.6365C14.2836 12.5688 14.3022 12.4934 14.3021 12.417V7.4962C14.3021 7.43583 14.29 7.37545 14.2719 7.32715C14.447 7.3996 14.5738 7.56866 14.5738 7.7679ZM18.3715 7.7679V12.6887C18.3715 12.9483 18.1602 13.1596 17.9006 13.1596C17.7014 13.1596 17.5323 13.0328 17.4598 12.8577C17.5313 12.885 17.6083 12.8946 17.6842 12.8855C17.7602 12.8764 17.8328 12.849 17.8958 12.8056C17.9587 12.7623 18.0102 12.7042 18.0458 12.6365C18.0813 12.5688 18.0999 12.4934 18.0998 12.417V7.4962C18.0998 7.43583 18.0878 7.37545 18.0697 7.32715C18.2448 7.3996 18.3715 7.56866 18.3715 7.7679Z" fill="#D0D0F7"/>
<path opacity="0.3" d="M4.27555 19.6785C4.1825 19.6407 4.10825 19.5675 4.06908 19.475C4.02992 19.3826 4.02904 19.2783 4.06665 19.1852L5.4988 15.6459C5.53976 15.5577 5.61303 15.4886 5.70347 15.4529C5.79391 15.4172 5.8946 15.4176 5.98475 15.4541C6.0749 15.4905 6.1476 15.5602 6.18785 15.6487C6.22809 15.7372 6.2328 15.8378 6.20099 15.9296L4.76884 19.469C4.73116 19.5621 4.65805 19.6365 4.56555 19.6758C4.47306 19.7151 4.36876 19.716 4.27555 19.6785ZM6.19374 14.9382C6.1476 14.9195 6.10559 14.8919 6.07011 14.857C6.03464 14.822 6.0064 14.7804 5.987 14.7346C5.9676 14.6887 5.95742 14.6395 5.95705 14.5897C5.95668 14.5399 5.96612 14.4905 5.98484 14.4444L6.24084 13.8122C6.2818 13.724 6.35507 13.655 6.44551 13.6193C6.53595 13.5836 6.63664 13.584 6.72679 13.6204C6.81693 13.6568 6.88964 13.7265 6.92988 13.815C6.97013 13.9035 6.97483 14.0041 6.94303 14.096L6.68703 14.7287C6.64935 14.8219 6.57623 14.8963 6.48374 14.9356C6.39125 14.9749 6.28694 14.9758 6.19374 14.9382Z" fill="white"/>
</svg>
