<svg xmlns="http://www.w3.org/2000/svg" viewBox="0 0 128 128" xml:space="preserve"><path fill="#faf37f" d="M103.1 42.7c0-4.8-3.3-8.8-7.7-10 .2-.7.3-1.4.3-2.1 0-4.2-3.4-7.7-7.7-7.7h-.5c-.7-3.5-3.8-6.1-7.5-6.1h-.2c-.8-4.9-5.1-8.7-10.2-8.7-4.5 0-8.2 2.8-9.7 6.8-.7.2-1.5.4-2.1.7-1.1-2.4-3.5-4-6.3-4-3.4 0-6.2 2.5-6.8 5.7-1.1-.4-2.3-.7-3.5-.7-5.3 0-9.6 4.3-9.6 9.6 0 2.2.8 4.3 2 5.9-3.1 2.6-5 6.5-5 10.9"/><path fill="#ffb000" d="M43.5 45c-.4 0-.8-.2-.9-.6-.2-.4-.1-.8.2-1.1 1.3-1.5-.4-4.4-.5-4.5-.2-.4-.2-.8.1-1.2.2-.2.5-.4.8-.4.1 0 .2 0 .4.1 4.2 1.7 4.8 5.2 4.5 6.8-.1.5-.5.8-1 .8h-3.6zm-1-14.5c-.3 0-.7-.2-.8-.5-.1-.2-1.1-1.8-.4-3.4.5-1.2 1.7-2 3.5-2.4h.2c.4 0 .8.2.9.6.2.5 0 1-.4 1.2 0 0-2.2 1.4-2 3.3.1.5-.2.9-.7 1.1 0 .1-.2.1-.3.1zm20.8.6c-.9 0-1.6-.2-1.7-.2-.5-.1-.8-.6-.7-1 0-.5.4-.9.9-.9 1.8-.2 2.8-2.5 2.8-2.5.1-.4.5-.5.9-.5s.8.1.9.5c.5 1.5.4 2.6-.2 3.5-.4.5-1.3 1.1-2.9 1.1zm-7.1-5.6c-2.6 0-3.5-2.3-3.6-3.5 0-.5.2-.9.7-1 .1 0 .2-.1.3-.1.3 0 .7.2.8.5.8 1.2 3 1.6 4 1.6.5 0 .9.3 1 .8.1.5-.1.9-.5 1.1-1 .4-1.9.6-2.7.6zM70 22.2c-.3 0-.6 0-.9-.1-2.1-.6-2.3-2.8-2.2-3.9.1-.4.4-.8.8-.8h.2c.3 0 .7.2.8.5.4.6.8 1 1.1 1 .4 0 .8-.4.8-.5.2-.3.5-.4.8-.4.3 0 .6.1.8.4.5.7.5 1.6.1 2.4-.3.9-1.3 1.4-2.3 1.4zm.5 18c-.2 0-.4-.1-.6-.2 0 0-2-1.4-4.6-1.4-.6 0-1.3.1-1.9.3h-.3c-.3 0-.7-.2-.8-.5-.2-.4-.2-.8.1-1.2.1-.1 1.6-1.9 4.2-1.9h.5c3.1.3 4.1 2.8 4.3 3.5.1.4 0 .9-.4 1.1-.1.2-.3.3-.5.3zm5.1-8c-.4 0-.8-.3-.9-.7-.6-1.6-.5-2.9.1-4 .9-1.4 2.5-1.6 2.7-1.6h.1c.4 0 .8.2.9.6.2.4.1.9-.3 1.1-1.5 1.3-1.6 3.5-1.6 3.5 0 .5-.4.9-.9.9 0 .2 0 .2-.1.2zm8.5 5.4c-1 0-1.9-.3-2-.4-.4-.2-.7-.6-.6-1s.4-.8.8-.9c2.4-.4 2.1-4.2 2.1-4.2 0-.4.2-.8.5-1 .1-.1.3-.1.5-.1s.4.1.6.2c1.5 1.2 2.4 3.4 1.2 5.6-.6 1.2-1.7 1.8-3.1 1.8zm-30.9-1.7c-1.4 0-2.4-.9-2.8-2.5-.1-.4.1-.8.4-1.1.2-.1.4-.2.6-.2s.4.1.6.2c.4.3 1.7 1 2.8 1.1.4 0 .8.4.9.8.1.4-.1.9-.5 1.1-.1.1-1 .6-2 .6z"/><path fill="none" stroke="#31352e" stroke-linecap="round" stroke-linejoin="round" stroke-miterlimit="10" stroke-width="6" d="M103.1 42.7c0-4.8-3.3-8.8-7.7-10 .2-.7.3-1.4.3-2.1 0-4.2-3.4-7.7-7.7-7.7h-.5c-.7-3.5-3.8-6.1-7.5-6.1h-.2c-.8-4.9-5.1-8.7-10.2-8.7-4.5 0-8.2 2.8-9.7 6.8-.7.2-1.5.4-2.1.7-1.1-2.4-3.5-4-6.3-4-3.4 0-6.2 2.5-6.8 5.7-1.1-.4-2.3-.7-3.5-.7-5.3 0-9.6 4.3-9.6 9.6 0 2.2.8 4.3 2 5.9-3.1 2.6-5 6.5-5 10.9"/><path fill="#fc2222" d="m107 44-10 77H86.1l7.1-77z"/><path fill="#fff" d="m93.2 44-7.1 77H72l3-77z"/><path fill="#fc2222" d="m75 44-3 77H60l-2.8-77z"/><path fill="#fff" d="m57.2 44 2.8 77H45l-5.8-77z"/><path fill="#fc2222" d="m39.2 44 5.8 77H34L24 44z"/><path fill="none" stroke="#31352e" stroke-linecap="round" stroke-linejoin="round" stroke-miterlimit="10" stroke-width="6" d="M86.1 121H97l10-77H24l10 77h31z"/><path fill="#faf37f" d="M23.1 111c-.3-.2-.5-.3-.8-.4-.2-2.3-1.4-4.5-3.5-5.9-3.5-2.3-8.2-1.2-10.5 2.3l-.6 1.2c-1.2.5-2.2 1.3-2.9 2.5-2 3.1-1.1 7.1 2 9.1 2.7 1.8 6.3 1.2 8.4-1.1.8 0 1.5-.2 2.2-.5.2.2.4.4.7.6 2.1 1.4 5 .7 6.3-1.4 1.5-2.2.8-5-1.3-6.4z"/><path fill="#ffb000" d="M13.9 114.8c-.4 0-.8-.2-.9-.6 0 0-.5-1.1-1.2-1.8-.3-.3-.4-.8-.2-1.2.2-.3.5-.5.9-.5h.2c.8.1 2.4 1 2.2 3.2 0 .5-.4.8-.8.9-.1-.1-.2 0-.2 0z"/><path fill="#faf37f" d="M120.6 109.1c.1-.4.1-.9.2-1.4 0-3.9-3-7-6.9-7.1-3.9 0-7 3-7.1 6.9 0 1.4.4 2.8 1.1 3.9-1.3.9-2.2 2.4-2.2 4.1 0 2.8 2.2 5 4.9 5.1 2.2 0 4-1.3 4.7-3.2.9.8 2 1.3 3.3 1.3 2.8 0 5-2.2 5.1-4.9 0-2.1-1.3-3.9-3.1-4.7z"/><path fill="none" stroke="#31352e" stroke-linecap="round" stroke-linejoin="round" stroke-miterlimit="10" stroke-width="6" d="M120.6 109.1c.1-.4.1-.9.2-1.4 0-3.9-3-7-6.9-7.1-3.9 0-7 3-7.1 6.9 0 1.4.4 2.8 1.1 3.9-1.3.9-2.2 2.4-2.2 4.1 0 2.8 2.2 5 4.9 5.1 2.2 0 4-1.3 4.7-3.2.9.8 2 1.3 3.3 1.3 2.8 0 5-2.2 5.1-4.9 0-2.1-1.3-3.9-3.1-4.7z"/><path fill="#ffb000" d="M114.9 112.5c-.2 0-.4 0-.5-.1-.2-.1-.9-.3-1.4-.4-.4-.1-.7-.4-.8-.8-.1-.4.1-.8.4-1 .5-.4 1-.5 1.5-.5 1 0 1.7.9 1.8 1.7.1.4-.1.8-.4 1-.2.1-.4.1-.6.1z"/><path fill="none" stroke="#31352e" stroke-linecap="round" stroke-linejoin="round" stroke-miterlimit="10" stroke-width="6" d="M23.1 111c-.3-.2-.5-.3-.8-.4-.2-2.3-1.4-4.5-3.5-5.9-3.5-2.3-8.2-1.2-10.5 2.3l-.6 1.2c-1.2.5-2.2 1.3-2.9 2.5-2 3.1-1.1 7.1 2 9.1 2.7 1.8 6.3 1.2 8.4-1.1.8 0 1.5-.2 2.2-.5.2.2.4.4.7.6 2.1 1.4 5 .7 6.3-1.4 1.5-2.2.8-5-1.3-6.4z"/></svg>