<svg id="Livello_1" data-name="Livello 1" xmlns="http://www.w3.org/2000/svg" viewBox="0 0 8000 7000"><defs><style>.cls-1{fill:#3f3d3b;}.cls-2{fill:#111;}.cls-3{fill:#282726;}.cls-4{fill:#ada27f;}.cls-5{fill:#8e8265;}.cls-6{fill:#a0947a;}.cls-7{fill:#c0b48a;}.cls-8{fill:#1e1d1c;}.cls-9{fill:#87693e;}.cls-10{fill:#8c693f;}.cls-11{fill:#e0e0e0;}.cls-12{fill:#c4c4c4;}.cls-13{fill:#4c3a21;}.cls-14{fill:#eaeaea;}.cls-15{fill:#b7b7b7;}.cls-16{fill:#f9f9f9;}.cls-17{fill:#aa8852;}.cls-18{fill:#846a3a;}.cls-19{fill:#b22d0f;}.cls-20{fill:#ef4d14;}.cls-21{fill:#ceae5f;}.cls-22{fill:#c69f4a;}.cls-23{fill:#bfa05a;}.cls-24{fill:#9b7b3a;}.cls-25{fill:#896d33;}.cls-26{fill:#b79f70;}.cls-27{fill:#d3ba84;}.cls-28{fill:#755a2c;}.cls-29{fill:#a58341;}.cls-30{fill:#ba934d;}.cls-31{fill:#634426;}.cls-32{fill:#261a10;}.cls-33{fill:#545454;}.cls-34{fill:#cecece;}.cls-35{fill:#efefef;}.cls-36{fill:#333;}.cls-37{fill:#9e9e9e;}.cls-38{fill:#a0a0a0;}.cls-39{fill:#d3b875;}.cls-40{fill:#ad9359;}.cls-41{fill:#725e36;}.cls-42{fill:#1c4349;}.cls-43{fill:#143235;}.cls-44{fill:#0f2728;}.cls-45{fill:#143332;}.cls-46{fill:#1e4c4c;}.cls-47{fill:#3c918f;}.cls-48{fill:#61a0bc;}.cls-49{fill:#79b6d8;}.cls-50{fill:#5796b2;}.cls-51{fill:#407a8e;}.cls-52{fill:#57c0dd;}.cls-53{fill:#46aac1;}.cls-54{fill:#409dad;}.cls-55{fill:#68310d;}.cls-56{fill:#874010;}.cls-57{fill:#51230a;}.cls-58{fill:#af5417;}.cls-59{fill:#d8661a;}.cls-60{fill:#994a14;}.cls-61{fill:#894415;}.cls-62{fill:#e5bf61;}.cls-63{fill:#9e7e3f;}.cls-64{fill:#c19d4d;}.cls-65{fill:#4452d3;}.cls-66{fill:#1d2c6d;}.cls-67{fill:#2a3a96;}.cls-68{fill:#607bef;}.cls-69{fill:#878787;}.cls-70{fill:#d6d6d6;}.cls-71{fill:#a5a5a5;}.cls-72{fill:#898989;}.cls-73{fill:#bababa;}.cls-74{fill:#606060;}</style></defs><title>stanza hotel10</title><polygon class="cls-1" points="1123.31 4773.66 3983.75 6439.55 6876.69 4773.66 4000 3107.78 1123.31 4773.66"/><polygon class="cls-2" points="3983.75 6621.25 3983.75 6439.55 6876.69 4773.66 6876.69 4955.37 3983.75 6621.25"/><polygon class="cls-3" points="1123.31 4955.37 1123.31 4773.66 3983.75 6439.55 3983.75 6621.25 1123.31 4955.37"/><polygon class="cls-4" points="3788.06 502.65 3785 3232.32 6663.8 4897.06 6663.78 2167.31 3788.06 502.65"/><polygon class="cls-5" points="6663.78 4896.44 6876.69 4773.9 6876.69 2043.66 6663.78 2166.34 6663.78 4896.44"/><polygon class="cls-6" points="6876.69 2044.64 4211.96 502.65 4211.96 502.65 4002.16 378.75 4000.01 379.99 3997.91 378.78 3788.06 502.65 3788.06 502.65 1123.38 2044.62 1336.29 2167.28 4000.01 625.34 6663.78 2167.31 6876.69 2044.64"/><polygon class="cls-7" points="4000 625.24 4000 3356.69 1336.29 4897.7 1336.29 2167.28 4000 625.24"/><polygon class="cls-5" points="1336.29 4897.7 1123.38 4773.87 1123.38 2043.64 1336.29 2166.3 1336.29 4897.7"/><polygon class="cls-8" points="1984.72 4798.08 2316.22 4798.08 2200.33 4682.19 2029.36 4682.19 1984.72 4798.08"/><polygon class="cls-8" points="3478.45 5661.64 3809.94 5661.64 3694.05 5545.75 3523.09 5545.75 3478.45 5661.64"/><polygon class="cls-8" points="4393.94 5131.58 4725.43 5131.58 4609.55 5015.69 4438.58 5015.69 4393.94 5131.58"/><polygon class="cls-9" points="1984.64 4405.22 1984.64 4798.08 2100.25 4731.92 2100.25 4338.43 1984.64 4405.22"/><polygon class="cls-10" points="1984.64 4269.17 3475.59 5136.97 4509.55 4539.2 3023.22 3673.72 1984.64 4269.17"/><polygon class="cls-9" points="1984.64 4405.34 1984.64 3611.4 3020.91 3013.64 3020.91 3541.91 2102.25 4069.93 1984.64 4405.34"/><polygon class="cls-11" points="1984.64 4137.35 3475.59 5005.15 4509.55 4407.39 3023.22 3541.91 1984.64 4137.35"/><polygon class="cls-12" points="1984.64 4137.35 1984.64 4273.53 3478.45 5136.97 3475.59 5005.15 1984.64 4137.35"/><polygon class="cls-13" points="1984.64 3611.4 1942.44 3587.12 2976.41 2991.93 3020.91 3013.64 1984.64 3611.4"/><polygon class="cls-14" points="2552.21 3814.83 2552.21 3666.56 2743.93 3777.94 2743.93 3927.88 2552.21 3814.83"/><polygon class="cls-12" points="2142.74 4046.68 2142.74 3783.43 2334.46 4009.79 2334.46 4159.73 2142.74 4046.68"/><polygon class="cls-15" points="3065.34 3592.64 2763.16 3766.85 2334.46 4009.79 2334.46 4159.73 2763.21 3917.47 2763.21 3916.85 3065.34 3743.93 3065.34 3592.64"/><polygon class="cls-16" points="2876 3362.67 2556.66 3548.98 2142.74 3783.43 2334.46 4009.79 2743.93 3777.94 3065.34 3592.64 2876 3362.67"/><polygon class="cls-17" points="3475.59 5136.97 1984.64 4269.17 1984.64 4405.18 1984.64 4405.17 1984.64 3611.4 1942.48 3587.07 1942.48 4383.57 1942.48 4383.57 1942.48 4383.57 1942.4 4775.55 1984.72 4798.08 1984.72 4405.39 3417.69 5232.32 3417.69 5624.27 3478.45 5661.64 3478.45 5268.78 3475.59 5136.97"/><polygon class="cls-18" points="4393.94 5131.58 4340.67 5102.05 4341.53 4769.52 4393.94 4738.72 4393.94 5131.58"/><polygon class="cls-19" points="2444.28 4539.2 2444.28 4407.39 3436.36 4983.26 3436.36 5115.08 2444.28 4539.2"/><polygon class="cls-20" points="2444.28 4407.39 3490.15 3813.79 4509.55 4407.39 3475.61 5006.36 2444.28 4407.39"/><polygon class="cls-13" points="4510.09 3976.25 3475.61 4570.92 3436.36 4548.57 4470.84 3953.36 4510.09 3976.25"/><polygon class="cls-9" points="4509.55 4407.39 4510.09 3976.25 3475.61 4570.8 3475.61 5005.13 3475.59 5005.15 3475.63 5136.95 3475.59 5136.97 3478.45 5268.78 3478.45 5661.64 3594.06 5595.48 3594.06 5201.99 4393.94 4739.86 4393.94 5131.58 4509.55 5065.42 4509.55 4673.06 4509.55 4671.93 4509.55 4539.2 4509.55 4539.2 4509.55 4407.39"/><polygon class="cls-17" points="3475.61 5137.36 3436.36 5115.08 3436.36 4548.67 3475.61 4571.02 3475.61 5137.36"/><polygon class="cls-21" points="6051.99 4475.45 6051.99 3790.05 5457.57 3450.38 5457.57 4129.71 6051.99 4475.45"/><polygon class="cls-22" points="5612.24 4728.18 5613.25 4041.76 5018.84 3702.1 5017.82 4382.44 5612.24 4728.18"/><polygon class="cls-23" points="6051.99 3789.03 5613.25 4041.76 5018.84 3702.1 5457.57 3449.37 6051.99 3789.03"/><polygon class="cls-24" points="6051.99 4474.44 6051.99 3789.03 5613.25 4041.76 5612.24 4728.18 6051.99 4474.44"/><polygon class="cls-25" points="5060.89 3833.02 5060.89 3983.39 5570.19 4273.76 5570.19 4130.3 5570.19 4125.69 5060.89 3833.02"/><path class="cls-26" d="M5291.52,4024.94l11-6.43a8.43,8.43,0,0,1,1.08-.63h0c3-1.44,7-1.13,11.27,1.28l13.2,7.36c9.25,5.14,16.81,18,16.81,28.59v15.82c0,4.76-1.52,8.25-4,10.17h0a7.71,7.71,0,0,1-1.66,1l-10.9,6.41-6.93-12-6.65-3.86c-9.15-5.31-16.64-18.3-16.64-28.89v-7.45Z"/><path class="cls-27" d="M5316.16,4033.49c9.24,5.15,16.8,18,16.8,28.6v15.81c0,10.58-7.49,14.9-16.64,9.59l-13.53-7.85c-9.15-5.3-16.64-18.3-16.64-28.88V4036c0-10.58,7.56-15,16.8-9.88Z"/><polygon class="cls-25" points="5060.89 3994.77 5060.89 4145.14 5570.19 4435.51 5570.19 4292.05 5570.19 4287.44 5060.89 3994.77"/><path class="cls-26" d="M5291.52,4186.69l11-6.43a8.43,8.43,0,0,1,1.08-.63h0c3-1.44,7-1.13,11.27,1.28l13.2,7.35c9.25,5.15,16.81,18,16.81,28.6v15.82c0,4.76-1.52,8.24-4,10.16h0a8.14,8.14,0,0,1-1.66,1l-10.9,6.4-6.93-12-6.65-3.85c-9.15-5.31-16.64-18.31-16.64-28.89v-7.45Z"/><path class="cls-27" d="M5316.16,4195.23c9.24,5.15,16.8,18,16.8,28.6v15.82c0,10.58-7.49,14.9-16.64,9.59l-13.53-7.85c-9.15-5.31-16.64-18.31-16.64-28.89v-14.74c0-10.58,7.56-15,16.8-9.88Z"/><polygon class="cls-25" points="5060.89 4156.51 5060.89 4306.88 5570.19 4597.25 5570.19 4453.8 5570.19 4449.19 5060.89 4156.51"/><path class="cls-26" d="M5291.52,4348.44l11-6.44a9.7,9.7,0,0,1,1.08-.62h0c3-1.44,7-1.14,11.27,1.27l13.2,7.36c9.25,5.15,16.81,18,16.81,28.6v15.81c0,4.76-1.52,8.25-4,10.17h0a7.71,7.71,0,0,1-1.66,1l-10.9,6.41-6.93-12-6.65-3.85c-9.15-5.31-16.64-18.31-16.64-28.89v-7.45Z"/><path class="cls-27" d="M5316.16,4357c9.24,5.15,16.8,18,16.8,28.6v15.82c0,10.58-7.49,14.89-16.64,9.58l-13.53-7.84c-9.15-5.31-16.64-18.31-16.64-28.89V4359.5c0-10.58,7.56-15,16.8-9.87Z"/><polygon class="cls-28" points="6051.99 4474.44 6051.99 4543.18 5612.24 4798.43 5612.24 4728.18 6051.99 4474.44"/><polygon class="cls-29" points="5612.24 4798.43 5017.82 4452.7 5017.82 4382.44 5612.24 4728.18 5612.24 4798.43"/><polygon class="cls-30" points="6095.99 3782.78 5621.6 4056.05 4978.87 3688.77 5453.27 3415.51 6095.99 3782.78"/><polygon class="cls-28" points="6095.99 3782.78 6095.99 3848.36 5621.6 4121.63 5621.6 4056.05 6095.99 3782.78"/><polygon class="cls-29" points="5621.6 4121.63 5621.6 4056.05 4978.87 3688.77 4978.87 3754.36 5621.6 4121.63"/><polygon class="cls-8" points="5612.24 4798.43 5813.16 4798.43 6176.21 4615.1 6051.99 4543.18 5612.24 4798.43"/><rect class="cls-31" x="5651.57" y="3314.02" width="10.79" height="159.14"/><path class="cls-32" d="M5674.33,3481.48a17.37,17.37,0,1,1-17.37-17.36A17.37,17.37,0,0,1,5674.33,3481.48Z"/><path class="cls-33" d="M5727.91,3744h0v-19.54H5359.4v23.69h.14c1.51,26,19.22,51.73,53.24,71.41,71.4,41.31,188.81,41.31,260.9,0C5709.83,3798.86,5727.91,3771.45,5727.91,3744Z"/><path class="cls-34" d="M5413.39,3649.18c-71.74,41.65-72,109.54-.61,150.85s188.81,41.32,260.9,0,72.36-109.2.62-150.85S5485.14,3607.52,5413.39,3649.18Z"/><path class="cls-33" d="M5478.87,3719.88h0v-3.25h-61.38v3.95h0c.25,4.33,3.2,8.61,8.86,11.89,11.9,6.88,31.45,6.88,43.46,0C5475.86,3729,5478.87,3724.45,5478.87,3719.88Z"/><path class="cls-35" d="M5426.49,3704.09c-11.95,6.94-12,18.24-.11,25.12s31.45,6.89,43.46,0,12.05-18.18.1-25.12S5438.44,3697.15,5426.49,3704.09Z"/><path class="cls-36" d="M5438.26,3710.9c-5.46,3.17-5.49,8.34-.05,11.48s14.38,3.15,19.87,0,5.52-8.31.05-11.48S5443.72,3707.72,5438.26,3710.9Z"/><path class="cls-37" d="M5586,3717.8V3346.73h-84.68v370.93h0c0,6.4,4.23,12.82,12.62,17.7,16.7,9.7,43.68,9.7,60,0,8.11-4.83,12.13-11.18,12.09-17.51h0Z"/><path class="cls-38" d="M5513.57,3329.14c-16.49,9.6-16.31,25.4.38,35.1s43.68,9.71,60,0,16.11-25.5-.38-35.1S5530.06,3319.54,5513.57,3329.14Z"/><path class="cls-39" d="M5775.9,3244.76h0l-.15-.51a84.42,84.42,0,0,0-4.06-14.57l-88.7-318-139.37,16.53-139.37-16.53-89,319.29a85.38,85.38,0,0,0-3.59,12.89l-.18.65h0c-7.31,39.29,14.71,80,66.23,109.8,90.48,52.35,239.25,52.35,330.6,0C5760.3,3324.58,5782.79,3284,5775.9,3244.76Z"/><path class="cls-40" d="M5444.2,2862.31c-54.78,31.8-55,83.63-.47,115.17s144.16,31.55,199.19,0,55.25-83.37.48-115.17S5499,2830.51,5444.2,2862.31Z"/><path class="cls-41" d="M5479.42,2882.67c-35.37,20.54-35.51,54-.3,74.38s93.1,20.38,128.65,0,35.68-53.84.3-74.38S5514.8,2862.13,5479.42,2882.67Z"/><polygon class="cls-42" points="4353.24 5493.92 4353.24 4796.2 4113.3 4657.29 4113.3 5356.59 4136.98 5369.22 4136.98 4715.69 4324.83 4821.46 4324.83 5473.4 4353.24 5493.92"/><polygon class="cls-43" points="4113.3 4657.29 4143.69 4637.16 4382.84 4778.42 4353.24 4796.2 4113.3 4657.29"/><polygon class="cls-44" points="4382.84 4778.42 4382.84 5475.37 4353.24 5493.92 4353.24 4796.2 4382.84 4778.42"/><polygon class="cls-44" points="4160.96 4729.19 4160.96 5355.21 4136.98 5369.22 4136.98 4715.69 4160.96 4729.19"/><path class="cls-45" d="M4318.71,5901.94c33.05-19.37,60.09-3.66,60.09,34.92s-27,85.73-60.09,104.78-60.08,3.33-60.08-34.92S4285.67,5921.31,4318.71,5901.94Z"/><polygon class="cls-45" points="4315.91 6064.7 4277.87 6046.51 4284.48 5971.69 4315.91 5927.89 4353.85 5894.69 4396.27 5914.56 4315.91 6064.7"/><path class="cls-46" d="M4358.18,5920.88c33-19.37,60.08-3.65,60.08,34.93s-27,85.73-60.08,104.77-60.09,3.33-60.09-34.92S4325.13,5940.25,4358.18,5920.88Z"/><path class="cls-47" d="M4358.18,5951.92c18.34-10.75,33.34-2,33.34,19.38s-15,47.58-33.34,58.16-33.35,1.84-33.35-19.39S4339.84,5962.67,4358.18,5951.92Z"/><path class="cls-48" d="M3996.1,5593.19l-215.16-428.75,235.78-135.72a47.42,47.42,0,0,1,8.43-4.86l.27-.15,0,0c17-7.44,39.25-5.22,63.5,8.57l289.55,164.64c53.21,30.26,96.75,105.09,96.75,166.3v478.3c0,31.25-11.3,53-29.37,62.72v0l-228.8,129.25-173.13-345C4021.05,5661.26,4003.51,5626.72,3996.1,5593.19Z"/><path class="cls-49" d="M4137.61,6036.06c52.87,30.85,96.13,6,96.13-55.21v-478.3c0-61.21-43.54-136-96.75-166.3L3847.44,5171.6c-53.21-30.25-96.74-4.93-96.74,56.28v471.2c0,61.21,43.26,136.52,96.13,167.36Z"/><path class="cls-50" d="M4084.63,5927.72c33.61,19.6,61.1,3.81,61.1-35.1v-304c0-38.9-27.67-86.47-61.49-105.7l-184-104.65c-33.82-19.23-61.5-3.14-61.5,35.77v299.5c0,38.91,27.5,86.78,61.11,106.38Z"/><polygon class="cls-51" points="4145.73 5665.93 3838.7 5496.63 3838.7 5558.19 4145.73 5729.86 4145.73 5665.93"/><polygon class="cls-52" points="4078.68 5605.23 4078.68 5744.69 4018.08 5708.78 4018.08 5569.07 4078.68 5605.23"/><polygon class="cls-53" points="4018.08 5569.07 4031.32 5561.58 4090.52 5597.49 4078.68 5605.23 4018.08 5569.07"/><polygon class="cls-54" points="4090.52 5597.49 4090.52 5736.8 4078.68 5744.69 4078.68 5605.23 4090.52 5597.49"/><polygon class="cls-52" points="3946.08 5534.03 3946.08 5673.48 3885.48 5637.57 3885.48 5497.87 3946.08 5534.03"/><polygon class="cls-53" points="3885.48 5497.87 3898.72 5490.37 3957.92 5526.28 3946.08 5534.03 3885.48 5497.87"/><polygon class="cls-54" points="3957.92 5526.28 3957.92 5665.59 3946.08 5673.48 3946.08 5534.03 3957.92 5526.28"/><polygon class="cls-42" points="5112.63 5086.88 5112.63 4389.16 4872.69 4250.25 4872.69 4949.55 4896.37 4962.17 4896.37 4308.65 5084.21 4414.42 5084.21 5066.36 5112.63 5086.88"/><polygon class="cls-43" points="4872.69 4250.25 4903.07 4230.12 5142.23 4371.38 5112.63 4389.16 4872.69 4250.25"/><polygon class="cls-44" points="5142.23 4371.38 5142.23 5068.33 5112.63 5086.88 5112.63 4389.16 5142.23 4371.38"/><polygon class="cls-44" points="4920.34 4322.15 4920.34 4948.17 4896.37 4962.17 4896.37 4308.65 4920.34 4322.15"/><path class="cls-45" d="M5078.1,5494.9c33-19.37,60.08-3.66,60.08,34.92s-27,85.73-60.08,104.78-60.08,3.33-60.08-34.92S5045.05,5514.27,5078.1,5494.9Z"/><polygon class="cls-45" points="5075.3 5657.66 5037.25 5639.47 5043.86 5564.65 5075.3 5520.85 5113.23 5487.65 5155.65 5507.52 5075.3 5657.66"/><path class="cls-46" d="M5117.56,5513.84c33-19.37,60.09-3.65,60.09,34.93s-27,85.73-60.09,104.77-60.08,3.33-60.08-34.92S5084.52,5533.21,5117.56,5513.84Z"/><path class="cls-47" d="M5117.56,5544.88c18.35-10.75,33.35-2,33.35,19.38s-15,47.58-33.35,58.16-33.34,1.84-33.34-19.39S5099.22,5555.63,5117.56,5544.88Z"/><path class="cls-48" d="M4755.49,5186.15,4540.33,4757.4l235.78-135.72a47.07,47.07,0,0,1,8.43-4.86l.27-.15,0,0c17-7.44,39.25-5.22,63.5,8.57L5137.9,4789.9c53.21,30.26,96.74,105.09,96.74,166.3v478.3c0,31.25-11.29,53-29.36,62.72v0L4976.47,5626.5l-173.12-345C4780.44,5254.22,4762.9,5219.68,4755.49,5186.15Z"/><path class="cls-49" d="M4897,5629c52.87,30.85,96.13,6,96.13-55.21v-478.3c0-61.21-43.54-136-96.75-166.3l-289.55-164.65c-53.21-30.25-96.74-4.93-96.74,56.28V5292c0,61.21,43.26,136.52,96.12,167.36Z"/><path class="cls-50" d="M4844,5520.68c33.61,19.6,61.1,3.81,61.1-35.1v-304c0-38.9-27.67-86.47-61.49-105.7l-184.05-104.65c-33.82-19.23-61.49-3.14-61.49,35.77v299.5c0,38.91,27.5,86.78,61.1,106.38Z"/><polygon class="cls-51" points="4905.12 5258.89 4598.09 5089.59 4598.09 5151.15 4905.12 5322.82 4905.12 5258.89"/><polygon class="cls-52" points="4838.07 5198.19 4838.07 5337.65 4777.47 5301.74 4777.47 5162.03 4838.07 5198.19"/><polygon class="cls-53" points="4777.47 5162.03 4790.71 5154.54 4849.91 5190.45 4838.07 5198.19 4777.47 5162.03"/><polygon class="cls-54" points="4849.91 5190.45 4849.91 5329.76 4838.07 5337.65 4838.07 5198.19 4849.91 5190.45"/><polygon class="cls-52" points="4705.47 5126.98 4705.47 5266.44 4644.87 5230.53 4644.87 5090.83 4705.47 5126.98"/><polygon class="cls-53" points="4644.87 5090.83 4658.11 5083.33 4717.31 5119.24 4705.47 5126.98 4644.87 5090.83"/><polygon class="cls-54" points="4717.31 5119.24 4717.31 5258.55 4705.47 5266.44 4705.47 5126.98 4717.31 5119.24"/><polygon class="cls-55" points="5818.3 4759.11 5818.3 4117.69 5610.7 3998.85 5610.7 4637.41 5636.47 4651.73 5636.47 4050.39 5792.53 4136.3 5792.53 4741.93 5818.3 4759.11"/><polygon class="cls-56" points="5798.97 4770.92 5798.97 4129.5 5591.37 4010.66 5591.37 4649.22 5617.14 4663.54 5617.14 4062.21 5773.2 4148.11 5773.2 4753.74 5798.97 4770.92"/><polygon class="cls-57" points="5798.97 4770.92 5818.3 4759.11 5818.3 4117.69 5798.97 4129.5 5798.97 4770.92"/><polygon class="cls-57" points="5617.14 4663.54 5636.47 4651.73 5636.47 4072.85 5617.14 4062.21 5617.14 4663.54"/><polygon class="cls-55" points="5591.37 4010.66 5610.7 3998.85 5643.95 4017.89 5625.47 4030.18 5591.37 4010.66"/><path class="cls-45" d="M5833,5126.63c19.65-11.52,35.73-2.18,35.73,20.77s-16.08,51-35.73,62.31-35.73,2-35.73-20.77S5813.36,5138.15,5833,5126.63Z"/><polygon class="cls-45" points="5831.34 5223.42 5808.72 5212.6 5812.65 5168.11 5831.34 5142.06 5853.91 5122.32 5879.13 5134.13 5831.34 5223.42"/><path class="cls-46" d="M5856.48,5137.89c19.65-11.52,35.73-2.17,35.73,20.77s-16.08,51-35.73,62.31-35.73,2-35.73-20.77S5836.83,5149.41,5856.48,5137.89Z"/><path class="cls-47" d="M5856.48,5156.35c10.91-6.39,19.83-1.2,19.83,11.53s-8.92,28.3-19.83,34.58-19.83,1.1-19.83-11.53S5845.57,5162.74,5856.48,5156.35Z"/><path class="cls-45" d="M5738.08,5176.31c19.65-11.52,35.73-2.18,35.73,20.77s-16.08,51-35.73,62.31-35.73,2-35.73-20.77S5718.42,5187.83,5738.08,5176.31Z"/><polygon class="cls-45" points="5736.41 5273.1 5713.79 5262.28 5717.72 5217.79 5736.41 5191.74 5758.97 5172 5784.2 5183.81 5736.41 5273.1"/><path class="cls-46" d="M5761.55,5187.57c19.65-11.52,35.73-2.17,35.73,20.77s-16.08,51-35.73,62.31-35.74,2-35.74-20.77S5741.89,5199.09,5761.55,5187.57Z"/><path class="cls-47" d="M5761.55,5206c10.91-6.39,19.83-1.21,19.83,11.53s-8.92,28.29-19.83,34.58-19.84,1.1-19.84-11.53S5750.64,5212.42,5761.55,5206Z"/><path class="cls-45" d="M5499.78,4942c19.65-11.52,35.73-2.18,35.73,20.77s-16.08,51-35.73,62.31-35.73,2-35.73-20.77S5480.13,4953.54,5499.78,4942Z"/><polygon class="cls-45" points="5498.11 5038.81 5475.49 5027.99 5479.42 4983.5 5498.11 4957.45 5520.67 4937.71 5545.9 4949.52 5498.11 5038.81"/><path class="cls-46" d="M5523.25,4953.28c19.65-11.52,35.73-2.17,35.73,20.77s-16.08,51-35.73,62.31-35.73,2-35.73-20.77S5503.6,4964.8,5523.25,4953.28Z"/><path class="cls-47" d="M5523.25,4971.74c10.9-6.39,19.83-1.2,19.83,11.53s-8.93,28.3-19.83,34.58-19.83,1.1-19.83-11.53S5512.34,4978.13,5523.25,4971.74Z"/><path class="cls-45" d="M5404.85,4991.7c19.65-11.52,35.73-2.18,35.73,20.77s-16.08,51-35.73,62.31-35.74,2-35.74-20.77S5385.2,5003.22,5404.85,4991.7Z"/><polygon class="cls-45" points="5403.18 5088.49 5380.56 5077.67 5384.49 5033.18 5403.18 5007.13 5425.74 4987.39 5450.97 4999.2 5403.18 5088.49"/><path class="cls-46" d="M5428.32,5003c19.65-11.52,35.73-2.17,35.73,20.77s-16.08,51-35.73,62.31-35.73,2-35.73-20.77S5408.66,5014.48,5428.32,5003Z"/><path class="cls-47" d="M5428.32,5021.42c10.9-6.39,19.83-1.21,19.83,11.53s-8.93,28.3-19.83,34.58-19.83,1.1-19.83-11.53S5417.41,5027.81,5428.32,5021.42Z"/><path class="cls-58" d="M5852.59,5145.37c27.91,16.54,50.74,3.53,50.74-28.91V4537.52c0-32.43-22.83-72.49-50.74-89l-323.8-191.84c-27.91-16.52-50.73-3.51-50.73,28.92v578.94c0,32.43,22.82,72.49,50.73,89Z"/><polygon class="cls-58" points="5750.49 5221.79 5889.31 5148.72 5778.84 4444.01 5497.27 4250.86 5358.95 4323.55 5750.49 5221.79"/><path class="cls-59" d="M5714.41,5218c27.9,16.53,50.73,3.52,50.73-28.91V4610.19c0-32.43-22.83-72.49-50.73-89L5390.6,4329.33c-27.9-16.53-50.73-3.52-50.73,28.91v578.94c0,32.43,22.83,72.49,50.73,89Z"/><path class="cls-60" d="M5656.74,4594.94c18.67,11.77,33.95,41.48,33.95,66v374.85c0,24.56-15.28,35.65-33.95,24.65s-33.95-40.09-33.95-64.65V4618.19C5622.79,4593.64,5638.07,4583.18,5656.74,4594.94Z"/><path class="cls-60" d="M5548.34,4537.76c18.67,11.77,33.95,41.49,33.95,66v374.85c0,24.56-15.28,35.65-33.95,24.65s-33.95-40.09-33.95-64.65V4561C5514.39,4536.46,5529.67,4526,5548.34,4537.76Z"/><path class="cls-60" d="M5438.74,4474.63c18.68,11.76,34,41.48,34,66v374.84c0,24.56-15.28,35.65-34,24.65s-33.94-40.09-33.94-64.64V4497.88C5404.8,4473.32,5420.07,4462.86,5438.74,4474.63Z"/><polygon class="cls-61" points="5757.55 4438.23 5700.37 4469.79 5490.72 4344.71 5549.7 4315.09 5757.55 4438.23"/><polygon class="cls-62" points="1826.23 2234.59 1826.23 3339.36 2515.83 2945.3 2515.83 1835.25 1826.23 2234.59"/><polygon class="cls-63" points="1826.23 2234.59 1785.11 2209.96 1785.11 3311.66 1785.11 3316.05 1826.23 3339.36 1826.23 2234.59"/><polygon class="cls-64" points="1785.11 2209.96 2478.45 1814.14 2515.83 1835.25 1826.23 2234.59 1785.11 2209.96"/><polygon class="cls-65" points="2065.83 2182.29 1960.44 2243.32 1878.52 2290.76 1878.52 3224.13 1960.44 3177.31 2131.51 3078.14 2131.51 2142.54 2065.83 2182.29"/><polygon class="cls-65" points="2400.26 1994.35 2294.87 2055.38 2212.95 2102.82 2212.95 3036.19 2294.87 2989.38 2465.94 2890.2 2465.94 1954.6 2400.26 1994.35"/><polygon class="cls-66" points="2074.51 2177.03 2074.51 3036.19 2131.51 3078.14 2131.51 2142.54 2074.51 2177.03"/><polygon class="cls-67" points="2074.51 3036.19 1878.52 3145.44 1878.52 3224.13 2131.51 3078.14 2074.51 3036.19"/><polygon class="cls-66" points="2409.03 1988.99 2409.03 2848.15 2466.03 2890.1 2466.03 1954.5 2409.03 1988.99"/><polygon class="cls-67" points="2409.03 2848.15 2213.03 2957.4 2213.03 3036.09 2466.03 2890.1 2409.03 2848.15"/><polygon class="cls-68" points="1878.52 2429.95 2074.51 2547.75 2074.51 2668.05 1878.52 2549 1878.52 2429.95"/><polygon class="cls-68" points="1878.52 2683.33 2074.51 2801.13 2074.51 2921.43 1878.52 2802.38 1878.52 2683.33"/><polygon class="cls-68" points="2212.95 2331.38 2408.95 2449.18 2408.95 2569.47 2212.95 2450.43 2212.95 2331.38"/><polygon class="cls-68" points="2212.95 2584.76 2408.95 2702.56 2408.95 2822.85 2212.95 2703.8 2212.95 2584.76"/><polygon class="cls-62" points="2922.85 1595.08 2922.85 2699.85 3612.46 2305.79 3612.46 1195.74 2922.85 1595.08"/><polygon class="cls-63" points="2922.85 1595.08 2881.73 1570.45 2881.73 2672.15 2881.73 2676.54 2922.85 2699.85 2922.85 1595.08"/><polygon class="cls-64" points="2881.73 1570.45 3575.08 1174.63 3612.46 1195.74 2922.85 1595.08 2881.73 1570.45"/><polygon class="cls-65" points="3162.46 1542.78 3057.07 1603.81 2975.14 1651.25 2975.14 2584.62 3057.07 2537.8 3228.14 2438.63 3228.14 1503.03 3162.46 1542.78"/><polygon class="cls-65" points="3496.89 1354.84 3391.5 1415.87 3309.58 1463.31 3309.58 2396.68 3391.5 2349.87 3562.57 2250.69 3562.57 1315.09 3496.89 1354.84"/><polygon class="cls-66" points="3171.14 1537.52 3171.14 2396.68 3228.14 2438.63 3228.14 1503.03 3171.14 1537.52"/><polygon class="cls-67" points="3171.14 2396.68 2975.14 2505.93 2975.14 2584.62 3228.14 2438.63 3171.14 2396.68"/><polygon class="cls-66" points="3505.66 1349.49 3505.66 2208.64 3562.66 2250.59 3562.66 1314.99 3505.66 1349.49"/><polygon class="cls-67" points="3505.66 2208.64 3309.66 2317.89 3309.66 2396.58 3562.66 2250.59 3505.66 2208.64"/><polygon class="cls-68" points="2975.14 1790.44 3171.14 1908.24 3171.14 2028.54 2975.14 1909.49 2975.14 1790.44"/><polygon class="cls-68" points="2975.14 2043.82 3171.14 2161.62 3171.14 2281.92 2975.14 2162.87 2975.14 2043.82"/><polygon class="cls-68" points="3309.58 1691.87 3505.57 1809.67 3505.57 1929.96 3309.58 1810.92 3309.58 1691.87"/><polygon class="cls-68" points="3309.58 1945.25 3505.57 2063.05 3505.57 2183.34 3309.58 2064.3 3309.58 1945.25"/><polygon class="cls-62" points="5019.77 1628.66 5019.77 2733.44 4330.16 2339.38 4330.16 1229.33 5019.77 1628.66"/><polygon class="cls-63" points="5019.77 1628.66 5060.89 1604.03 5060.89 2705.73 5060.89 2710.13 5019.77 2733.44 5019.77 1628.66"/><polygon class="cls-64" points="5060.89 1604.03 4367.55 1208.21 4330.16 1229.33 5019.77 1628.66 5060.89 1604.03"/><polygon class="cls-65" points="4780.16 1576.36 4885.55 1637.39 4967.48 1684.83 4967.48 2618.2 4885.55 2571.39 4714.48 2472.21 4714.48 1536.61 4780.16 1576.36"/><polygon class="cls-65" points="4445.73 1388.43 4551.12 1449.45 4633.05 1496.9 4633.05 2430.26 4551.12 2383.45 4380.05 2284.27 4380.05 1348.68 4445.73 1388.43"/><polygon class="cls-66" points="4771.48 1571.11 4771.48 2430.26 4714.48 2472.21 4714.48 1536.61 4771.48 1571.11"/><polygon class="cls-67" points="4771.48 2430.26 4967.48 2539.51 4967.48 2618.2 4714.48 2472.21 4771.48 2430.26"/><polygon class="cls-66" points="4436.96 1383.07 4436.96 2242.23 4379.97 2284.18 4379.97 1348.58 4436.96 1383.07"/><polygon class="cls-67" points="4436.96 2242.23 4632.96 2351.48 4632.96 2430.17 4379.97 2284.18 4436.96 2242.23"/><polygon class="cls-68" points="4967.48 1824.03 4771.48 1941.83 4771.48 2062.12 4967.48 1943.07 4967.48 1824.03"/><polygon class="cls-68" points="4967.48 2077.41 4771.48 2195.21 4771.48 2315.5 4967.48 2196.46 4967.48 2077.41"/><polygon class="cls-68" points="4633.05 1725.45 4437.05 1843.25 4437.05 1963.55 4633.05 1844.5 4633.05 1725.45"/><polygon class="cls-68" points="4633.05 1978.83 4437.05 2096.63 4437.05 2216.93 4633.05 2097.88 4633.05 1978.83"/><polygon class="cls-8" points="4000 3869.66 4452.58 3869.66 4270.7 3687.79 4111.32 3687.79 4000 3869.66"/><path class="cls-69" d="M4226.16,3736.84h0v-24.37H3766.64V3742h.18c1.88,32.45,24,64.5,66.37,89,89,51.52,235.45,51.52,325.34,0C4203.62,3805.21,4226.16,3771,4226.16,3736.84Z"/><path class="cls-70" d="M3834,3618.57c-89.47,51.94-89.82,136.59-.78,188.11s235.45,51.52,325.34,0,90.24-136.17.77-188.11S3923.43,3566.63,3834,3618.57Z"/><path class="cls-71" d="M4035.2,3702.17V2117.63h-77.58V3702h0c0,5.86,3.88,11.75,11.57,16.22,15.3,8.89,40,8.89,54.93,0,7.42-4.43,11.11-10.24,11.08-16.05h0Z"/><path class="cls-38" d="M3968.84,2101.52c-15.1,8.8-15,23.27.35,32.16s40,8.89,54.93,0,14.76-23.36-.35-32.16S3984,2092.72,3968.84,2101.52Z"/><path class="cls-72" d="M4244.48,1823.31H3748.35v405.85h0c-.15,37.08,24,74.24,72.43,102.48,96.6,56.31,254.66,56.31,351.26,0,53.48-31.17,77.29-73.21,71.55-114l.89,0Z"/><path class="cls-73" d="M3820.78,1925.45c-96.6-56.31-96.6-148.08,0-203.93s254.66-55.85,351.26,0,96.59,147.62,0,203.93S3917.38,1981.76,3820.78,1925.45Z"/><path class="cls-74" d="M3855.68,1905.22c-77.4-45.12-77.4-118.65,0-163.4s204.06-44.76,281.46,0,77.4,118.28,0,163.4S3933.08,1950.34,3855.68,1905.22Z"/></svg>