<svg width="32" height="32" viewBox="0 0 32 32" fill="none" xmlns="http://www.w3.org/2000/svg">
<path d="M22.0808 13.6724H21.5638V17.7382C21.5638 18.0815 21.3441 18.3853 21.0188 18.495C20.5005 18.6706 19.8777 18.8324 19.3691 18.9173V19.8463C19.8979 19.7567 20.4261 19.6207 20.938 19.4541C21.4014 19.3019 21.8598 19.1247 22.2876 18.8898C22.3952 18.8293 22.4628 18.7106 22.4629 18.5869C22.4372 16.5816 22.5093 13.8155 22.4341 13.3154C22.4358 13.5123 22.2771 13.6724 22.0808 13.6724Z" fill="#FFA230"/>
<path d="M22.0813 13.6725C22.2775 13.6725 22.4362 13.5124 22.4345 13.3156C22.3743 13.1586 22.2241 13.0469 22.0485 13.0469H16.6624L15.498 13.6725H21.5643H22.0813Z" fill="white"/>
<path d="M21.6328 24.9331C21.3341 24.8733 21.0062 24.924 20.7447 25.07V25.1116L21.1845 25.6142C21.2897 25.7294 21.1997 25.9243 21.0454 25.9204C20.9939 25.9204 20.9427 25.8992 20.9062 25.8574L20.4319 25.3149C20.2294 25.5343 20.1216 25.8169 20.1293 26.1082C20.1327 26.2364 19.9641 26.2977 19.8711 26.2101C20.0869 26.5339 20.452 26.7474 20.8649 26.7474C21.8561 26.7521 22.4165 25.5715 21.8175 24.792C21.8198 24.8751 21.7372 24.9538 21.6328 24.9331Z" fill="#FF8D8A"/>
<path d="M20.7451 25.0709C20.9352 24.9663 21.1529 24.9094 21.3778 24.9094C21.4643 24.9094 21.5497 24.9179 21.6332 24.934C21.7375 24.9547 21.8201 24.8761 21.8179 24.7929C21.5792 24.4708 21.1658 24.2735 20.7451 24.3203V25.0709Z" fill="white"/>
<path d="M19.5215 5.59774V7.8374C19.5215 8.01529 19.6357 8.17311 19.8049 8.22825C19.9785 8.27907 20.225 8.44421 20.2803 8.68784C20.2973 8.92625 20.2888 11.0208 20.2791 12.3702C20.2783 12.4921 20.3306 12.6015 20.4143 12.6773H20.7554C20.8708 12.6791 20.9697 12.576 20.9672 12.4607C20.966 11.4288 20.9653 10.0993 20.9675 9.12933C20.9619 8.48489 20.8592 7.89857 20.1556 7.55854C20.0331 7.49915 19.9573 7.37895 19.9573 7.24461C19.9563 7.24301 19.9604 5.26008 19.9553 5.25978C19.9553 5.25977 19.6985 5.25977 19.6985 5.25977C19.5916 5.33416 19.5215 5.45746 19.5215 5.59774Z" fill="#2BAEFF"/>
<path d="M20.1291 26.1086C20.1214 25.8173 20.2291 25.5347 20.4317 25.3153C20.3965 25.2796 20.3747 25.2318 20.3751 25.1813V24.4199C19.7066 24.7153 19.4523 25.604 19.8709 26.2105C19.9639 26.2981 20.1324 26.2368 20.1291 26.1086Z" fill="white"/>
<path d="M19.3689 7.8374C19.3689 8.01529 19.2821 8.17311 19.1537 8.22825C19.0742 8.26277 18.9286 8.34733 18.8446 8.52947C18.8053 8.61489 18.7934 8.67258 18.7923 8.68784C18.7795 8.92612 18.7858 11.0257 18.7931 12.3738C18.7931 12.4943 18.7535 12.6024 18.6904 12.6773H20.4145C20.3308 12.6015 20.2785 12.4921 20.2793 12.3702C20.2889 11.0208 20.2974 8.92626 20.2804 8.68784C20.2253 8.4441 19.9777 8.27861 19.805 8.22826C19.6359 8.17312 19.5216 8.0153 19.5216 7.83741V5.59774C19.5216 5.45746 19.5918 5.33416 19.6987 5.25977H19.2886C19.2878 5.26064 19.2875 5.26206 19.2875 5.26373V5.32115C19.3378 5.39411 19.3689 5.49085 19.3689 5.59774L19.3689 7.8374Z" fill="#77D2FF"/>
<path d="M18.2782 12.1276L18.2779 12.46C18.2754 12.5757 18.374 12.6795 18.49 12.6774H18.6911C18.7542 12.6025 18.7938 12.4945 18.7938 12.374C18.7865 11.0258 18.7802 8.92627 18.7929 8.68797C18.8298 8.4665 19.0019 8.28766 19.1544 8.22839C19.2828 8.17325 19.3696 8.01543 19.3696 7.83754V5.59788C19.3696 5.49098 19.3385 5.39424 19.2881 5.32129V7.24475C19.2881 7.37938 19.2118 7.49958 19.089 7.55868C19.0183 7.59318 18.9536 7.62995 18.8945 7.66898C18.3388 8.03247 18.2769 8.61332 18.2773 9.19338C18.2798 9.67879 18.2792 11.0963 18.2782 12.1276Z" fill="white"/>
<path d="M18.9774 19.2433C18.9774 19.3293 18.9234 19.4062 18.8428 19.4356C18.121 19.6567 17.28 19.7955 16.408 19.862C14.8935 19.9774 13.2829 19.8561 12.0234 19.4368C11.9742 19.4181 11.9354 19.3827 11.9131 19.3386V20.1704C11.9126 20.2438 11.9526 20.3123 12.0169 20.3483C12.5355 20.5537 13.1128 20.6516 13.668 20.7256C14.2221 20.7954 14.8528 20.8323 15.3751 20.8308C16.3258 20.8181 17.5942 20.7303 18.5936 20.4487C18.6892 20.421 18.78 20.3915 18.8651 20.3604C18.9046 20.3466 18.9389 20.3196 18.9627 20.2858C18.9864 20.2521 18.9997 20.2114 18.9997 20.1684V18.4766C18.9924 18.4791 18.9847 18.4819 18.9774 18.4845L18.9774 19.2433Z" fill="#FFA230"/>
<path d="M16.3079 12.6777C16.3073 12.6641 16.3062 12.6508 16.3051 12.6375C16.294 12.6514 16.2819 12.665 16.2691 12.6777H16.3079ZM12.8122 9.97168C11.6521 10.2556 10.7485 11.2288 10.533 12.4464C10.5174 12.5341 10.4773 12.6142 10.417 12.6777H15.5493C15.4885 12.6172 15.4453 12.5414 15.4283 12.456C15.1825 11.2237 14.1423 10.2421 12.8122 9.97168Z" fill="#77D2FF"/>
<path d="M15.4286 12.4562C15.4456 12.5417 15.4888 12.6175 15.5496 12.678H16.2694C16.2821 12.6653 16.2943 12.6517 16.3053 12.6378C16.1984 10.9157 14.5115 9.55965 12.8125 9.97195C14.1426 10.2423 15.1828 11.224 15.4286 12.4562Z" fill="#2BAEFF"/>
<path d="M10.4173 12.6778C10.4776 12.6142 10.5177 12.5342 10.5332 12.4464C10.7738 11.0663 11.917 9.99836 13.2822 9.89651H12.6578C11.145 9.89013 9.86472 11.0941 9.74414 12.6108C9.75914 12.6348 9.77666 12.6571 9.7959 12.6778H10.4173ZM10.4925 25.0701C10.6772 24.9731 10.887 24.9202 11.1031 24.9202C11.1896 24.9202 11.2753 24.9284 11.3585 24.9448C11.4657 24.9658 11.5497 24.8826 11.5429 24.7972C11.3053 24.4724 10.8968 24.2835 10.4925 24.3175V25.0701Z" fill="white"/>
<path d="M11.4285 19.827C11.4599 19.8327 11.491 19.8381 11.5216 19.8434V19.7917C11.5001 19.8183 11.4653 19.8332 11.4285 19.827ZM10.3713 14.2425L11.2325 15.1823C11.3123 15.2694 11.3431 15.3867 11.3233 15.4956L14.7171 13.6729H10.6219C10.3261 13.6729 10.1714 14.0244 10.3713 14.2425Z" fill="#FFCE5D"/>
<path d="M11.1923 15.5657L11.3233 15.4953C11.3431 15.3864 11.3122 15.269 11.2325 15.1819L10.3713 14.2421C10.1713 14.024 10.326 13.6725 10.6219 13.6725H14.7171L15.8815 13.0469H8.68652L10.7981 15.4916C10.8973 15.6064 11.0594 15.6367 11.1923 15.5657Z" fill="white"/>
<path d="M10.4951 15.7064C10.3316 15.5024 9.78413 14.8785 9.04004 14.0218C9.04004 15.4088 9.04004 16.7957 9.04004 18.1827C9.70648 18.4848 10.6535 18.7677 11.4047 18.9019C11.4655 18.9132 11.5215 18.8663 11.5215 18.8043C11.529 18.7803 11.5364 18.7563 11.5439 18.7323C11.5439 18.2894 11.5439 17.8465 11.5439 17.4035C11.5524 17.1593 11.9053 17.1593 11.9135 17.4035V18.3283C11.9134 18.3286 11.9136 19.3386 11.9135 19.3389C11.9358 19.383 11.9746 19.4183 12.0238 19.437C12.9361 19.7824 14.3386 19.907 15.3532 19.9059C16.3945 19.8969 17.9333 19.7685 18.8432 19.4359C18.9238 19.4065 18.9778 19.3295 18.9778 19.2436V18.4848C18.9852 18.4822 18.9928 18.4794 19.0001 18.4768V17.4035C19.0001 17.3048 19.0776 17.2245 19.1752 17.2194C19.2804 17.2127 19.3699 17.2984 19.3695 17.4035V18.3284C19.3695 18.3284 19.3695 18.9176 19.3695 18.9178C19.878 18.833 20.5009 18.6711 21.0192 18.4955C21.3444 18.3858 21.5642 18.082 21.5642 17.7387V13.6729H15.498L11.3668 15.8916C11.263 15.9473 11.151 15.9742 11.0404 15.9742C11.0009 15.9742 10.9074 15.9761 10.8035 15.9397C10.6315 15.8794 10.5311 15.7513 10.4951 15.7064Z" fill="#FFCE5D"/>
<path d="M10.5864 24.3135C10.7159 24.3157 10.8427 24.337 10.9629 24.3754C10.8443 24.3355 10.7179 24.3135 10.5864 24.3135ZM11.3582 24.945C11.0681 24.8866 10.7492 24.9334 10.4922 25.0703V25.1119L10.9323 25.6147C11.0375 25.7296 10.9476 25.925 10.7932 25.921C10.7417 25.921 10.6908 25.8998 10.6543 25.858L10.1741 25.3093C9.96143 25.5292 9.8463 25.8212 9.85505 26.1201C9.85843 26.2437 9.7009 26.3051 9.60645 26.2304C9.82365 26.5432 10.182 26.748 10.5864 26.748C11.5751 26.7527 12.1365 25.5779 11.5426 24.7974C11.5494 24.8828 11.4654 24.9659 11.3582 24.945Z" fill="#FF8D8A"/>
<path d="M9.85493 26.1201C9.84619 25.8212 9.96132 25.5292 10.1739 25.3093C10.1411 25.275 10.1227 25.2289 10.1228 25.1814V24.4082C9.42693 24.6941 9.16327 25.615 9.60635 26.2304C9.70079 26.3051 9.85832 26.2437 9.85493 26.1201Z" fill="white"/>
<path d="M9.74435 12.6104C9.74238 12.6327 9.74068 12.655 9.73926 12.6774H9.79611C9.77687 12.6567 9.75935 12.6344 9.74435 12.6104Z" fill="#77D2FF"/>
<path d="M8.49742 18.7634C8.55543 18.8706 8.67141 18.9134 8.77515 18.9695C8.9273 18.9302 9.03987 18.7922 9.03987 18.6276C9.03984 18.4888 9.03989 14.2827 9.03987 14.0213L8.4502 13.3389C8.4516 15.703 8.4516 17.4686 8.4502 18.5875C8.45019 18.6505 8.46715 18.7111 8.49742 18.7634Z" fill="white"/>
<path d="M10.1235 19.8894V24.0144C9.47498 24.2175 9.01877 24.8317 9.01877 25.5303C9.10484 27.6352 12.0694 27.6349 12.1553 25.5303C12.1581 24.6223 11.3898 23.8889 10.4928 23.9468V22.951H20.3757V24.0226C19.734 24.2336 19.297 24.8337 19.297 25.5303C19.3831 27.6353 22.3478 27.6347 22.4338 25.5303C22.4375 24.6132 21.6503 23.8739 20.7451 23.9488V19.9016C21.4188 19.7014 22.026 19.459 22.4675 19.2129C22.6926 19.0874 22.8323 18.8475 22.8323 18.5868C22.8303 16.7343 22.832 13.7978 22.8323 13.4688C22.8323 13.3057 22.7834 13.1541 22.6991 13.0279C24.2805 10.8766 24.9276 10.9884 27.1535 11.0146C27.2559 11.0145 27.3382 10.932 27.3382 10.8299C27.3382 10.7277 27.2559 10.6452 27.1535 10.6452H25.5171C24.1796 10.7563 23.4368 11.4246 22.4262 12.7757C22.3142 12.7132 22.1852 12.6775 22.0483 12.6775H21.2966C21.3232 12.6094 21.3379 12.5361 21.3373 12.4603C21.3365 11.4631 21.3353 9.72091 21.3379 9.2599C21.341 8.68748 21.3464 7.73098 20.3274 7.23095V5.26394C20.3274 5.05805 20.1611 4.89062 19.9566 4.89062H19.2891C19.0846 4.89062 18.9183 5.05805 18.9183 5.26394V7.23096C17.8993 7.73098 17.9044 8.68749 17.9078 9.25991C17.9104 9.67905 17.9092 11.1525 17.9087 12.1274V12.4598C17.9081 12.5355 17.9228 12.6091 17.9494 12.6775H16.679C16.5854 10.8547 15.0261 9.43638 13.2088 9.52689V8.90638C13.2088 8.80429 13.1262 8.72171 13.0241 8.72171C12.922 8.72171 12.8397 8.8043 12.8397 8.90638V9.52689C11.0224 9.43613 9.46246 10.8545 9.36917 12.6775H8.66439C8.34871 12.6713 8.07353 12.9507 8.08121 13.2658C8.08206 15.6666 8.08206 17.4569 8.0812 18.5871C8.08064 18.8473 8.22035 19.0871 8.44548 19.2127C8.87793 19.4542 9.4696 19.6926 10.1235 19.8894ZM10.5859 24.3131C10.9627 24.3114 11.3221 24.4981 11.5432 24.797C12.1371 25.5775 11.5757 26.7523 10.587 26.7476C10.1826 26.7476 9.82425 26.5428 9.60705 26.23C9.16398 25.6144 9.42773 24.6936 10.1235 24.4078V25.181C10.1234 25.2285 10.1419 25.2746 10.1747 25.3089L10.6549 25.8575C10.6914 25.8994 10.7423 25.9206 10.7938 25.9206C10.9481 25.9245 11.0382 25.7293 10.9329 25.6143L10.4928 25.1114V25.0699V24.3173C10.524 24.3148 10.5548 24.3131 10.5859 24.3131ZM10.4928 22.5816V19.9938C10.8605 20.092 11.2183 20.1697 11.5463 20.2218C11.5664 20.4381 11.7093 20.6293 11.9149 20.7074C12.879 21.0719 14.3399 21.2016 15.3893 21.2C16.4598 21.1899 18.0413 21.055 18.9919 20.7076C19.2009 20.6316 19.3463 20.4404 19.3666 20.2218C19.68 20.1717 20.0233 20.0979 20.3757 20.0048V22.5816H10.4928ZM20.8653 24.3131C21.5344 24.313 22.0659 24.8702 22.0642 25.5303C22.0552 26.7309 20.5325 27.1962 19.8715 26.2102C19.4529 25.6038 19.7073 24.7149 20.3757 24.4197V25.181C20.3753 25.2316 20.3971 25.2793 20.4323 25.3151L20.9066 25.8575C20.9431 25.8994 20.9943 25.9206 21.0457 25.9206C21.1999 25.9244 21.2902 25.7296 21.1849 25.6143L20.7451 25.1117V25.0702V24.3196C20.785 24.3156 20.8251 24.3131 20.8653 24.3131ZM18.2826 8.93977C18.3055 8.44341 18.4203 7.98098 18.8943 7.66905C18.9534 7.63002 19.0182 7.59325 19.0889 7.55875C19.2117 7.49965 19.288 7.37945 19.288 7.24482V5.32136V5.26394C19.288 5.26253 19.2883 5.26167 19.2886 5.26083C19.2889 5.26026 19.2891 5.25998 19.2891 5.25998C19.4479 5.25973 19.8008 5.26015 19.956 5.25998C19.9618 5.25662 19.956 7.24472 19.958 7.24481C19.958 7.37915 20.0338 7.49935 20.1563 7.55874C20.6529 7.79942 20.8489 8.1603 20.9241 8.57406C20.9575 8.75664 20.966 8.94363 20.9683 9.12953C20.9663 10.0983 20.9665 11.4304 20.968 12.4609C20.9704 12.5759 20.8715 12.6796 20.7561 12.6775C20.5598 12.675 18.9298 12.6793 18.691 12.6775L18.4899 12.6775C18.374 12.6793 18.2752 12.576 18.2778 12.46C18.2847 11.2377 18.2698 9.69756 18.2826 8.93977ZM9.7445 12.6105C9.86507 11.0938 11.1454 9.88987 12.6581 9.89627L13.2826 9.89626C14.8714 9.83938 16.216 11.0922 16.3085 12.6775C15.2892 12.6775 10.7665 12.6775 9.7394 12.6775C9.74083 12.6552 9.74252 12.6328 9.7445 12.6105ZM15.8814 13.0469C15.0163 13.5119 12.1029 15.0764 11.1923 15.5657C11.0593 15.6367 10.8973 15.6064 10.798 15.4916L8.68647 13.0469H15.8814ZM8.45032 13.339C8.82471 13.7678 10.1202 15.2751 10.5186 15.7331C10.655 15.8906 10.8453 15.9731 11.0404 15.9738C11.151 15.9738 11.263 15.9469 11.3668 15.8912C12.2376 15.4221 15.8711 13.4731 16.6623 13.0469H22.0483C22.224 13.0469 22.3741 13.1586 22.4344 13.3156C22.5078 13.8107 22.4387 16.5854 22.4633 18.5871C22.4632 18.7108 22.3954 18.8294 22.2879 18.89C21.8601 19.1248 21.4017 19.302 20.9383 19.4542C20.4264 19.6208 19.8982 19.7568 19.3694 19.8465C19.3694 19.4848 19.3694 18.6821 19.3694 18.328V17.4032C19.3694 17.3011 19.2869 17.2185 19.1848 17.2185C19.0836 17.2193 18.9999 17.3007 19.0001 17.4032C19.0001 18.0408 19.0001 19.5171 19.0001 20.1683C19.0003 20.243 18.959 20.3116 18.8946 20.3473C18.6386 20.4493 18.3566 20.5149 18.0829 20.5727C16.7412 20.8223 15.5232 20.8834 14.2218 20.7826C13.6375 20.7332 13.0508 20.6535 12.4842 20.5018C12.3292 20.4599 12.1821 20.4132 12.0461 20.3618C11.9673 20.3326 11.9121 20.2545 11.9134 20.1703C11.912 19.7184 11.9145 18.7835 11.9134 18.328V17.4032C11.9134 17.3011 11.8306 17.2185 11.7285 17.2185C11.6274 17.2192 11.5435 17.3007 11.5438 17.4032C11.5438 17.9223 11.5438 19.312 11.5438 19.847C10.9746 19.7493 10.4103 19.6023 9.86328 19.4185C9.43344 19.2722 9.01349 19.1044 8.62565 18.89C8.51669 18.8294 8.45039 18.7125 8.45031 18.5876C8.45172 17.4688 8.45172 15.7031 8.45032 13.339Z" fill="#2D1400"/>
<path d="M11.5216 18.8043C11.5216 18.8662 11.4656 18.9131 11.4048 18.9018C10.6536 18.7676 9.70649 18.4847 9.04011 18.1826V18.6281C9.04011 18.7927 8.92755 18.9307 8.77539 18.97C9.35882 19.2663 10.0105 19.4846 10.6494 19.6533C10.9269 19.7266 11.1432 19.7709 11.2226 19.7871C11.3501 19.813 11.4596 19.8329 11.5439 19.8473C11.5439 19.4655 11.5439 19.0837 11.5439 18.7019C11.5365 18.736 11.529 18.7701 11.5216 18.8043Z" fill="#FFA230"/>
</svg>
