<svg xmlns="http://www.w3.org/2000/svg" viewBox="0 0 32 32"><g data-name="Sauna"><path fill="#a1d8df" d="M28,25c0,3.31-5.37,6-12,6S4,28.31,4,25V18H28Z"/><ellipse cx="16" cy="18" fill="#30acc2" rx="12" ry="6"/><ellipse cx="16" cy="18" fill="#68c7d3" rx="10" ry="4"/><path fill="#d1e6e9" d="M16,10a3,3,0,0,1-3-3V4h6V7A3,3,0,0,1,16,10Z"/><rect width="2" height="3" x="15" y="9" fill="#d1e6e9"/><path fill="#d1e6e9" d="M21,19H11V13.56a2,2,0,0,1,1.51-1.94c3-.74,2-.62,4.49-.62l2.49.62A2,2,0,0,1,21,13.56Z"/><rect width="6" height="5" x="13" y="14" fill="#a1d8df"/><path fill="#30acc2" d="M9.68,19a1,1,0,0,1,.64-1.9,18.09,18.09,0,0,0,11.36,0,1,1,0,0,1,.64,1.9A20.16,20.16,0,0,1,9.68,19Z"/><path fill="#68c7d3" d="M19.45,4.65,19,6c-6.67-2.87-6.13-2.59-6.38-2.8a2,2,0,0,1,.93-1c2.58-1.28,2.15-1.37,4.9,0A2,2,0,0,1,19.45,4.65Z"/><path fill="#30acc2" d="M19.38,3.2c-.26.21.07,0-6.38,2.8l-.45-1.35a2,2,0,0,1,1-2.43c1.65-.82,2.27-1.31,3.34-.78C18.3,2.15,19,2.35,19.38,3.2Z"/><path fill="#a1d8df" d="M3 13H1c0-2 1.69-2.08.7-3.4a3 3 0 0 1 0-3.87A1 1 0 0 0 2 5H4C4 6.68 3 6.85 3 7.66s1 1 1 2.67S3 12.18 3 13zM8 9H6c0-2 1.69-2.08.7-3.4a3 3 0 0 1 0-3.87A1 1 0 0 0 7 1H9C9 2.68 8 2.85 8 3.66s1 1 1 2.67S8 8.18 8 9zM31 13H29a1 1 0 0 0-.3-.73 3 3 0 0 1 0-3.87C29.69 7.08 28 7 28 5h2c0 .83 1 1 1 2.66s-1 1.85-1 2.67S31 11.34 31 13zM26 9H24a1 1 0 0 0-.3-.73 3 3 0 0 1 0-3.87C24.69 3.08 23 3 23 1h2c0 .83 1 1 1 2.66s-1 1.85-1 2.67S26 7.34 26 9z"/></g></svg>