<svg xmlns="http://www.w3.org/2000/svg" viewBox="0 0 1460.64 1002"><defs><style>.cls-2,.cls-4{fill:#a998f4}.cls-3,.cls-9{fill:#4e418c}.cls-15,.cls-16,.cls-18,.cls-20,.cls-3,.cls-4,.cls-5,.cls-6{fill-rule:evenodd}.cls-12,.cls-5{fill:#584ea0}.cls-6,.cls-8{fill:#ffe2b9}.cls-18,.cls-7{fill:#fff}.cls-10,.cls-19,.cls-20{fill:#ffb188}.cls-10{opacity:.3;mix-blend-mode:multiply}.cls-11{fill:#d5c1f9}.cls-13,.cls-16{fill:#dd3646}.cls-14,.cls-15{fill:#f57a71}.cls-17{fill:#ef5c63}.cls-28{fill:#ffe5c0}.cls-23{fill:#f9c988}.cls-24{fill:#2c89ff}.cls-30{fill:#ffe888}</style></defs><g style="isolation:isolate"><g id="illustration"><path class="cls-2" d="m79.72 815.71-2.78-1.91 1.59-2.32 2.78 1.91Zm-9.27-6.36-2.78-1.91 1.59-2.31L72 807ZM61.18 803l-2.78-1.91 1.6-2.32 2.78 1.91Zm-9.27-6.36-2.79-1.92 1.62-2.3 2.76 1.9ZM43 789.4c-.8-.83-1.57-1.72-2.3-2.63l2.2-1.75c.67.84 1.39 1.67 2.13 2.45Zm-6.7-9.48c-.52-1-1-2.09-1.45-3.18l2.61-1c.41 1 .86 2 1.34 3Zm-3.72-11c-.21-1.14-.37-2.3-.49-3.45l2.8-.28c.11 1.08.26 2.16.46 3.22Zm2.31-11.31-2.8-.27c.11-1.16.28-2.32.48-3.46l2.77.51c-.23 1.07-.34 2.15-.48 3.23Zm2.55-10.5-2.61-1c.43-1.08.91-2.15 1.43-3.19l2.51 1.27c-.51.93-.96 1.92-1.36 2.93Zm5.4-9.34L40.61 736c.72-.9 1.48-1.79 2.28-2.64l2 1.93q-1.07 1.22-2.08 2.49Zm7.85-7.42L49 728.07c.93-.66 1.9-1.29 2.88-1.87l1.48 2.39c-.93.57-1.83 1.16-2.7 1.77Zm9.5-5.79-1.43-2.41 2.89-1.73 1.44 2.42Zm9.66-5.74-1.43-2.41 2.9-1.73 1.43 2.42Zm9.67-5.74-1.44-2.42L81 709l1.44 2.42Zm9.66-5.74-1.43-2.42 2.89-1.72 1.44 2.41Zm9.66-5.74-1.43-2.42 2.9-1.72 1.43 2.41Zm9.67-5.75-1.51-2.4 2.9-1.72 1.44 2.41Zm9.66-5.74-1.44-2.41 2.9-1.73 1.37 2.43Zm9.66-5.74-1.46-2.37 2.9-1.72 1.43 2.42Zm9.67-5.74-1.5-2.41 2.9-1.72 1.43 2.42Zm9.66-5.74-1.44-2.42 2.9-1.72 1.44 2.41Zm9.66-5.75-1.43-2.41 2.9-1.72 1.43 2.41Zm9.67-5.74L165 659l2.9-1.73 1.43 2.42Zm9.66-5.74-1.44-2.41 2.9-1.73L179 654Zm9.66-5.74-1.43-2.42 2.89-1.72 1.44 2.42Zm9.66-5.74-1.47-2.41 2.9-1.72 1.43 2.41Z"/><path class="cls-3" d="M1092.74 812.13 858.26 947.51C828 965 778.82 965 748.52 947.51l-663.28-383s-42.66-53-12.35-70.49l267.53-154.41c30.31-17.5 79.44-17.5 109.74 0l675.63 390.07c30.31 17.5-2.79 64.95-33.05 82.45Z"/><path class="cls-3" d="m748.16 947.3.36.21c30.3 17.49 79.43 17.49 109.74 0l1.46-.85v-49.78H748.16ZM1150.46 739.9s5.5 17.46-11.63 38.88c-8.55 10.69-23.49 20.3-46.09 33.35l1.55-31.52ZM43.45 500.34S34.54 521 55.28 544c6.48 7.21 16.79 13 30 20.56l-1.83-32.11Z"/><path class="cls-4" d="M1123.51 705.56 442.89 312.5c-26.59-15.35-74-15.66-100.63-.31L71.32 467.79c-26.59 15.35-24.45 42.66 2.15 58l681.37 393.4c26.59 15.36 69.85 15.36 96.44 0l269.81-155.77c26.6-15.35 29.01-42.51 2.42-57.86Zm-31.12 45.38L829.66 902.62c-24.66 14.24-64.65 14.24-89.31 0L80.09 521.42c-22.44-13-22.44-34 0-46.91l270.78-156.34c22.44-13 58.82-13 81.25 0l660.27 381.2c24.66 14.24 24.66 37.33 0 51.57Z"/><path class="cls-4" d="M1128.22 702 446.85 308.6c-30.56-17.64-80.11-17.64-110.67 0L66.37 464.38c-30.56 17.64-30.56 46.25 0 63.89l681.37 393.39c30.56 17.65 80.11 17.65 110.67 0l269.81-155.77c30.56-17.65 30.56-46.25 0-63.89Zm-7.11 59.79L851.3 917.56c-26.59 15.35-69.86 15.35-96.45 0L73.48 524.17c-26.59-15.35-26.59-40.33 0-55.69l269.81-155.77c26.59-15.35 69.86-15.35 96.45 0l681.37 393.39c26.59 15.35 26.59 40.33 0 55.68Z"/><path class="cls-5" d="M1128.22 702 446.85 308.6a87.27 87.27 0 0 0-14.31-6.52 77.79 77.79 0 0 1 10 4.8l682.18 393.85c28.34 16.37 28.34 42.9 0 59.27L854.05 916.25a75 75 0 0 1-6.82 3.46c-23 11.32-56.12 12.37-81 3.13a81.55 81.55 0 0 1-14.81-6.59L69.23 522.39c-28.35-16.36-28.35-42.9 0-59.26l270.63-156.25c1.48-.85 3-1.65 4.57-2.41a82.44 82.44 0 0 0-8.25 4.13L66.37 464.38c-30.56 17.64-30.56 46.25 0 63.89l681.37 393.39c30.56 17.65 80.11 17.65 110.67 0l269.81-155.77c30.56-17.65 30.56-46.25 0-63.89Z"/><path class="cls-6" d="m1110.36 703.92-674.47-389.4c-24.52-14.16-64.29-14.16-88.81 0L76.66 470.65c-24.53 14.16-24.53 37.12 0 51.28l674.46 389.4c24.53 14.16 64.29 14.16 88.82 0l270.42-156.13c24.53-14.2 24.53-37.12 0-51.28Z"/><path class="cls-3" d="m76.66 473.92 270.42-156.13c26.84-15.27 64.29-14.16 88.81 0l674.47 389.4c11.54 6.67 17.65 15.28 18.33 24 .76-9.82-5.35-19.78-18.33-27.28L435.89 314.52c-24.52-14.16-64.29-14.16-88.81 0L76.66 470.65c-13 7.49-19.09 17.46-18.33 27.27.67-8.73 6.79-17.34 18.33-24Z"/><path class="cls-7" d="m284 518.1-55.84 32.24c-8.35 4.82-21.88 4.82-30.23 0l-55.81-32.24c-8.34-4.81-8.34-12.63 0-17.45L198 468.42c8.35-4.82 21.88-4.82 30.23 0L284 500.65c8.37 4.82 8.37 12.64 0 17.45Z"/><path class="cls-8" d="m250.48 501-29.63 17.11-10.67 6.16-8.3 4.79c-2.78 1.61-2.78 4.21 0 5.81l6.52 3.77 58.67-33.87-6.52-3.77a11.16 11.16 0 0 0-10.07 0ZM245.59 498.52l-3.73-2.15c-12.32-7.11-32.16-8.14-45.75-1.85-16.08 7.43-17 21-2.88 29.2l4.36 2.51Z"/><path class="cls-8" transform="rotate(-60 191.337 493.875)" d="M190.24 488.77h2.25v10.26h-2.25z"/><path class="cls-8" transform="rotate(-29.99 186.086 490.898)" d="M177.82 489.7h16.42v2.25h-16.42z"/><path class="cls-7" d="M412.35 599.73 356.51 632c-8.34 4.82-21.88 4.82-30.22 0l-55.84-32.24c-8.35-4.82-8.35-12.63 0-17.45L326.29 550c8.34-4.82 21.88-4.82 30.22 0l55.84 32.24c8.35 4.86 8.35 12.67 0 17.49Z"/><path class="cls-8" d="m342.46 559.25-7.21 4.16-1.41.81-4.07-2.35-4.08 2.36 4.07 2.35-26.11 15.07-4.07-2.35-4.08 2.36 4.07 2.35-6.86 4c-1.33.77-1.33 2 0 2.78l44.09 25.41 45.65-26.35c4.92-2.84 4.92-7.45 0-10.29l-35.18-20.31a5.3 5.3 0 0 0-4.81 0Z"/><path class="cls-7" transform="rotate(-60 357.764 581.694)" d="M356.64 566.23h2.25v30.92h-2.25z"/><path class="cls-7" transform="rotate(-60 333.598 595.651)" d="M332.47 580.18h2.25v30.92h-2.25z"/><path class="cls-7" transform="rotate(-29.99 348.208 590.86)" d="M314.66 589.66h66.93v2.25h-66.93z"/><path class="cls-8" d="m400.21 589.82-49.28 28.45-5.86-3.38 49.29-28.46 5.85 3.39z"/><path class="cls-7" transform="rotate(-29.99 331.763 581.374)" d="M298.21 580.16h66.92v2.25h-66.92z"/><path class="cls-9" d="M891 851.74a7.27 7.27 0 0 1-3.58-.87l-12.67-7.32a2.56 2.56 0 0 1 0-4.78l12.67-7.31a7.78 7.78 0 0 1 7.15 0l12.67 7.31a2.56 2.56 0 0 1 0 4.78l-12.67 7.32a7.26 7.26 0 0 1-3.57.87Zm0-20a6.24 6.24 0 0 0-3 .7l-12.67 7.32a1.47 1.47 0 0 0 0 2.83L888 849.9a6.8 6.8 0 0 0 6 0l12.67-7.32a1.47 1.47 0 0 0 0-2.83L894 832.43a6.2 6.2 0 0 0-3-.7ZM947.6 816.91a20.23 20.23 0 0 1-9.91-2.37c-2.76-1.59-4.27-3.73-4.27-6s1.51-4.46 4.27-6c5.46-3.16 14.36-3.16 19.82 0 2.75 1.59 4.27 3.74 4.27 6s-1.52 4.45-4.27 6a20.23 20.23 0 0 1-9.91 2.37Zm-9.35-3.34c5.15 3 13.54 3 18.7 0 2.39-1.38 3.71-3.18 3.71-5.07s-1.32-3.7-3.71-5.08c-5.16-3-13.55-3-18.7 0-2.39 1.38-3.71 3.18-3.71 5.08s1.32 3.69 3.71 5.07ZM999.75 779.52l1.77-12.79a.57.57 0 0 1 .63-.48.55.55 0 0 1 .48.63l-1.57 11.39 18.87-1.69a.57.57 0 0 1 .61.51.56.56 0 0 1-.51.61Z"/><path class="cls-2" d="M1096.42 929.92c-.92 0-1.84 0-2.75-.08l.18-2.81c.85.06 1.71.08 2.57.08h.69v2.81Zm8.8-.89-.56-2.75c1-.22 2.12-.48 3.16-.78l.78 2.7c-1.11.32-2.25.6-3.38.8Zm-19.57-.45c-1.13-.28-2.25-.62-3.34-1l.9-2.67c1 .35 2.07.66 3.13.93Zm30.51-3.35-1.27-2.51q1-.53 2.07-1.11l.82-.47 1.4 2.43-.82.47c-.73.42-1.46.82-2.2 1.19Zm-41.26-1-2.94-1.69 1.41-2.43 2.91 1.68Zm51.09-4.64-1.4-2.44 2.92-1.68 1.41 2.43Zm-60.84-1-2.92-1.69 1.41-2.43 2.92 1.69Zm70.58-4.64-1.41-2.44 2.92-1.68 1.41 2.43Zm-80.31-1-2.92-1.69 1.4-2.43 2.92 1.69Zm90-4.64-1.4-2.44 2.92-1.68 1.4 2.43Zm-99.78-1-2.92-1.69 1.41-2.43 2.92 1.69Zm-9.64-5.51-2.92-1.69 1.4-2.43 2.92 1.69Zm-9.74-5.62-2.92-1.69 1.41-2.43 2.92 1.69Zm-9.73-5.62-2.92-1.69 1.4-2.43 2.92 1.68Zm-9.74-5.62-2.92-1.69 1.41-2.43 2.92 1.68Zm-9.79-5.62-2.92-1.69 1.4-2.43 2.92 1.69Z"/><path class="cls-10" d="m710.15 483.55-145.81-80.73-45.36 26.25-122.18-67.65-139.12 80.5 142.99 82.3 47.7-27.58 119.85 68.98 141.93-82.07z"/><path class="cls-11" d="m400.67 510.86-119.86-69v-225.7l119.86 69v225.7z"/><path class="cls-12" d="m358.32 486.48-35.16-20.24v-46.09l35.16 20.23v46.1z"/><path class="cls-12" d="m323.16 466.39-22.28-12.71v-46.09l22.28 12.71v46.09zM380.6 499.25l-22.28-12.71v-46.09l22.28 12.71v46.09z"/><path class="cls-2" d="m519.08 442.33-118.4 68.54V285.16l118.4-68.53v225.7z"/><path class="cls-8" d="m564.46 190.42-163.82 94.74-119.83-68.97 161.48-93.41 122.17 67.64z"/><path class="cls-12" d="M300.88 368.23v19.13l39.53 22.95v-19.12l-39.53-22.96z"/><path class="cls-12" d="M380.6 433.65v-19.12l-40.2-23.35v19.12l40.2 23.35zM300.88 329.45v19.12l39.53 22.96v-19.12l-39.53-22.96z"/><path class="cls-12" d="M380.6 394.87v-19.12l-40.2-23.35v19.12l40.2 23.35zM300.88 290.67v19.12l39.53 22.96v-19.12l-39.53-22.96z"/><path class="cls-12" d="M380.6 356.09v-19.13l-40.2-23.35v19.13l40.2 23.35zM300.88 251.88V271l39.53 22.96v-19.12l-39.53-22.96z"/><path class="cls-12" d="M380.6 317.3v-19.12l-40.2-23.35v19.12l40.2 23.35z"/><path class="cls-11" d="m568.24 552.25-119.86-69v-225.7l119.86 69v225.7z"/><path class="cls-12" d="m525.89 527.87-35.16-20.24v-46.09l35.16 20.24v46.09zM490.73 507.79l-22.28-12.71v-46.09l22.28 12.71v46.09zM548.17 540.65l-22.28-12.71v-46.09l22.28 12.71v46.09z"/><path class="cls-2" d="m686.65 483.73-118.41 68.53V326.55l118.41-68.53v225.71z"/><path class="cls-8" d="M686.65 258.06 568.2 326.55l-119.82-68.96 116.09-67.17 122.18 67.64z"/><path class="cls-12" d="M468.45 409.63v19.12l39.52 22.96v-19.12l-39.52-22.96zM548.17 475.05v-19.12l-40.2-23.35v19.12l40.2 23.35zM468.45 370.85v19.12l39.52 22.96v-19.12l-39.52-22.96z"/><path class="cls-12" d="M548.17 436.27v-19.12l-40.2-23.35v19.12l40.2 23.35zM468.45 332.06v19.12l39.52 22.96v-19.12l-39.52-22.96z"/><path class="cls-12" d="M548.17 397.48v-19.12l-40.2-23.35v19.12l40.2 23.35zM468.45 293.28v19.12l39.52 22.96v-19.12l-39.52-22.96z"/><path class="cls-12" d="M548.17 358.7v-19.12l-40.2-23.35v19.12l40.2 23.35zM635.46 448.1v-19.12l32.81-19.99v19.12l-32.81 19.99zM635.46 409.31v-19.12l32.81-19.85v19.12l-32.81 19.85zM635.46 370.52V351.4l32.81-19.85v19.13l-32.81 19.84zM635.46 331.74v-19.13l32.81-19.33v19.12l-32.81 19.34zM588.88 474.89v-19.12l32.82-18.19v19.12l-32.82 18.19zM588.88 436.11v-19.12l32.82-18.06v19.12l-32.82 18.06zM635.46 487.02V467.9l32.81-19.99v19.13l-32.81 19.98zM588.88 513.82V494.7l32.82-18.2v19.13l-32.82 18.19zM588.88 397.31v-19.12l32.82-18.05v19.12l-32.82 18.05zM588.88 358.53v-19.12l32.82-17.54v19.12l-32.82 17.54z"/><path class="cls-10" d="m296.65 492.62-114.72-66.61 21.2-12.24 114.73 66.6-21.21 12.25z"/><path class="cls-12" d="m307.9 480.66-11.25 6.53-93.44-67L192 329.11l11.25-6.54 2.83 1.64c12 6.92 19.27 7 26.3 7 6.77.06 13.76.11 24.16 6.12s16.9 13.5 23.91 21.51c7.18 8.21 14.61 16.7 26.55 23.59l.94.54Z"/><path class="cls-7" d="m294.76 483.93-100.91-58.27v-93.29c24 13.85 29.75 1.21 50.46 13.17s26.82 31.45 50.45 45.1Z"/><path class="cls-2" d="M296.65 487.19 192 426.75v-97.64l2.83 1.63c12 6.93 19.27 7 26.3 7 6.77.06 13.76.12 24.16 6.12s16.9 13.5 23.91 21.51c7.18 8.21 14.61 16.7 26.55 23.59l.94.55Zm-100.91-62.62 97.14 56.09v-88.94c-11.92-7.1-19.36-15.6-26.56-23.83-6.8-7.76-13.22-15.1-23-20.72-9.54-5.51-15.73-5.56-22.3-5.61-6.95-.06-14.12-.12-25.32-6Z"/><path class="cls-13" d="m272.54 420.76 6.68 4.95-2.98 1.73-1.85.91 1.16 8.3-2.98 1.73-3-8.77-5.96.17 1.13-6.99-7.82-6.47 2.98-1.72 6.52 2.66.15-3.45 2.98-1.73 2.99 8.68z"/><path class="cls-14" d="m269.56 422.49 6.68 4.95-4.82 2.64 1.15 8.3-5.98-7.04-5.96.17 1.13-6.99-4.84-8.2 6.68 2.73 2.97-5.24 2.99 8.68z"/><path class="cls-13" d="m248.78 407.05 6.67 4.95-2.97 1.74-1.85.9 1.15 8.3-2.97 1.73-3-8.77-5.97.17 1.13-6.99-7.81-6.46 2.97-1.74 6.53 2.67.15-3.45 2.97-1.73 3 8.68z"/><path class="cls-14" d="m245.8 408.78 6.68 4.96-4.82 2.63 1.15 8.3-5.98-7.04-5.96.17 1.13-6.99-4.84-8.19 6.67 2.72 2.98-5.24 2.99 8.68z"/><path class="cls-13" d="m225.01 393.34 6.68 4.96-2.98 1.73-1.84.91 1.15 8.3-2.98 1.73-3-8.78-5.96.18 1.13-6.99-7.81-6.47 2.97-1.73 6.52 2.67.15-3.45 2.98-1.73 2.99 8.67z"/><path class="cls-14" d="m222.04 395.07 6.67 4.96-4.82 2.64 1.15 8.3-5.97-7.05-5.97.18 1.13-6.99-4.83-8.2 6.67 2.73 2.97-5.24 3 8.67z"/><path class="cls-13" d="m259.6 434.3 6.68 4.96-2.98 1.73-1.85.9 1.16 8.31-2.98 1.73-3-8.78-5.96.18 1.13-7-7.82-6.46 2.98-1.73 6.52 2.67.15-3.45 2.98-1.73 2.99 8.67z"/><path class="cls-14" d="m256.63 436.03 6.67 4.96-4.82 2.64 1.15 8.3-5.97-7.05-5.97.18 1.13-6.99-4.84-8.2 6.68 2.73 2.97-5.24 3 8.67z"/><path class="cls-13" d="m235.84 420.6 6.67 4.95-2.97 1.74-1.85.9 1.15 8.3-2.97 1.73-3-8.77-5.97.17 1.13-6.99-7.81-6.46 2.97-1.74 6.53 2.67.15-3.45 2.97-1.73 3 8.68z"/><path class="cls-14" d="m232.86 422.33 6.68 4.96-4.82 2.63 1.15 8.3-5.98-7.04-5.96.17 1.13-6.99-4.84-8.19 6.67 2.72 2.98-5.24 2.99 8.68z"/><path class="cls-12" d="m209.72 352.71 3.59 2.07v6.53l4.9 2.83-2.07-5.32 2.07-1.21 3.57 2.06v17.14L219.7 378l-1.49-3.27v-7l-4.9-2.83v7l-2.07 1.21-1.52-3.28-2.07-15.93ZM225.5 366s2.14-1.24 2.27-1.3c1.17-.55 2.74-.29 4.57.77a14.53 14.53 0 0 1 6.83 12.73c0 2.87-.72 4.73-2 5.55-.14.1-2.12 1.27-2.12 1.27s-5.47-.89-7.45-3.7c-2.23-3.21-2.1-15.32-2.1-15.32Zm6.26 3.72s-1-1.27-1.52-.88c-.68.51-1.06 1.72-1.06 3.59 0 3.31 1.2 6.12 3.16 7.26 1.59.92 2.69.16 3-1.92.14-.48-3.58-8.05-3.58-8.05ZM246.69 377.44l-4-2.32-2.07-2.22 2.07-1.21 11.66 6.73v3.42l-2.08 1.21-2-3.54v13.72l-2.07 1.21-1.51-3.28ZM258.18 380.61l9.45 5.46v3.43l-2.08 1.21-3.79-4.6v3.18l5 2.87v3.46l-2.08 1.21-2.91-4.09v3.63l6.09 3.52v3.45l-2.08 1.21-7.59-6.79-2.08-15.94ZM271.57 388.35l3.58 2.07v13.7l5.81 3.35v3.45l-2.07 1.21-7.32-6.63-2.07-15.94Z"/><path class="cls-2" d="m207.65 353.92 3.59 2.07v6.53l4.9 2.83v-6.53l3.56 2.06V378l-3.56-2v-7l-4.9-2.83v7l-3.59-2.07ZM223.44 371.53c0-5.62 2.76-7.2 6.83-4.86a14.56 14.56 0 0 1 6.83 12.74c0 5.61-2.77 7.38-6.83 5s-6.83-7.27-6.83-12.88Zm10 5.77c0-3.31-1.22-6-3.18-7.1s-3.16.12-3.16 3.44 1.2 6.12 3.16 7.26 3.19-.28 3.19-3.6ZM244.62 378.65l-4-2.32v-3.43l11.65 6.72v3.43l-4-2.33v13.72l-3.58-2.07ZM256.1 381.82l9.45 5.46v3.43l-5.86-3.39v3.18l5 2.87v3.46l-5-2.88v3.63l6.08 3.52v3.45L256.1 399ZM269.5 389.56l3.58 2.07v13.69l5.81 3.36v3.45l-9.39-5.42Z"/><path class="cls-9" d="M296.65 389.55v97.64l11.25-6.53v-97.65l-11.25 6.54z"/><path class="cls-10" d="m1243.86 932.78 179.42-103.45c7.07-4.08 7.07-10.7 0-14.79L1349.55 772c-7.08-4.08-18.54-4.08-25.61 0l-179.42 103.43c-7.08 4.08-7.08 10.7 0 14.78l73.73 42.57c7.07 4.09 18.54 4.09 25.61 0Z"/><path class="cls-15" d="M1184.41 794a29.06 29.06 0 0 1 1.81-3.18 1.62 1.62 0 0 1 1.74.12l6.78 3.91a5.18 5.18 0 0 1 2.35 4.06v1.43a1.55 1.55 0 0 1-.83 1.58l-2.77 1.47-5.32-5.5-.21-.12a4.89 4.89 0 0 1-1.73-1.89Z"/><path class="cls-16" d="m1186.3 799.7 5.94 3.44c1.15.66 2.07.13 2.07-1.18v-1.25a4.55 4.55 0 0 0-2.07-3.57l-5.94-3.43c-1.14-.66-2.07-.13-2.07 1.18v1.25a4.54 4.54 0 0 0 2.07 3.56Z"/><path class="cls-3" d="m1243.64 922.45-16.72-9.54v-11.08l17.01 8.77-.29 11.85zM1374.2 847.05l-16.71-9.53v-11.09l17.01 8.77-.3 11.85z"/><path class="cls-17" d="M1144.9 847.57c-.64 7.11 1 9.85 3.86 11.5l35.24 20.77c.31.18.92.47 1.24.63a65.94 65.94 0 0 0 20.49 6.8 24.49 24.49 0 0 0 20.58-6.43c14.59-13.88 42.77-41.34 51.79-56.69a184.69 184.69 0 0 1 18.43-26.43c15.91-20.07 50.8-34.44 69.2-39.06 11.22-2.81 35.79 4.1 46-1.23 4.35-2.29 5-6.42.8-10.75 2.85 1.52 8.41 4.27 11.49 14.56.44 1.47 1.91 8.74 2.2 10.38.83 4.59 1.57 8.55 1.59 8.9.37 5.3-.59 13.26-3.17 18.41a12 12 0 0 1-2.54 3.57l-22.12 20.18-155.71 89.9a5.17 5.17 0 0 1-4.23.1c-16.56 4.63-38.71 3.11-53.61-4.93-.31-.17-.64-.34-.95-.52L1150.14 887c-15.26-8.86-14.78-28.95-5.24-39.43Z"/><path class="cls-5" d="M1360.2 765.19c-8.22 2.93-18.18 8-27.89 14-11.56 7.13-25.08 14.32-32.83 22.64s-27.13 40-30.08 43.48c3-.5 9.47-1.1 9.47-1.1l50.62-32.58 47.63-29.83 9.23-11.52c-8.57-3.91-14.83-9.13-26.15-5.09Z"/><path class="cls-3" d="m1286.18 820.01-1.59 20.48-5.72 3.68-9.47 1.1 16.78-25.26z"/><path class="cls-16" d="m1317.38 825.78 2.14-1.23c1-.55 1.74.06 1.74 1.35v1.8a4.2 4.2 0 0 1-1.74 3.35l-2.14 1.24c-1 .55-1.73-.06-1.73-1.35v-1.8a4.22 4.22 0 0 1 1.73-3.36Z"/><path class="cls-5" d="m1314.74 829.3 8.75-5c.44-.25.79 0 .79.61v.39a1.9 1.9 0 0 1-.79 1.52l-8.75 5.06c-.44.25-.79 0-.79-.62v-.38a1.91 1.91 0 0 1 .79-1.58Z"/><path class="cls-16" d="m1366.39 795.08 2.15-1.23c1-.55 1.73 0 1.73 1.35v1.8a4.22 4.22 0 0 1-1.73 3.35l-2.15 1.24c-1 .55-1.73-.06-1.73-1.36v-1.79a4.22 4.22 0 0 1 1.73-3.36Z"/><path class="cls-5" d="m1363.75 798.6 8.76-5.06c.43-.25.78 0 .78.62v.38a1.93 1.93 0 0 1-.78 1.53l-8.76 5.06c-.44.25-.79 0-.79-.62v-.39a1.9 1.9 0 0 1 .79-1.52Z"/><path class="cls-16" d="M1138.39 861.92c1 7.18 4.12 13 11.61 17.35l35.42 20.36c.31.18.63.35.95.52 12.91 7 31.28 9 46.73 6.45 1.76-14.12 10.2-28.94 20.36-34.8 8.18-4.72 15.25-2.36 18.61 5.05.5 1.11.93 2.44 1.35 3.65.87 2.47.95 2.46 3.5.89 9.44-5.8 50-30.55 50-30.55s26.73-15.51 35.25-22.35c2.16-1.74 2.23-1.55 2.9-4.08a57.15 57.15 0 0 1 4-10.47c3.77-7.62 9.13-14.12 15.07-17.55 10-5.79 18.39-.92 20.28 10.85.78 4.83.63 5.44 4.58 2l17.42-15.14c-.94 3.5-2.36 6.59-4.29 8.36l-22.12 20.17-152.6 88.13s-10 3.22-14.64 3.53c-15.37 2.48-33.53.39-46.33-6.52-.32-.17-.64-.34-.95-.52L1150 886.9c-10.15-5.85-13-15.42-11.61-24.98ZM1424 761.24l-1.19.56a5.3 5.3 0 0 0-2.33 4.49l.67 5c.21 1.59 1 2.56 2.32 1.82l2.73-1.47c-.69-3.84-1.75-7.72-2.2-10.4Z"/><path class="cls-3" d="M1384.05 801.06c9.68-5.59 17.53.54 17.53 13.7a38.23 38.23 0 0 1-.77 7.45l-.89.8-32.56 18.8a26 26 0 0 1-.84-6.81c0-13.15 7.85-28.35 17.53-33.94Z"/><ellipse class="cls-12" cx="1384.05" cy="824.88" rx="24.28" ry="13.66" transform="rotate(-67.8 1384.033 824.877)"/><path class="cls-18" d="M1384.05 839.53c5.94-3.43 10.79-12.81 10.79-20.88s-4.85-11.86-10.79-8.43-10.79 12.81-10.79 20.89 4.85 11.89 10.79 8.42Z"/><path class="cls-3" d="M1384.05 823c.78-.45 1.41 0 1.41 1.1a3.41 3.41 0 0 1-1.41 2.72c-.78.45-1.41 0-1.41-1.1a3.38 3.38 0 0 1 1.41-2.72Zm-1 .08c-.31.42-.71.51-.88.19a1.4 1.4 0 0 1 .23-1.34c.31-.42.71-.51.89-.19a1.4 1.4 0 0 1-.24 1.34Zm3.93-2.13a1.4 1.4 0 0 1-.23 1.34c-.31.43-.71.51-.89.19a1.41 1.41 0 0 1 .24-1.34c.31-.42.71-.51.88-.19Zm-4.68 6.38a1.4 1.4 0 0 1-.24 1.34c-.31.43-.71.51-.88.19a1.4 1.4 0 0 1 .23-1.34c.31-.42.71-.51.89-.19Zm3.46.56c-.31.42-.71.5-.89.18a1.41 1.41 0 0 1 .24-1.34c.31-.42.71-.5.88-.19a1.42 1.42 0 0 1-.23 1.35Zm-1.71-14.89a8.75 8.75 0 0 1 1.62-.73l-.7 3.46-.73 3.63a.51.51 0 0 1-.13.24c-.1.11-.21.09-.25 0l-.73-2.77-.7-2.66a11.6 11.6 0 0 1 1.62-1.14Zm2.9-1a4.52 4.52 0 0 1 2.81.58l-1.74 3.17-1.81 3.32a.35.35 0 0 1-.17.17c-.11 0-.17-.08-.15-.24l.54-3.58.57-3.42Zm3.74 1.31-1.6 3.28-1.67 3.43c-.07.15-.07.31 0 .36s.12 0 .18 0l2.4-2.13 2.31-2a6.81 6.81 0 0 0-1.63-2.88Zm2 4.41a14.2 14.2 0 0 1 .15 2.12 20 20 0 0 1-.15 2.3l-2.26.34-2.35.36c-.06 0-.11 0-.13-.1a.48.48 0 0 1 .13-.4l2.35-2.36 2.26-2.26Zm-.34 6.34a23.68 23.68 0 0 1-1.63 4.76l-1.6-1.43-1.67-1.5a.27.27 0 0 1-.05-.21.43.43 0 0 1 .24-.34l2.4-.65 2.31-.63Zm-2.56 6.56-1.74-1.17-1.81-1.22a.14.14 0 0 0-.17 0 .47.47 0 0 0-.15.4l.54 3 .52 2.83a20.33 20.33 0 0 0 2.81-3.84Zm-4.09 5a10.89 10.89 0 0 1-1.62 1.15 8.75 8.75 0 0 1-1.62.73l.7-3.47.73-3.62a.43.43 0 0 1 .25-.32.14.14 0 0 1 .13.11l.73 2.8.7 2.65Zm-4.52 2.15a4.52 4.52 0 0 1-2.81-.58l1.74-3.18 1.81-3.31c.08-.15.2-.21.27-.15a.23.23 0 0 1 0 .21l-.54 3.58-.52 3.43Zm-3.74-1.31 1.6-3.28 1.67-3.43a.5.5 0 0 0 0-.26c0-.13-.13-.16-.24-.07l-2.4 2.12-2.31 2a6.87 6.87 0 0 0 1.63 2.88Zm-2-4.41a14.24 14.24 0 0 1-.15-2.13 17.84 17.84 0 0 1 .15-2.29l2.26-.34 2.35-.36c.1 0 .16.09.13.25a.5.5 0 0 1-.13.25l-2.35 2.36-2.26 2.26Zm.34-6.34a23.68 23.68 0 0 1 1.63-4.76l1.6 1.43 1.67 1.5c.07.06.07.23 0 .38a.3.3 0 0 1-.18.16l-2.4.66-2.31.63Zm2.56-6.57 1.74 1.17 1.81 1.23c.08.05.2 0 .27-.18a.43.43 0 0 0 0-.26l-.54-3-.52-2.83a20.25 20.25 0 0 0-2.76 3.88ZM1238.13 913.35a18 18 0 0 1-2 .44 26 26 0 0 1-.19-3.38c0-13.16 7.85-28.35 17.53-33.94s17.53.53 17.53 13.69a34.48 34.48 0 0 1-.77 7.43l-30.15 17.72c-.54-1.12-1.22-2.18-1.95-1.96Z"/><path class="cls-5" d="M1253.44 921.51c8.61-5 15.63-18.55 15.63-30.25s-7-17.17-15.63-12.2-15.62 18.55-15.62 30.25 7.02 17.17 15.62 12.2Z"/><path class="cls-18" d="M1253.44 914.94c5.94-3.43 10.79-12.81 10.79-20.88s-4.85-11.86-10.79-8.43-10.78 12.81-10.78 20.88 4.84 11.86 10.78 8.43Z"/><path class="cls-3" d="M1253.44 898.37c.78-.45 1.41 0 1.41 1.1a3.41 3.41 0 0 1-1.41 2.73c-.78.45-1.41-.05-1.41-1.1a3.41 3.41 0 0 1 1.41-2.73Zm-1 .09c-.31.42-.7.51-.88.19a1.4 1.4 0 0 1 .24-1.34c.31-.43.7-.51.88-.19a1.38 1.38 0 0 1-.24 1.34Zm3.94-2.13a1.4 1.4 0 0 1-.24 1.34c-.31.42-.71.51-.89.19a1.4 1.4 0 0 1 .24-1.34c.31-.42.71-.51.89-.19Zm-4.69 6.38a1.4 1.4 0 0 1-.24 1.34c-.31.42-.7.51-.88.19a1.4 1.4 0 0 1 .24-1.34c.31-.42.7-.51.88-.19Zm3.46.55c-.31.42-.71.51-.89.19a1.4 1.4 0 0 1 .24-1.34c.31-.42.71-.51.89-.19a1.4 1.4 0 0 1-.24 1.34Zm-1.68-14.87a8.61 8.61 0 0 1 1.63-.74l-.71 3.47-.73 3.62a.55.55 0 0 1-.13.25c-.1.1-.21.09-.24 0l-.74-2.78-.7-2.65a11.35 11.35 0 0 1 1.62-1.14Zm2.9-1a4.53 4.53 0 0 1 2.81.59l-1.73 3.17-1.82 3.32a.33.33 0 0 1-.17.16c-.11 0-.17-.07-.15-.23l.54-3.58.52-3.43Zm3.74 1.32-1.6 3.27-1.67 3.43c-.07.15-.06.32 0 .37a.14.14 0 0 0 .17 0l2.41-2.12 2.3-2a6.75 6.75 0 0 0-1.63-2.88Zm2 4.41a14.1 14.1 0 0 1 .15 2.12 17.84 17.84 0 0 1-.15 2.29l-2.25.35-2.36.36c-.06 0-.1 0-.12-.1a.47.47 0 0 1 .12-.41l2.36-2.35 2.25-2.26Zm-.34 6.34a23.9 23.9 0 0 1-1.63 4.76l-1.6-1.44-1.67-1.5a.22.22 0 0 1 0-.21.4.4 0 0 1 .23-.33l2.41-.66 2.3-.62Zm-2.56 6.56-1.73-1.17-1.82-1.22a.14.14 0 0 0-.17 0 .5.5 0 0 0-.15.4l.54 3 .52 2.83a19.93 19.93 0 0 0 2.81-3.83Zm-4.08 5a11.43 11.43 0 0 1-1.63 1.14 8.47 8.47 0 0 1-1.62.73l.7-3.46.74-3.62a.4.4 0 0 1 .24-.32.12.12 0 0 1 .13.1l.73 2.77.71 2.66Zm-4.52 2.15a4.56 4.56 0 0 1-2.82-.59l1.74-3.17 1.81-3.32c.08-.14.2-.21.28-.14a.23.23 0 0 1 0 .21l-.54 3.58-.51 3.43Zm-3.75-1.32 1.6-3.27 1.67-3.43a.54.54 0 0 0 0-.27c0-.13-.13-.16-.23-.06l-2.41 2.12-2.3 2a6.74 6.74 0 0 0 1.62 2.88Zm-2-4.41a14.1 14.1 0 0 1-.15-2.12 17.84 17.84 0 0 1 .15-2.29l2.25-.35 2.35-.36c.11 0 .16.1.13.26a.5.5 0 0 1-.13.25l-2.35 2.35-2.25 2.26Zm.34-6.34a23.87 23.87 0 0 1 1.62-4.76l1.6 1.44 1.67 1.5c.07.06.07.23 0 .38a.36.36 0 0 1-.17.16l-2.41.66-2.3.62Zm2.55-6.56 1.74 1.17 1.81 1.22c.08.06.2 0 .28-.17a.44.44 0 0 0 0-.27l-.54-3-.51-2.83a20 20 0 0 0-2.8 3.9Z"/><path class="cls-7" d="m1155.88 882.46 23.06 13.37v-6.69l-23.06-13.37v6.69z"/><path class="cls-15" d="M1145.52 846.07a32.38 32.38 0 0 1 6.23-8.11c14.24-13.52 38.06-38.09 51.42-52.46 7.45-8 19.27-21.87 22.33-24.26 26.36-15.65 57.52-34.31 75-40.12 9.79-3.26 27.65 0 39.07-2.56l.37-.08.35-.09h.22c12.65-3.82 26.19 2 32.33 5.31l3.38 2L1413 747s9.45 6.27-.06 10.86c-10.35 5-38.84-2.19-49.78 1.6s-36.4 18-61 34c-8 5.24-18 23.06-25.61 35.35-10.53 17.11-34.6 38.78-49.13 52.58a23.91 23.91 0 0 1-20.2 6.34 70.73 70.73 0 0 1-17.14-5c-10.21-4.49-33.18-18.33-41.23-23.7a10.22 10.22 0 0 1-3.33-12.96Z"/><path class="cls-9" d="M1192.61 799.15c.7 2.45.28 6.51 2.54 8 9.06 6 33.19 21.11 44.67 26.15a78.79 78.79 0 0 0 19.28 5.57 11 11 0 0 0 7.56-2.22c-.6.79-2.09 2.72-3.27 4.05a7.09 7.09 0 0 1-5.12 2 19.17 19.17 0 0 1-2.9-.31 79.36 79.36 0 0 1-19.28-5.57c-11.48-5-35.28-19.93-44.33-26l-.4-.23c-3.3-2.24-3.14-6.32-.57-9.38.48-.51 1.46-1.73 1.82-2.06Z"/><path class="cls-12" d="M1266.41 836.92a6.53 6.53 0 0 1-5.51 2.2c-.6-.06-1.2-.13-1.8-.23a78.79 78.79 0 0 1-19.28-5.57c-11.48-5-35.61-20.11-44.67-26.15a11.14 11.14 0 0 1-2.86-2.78 4.31 4.31 0 0 1 .57-5.53c12.57-12.45 26.33-27.45 33-35.11.18.14 33.6 26.77 64.4 36.68-2.63 5.71-16.58 28.07-23.85 36.49ZM1341.35 721.34l61.13 35.66c.18.1.11.31-.07.42-2 1.26-20.15-.71-32.56-.59a2.18 2.18 0 0 1-1.36-.47c-31.66-24-54.52-33.06-59.64-34.8a.23.23 0 0 1 .06-.44c8.63-.52 20.88.8 29.59-.27a3.18 3.18 0 0 1 2.85.49Z"/><path class="cls-13" d="M1290.36 880.77a4.6 4.6 0 0 0 2.32-.63l65-38.41a10 10 0 0 0 4.5-5.78l15.88-54.32-11.06-17.9-2 .21 11.12 17.95-15.67 53.56a8.21 8.21 0 0 1-3.69 4.76l-65 38.4a2.78 2.78 0 0 1-4.18-2l-4.69-34.49.73-18.27-1.89 2.88-.62 15.48v.07l4.7 34.57a4.57 4.57 0 0 0 4.52 3.94Z"/><path class="cls-13" d="m1328.76 858.35 1.62-46.73 4.34-33.94-1.93 1.18-4.18 32.62-1.62 46.81 1.77.06zM1282 835.21l-4 1.31s-2.08 1.86-1.36 4.26 1.37 2.78 2.33 2.64 2.45-3.89 2.45-3.89Z"/><path class="cls-15" d="M1281.12 835.88a29.28 29.28 0 0 1 1.82-3.18 1.61 1.61 0 0 1 1.74.11l6.78 3.92a5.18 5.18 0 0 1 2.35 4.06v1.42a1.54 1.54 0 0 1-.83 1.58l-2.77 1.48-5.32-5.5-.21-.12a4.91 4.91 0 0 1-1.74-1.89Z"/><path class="cls-16" d="m1283 841.55 6 3.43c1.14.66 2.07.13 2.07-1.18v-1.25A4.57 4.57 0 0 0 1289 839l-6-3.43c-1.14-.66-2.06-.13-2.06 1.18V838a4.56 4.56 0 0 0 2.06 3.55Z"/><path class="cls-9" d="M1154.72 864.53a3.5 3.5 0 0 1 4.28-.53l2.64 1.74.18.11c4.85 3.15 10 6.3 14.69 8.92h.06c2.08 1.16 4.06 2.21 5.9 3.11a4.51 4.51 0 0 1 1.85 3.52l.13 4.51c-1.49-.6-2.94-1.23-4.36-1.92-8.11-3.9-19.18-10.78-28-16.76Z"/><path class="cls-19" d="M1141.31 851.16c-.81 4-2 7.07 2.21 9.89 9.25 6.17 31.81 20 41.72 24.36a75.27 75.27 0 0 0 18.23 5.27 27.53 27.53 0 0 0 4.35.34 28 28 0 0 0 19.36-7.78l2 2a28.78 28.78 0 0 1-19.86 8 27.88 27.88 0 0 1-4.47-.36 75.21 75.21 0 0 1-18.4-5.32c-10-4.38-32.56-18.23-41.84-24.42-3.87-2.58-4.68-6.5-4.31-10.19.25-.49.61-1.15 1.01-1.79Z"/><path class="cls-6" d="M1228 876.45c3.57-.71 3.62 9.33.44 12.44-2.07 2-14.57 12.23-33 2.1.82-1.86 6.47-5.5 13.83-8.61a117.9 117.9 0 0 1 18.73-5.93ZM1145.52 846.07c2.49 6.89 3.35 17.37 2.28 19.11-6.41-3.21-7-4.29-8.87-6.12.07-6.74 3.17-11.87 6.59-12.99Z"/><path class="cls-18" d="m1279.34 773.18 47.04-27.15-6.14-29.11-47.04 27.16 6.14 29.1z"/><path class="cls-20" d="m1313.18 745.77 8-4.63-1.81-8.37-8 4.63 1.81 8.37zM1303.36 742.03l8.01-4.63-1.82-8.37-8 4.63 1.81 8.37zM1287.35 751.28l8-4.62-1.81-8.37-8 4.63 1.81 8.36zM1297.17 755.02l8-4.62-1.81-8.37-8.01 4.63 1.82 8.36zM1281.15 764.28l8.01-4.63-1.81-8.37-8.01 4.63 1.81 8.37z"/><path class="cls-6" d="m1267.38 740.72 5.83 3.36 6.13 29.1-18.1-10.44 6.14-22.02z"/><path style="fill:#ffe5c0;fill-rule:evenodd" d="m1267.38 740.72 5.82 3.37 47.03-27.17-5.82-3.37-47.03 27.17z"/><path style="fill:#ea687e" d="m714.58 227.65-.48.01.08-.36h.38l.02.35z"/><path class="cls-17" d="M730.8 74.75c-12.8-7.38-24.37-8.09-32.8-3.27s-17.5 10.16-17.5 10.16 4.86 30.66 6.24 36.21C689.51 129.06 714 227 714 227a.62.62 0 0 0 .93.54l15.42-8.9a1 1 0 0 0 .24-.25s32.01-31.29 32.01-31.29a50.34 50.34 0 0 0 12.18-19.71 38.85 38.85 0 0 0 2.4-12.3c0-29.58-20.76-65.55-46.38-80.34Zm21.4 71.43c-1 10.08-9.83 15.19-19.05 11-13.74-6.24-25.21-26.12-23.75-41.14 1-10.08 9.82-15.19 19-11 13.78 6.25 25.25 26.12 23.8 41.14Z"/><path class="cls-19" d="M714 84.48c-24.49-14.14-44.53-3.79-46.25 23-.42 6.43.68 12.57 2.22 18.8a179.3 179.3 0 0 0 10.26 29.5q1 2.17 2 4.33l31.43 67.2a.62.62 0 0 0 1 .18l31.18-30.66a50.3 50.3 0 0 0 12.18-19.7 38.9 38.9 0 0 0 2.4-12.3c-.08-29.59-20.84-65.56-46.42-80.35Zm1.89 80.09c-11.76-6.89-21.28-23.38-21.37-37-.08-13.39 10.13-19.29 21.68-12.52 5.88 3.44 11.19 9.28 15.05 16 3.89 6.83 6.3 14.49 6.31 21.4-.14 13.09-10.26 18.83-21.71 12.12Z"/><path class="cls-14" d="M711.87 88.26c-23.39-13.5-42.53-3.63-44.17 21.94-.39 6.15.65 12 2.12 18a172.44 172.44 0 0 0 9.8 28.17q.92 2.07 1.88 4.13l30.91 64.34 29.82-29.28a48.06 48.06 0 0 0 11.63-18.81 37.12 37.12 0 0 0 2.3-11.74c0-28.29-19.83-62.63-44.29-76.75Zm-.16 77.45c-11.23-6.58-20.32-22.32-20.4-35.34-.08-12.79 9.67-18.42 20.71-12 5.61 3.28 10.68 8.85 14.37 15.23s6 13.84 6 20.44c-.08 12.59-9.74 18.07-20.68 11.67Z"/><path class="cls-10" d="M673.3 592.14c12.81-6.31 27.94-9.82 43-11.76a480.94 480.94 0 0 1 58.5-3.92c25.14-13.21 52.94-26.27 64.61-26.27 23.62 0 91.43 48.52 91.43 48.52 27.42 25.6-84.61 28.18-95.6 36.24s-46.69 22.46-92.6 19.29a189 189 0 0 1-50.26-10.64c-22.58-8.06-30.17-21.06-34.09-34-3.58-11.69 4.07-12.07 15.01-17.46Z"/><path class="cls-19" d="M825.43 568.2q11.88 1.09 23.66 2.8c29.13 4.21 62.23 9.52 81.72 27.71 27.42 25.6-78.78 18-89.76 26.07s-46.7 22.46-92.61 19.29a181.66 181.66 0 0 1-50.25-10.64c-13.5-5-34.8-13.62-40.4-24.66s10.4-21.41 21.35-26.8c12.8-6.31 27.94-9.82 43-11.75a472.67 472.67 0 0 1 103.29-2.02Z"/><path class="cls-19" d="m930.81 598.71-198.88-5.22S821.6 540 845.22 540s85.59 58.71 85.59 58.71Z"/><path class="cls-23" d="M827.45 586c30.06 12.45-15.44 32.14-62.5 29.19s-107.36-15.34-107.36-15.34S684.17 538 711.4 538s85.99 35.54 116.05 48Z"/><path class="cls-9" d="M861.71 308.63s-34.58 39.28-33.28 49.91.58 12.53-.54 21.75 4.65 37.52 10.35 45.39c2.4 3.31 17.33-36.69 16.2-42.81s4.68-15.44 4.88-17.21 2.39-57.03 2.39-57.03Z"/><path class="cls-19" d="M767.07 591.35s-13.13-155.65 70.6-254.78l6.33.43s-63 137.43-20.41 252.7c-12.13.01-56.52 1.65-56.52 1.65Z"/><path class="cls-14" d="M818.61 404.49c-13.77 0-20.57-5.87-20.87-6.14l2.41-2.73c.07.06 7.42 6.18 21.9 5.18l-.59 3.61c-1.19.08-1.74.08-2.85.08ZM809.48 434.67c-14.28-.34-21.7-5.36-22-5.62l1.27-3.74c.06.06 10.75 6.58 26.89 5.45l-.72 3.91c-1.49.11-4.07 0-5.44 0ZM798.69 469.05a49.49 49.49 0 0 1-21.05-4.45l.85-4c.11.06 15.19 7.36 32.28 3.33l-.39 3.86a65.43 65.43 0 0 1-11.69 1.26ZM792.36 507c-12.86 0-21.19-3.94-21.62-4.16l.64-3.93c-1.7-.68 17 7.42 37.41 2.3v3.87a86.55 86.55 0 0 1-16.43 1.92ZM789.88 543.8c-13.42 0-22.21-3.25-22.76-3.45l.24-3.92c.19.07 20.67 7 43.64.72l.52 3.87a84.44 84.44 0 0 1-21.64 2.78Z"/><ellipse class="cls-19" cx="795.41" cy="591.35" rx="28.33" ry="16.36"/><path class="cls-11" d="M861 307.75s.46-22.67-19.71-30.6-49.79 4.66-57.67 5.9 3 5.37 15.1 6.72 27.8-1.1 34.35 7.33S861 307.75 861 307.75Z"/><path class="cls-9" d="M861 307.75s-63.09 5.92-70.71 16-9.8 11.1-18.32 18-26.86 35.64-28.48 47c-.69 4.78 44.82-16.89 48.88-23s16.65-9.25 18.27-10.59S861 307.75 861 307.75Z"/><path class="cls-11" d="M861 307.75s23.88-9.25 42 .92a64.62 64.62 0 0 1 18.14 14.48 39.81 39.81 0 0 1 8.92 20.92c1.06 7.83 1.1 18.75-4.52 25.09-1.53 1.73-1.1-23.43-18.16-30.29-19.94-8.02-46.38-31.12-46.38-31.12Z"/><path class="cls-11" d="M861 307.75s44.55 21.93 58.33 64.19c8.06 24.71 6.74 62.71 1.56 73.57-2.54-23.39-21.1-34.06-22.11-46.69-1.15-14.2-14.74-16.43-23.47-29.23S861 307.75 861 307.75ZM861 307.75s-52.24-32.47-109.32-.62-63.39 82.31-63.39 82.31 39.55-28.71 46.78-37.05c3.28-3.79 5.93-3.79 14.06-3.79 3.67 0 21.83-15.47 24.86-12.07s31.58-18.32 30.93-15c-.47 2.42 32.6-4.69 49-9.46 6.19-1.8 7.08-4.32 7.08-4.32Z"/><path class="cls-11" d="M861 307.75s-20 55.69-16.62 69.83c2.86 12.07 5.54 7.1 6.71 11.37s-4.52 18.18-.2 22.84c3 3.25 2.5 15.83 6.75 22.35 4.38 6.71-1.11 36 .84 38.48 11.46-11.66 19.37-49.36 18.74-56s-3.09-17.2-.48-24.49c4.26-11.78.19-58.97-15.74-84.38Z"/><path class="cls-11" d="M861 307.75s-10.42 0-18.34 4.93c-20.12 12.52-53.81 37.65-59.42 46.31-7.81 12.08.74 11 1.13 13s-18 24-18.49 28.87.57 6.33-.83 8.86c-3.85 7-3.26 47.15 2.61 55.35 7.61-16.18 20-38.09 20.5-45.24s4.57-5.39 7.34-7.81 12.31-28.56 16.3-29.76 16.82-4.77 23.49-15c3.23-4.95 14.52-31.1 21.56-46.28a55.91 55.91 0 0 0 4.15-13.23Z"/><path class="cls-9" d="M857.23 316.8c-8.57 7.15-16.84 14.73-24.84 22.55s-15.7 16-23 24.46a232.77 232.77 0 0 0-20.09 26.87c-5.89 9.48-11.06 19.6-13.55 30.57 2.34-11 7.39-21.22 13.17-30.81a234.29 234.29 0 0 1 19.77-27.22c7.2-8.62 14.81-16.88 22.73-24.84s16.09-15.66 24.64-23Z"/><path class="cls-14" d="M792.21 581.05c-15 0-25.19-5.16-25.81-5.46l-.06-4.29c.21.1 24.23 11.4 51.6.86l1.14 4a87.17 87.17 0 0 1-26.87 4.89Z"/><path class="cls-9" d="M856.48 316.11a92.61 92.61 0 0 0-22-6.67 114.83 114.83 0 0 0-23.05-1.7 116.73 116.73 0 0 0-44.84 10.64 139 139 0 0 0-20.21 11.41c-3.15 2.26-6.37 4.43-9.34 6.92-1.5 1.23-3.06 2.39-4.52 3.67l-4.34 3.88a217.14 217.14 0 0 0-30.62 35 218.18 218.18 0 0 1 30.31-35.33l4.32-3.93c1.44-1.3 3-2.47 4.49-3.72 3-2.53 6.17-4.75 9.31-7a139.14 139.14 0 0 1 20.22-11.68 117.81 117.81 0 0 1 45.17-11.17 116.53 116.53 0 0 1 23.37 1.49 94.17 94.17 0 0 1 22.55 6.61ZM859.9 314.35c1.64 11.8 2.78 23.07 3.94 34.91s2 23.69 2.65 35.57.87 23.77.54 35.66-1.11 23.82-4.08 35.36c2.82-11.57 3.38-23.52 3.62-35.37s-.21-23.75-1-35.6-1.79-23.68-3.1-35.48-2.79-23.6-4.57-35.32ZM861.86 315.34a130 130 0 0 1 23 22.21 156.94 156.94 0 0 1 29.67 56.09c1.69 5.05 2.6 10.3 3.76 15.48.65 2.58.84 5.24 1.23 7.87l1.05 7.89-1.12-7.88a77.36 77.36 0 0 0-1.35-7.84 150.38 150.38 0 0 0-4-15.39 155.92 155.92 0 0 0-30.27-55.34 128.69 128.69 0 0 0-23-21.57ZM856.63 313.48a26.94 26.94 0 0 0-4.13-9.3 37.34 37.34 0 0 0-7-7.68 46.46 46.46 0 0 0-8.89-5.58c-1.57-.81-3.24-1.38-4.86-2.08s-3.36-1.07-5.05-1.61c1.71.47 3.42.9 5.12 1.4s3.37 1.13 5 1.87a47.25 47.25 0 0 1 9.26 5.29 38.12 38.12 0 0 1 7.57 7.6 28.5 28.5 0 0 1 4.82 9.78Z"/><path class="cls-9" d="M859.24 314.57a48.42 48.42 0 0 1 12-.86A54.3 54.3 0 0 1 883 315.5a52.79 52.79 0 0 1 11.07 4.23 60.26 60.26 0 0 1 9.91 6.39 59.59 59.59 0 0 0-10.11-6 52 52 0 0 0-11.09-3.76 52.58 52.58 0 0 0-11.58-1.3 47.07 47.07 0 0 0-11.47 1.25Z"/><path class="cls-19" d="M717.49 596.7s20.08-104.16-29.32-177.14l-4.3-.16s32.67 97.35-4.43 172.12c8.19.88 38.05 5.18 38.05 5.18Z"/><path class="cls-14" d="M696.15 466.8c9.3 1 14.31-2.48 14.53-2.64l-1.42-2c-.06 0-5.46 3.64-15.17 1.92l.14 2.48c.77.12 1.17.16 1.92.24ZM700.14 487.84c9.67.8 15-2 15.24-2.21l-.59-2.62s-7.73 3.67-18.55 1.74l.21 2.7c1.02.18 2.77.29 3.69.39ZM705 511.84a33.77 33.77 0 0 0 14.53-1.49l-.28-2.74c-.08 0-10.79 3.87-22-.08v2.63a44.7 44.7 0 0 0 7.75 1.68ZM706.49 537.89a35.79 35.79 0 0 0 14.9-1.25l-.15-2.7c1.2-.34-12 3.79-25.43-1.14l-.3 2.61a59 59 0 0 0 10.98 2.48ZM705.51 563a47.25 47.25 0 0 0 15.62-.69l.12-2.66a56 56 0 0 1-29.52-2.66l-.63 2.57a57.72 57.72 0 0 0 14.41 3.44Z"/><ellipse class="cls-19" cx="698.35" cy="594.66" rx="11.11" ry="19.24" transform="rotate(-83.91 698.335 594.664)"/><path class="cls-14" d="M701.25 587.94a41.11 41.11 0 0 0 17.83-1.83l.35-2.9a47.85 47.85 0 0 1-34.91-3.13l-1.06 2.6a59.42 59.42 0 0 0 17.79 5.26Z"/><path class="cls-11" d="M689.27 420.43c-.95-.31 7.85-25.57 32.73-19.64a49 49 0 0 1 33.2 27.45s-15-8.5-24.87-9.35c-10.14-.89-18.33 9.11-41.06 1.54Z"/><path class="cls-9" d="M690 419.92s37.79 8 41.7 14.68 5.15 7.42 9.82 12.2 13.76 23.48 13.94 30.48c.08 2.94-26-13.4-28-17.39s-9.44-6.78-10.32-7.7S690 419.92 690 419.92Z"/><path class="cls-11" d="M690.31 420.47s-11.5-14.17-28-8.55-28.15 28.75-32.35 33.61 4.64 1.73 12.77-3.73 16.58-11.5 32.41-16a135.83 135.83 0 0 0 15.17-5.33Z"/><path class="cls-9" d="M690 419.73s-26.7 26.21-26.43 33.68-.35 8.73-1.68 15.07 1 26.33 4.46 32.14c1.46 2.44 14.24-24.44 13.82-28.75s4.18-10.44 4.42-11.66 5.41-40.48 5.41-40.48Z"/><path class="cls-11" d="M690 419.4s-16.31 24.47-14.9 30.16 1.14 6.78 1.14 11.87 5 20.09 8.61 24c1.52 1.64 7-21.09 6-24.34s1.54-8.71 1.53-9.68a103.88 103.88 0 0 0 .49-17.34A77.22 77.22 0 0 0 690 419.4Z"/><path class="cls-11" d="M689.2 419.65a22.91 22.91 0 0 1 8.88 3.4c8.8 5.65 21.59 17.66 27.5 33.53 5.25 14.06 5.41 36 2.68 42.41-2-13.43-13-19.14-13.89-26.41-1-8.16-8.9-9.12-14.25-16.3s-10.92-36.63-10.92-36.63Z"/><path class="cls-11" d="M689.54 420.35s-29 0-42.79 28-2.82 50.65-2.82 50.65 7.78-22.13 8.38-27.46c.27-2.43 1.31-3.1 4.48-5.18 1.43-.94 4.39-12.05 6.48-11.4s7.44-15.73 8.08-14.17c.46 1.13 11-9.15 16.09-15.44a9.17 9.17 0 0 0 2.1-5Z"/><path class="cls-9" d="M689.93 424.91a42.62 42.62 0 0 0-10.4 2.83 45 45 0 0 0-4.89 2.38l-2.38 1.34L670 433a53 53 0 0 0-14.65 16.06l-2.64 4.82c-.76 1.67-1.39 3.4-2.09 5.1l-1 2.56c-.28.87-.5 1.76-.75 2.65l-1.47 5.32c-.77 3.6-1.28 7.26-1.89 10.89l-.77 11.05.54-11.07c.54-3.65 1-7.34 1.67-11l1.37-5.38c.24-.9.44-1.8.71-2.69l1-2.6c.68-1.73 1.27-3.49 2-5.19l2.57-4.95a54.16 54.16 0 0 1 14.64-16.71 46.58 46.58 0 0 1 20.55-8.81ZM692.29 423.1a83.26 83.26 0 0 1 14.62 12.9 90.43 90.43 0 0 1 18.35 31.82 85 85 0 0 1 2.5 8.86c.73 3 1.09 6 1.66 9.05-.64-3-1.08-6-1.88-9a88.71 88.71 0 0 0-2.71-8.76 89.76 89.76 0 0 0-18.93-31 81.64 81.64 0 0 0-14.6-12.22Z"/><path class="cls-9" d="M689.32 423.75a21.53 21.53 0 0 0-7.3-3.57 29.76 29.76 0 0 0-8.26-1.11 37.08 37.08 0 0 0-8.36 1.15c-1.38.31-2.7.82-4.06 1.23l-4 1.61 3.87-1.82c1.34-.48 2.65-1.07 4-1.46a37.69 37.69 0 0 1 8.45-1.62 31.11 31.11 0 0 1 8.64.7 22.7 22.7 0 0 1 8.11 3.49Z"/><path class="cls-11" d="M692.06 419.92s16.89 11.46 23.2 14.37c5.39 2.48 9.41 6 11.37 6.84s4.86 7.06 7.89 6.81c2.11-.18 3.89 2.24 7.6 2.56s11.8 6.51 13.33 6.52c-1-7.76-9.08-20-11.75-21.71s-7.3-8.29-10.56-10.86c-4.71-3.71-26.94-7.45-41.08-4.53Z"/><path class="cls-9" d="M691 421.85a79.4 79.4 0 0 1 26 5.78 58.89 58.89 0 0 1 11.65 6.4 49.43 49.43 0 0 1 9.62 9.1 49 49 0 0 0-9.87-8.72 58.5 58.5 0 0 0-11.73-5.94A77.59 77.59 0 0 0 704 425a76.43 76.43 0 0 0-13-1.32ZM691.43 424.8a53.73 53.73 0 0 0-2.57 6.81c-.73 2.35-1.34 4.73-1.87 7.13s-1 4.84-1.31 7.28-.61 4.9-.82 7.37c.06-2.47.15-4.95.36-7.42s.5-4.94.87-7.4.86-4.9 1.46-7.32a54 54 0 0 1 2.23-7.22Z"/><path class="cls-9" d="M689.13 422.57a24.5 24.5 0 0 1 5-5A37.49 37.49 0 0 1 700 414a44.66 44.66 0 0 1 6.36-2.55c1.07-.37 2.19-.61 3.28-.92l3.34-.69-3.27.91c-1.07.38-2.16.69-3.2 1.13a44.14 44.14 0 0 0-6.08 2.92 36.27 36.27 0 0 0-5.43 3.9 23.43 23.43 0 0 0-4.33 4.85Z"/><path class="cls-9" d="M689.44 422.77h2.84v1.99h-2.84zM858.43 313.15l-1.8.32-.56 1.92 1.16 1.4 3.62.06 1.01-1.52-3.43-2.18z"/><path class="cls-17" d="M813.1 664.42a1.84 1.84 0 0 1-1.31-.56 1.81 1.81 0 0 1 .05-2.56l34.4-33.1c8-7.62 16.74-12.17 24.6-12.82 11.77-1 25.44-11.81 34.84-27.62L935 538.31a1.82 1.82 0 0 1 2.49-.63 1.8 1.8 0 0 1 .63 2.48l-29.32 49.45c-10 16.79-24.76 28.32-37.67 29.39-7 .58-15 4.78-22.38 11.82l-34.39 33.09a1.81 1.81 0 0 1-1.26.51Z"/><path class="cls-24" d="M931.29 610.62a1.21 1.21 0 0 1-1.21-1.21v-61.29a1.21 1.21 0 1 1 2.42 0v61.29a1.21 1.21 0 0 1-1.21 1.21Z"/><path class="cls-24" d="M816.26 660.77a1.2 1.2 0 0 1-.6-2.25l115-66.39a1.21 1.21 0 0 1 1.21 2.1l-115 66.38a1.24 1.24 0 0 1-.61.16Z"/><path class="cls-9" d="M818.65 672.81a1.21 1.21 0 0 1-1.21-1.21v-13.41a1.21 1.21 0 0 1 2.42 0v13.41a1.21 1.21 0 0 1-1.21 1.21Z"/><path class="cls-24" d="M918.19 601.94a1.21 1.21 0 0 1-1.2-1.21v-30.52a1.21 1.21 0 1 1 2.41 0v30.52a1.21 1.21 0 0 1-1.21 1.21ZM905.71 609.31a1.21 1.21 0 0 1-1.21-1.21v-17a1.21 1.21 0 0 1 2.42 0v17a1.21 1.21 0 0 1-1.21 1.21Z"/><path class="cls-2" d="M862.8 621.05a1.69 1.69 0 0 1-.58-.1 1.81 1.81 0 0 1-1.14-2.29l1.69-5a36.88 36.88 0 0 1 14.76-19.08l39.67-25.85a1.82 1.82 0 0 1 2 3l-39.68 25.85a33.22 33.22 0 0 0-13.3 17.19l-1.69 5a1.81 1.81 0 0 1-1.73 1.28Z"/><path class="cls-10" d="M988.33 643.31 877.66 707a15.53 15.53 0 0 1-14 0l-50.87-29.37c-3.88-2.24-3.88-5.88 0-8.12l110.67-63.68a15.53 15.53 0 0 1 14.05 0l50.87 29.37c3.83 2.24 3.83 5.87-.05 8.11Z"/><path class="cls-17" d="M896.56 597.41v8.17l49.19 28.47v-8.49l-49.19-28.15z"/><path class="cls-14" d="M946 625.34c13.74-14.66 41.16-61.18 41.16-61.18s-48.22-27.72-49.51-28.52-3.43.39-4.77 2.65l-28.15 47.36a71.1 71.1 0 0 1-7.67 10.57 2 2 0 0 0 .51 3.08l45.51 26.5a2.36 2.36 0 0 0 2.92-.46ZM942.75 629.78a1.79 1.79 0 0 0-.87-1.81l-46.65-27.13a2.58 2.58 0 0 0-3 .31c-6.5 5.9-13.58 9.57-20.07 10.11-8.2.68-17.38 5.49-25.87 13.57l-32.41 30.85c-1.77 1.68-2.74 4.43-2.16 6.13a1.85 1.85 0 0 0 .93 1.13c.62.29 49.39 28.45 49.39 28.45l45.21-44s23.76-4 34.06-12.94c.69-.63 1.21-3.15 1.44-4.67Z"/><path class="cls-17" d="M942.75 629.26c-6.82 6.53-14.21 9.94-21.1 10.52-8.2.67-17.38 5.49-25.87 13.57l-32.41 30.84c-1.77 1.69-2.74 4.44-2.16 6.14.47 1.37 1.79 1.65 3.21.83a5.63 5.63 0 0 0 1.05-.8l32.4-30.84c6.93-6.59 14.42-10.53 21.11-11.08 7.74-.64 16.15-4.91 23.92-11.78ZM987.15 564.16c-1.29-.8-3.43.39-4.77 2.65l-28.15 47.35a56.63 56.63 0 0 1-8.48 11.4v8.5a74.35 74.35 0 0 0 13.15-17l28.15-47.36c1.35-2.26 1.39-4.7.1-5.54Z"/><path class="cls-17" d="M945.75 625.56a2.43 2.43 0 0 1-3 .07v6.73l2.94 1.7Z"/><path class="cls-19" d="m981 564.8-11.44 19.06-50.5-26.92c-2.1-1.33-2-5.39.19-9.08l3.45-5.71c2.21-3.69 5.7-5.6 7.8-4.28Z"/><path class="cls-17" d="m982.9 566-11.44 19.07-1.9-1.2c-2.1-1.32-2-5.39.2-9.08l3.44-5.7c2.21-3.69 5.7-5.61 7.8-4.28Z"/><path class="cls-9" d="M982.9 639.63a1.21 1.21 0 0 1-1.21-1.21v-61.28a1.21 1.21 0 1 1 2.42 0v61.28a1.21 1.21 0 0 1-1.21 1.21Z"/><path class="cls-9" d="M867.88 689.79a1.21 1.21 0 0 1-.61-2.26l115-66.39a1.21 1.21 0 0 1 1.21 2.1l-115 66.39a1.2 1.2 0 0 1-.6.16Z"/><path class="cls-9" d="M870.26 701.82a1.21 1.21 0 0 1-1.21-1.2V687.2a1.21 1.21 0 0 1 2.42 0v13.42a1.21 1.21 0 0 1-1.21 1.2ZM969.81 631a1.21 1.21 0 0 1-1.21-1.2v-30.58a1.21 1.21 0 1 1 2.42 0v30.53a1.21 1.21 0 0 1-1.21 1.25ZM957.33 638.32a1.21 1.21 0 0 1-1.21-1.21v-17a1.21 1.21 0 0 1 2.42 0v17a1.21 1.21 0 0 1-1.21 1.21Z"/><path class="cls-2" d="M864.72 693.43a1.81 1.81 0 0 1-1.26-3.12l34.4-33.09c8-7.63 16.74-12.18 24.59-12.83 11.77-1 25.45-11.81 34.84-27.61l29.32-49.45a1.81 1.81 0 1 1 3.12 1.85l-29.32 49.45c-10 16.78-24.76 28.31-37.66 29.38-7 .58-15 4.78-22.38 11.83L866 692.92a1.79 1.79 0 0 1-1.28.51Z"/><path class="cls-2" d="M914.42 650.06a1.9 1.9 0 0 1-.58-.09 1.82 1.82 0 0 1-1.14-2.3l1.69-5a36.86 36.86 0 0 1 14.76-19.08l39.67-25.85a1.81 1.81 0 1 1 2 3l-39.67 25.85a33.2 33.2 0 0 0-13.3 17.19l-1.69 5a1.83 1.83 0 0 1-1.74 1.28Z"/><ellipse class="cls-10" cx="279.22" cy="851.13" rx="105.93" ry="61.16"/><ellipse class="cls-14" cx="279.24" cy="843.66" rx="101.41" ry="58.55"/><ellipse class="cls-14" cx="279.24" cy="830.79" rx="101.41" ry="58.55"/><ellipse class="cls-23" cx="279.25" cy="839.92" rx="87.9" ry="47.78"/><path class="cls-19" d="M279.24 893.83c-27.86 0-54.12-6.3-74-17.75-20.6-11.89-31.94-28-31.94-45.29s11.34-33.39 31.94-45.28c19.83-11.45 46.09-17.75 74-17.75s54.13 6.3 74 17.75c20.6 11.89 31.94 28 31.94 45.28s-11.34 33.4-31.94 45.29c-19.87 11.45-46.13 17.75-74 17.75Zm0-117.14c-25.15 0-50.31 5.53-69.46 16.59-17.71 10.22-27.46 23.54-27.46 37.51s9.75 27.29 27.46 37.52c38.3 22.11 100.63 22.11 138.93 0 17.71-10.23 27.46-23.55 27.46-37.52s-9.75-27.29-27.46-37.51c-19.15-11.06-44.31-16.59-69.47-16.59Z"/><path class="cls-23" d="M367.13 839.05H191.36a87.89 87.89 0 0 1 175.77 0Z"/><path d="M284.33 742.05c2.81 1.62 2.81 4.25 0 5.87a11.19 11.19 0 0 1-10.17 0c-2.81-1.62-2.81-4.25 0-5.87a11.25 11.25 0 0 1 10.17 0Z" style="fill:#8fd4ff"/><path class="cls-8" d="M209.87 868.31a115.25 115.25 0 0 0 26 10.75C226.5 809 272 765 279.81 761.89c7.23-2.83-7.23-4-7.23-4s-61 16.62-67.9 107.14q2.48 1.7 5.19 3.28Z"/><path class="cls-19" d="M286.44 745v12.87a3.57 3.57 0 0 1-2.11 2.94 11.25 11.25 0 0 1-10.17 0 3.57 3.57 0 0 1-2.11-2.94V745Z"/><circle class="cls-23" cx="279.25" cy="743.08" r="11.66"/><path class="cls-8" d="M280.87 740.12a4.59 4.59 0 1 1-4.59-4.58 4.59 4.59 0 0 1 4.59 4.58Z"/><ellipse class="cls-19" cx="500.7" cy="643.87" rx="52.29" ry="30.19" style="opacity:.3;mix-blend-mode:multiply"/><path class="cls-13" d="m558.88 580-7.21-4.2a73.12 73.12 0 0 0 9.32-28c1.1-9.22 1.62-19.45-2.9-25.38a6 6 0 0 0-4.92-2.69h-.07c-4 0-8.66 3.33-11.28 6.63a44.75 44.75 0 0 0-6.91 12.81l-7.91-2.73a53 53 0 0 1 8.24-15.22c3.59-4.53 10.4-9.8 17.82-9.8h.15a14.29 14.29 0 0 1 11.48 6c6.32 8.3 5.85 20.55 4.55 31.43A81.6 81.6 0 0 1 558.88 580Z"/><ellipse class="cls-14" cx="500.7" cy="636.04" rx="50.14" ry="28.95"/><path class="cls-17" d="m544 530.16-87-.2s-31.77 24.34-31.77 70.91c0 11.09 7.33 33.39 22 41.85 29.3 16.92 76.81 16.92 106.11 0 14.65-8.46 22-30.76 22-41.85-.11-48.74-31.34-70.71-31.34-70.71Z"/><ellipse class="cls-14" cx="500.7" cy="541.38" rx="47.74" ry="27.57"/><path class="cls-17" d="M536.19 514.82h-71s-8.28 8.68-8.28 15.14 4.28 12.94 12.82 17.87c17.1 9.87 44.81 9.87 61.91 0 8.54-4.93 12.82-11.4 12.82-17.87s-8.27-15.14-8.27-15.14Z"/><ellipse class="cls-14" cx="500.7" cy="524.9" rx="39.55" ry="22.84"/><ellipse class="cls-13" cx="449.84" cy="589.09" rx="21.63" ry="17.35" transform="rotate(-82.3 449.849 589.087)"/><path class="cls-13" d="M454.47 570.37c-8.86-5.49-11.69-9.79-14.67-16.49-1.52-3.43-2.15-10.52-6.3-14l-13 10c2 2.1 3.14.68 4.23 2.07 3.26 4.18 3 12.05 3.7 24 1.3 23 8.53 33 16.61 34.25.04-.06 21.31-32.46 9.43-39.83Z"/><path class="cls-14" d="M433.53 544.22A8.13 8.13 0 0 1 431 547c-4.83 3.21-9.72 3.31-10.44 2.82s1-5.09 4-7.86a10.32 10.32 0 0 1 5.67-2.93c3.57-.3 5.07 1.97 3.3 5.19Z"/><path class="cls-13" d="M432 544.05a6.8 6.8 0 0 1-2.15 1.94c-3.34 2.22-7.15 2.82-7.65 2.48s1.1-4.05 3.18-6a8.21 8.21 0 0 1 4.32-2c2.47-.22 3.51 1.37 2.3 3.58ZM481.38 529.83a35.84 35.84 0 0 1 6.95-22.74c3.67-4.75 10.37-9.67 17.19-7.93 6.12 1.57 10.08 7.82 12.14 12.69l-7.14.61c-1.26-3-2.4-6.68-6.43-7.71-3.82-1-8.48 2.36-11.19 5.87-3.54 4.56-4.66 11.82-4.33 18.82Z"/><ellipse class="cls-13" cx="484.97" cy="529.65" rx="3.62" ry="2.09"/><ellipse class="cls-13" cx="514.1" cy="512.23" rx="3.62" ry="2.09"/><ellipse class="cls-10" cx="601.41" cy="626.37" rx="22.59" ry="13.04"/><path class="cls-19" d="M620.86 614.25v9.35c0 2.75-1.9 5.51-5.69 7.61-7.6 4.21-19.91 4.21-27.51 0-3.8-2.1-5.7-4.86-5.7-7.61v-9.35Z"/><path class="cls-23" d="M635.79 578.06S637.35 629 601.41 629 567 578.06 567 578.06Z"/><ellipse class="cls-8" cx="601.41" cy="578.06" rx="34.37" ry="19.85"/><path class="cls-19" d="M623.57 566.14c12.24 6.58 12.24 17.26 0 23.85s-32.08 6.59-44.31 0-12.24-17.27 0-23.85 32.07-6.59 44.31 0Z"/><path class="cls-2" d="M623.57 574.47c-12.24-6.58-32.08-6.58-44.31 0-4.14 2.23-6.87 4.92-8.21 7.76 1.34 2.85 4.07 5.54 8.21 7.76 12.23 6.59 32.07 6.59 44.31 0 4.13-2.22 6.86-4.91 8.21-7.76-1.35-2.84-4.08-5.53-8.21-7.76ZM342.51 41.6 592.05 185a3.75 3.75 0 0 1 1.69 2.93v83.57a2.41 2.41 0 0 1-1 2.2l-6.35 3.6-19.54-32.1L334.2 45.42s6.79-3.73 7.08-3.92a1.21 1.21 0 0 1 1.23.1Z"/><path class="cls-11" d="m585.05 189.43-249.54-144c-.94-.54-1.7-.1-1.7 1v66a7.5 7.5 0 0 0 3.39 5.87l223.56 129a13.59 13.59 0 0 1 4.17 4l19.94 25.29c.78 1.11 1.87 1.1 1.87 0v-84.22a3.77 3.77 0 0 0-1.69-2.94Z"/><path class="cls-13" d="m366.11 83.8 11.78 8.74-7.22 4.18-1.29.47 2.03 14.65-7.22 4.18-3.32-16.61-10.52.31 1.99-12.33-15.75-10.28 7.22-4.18 11.51 4.7-1.71-4.96 7.22-4.17 5.28 15.3z"/><path class="cls-14" d="m358.89 87.98 11.78 8.74-8.51 4.65 2.03 14.65-10.54-12.43-10.52.31 1.99-12.33-8.53-14.46 11.77 4.81 5.25-9.25 5.28 15.31z"/><path class="cls-13" d="m415.16 114.18 11.78 8.75-7.22 4.18-1.29.47 2.03 14.64-7.22 4.19-3.32-16.62-10.52.31 1.99-12.33-15.75-10.28 7.22-4.18 11.51 4.7-1.71-4.95 7.22-4.18 5.28 15.3z"/><path class="cls-14" d="m407.94 118.36 11.78 8.75-8.51 4.65 2.03 14.65-10.54-12.44-10.52.31 1.99-12.33-8.53-14.46 11.77 4.81 5.25-9.24 5.28 15.3z"/><path class="cls-13" d="m464.21 144.57 11.78 8.74-7.22 4.18-1.29.47 2.03 14.65-7.22 4.18-3.32-16.61-10.52.31 1.99-12.34-15.75-10.27 7.22-4.18 11.51 4.7-1.71-4.96 7.22-4.18 5.28 15.31z"/><path class="cls-14" d="m456.99 148.75 11.78 8.74-8.51 4.65 2.03 14.65-10.54-12.43-10.52.31 1.99-12.34-8.53-14.45 11.77 4.81 5.25-9.25 5.28 15.31z"/><path class="cls-13" d="m513.26 174.95 11.78 8.75-7.22 4.18-1.29.47 2.03 14.64-7.22 4.18-3.32-16.61-10.52.31 1.99-12.33-15.75-10.28 7.22-4.18 11.51 4.7-1.71-4.95 7.22-4.18 5.28 15.3z"/><path class="cls-14" d="m506.04 179.13 11.78 8.75-8.51 4.65 2.03 14.64-10.54-12.43-10.53.31 2-12.33-8.53-14.46 11.77 4.81 5.25-9.24 5.28 15.3z"/><path class="cls-13" d="m562.31 205.34 11.78 8.74-7.22 4.18-1.29.47 2.03 14.65-7.22 4.18-3.32-16.61-10.52.3 1.99-12.33-15.76-10.27 7.23-4.19 11.51 4.71-1.71-4.96 7.22-4.18 5.28 15.31z"/><path class="cls-14" d="m555.09 209.52 11.78 8.74-8.51 4.65 2.03 14.65-10.54-12.43-10.53.3 2-12.33-8.54-14.45 11.78 4.8 5.25-9.24 5.28 15.31z"/><path class="cls-2" d="M868.68 740.15a1.79 1.79 0 0 1-1.3-.55 1.81 1.81 0 0 1 0-2.57l34.4-33.09c8-7.62 16.74-12.18 24.59-12.83 11.77-1 25.45-11.81 34.84-27.61l29.32-49.45a1.81 1.81 0 1 1 3.12 1.85l-29.32 49.45c-10 16.78-24.76 28.31-37.66 29.38-7 .58-15 4.78-22.39 11.83l-34.39 33.09a1.83 1.83 0 0 1-1.21.5Z"/><path class="cls-24" d="M986.87 686.35a1.21 1.21 0 0 1-1.21-1.21v-61.28a1.21 1.21 0 0 1 2.42 0v61.28a1.21 1.21 0 0 1-1.21 1.21Z"/><path class="cls-24" d="M871.84 736.51a1.21 1.21 0 0 1-.6-2.26l115-66.39a1.21 1.21 0 1 1 1.2 2.1l-115 66.39a1.21 1.21 0 0 1-.6.16Z"/><path class="cls-9" d="M874.23 748.55a1.21 1.21 0 0 1-1.21-1.21v-13.42a1.21 1.21 0 0 1 2.42 0v13.42a1.21 1.21 0 0 1-1.21 1.21Z"/><path class="cls-24" d="M973.78 677.68a1.21 1.21 0 0 1-1.21-1.21v-30.53a1.21 1.21 0 1 1 2.42 0v30.53a1.21 1.21 0 0 1-1.21 1.21ZM961.29 685a1.21 1.21 0 0 1-1.21-1.21v-16.9a1.21 1.21 0 1 1 2.42 0v16.94a1.21 1.21 0 0 1-1.21 1.17Z"/><path class="cls-2" d="M918.38 696.78a1.88 1.88 0 0 1-.57-.09 1.82 1.82 0 0 1-1.15-2.3l1.7-5a36.86 36.86 0 0 1 14.76-19.08l39.67-25.85a1.81 1.81 0 0 1 2 3l-39.69 25.85a33.27 33.27 0 0 0-13.31 17.19l-1.69 5a1.81 1.81 0 0 1-1.72 1.28Z"/><path class="cls-10" d="m1043.91 719.05-110.67 63.68a15.53 15.53 0 0 1-14 0l-50.87-29.37c-3.88-2.24-3.88-5.87 0-8.11L979 681.57a15.55 15.55 0 0 1 14.06 0l50.86 29.36c3.88 2.25 3.88 5.88-.01 8.12Z"/><path class="cls-17" d="M952.14 673.14v8.18l49.19 28.47v-8.49l-49.19-28.16z"/><path class="cls-19" d="M1001.57 701.07c13.74-14.65 41.16-61.18 41.16-61.18s-48.22-27.72-49.51-28.51-3.43.38-4.77 2.64l-28.15 47.36a71.2 71.2 0 0 1-7.67 10.62 2 2 0 0 0 .51 3.07l45.51 26.51a2.37 2.37 0 0 0 2.92-.51ZM998.33 705.51a1.77 1.77 0 0 0-.86-1.8l-46.65-27.13a2.59 2.59 0 0 0-3 .31c-6.5 5.89-13.57 9.56-20.07 10.1-8.2.68-17.38 5.5-25.86 13.57l-32.41 30.85c-1.77 1.69-2.74 4.43-2.17 6.14a1.86 1.86 0 0 0 .93 1.12c.62.29 49.4 28.45 49.4 28.45l45.2-44s23.77-4 34.07-12.94c.72-.63 1.19-3.18 1.42-4.67Z"/><path class="cls-17" d="M998.33 705c-6.82 6.54-14.21 10-21.1 10.52-8.2.68-17.38 5.5-25.86 13.57L919 759.93c-1.77 1.68-2.74 4.43-2.17 6.14.47 1.37 1.79 1.64 3.21.82a5.55 5.55 0 0 0 1-.79l32.41-30.85c6.92-6.59 14.41-10.52 21.1-11.08 7.74-.64 16.15-4.91 23.93-11.78ZM1042.73 639.89c-1.29-.79-3.43.39-4.77 2.65l-28.15 47.36a56.63 56.63 0 0 1-8.48 11.4v8.49a74.17 74.17 0 0 0 13.16-17l28.14-47.36c1.37-2.26 1.37-4.74.1-5.54Z"/><path class="cls-17" d="M1001.33 701.3a2.43 2.43 0 0 1-3 .06v6.73l2.93 1.7Z"/><path class="cls-14" d="m1036.59 640.53-11.44 19.07-50.51-26.93c-2.1-1.33-2-5.39.19-9.08l3.45-5.71c2.21-3.68 5.7-5.6 7.8-4.27Z"/><path class="cls-17" d="M1038.48 641.73 1027 660.79l-1.89-1.19c-2.1-1.33-2-5.39.19-9.08l3.45-5.71c2.21-3.69 5.7-5.6 7.8-4.28Z"/><path class="cls-9" d="M1038.48 715.37a1.21 1.21 0 0 1-1.2-1.21v-61.29a1.21 1.21 0 1 1 2.41 0v61.29a1.21 1.21 0 0 1-1.21 1.21Z"/><path class="cls-9" d="M923.46 765.52a1.21 1.21 0 0 1-.61-2.25l115-66.39a1.21 1.21 0 1 1 1.21 2.09l-115 66.39a1.2 1.2 0 0 1-.6.16Z"/><path class="cls-9" d="M925.84 777.56a1.21 1.21 0 0 1-1.21-1.21v-13.41a1.21 1.21 0 1 1 2.42 0v13.41a1.21 1.21 0 0 1-1.21 1.21ZM1025.39 706.69a1.21 1.21 0 0 1-1.21-1.21V675a1.21 1.21 0 0 1 2.42 0v30.53a1.21 1.21 0 0 1-1.21 1.16ZM1012.91 714.05a1.21 1.21 0 0 1-1.21-1.21V695.9a1.21 1.21 0 0 1 2.42 0v16.94a1.21 1.21 0 0 1-1.21 1.21Z"/><path class="cls-2" d="M920.3 769.17A1.82 1.82 0 0 1 919 766l34.44-33c8-7.62 16.74-12.17 24.59-12.82 11.78-1 25.45-11.82 34.84-27.62l29.32-49.45a1.81 1.81 0 0 1 3.12 1.85l-29.31 49.4c-10 16.78-24.75 28.32-37.66 29.38-7 .59-15 4.79-22.38 11.83l-34.39 33.09a1.81 1.81 0 0 1-1.27.51Z"/><path class="cls-2" d="M970 725.79a2 2 0 0 1-.58-.09 1.82 1.82 0 0 1-1.14-2.3l1.69-5a36.9 36.9 0 0 1 14.76-19.08l39.67-25.85a1.81 1.81 0 0 1 2 3l-39.67 25.85a33.28 33.28 0 0 0-13.3 17.2l-1.69 5a1.81 1.81 0 0 1-1.74 1.27Z"/><path class="cls-9" d="M733.43 856c33.91 0 66-7.75 90.39-21.83 26.87-15.51 41.64-37.09 41.6-60.76v-8.14s-18.39-39.14-42-52.65c-24.31-13.93-56.26-21.59-90-21.59-2.33 0-4.68 0-7 .11-1.39 0-2.77.06-4.15.06-18.7 0-36.8-4-51-11.22l-.84-.43c-17.08-8.54-38.82-13.24-61.23-13.24-23.39 0-45.87 5.07-63.32 14.27-18.61 9.82-35.17 40.75-35.17 40.75s.06 4.27 0 7.17c-.35 18.43 11.26 35.83 31.87 47.73a118.29 118.29 0 0 0 35.32 13c15.93 3.29 28.87 10.13 34.63 18.31 7.13 10.15 17.37 19.11 30.41 26.64 24.48 14.04 56.58 21.82 90.49 21.82Z"/><path class="cls-2" d="M733.43 847.83c33.91 0 66-7.75 90.39-21.83 26.87-15.51 41.64-37.09 41.6-60.76s-14.95-45.31-42-60.79c-24.31-13.93-56.26-21.59-90-21.59-2.33 0-4.68 0-7 .11-1.39 0-2.77.06-4.15.06-18.7 0-36.8-4-51-11.22l-.84-.43c-17.08-8.54-38.82-13.24-61.23-13.24-23.39 0-45.87 5.07-63.32 14.27-22 11.6-34.8 29.06-35.16 47.92-.35 18.43 11.26 35.83 31.87 47.73a118.29 118.29 0 0 0 35.32 13c15.93 3.29 28.87 10.13 34.63 18.31C619.76 809.51 630 818.47 643 826c24.42 14.08 56.52 21.83 90.43 21.83Z"/><path class="cls-9" d="m664 684.52.72.36c17.14 8.76 39.41 13.5 62.26 12.77 32-1 64.65 5.48 89.2 19.54 46 26.35 46.16 69.64.34 96.09s-120.22 26.48-166.09 0c-11.43-6.6-20-14.23-25.74-22.37-7.92-11.26-23.85-20.15-43.67-24.24a104.42 104.42 0 0 1-31-11.33c-33.62-19.41-32.69-51.22 2.8-69.94 31.12-16.4 79.27-16.81 111.18-.88Z"/><path class="cls-11" d="M552.83 704.38C584 688 632.1 687.56 664 703.49l.72.37c17.14 8.76 39.41 13.49 62.27 12.76 32-1 64.64 5.49 89.19 19.55 18.89 10.81 30 24.49 33.46 38.68-3.42 14.08-14.45 27.66-33.12 38.43-45.86 26.48-120.22 26.48-166.09 0-11.43-6.6-20-14.23-25.74-22.37-7.92-11.26-23.85-20.15-43.67-24.24a104.42 104.42 0 0 1-31-11.33c-12.15-7-19.77-15.66-22.89-24.71 3.37-9.73 11.92-18.98 25.7-26.25Z"/><path d="M664 758.42c.24.12.48.24.71.37 17.14 8.75 39.42 13.49 62.27 12.76 32-1 64.64 5.49 89.19 19.54a93.41 93.41 0 0 1 15.73 11.19 93.1 93.1 0 0 1-15.43 11c-45.87 26.48-120.23 26.48-166.09 0-11.44-6.6-20-14.23-25.75-22.37-7.92-11.26-23.85-20.15-43.67-24.24a109.34 109.34 0 0 1-25.7-8.57c31.11-15.21 77.64-15.21 108.74.32Z" style="fill:#bba7f2"/><path class="cls-9" d="M831.15 773.27a1.31 1.31 0 0 1-1.31-1.31v-48.37a14 14 0 0 1 6.42-11.09c2-1.14 3.88-1.28 5.4-.41s2.33 2.59 2.33 4.84v5.13a1.31 1.31 0 0 1-2.62 0v-5.13a2.87 2.87 0 0 0-1-2.57 2.93 2.93 0 0 0-2.78.41 11.48 11.48 0 0 0-5.1 8.82V772a1.32 1.32 0 0 1-1.34 1.27ZM808.16 760a1.32 1.32 0 0 1-1.31-1.32V710.3a14 14 0 0 1 6.42-11.09c2-1.13 3.88-1.28 5.4-.4s2.33 2.59 2.33 4.84v5.12a1.31 1.31 0 1 1-2.62 0v-5.12a2.87 2.87 0 0 0-1-2.57 2.91 2.91 0 0 0-2.78.41 11.42 11.42 0 0 0-5.11 8.81v48.37a1.31 1.31 0 0 1-1.33 1.33Z"/><path class="cls-9" d="M831.15 764.24a1.28 1.28 0 0 1-.65-.18L807.79 751a1.31 1.31 0 0 1 1.31-2.27l22.71 13.11a1.31 1.31 0 0 1-.66 2.45ZM831.15 751.8a1.26 1.26 0 0 1-.65-.17l-22.71-13.12a1.31 1.31 0 0 1 1.31-2.27l22.71 13.11a1.32 1.32 0 0 1 .48 1.8 1.3 1.3 0 0 1-1.14.65ZM831.15 739.37a1.28 1.28 0 0 1-.65-.18l-22.71-13.11a1.31 1.31 0 0 1 1.31-2.27l22.71 13.11a1.31 1.31 0 0 1-.66 2.45ZM831.15 726.93a1.26 1.26 0 0 1-.65-.17l-22.71-13.11a1.31 1.31 0 0 1 1.31-2.28l22.71 13.12a1.31 1.31 0 0 1-.66 2.44Z"/><path class="cls-7" d="M531.3 686.45c-1.92 1.11-1.92 2.91 0 4a7.71 7.71 0 0 0 7 0c1.93-1.11 1.93-2.91 0-4a7.65 7.65 0 0 0-7 0ZM583.07 664.27c-1.93 1.11-1.93 2.91 0 4a7.71 7.71 0 0 0 7 0c1.92-1.11 1.92-2.91 0-4a7.71 7.71 0 0 0-7 0ZM658.84 672.78c-1.93 1.11-1.93 2.91 0 4a7.69 7.69 0 0 0 7 0c1.93-1.11 1.93-2.91 0-4a7.69 7.69 0 0 0-7 0ZM728.08 686.45c-1.92 1.11-1.92 2.91 0 4a7.71 7.71 0 0 0 7 0c1.92-1.11 1.92-2.91 0-4a7.65 7.65 0 0 0-7 0ZM787.83 696.81c-1.93 1.11-1.93 2.91 0 4a7.63 7.63 0 0 0 7 0c1.93-1.11 1.93-2.91 0-4a7.69 7.69 0 0 0-7 0ZM847.25 738.89c-1.92 1.11-1.92 2.91 0 4a7.71 7.71 0 0 0 7 0c1.93-1.11 1.93-2.91 0-4a7.71 7.71 0 0 0-7 0ZM841.18 798c-1.92 1.11-1.92 2.92 0 4a7.71 7.71 0 0 0 7 0c1.93-1.11 1.93-2.92 0-4a7.71 7.71 0 0 0-7 0ZM788.93 830.24c-1.92 1.11-1.92 2.91 0 4a7.65 7.65 0 0 0 7 0c1.93-1.11 1.93-2.91 0-4a7.71 7.71 0 0 0-7 0Z"/><ellipse class="cls-7" cx="715.2" cy="838.83" rx="4.93" ry="2.85"/><path class="cls-7" d="M515.11 726.88c-1.93 1.12-1.93 2.92 0 4a7.71 7.71 0 0 0 7 0c1.92-1.11 1.92-2.91 0-4a7.71 7.71 0 0 0-7 0ZM543.94 760.46c-1.93 1.11-1.93 2.91 0 4a7.71 7.71 0 0 0 7 0c1.92-1.11 1.92-2.91 0-4a7.71 7.71 0 0 0-7 0ZM602.93 782.47c-1.92 1.12-1.92 2.92 0 4a7.71 7.71 0 0 0 7 0c1.93-1.11 1.93-2.91 0-4a7.71 7.71 0 0 0-7 0ZM653 822.69c-1.93 1.11-1.93 2.91 0 4a7.71 7.71 0 0 0 7 0c1.92-1.11 1.92-2.91 0-4a7.71 7.71 0 0 0-7 0Z"/><path class="cls-19" d="M646.41 734.19c-27.16 15.68-27.16 41.1 0 56.77s71.18 15.68 98.33 0 27.16-41.09 0-56.77-71.18-15.68-98.33 0Zm77.12 44.53c-15.44 8.91-40.47 8.91-55.91 0s-15.44-23.37 0-32.29 40.47-8.91 55.91 0 15.47 23.37 0 32.29Z"/><path class="cls-19" d="M733.2 769.59a25.16 25.16 0 0 1-9.67 9.13c-15.44 8.91-40.47 8.91-55.91 0-4.59-2.65-7.81-5.79-9.67-9.13h-30.84c2.39 7.83 8.82 15.33 19.3 21.37 27.15 15.68 71.18 15.68 98.33 0 10.48-6 16.91-13.54 19.3-21.37Z"/><path class="cls-19" d="m637.52 724 3.4 46.85-3.4 13.9c-17.89-15.27-17.89-44.53 0-60.75ZM753.87 724.13c17.9 16.22 18.33 44.12 0 60.33l-3-14.93Z"/><path class="cls-14" d="M646.41 717.63c-27.16 15.68-27.16 41.1 0 56.78s71.18 15.68 98.33 0 27.16-41.1 0-56.78-71.18-15.63-98.33 0Zm77.12 44.53c-15.44 8.92-40.47 8.92-55.91 0s-15.44-23.37 0-32.28 40.47-8.91 55.91 0 15.47 23.37 0 32.28Z"/><path class="cls-28" d="M661 786.41a4.18 4.18 0 0 1-1.46-.27 72.13 72.13 0 0 1-9.8-4.67 4 4 0 1 1 4-7 64.63 64.63 0 0 0 8.69 4.13 4 4 0 0 1-1.46 7.79Z"/><path class="cls-17" d="M695.7 720.64c-9.87 0-19.75 2.22-27.45 6.66-6.52 3.77-10.64 8.68-11.92 14.21a16.24 16.24 0 0 0 2.44 12.75c-.43-.65-.35-2.35-.39-3.15a19.66 19.66 0 0 1 .08-3.43 15.77 15.77 0 0 1 2.16-6.53c0-.08.09-.15.14-.23 2.59-4.08 7-6.69 11.12-8.95a41.38 41.38 0 0 1 12.57-4.14 58.67 58.67 0 0 1 11.25-.83Z"/><path class="cls-17" d="M695.7 720.64c9.88 0 19.75 2.22 27.45 6.66 6.52 3.77 10.65 8.68 11.93 14.21a16.32 16.32 0 0 1-2.44 12.75c.42-.65.34-2.35.38-3.15a19.66 19.66 0 0 0-.08-3.43 15.63 15.63 0 0 0-2.16-6.53l-.13-.23c-2.6-4.08-7-6.69-11.13-8.95a41.2 41.2 0 0 0-12.52-4.14 58.61 58.61 0 0 0-11.3-.83Z"/><path class="cls-28" d="M725.17 784.1a4 4 0 0 0-4.92-2.76 100.73 100.73 0 0 1-41.16 1.75 4 4 0 0 0-4.68 3.7 4.12 4.12 0 0 0 3.5 4.27 109.1 109.1 0 0 0 17.63 1.42 106.33 106.33 0 0 0 26.83-3.37 4 4 0 0 0 2.8-5ZM756.79 772.24c2.14 8.71-3.39 15.69-12.37 15.59s-18-7.24-20.13-16 3.39-15.7 12.36-15.6 17.99 7.29 20.14 16.01Z"/><ellipse class="cls-17" cx="741.54" cy="770.55" rx="11.67" ry="14.44" transform="rotate(-51.59 741.608 770.571)"/><path class="cls-17" d="M766 694.81a7.35 7.35 0 0 0-.16-1.27c-1.24-9.54-6.12-20.09-13.54-29.15-8.23-10.07-18.28-16.56-26.22-17a15.85 15.85 0 0 0-3.82.25 1.59 1.59 0 0 0-.28.05c-17 2.85-21 18.54-21 18.54-1.43 4.37-1.87 9.88-1.16 16.28 1.64 15 8.53 32 19.92 49.1 1.31 2 2.66 3.93 3.93 5.83 5.81 8.7 12.86 14.64 6.38 24.22-5 7.33 17.73 22 21.82 18.71 6-4.79 8.13-15.72 6.77-21.94-3.1-14.05-11.16-22.55-18.92-34-1.26-1.86-2.56-3.79-3.82-5.68-6.56-9.86-14.73-24.78-16.37-39.8a35.59 35.59 0 0 1-.21-5.56c.32-5.93 3.56-5.24 3.93-5.15 4.54 1.44 9.74 5.35 14.23 10.83 5 6.1 8.18 13.06 8.77 19.1a9.29 9.29 0 0 0 .51 2.21c.08.23.17.46.27.68 2.21 5.42 7.86 9.37 13.38 7.67 5.31-1.63 5.64-8.08 5.58-12.81a6.13 6.13 0 0 0 .01-1.11Z"/><path class="cls-19" d="M754.13 710.13s-.6-5.32 2.08-6.56c1.44-.67 3 2.26 4.65 3 1.41.62 3-1 3.34-.55.75 1 2.27 20.29-2.07 15.69-1.48-1.59-8-11.58-8-11.58Z"/><path class="cls-9" d="M757.7 696.48a1.78 1.78 0 1 1-1.77-1.78 1.77 1.77 0 0 1 1.77 1.78Z"/><path class="cls-14" d="M709.1 695.82a2.68 2.68 0 0 1-2.58-2c-4-14.2-3-24.93 3.07-31.89a2.69 2.69 0 1 1 4.06 3.53c-4.71 5.42-5.39 14.72-2 26.91a2.67 2.67 0 0 1-1.86 3.31 2.57 2.57 0 0 1-.69.14ZM721.08 660.78a2.69 2.69 0 0 1-.65-5.3 18.48 18.48 0 0 1 3.17-.52h.12a2.69 2.69 0 0 1 .14 5.37 12.93 12.93 0 0 0-2.14.37 2.8 2.8 0 0 1-.64.08Z"/><path class="cls-2" d="M716.67 326.12h-2.81v-2.37h2.81Zm0-10.23h-2.81v-3.38h2.81Zm0-11.24h-2.81v-3.38h2.81Zm0-11.24h-2.81V290h2.81Zm0-11.25h-2.81v-3.37h2.81Zm0-11.24h-2.81v-3.37h2.81Zm0-11.24h-2.81v-3.37h2.81Zm0-11.24h-2.81v-3.37h2.81Z"/><ellipse class="cls-10" cx="142.93" cy="899.9" rx="40.12" ry="23.31"/><path class="cls-2" d="M176.38 696.68c-18.36-11-48.12-11-66.48 0a41.13 41.13 0 0 0-4.59 3.19l3.15 4.87 76.62 11.84h5.07c0-7.2-4.59-14.4-13.77-19.9ZM178.8 892.36v5.29c0 5.29-3.49 10.58-10.48 14.61-14 8.08-36.65 8.08-50.63 0-6.6-3.81-10.08-8.73-10.45-13.72-.41-5.58 0-6.38 0-6.38Z"/><ellipse class="cls-11" cx="143.01" cy="892.16" rx="35.8" ry="20.67"/><path class="cls-2" d="M125.66 838.08h34.69v50.45h-34.69z"/><path class="cls-11" d="m182.38 750 7.77-33.44h-94l7.8 33.55c4.23 18.21 1.67 37.15-6.21 54.11A50 50 0 1 0 188 803c-8.15-16.32-9.76-35.18-5.62-53Z"/><ellipse class="cls-11" cx="143.14" cy="716.58" rx="41.94" ry="23.11"/><path class="cls-17" d="M176.28 785.6h-66.55a78 78 0 0 1-6.35 20.81 43.82 43.82 0 1 0 79-1 65.43 65.43 0 0 1-6.1-19.81Z"/><ellipse class="cls-14" cx="143.01" cy="787.15" rx="33.35" ry="19.26"/><ellipse class="cls-2" cx="143.01" cy="888.52" rx="17.35" ry="10.02"/><path class="cls-2" d="m241.48 656.67-49 12a14.21 14.21 0 0 0-9.62 8l-53 116.59 5.19.53 52.3-115.06a9.27 9.27 0 0 1 6.27-5.2l49-12Z"/><path class="cls-2" d="M134.31 792.49a1.14 1.14 0 0 1 0 2.16 4.17 4.17 0 0 1-3.74 0 1.14 1.14 0 0 1 0-2.16 4.11 4.11 0 0 1 3.74 0Z"/><path d="m106.07 701.39 3.26 4.57Z" style="fill:#6c85cf"/><path class="cls-17" d="M127.91 688.67c-10.56-18.11-27.69-28.19-38.45-22.83-.26.13-3.36 1.95-3.36 1.95l20 33.6 2.12 3 .21-4.32 20.17 33.09 2.55-1.73c7.66-8.25 6.3-26.43-3.24-42.76Z"/><path class="cls-14" d="M85.79 668.15s-7.7 24.72 3.1 43.25c4.41 7.57 15.39 20.75 15.39 20.75l2.59-1.19 1.32-26.6-2.12-3Z"/><path class="cls-19" d="M125.58 690c-10.8-18.53-28.49-28.66-39.19-22.42-.24.14-.43.31-.66.46l20.34 33.33 3.26 4.57 19.24 27c7.93-8.04 6.66-26.37-2.99-42.94ZM86.57 712.76c4.75 8.15 11 15 17.71 19.39l1.79-30.76-20.34-33.33c-10.01 6.7-9.73 26.56.84 44.7Z"/><path class="cls-19" d="M106 703.2c-8.32 7.68-8.81 17.38-1.48 25.31Z"/><path class="cls-30" d="m106.82 702.44 7.7-23.92Z"/><path class="cls-23" transform="rotate(-72.15 110.67 690.475)" d="M98.11 689.65h25.12v1.66H98.11z"/><path class="cls-30" d="m86.89 670 19.93 32.48Z"/><path class="cls-23" transform="rotate(-31.54 96.867 686.205)" d="M96.02 667.14h1.66v38.11h-1.66z"/><path class="cls-30" d="m82.18 697.9 47.82 7.3Z"/><path class="cls-23" transform="rotate(-81.32 106.082 701.548)" d="M105.25 677.37h1.66v48.37h-1.66z"/><path class="cls-14" d="M106.07 669.47c-15.33-8.86-27.77-1.74-27.77 15.89 0 15.51 9.63 34 22.4 44.24l-2-5.8c-9.81-9.86-17.1-24.9-17.42-37.59-.41-16 10.37-22.14 24.07-13.76s25.15 28.14 25.56 44.12c.16 6.24-1.4 11-4.16 13.92l1.8 2.59c3.33-3.34 5.32-8.65 5.32-15.66-.02-17.63-12.46-39.1-27.8-47.95Z"/><path d="m97.52 722.55 1.26 5.45c.63.56 4.45 3.57 5.1 4.09l-5.2-8.27Z" style="fill:#d4d4f8"/><path class="cls-2" d="M185.08 716.58c0 5.92-4.09 11.83-12.28 16.35-16.38 9-42.94 9-59.32 0-8.19-4.52-12.28-10.43-12.28-16.35h-5.07c0 7.21 4.59 14.41 13.77 19.91 18.36 11 48.12 11 66.48 0 9.18-5.5 13.77-12.7 13.77-19.91Z"/><path class="cls-2" d="M113.48 732.93c-14.33-7.9-16.12-20.09-5.37-29.06l-2.75-4c-13.67 11-12.15 26.66 4.54 36.66ZM461.06 944.89l-.13-2.81c1.1-.05 2.21-.13 3.29-.23l.27 2.8c-1.13.1-2.28.18-3.43.24Zm-8 0c-1.13-.06-2.29-.16-3.43-.28l.3-2.79c1.09.11 2.2.2 3.29.27Zm19.36-1.37-.55-2.75c1.06-.22 2.14-.46 3.22-.73l.68 2.72c-1.12.24-2.25.49-3.36.71Zm-30.7-.17a77.61 77.61 0 0 1-3.35-.8l.72-2.71c1.06.27 2.15.53 3.22.76Zm41.71-2.95-1-2.64c1-.38 2.06-.79 3.08-1.21l1.09 2.58c-1.04.4-2.11.87-3.18 1.22Zm-52.69-.3c-1.06-.41-2.13-.84-3.18-1.3l1.12-2.58c1 .44 2 .86 3.06 1.25Zm63.09-4.47-1.36-2.46c.38-.2.76-.42 1.13-.63l1.78-1 1.4 2.44-1.77 1c-.4.17-.79.39-1.19.6Zm-73.43-.41-2.94-1.69 1.41-2.44 2.91 1.68Zm83.2-5.21-1.41-2.43 2.92-1.69 1.41 2.43Zm-92.95-.42-2.92-1.68 1.4-2.44 2.92 1.69Zm102.68-5.2-1.4-2.43 2.92-1.69 1.4 2.43Zm-112.41-.42-2.92-1.73 1.41-2.44 2.92 1.69Zm122.14-5.2-1.4-2.43 2.92-1.69L526 917Zm-131.88-.42-2.92-1.68 1.41-2.44 2.92 1.69Zm141.62-5.2-1.41-2.43 2.93-1.69 1.4 2.44Zm-151.35-.42-2.93-1.73 1.4-2.44 2.92 1.69Zm161.08-5.2-1.4-2.43 2.92-1.69 1.4 2.44Zm9.74-5.62-1.41-2.43 2.92-1.69 1.41 2.44Zm9.73-5.62-1.4-2.43 2.92-1.69 1.4 2.44Zm9.74-5.62-1.41-2.43 2.92-1.69 1.41 2.43Zm9.73-5.62-1.4-2.43 2.92-1.69 1.4 2.43Zm9.74-5.62-1.42-2.43 2.92-1.69 1.41 2.43Zm9.73-5.62-1.41-2.43.18-.1 1.41 2.43ZM382.13 903.84l-12.76 7.36-2.11-8.58 14.87 1.22zM1136.98 903.68l12.76 7.37 2.1-8.58-14.86 1.21zM83.43 808.76l-12.28 7.09 14.3 1.17-2.02-8.26z"/></g></g></svg>