<svg width="15" height="15" viewBox="0 0 15 15" fill="none" xmlns="http://www.w3.org/2000/svg">
<path d="M7.44199 12.4231H7.44202C7.63262 12.4246 7.83983 12.5014 7.99471 12.566C8.172 12.64 8.37647 12.7408 8.5915 12.8534C8.88735 13.0082 9.22715 13.1982 9.57123 13.3906C9.72457 13.4763 9.87876 13.5625 10.0303 13.6463C10.533 13.9242 11.0104 14.1779 11.3896 14.3389C11.5064 14.3885 11.6054 14.4256 11.6869 14.4515C11.6887 14.3667 11.6856 14.2619 11.6765 14.1366C11.6468 13.7269 11.561 13.1944 11.4604 12.6301C11.43 12.4601 11.3983 12.2867 11.3667 12.1143C11.2958 11.7273 11.2258 11.3451 11.1748 11.0158C11.1377 10.7764 11.1084 10.5507 11.0957 10.3593C11.0847 10.1924 11.079 9.97126 11.1396 9.79016L11.1396 9.79013C11.2002 9.60913 11.3379 9.43598 11.4473 9.30915C11.5726 9.16381 11.732 9.00103 11.9058 8.83188C12.145 8.59916 12.4312 8.33559 12.721 8.06871C12.8501 7.94979 12.98 7.8302 13.1067 7.71239C13.5271 7.32156 13.9166 6.94722 14.1873 6.63738C14.2696 6.54323 14.3349 6.46172 14.3845 6.39305C14.3041 6.36512 14.2032 6.33571 14.0811 6.30566C13.6809 6.20719 13.1463 6.12399 12.577 6.04504C12.4054 6.02124 12.2301 5.99778 12.0559 5.97445C11.6649 5.9221 11.2789 5.87041 10.9491 5.817C10.7094 5.77818 10.4852 5.7363 10.2989 5.6892C10.1363 5.64807 9.92429 5.58535 9.77081 5.47226L9.77078 5.47225C9.61717 5.35905 9.49461 5.17512 9.40737 5.03206C9.30746 4.86825 9.20144 4.66677 9.09382 4.44963C8.94574 4.15088 8.78278 3.79794 8.61777 3.44058C8.54427 3.2814 8.47036 3.12134 8.39719 2.9648C8.15436 2.44532 7.9177 1.96035 7.70588 1.60791C7.64063 1.49934 7.58239 1.41129 7.53172 1.34265C7.47994 1.41047 7.42027 1.49759 7.35325 1.60511C7.13574 1.95411 6.89126 2.4352 6.64004 2.9507C6.56432 3.10607 6.48782 3.26495 6.41174 3.42296C6.24098 3.77758 6.07234 4.12782 5.91945 4.42412C5.80833 4.63949 5.69906 4.83924 5.59652 5.00142C5.50697 5.14303 5.38146 5.32496 5.22604 5.43565C5.22603 5.43566 5.22603 5.43567 5.22602 5.43567L4.93596 5.0284C4.71103 5.18862 3.83577 5.29149 2.88341 5.40342C1.57848 5.55678 0.128768 5.72717 0.00880083 6.08541L7.44199 12.4231ZM7.44199 12.4231C7.2514 12.4216 7.04297 12.495 6.88707 12.5571C6.70861 12.6282 6.50254 12.7257 6.28571 12.8348C5.9874 12.9849 5.64458 13.1694 5.29743 13.3562C5.14272 13.4394 4.98715 13.5231 4.83428 13.6045C4.32718 13.8743 3.8457 14.1202 3.46389 14.2752C3.34641 14.3228 3.2468 14.3583 3.16489 14.3829C3.16445 14.2981 3.16924 14.1934 3.18036 14.0683C3.21673 13.6591 3.31112 13.1281 3.42087 12.5655C3.45395 12.3959 3.48851 12.2231 3.52288 12.0512C3.60003 11.6654 3.67622 11.2844 3.73253 10.9559C3.77345 10.7172 3.80645 10.492 3.82219 10.3009C3.83592 10.1341 3.84524 9.91309 3.78755 9.73103C3.72988 9.54906 3.59501 9.37369 3.4877 9.24512C3.36473 9.09778 3.208 8.93245 3.03693 8.76053C2.80157 8.52398 2.51965 8.25583 2.23418 7.9843C2.107 7.86333 1.9791 7.74168 1.85431 7.62187C1.44026 7.22432 1.05692 6.84376 0.791244 6.52961C0.7105 6.43413 0.646502 6.35158 0.598059 6.28213L7.44199 12.4231Z" stroke="white"/>
</svg>
