<svg xmlns="http://www.w3.org/2000/svg" viewBox="0 0 2745 1830"><path fill="#77aed8" d="M1356.82,1830l5.13-25.39s8.11-44.64-11-83.56a97.58,97.58,0,0,0-11.5-18.11c-10.31-12.81-24.86-23.89-45.26-30.87-34.71-12.26-63.41,1.84-86.62,27.88-30.08,33.77-51,87.59-63.81,130h213.1Z"/><path fill="#77aed8" d="M1384.82,1672s-.09,0-.15.06C1384,1672.2,1384.61,1672,1384.82,1672Z"/><path fill="#77aed8" d="M1356.82,1830h178.43c-11.23-37.69-31.48-90.9-63.11-125.38-13.51-14.74-29.09-26.06-47-31.32h0a81.94,81.94,0,0,0-40.47-1.23,103.71,103.71,0,0,0-28.92,15.06,90.43,90.43,0,0,0-16.34,15.81,96.83,96.83,0,0,0-11.78,18.73c-18.75,38.79-10.73,82.94-10.73,82.94L1322,1830Z"/><path fill="#352b34" d="M1001.58,1453.52a71.52,71.52,0,0,0,6.77-11c8.74-17.52,3.69-38.4-10.67-51.67-21.31-19.69-19.68-47.44-2-65.3,20.32-20.52,48.76-5.1,35.21-47.75-13.36-42,20-53.13,24.27-61.41,15.94-30.65,72.82-12.87,89.66-43,9.81-17.58-1.07-41.45,8.81-59,17.48-31.07,78.63-12.05,91.33-45.37,3.69-9.69,1.38-21,5.81-30.4,13.18-27.93,63.4-8.17,82.35-32.53,3.74-4.81,5.65-10.79,8.92-15.92,7.68-12.08,23.33-18.44,37.22-15.15s25,16,26.52,30.27l.9,0c12.51-30.64,62.74-34.58,79.86-6.27,4.11,6.79,20.07,33.2,24.87,39.52,18.12,23.83,44.76-3,66.27,17.84,37.12,35.87,1.85,68.09,23.45,92.28,16.89,18.9,47.5,13.49,71,22.87,23,9.17,38.77,34.47,35.85,59.38a47.17,47.17,0,0,0,.59,15.18c7.47,35.93,45.94,21.62,69.17,48.5,7.39,8.55,10.63,20.05,11.46,31.34,1.38,18.57-8.64,31.79-23.32,42a33.91,33.91,0,0,0-6.9,49c25.62,31.7,5.6,99.47-57.48,89.71-8.1-1.25-16.1,3.45-22.63,8.43-35.74,27.22,29.23,42.41,4.88,87.59-9.14,17-27.72,25.29-46.91,26.12s-41,.1-54.35,13.91c-9.1,9.38-11.76,23.21-18.71,34.28-14,22.34-47.26,29.64-69.33,15.24-12.49-8.16-21.1-21.75-34.53-28.22-21.58-10.39-40.78,19.13-63.14,27.71s-49.8-5.4-64.65-24.19a67.69,67.69,0,0,0-17.55-16.17c-58.74-35.79-53.87,37.79-113.11,29.08-25.37-3.73-45.13-30.28-41.71-56.08a32.75,32.75,0,0,0,.32-8c-3.16-27.45-34.5-18.2-56.32-13.38-14.62,3.23-30.74,2.15-43.34-5.93s-20.65-24.08-16.78-38.58c2-7.53,7-14.43,6.71-22.21-.78-24.63-44.67-22.35-53.73-45.26C991.92,1479.09,993.88,1463.79,1001.58,1453.52Z"/><path fill="#ffaa9f" d="M1482.81,1269.74c-44.52,36.61-72.16,94.55-115.78,128-39.33,32-121.93,12.9-137.75-24.11-4.14-10.88-6-26.09-4.71-44.2,1.89-25.61,10.12-57.08,27.33-90.41.21-.45.46-.94.7-1.39-3.66-1.7,2.18.75,8.72,3.58a139,139,0,0,0,28,8.53C1323.35,1256.26,1408.6,1270.84,1482.81,1269.74Z"/><path fill="#f4ebe8" d="M1482.82,1269.78c-44.53,36.57-72.21,94.51-115.79,128-39.33,32-118.47,11.78-134.29-25.24-17.93-36.59-2.16-85,19.9-134.83a120.82,120.82,0,0,0-14.25-3.29l-46.65,106.81c-24.07,68.12-67,147.42,13.94,195.28l-8,157.42c78.3,54.67,273.91,11.79,273.91,11.79,7.13-13.8,29.65-136.46,37.65-149.1,16.55-72.24,50.33-210.66,53.14-284.23C1555.1,1270.57,1490.34,1269.66,1482.82,1269.78Z"/><path fill="#f4ebe8" d="M1251.9,1239.06c-17.21,33.33-25.44,64.8-27.33,90.41L1179.78,1403s-112.26-109.63-130.8-126.45a635.15,635.15,0,0,1,114.69-112.34c24.62,21.71,52.44,45.67,79.49,67.75,2.07,1.72,4.14,3.39,6.21,5.07C1250.22,1237.71,1251.06,1238.37,1251.9,1239.06Z"/><path fill="#ffaa9f" d="M924.52,1093.79c.15,19.48,3.67,44.22,16.29,68.91a160,160,0,0,0,22.7,33.2c29,32.76,60.75,61.7,84.45,81.92a635.82,635.82,0,0,1,116.43-114.17c-22.66-20.28-42.67-38.52-57.1-51.13-13.54-11.83-32.13-34.84-29.65-52.68h0c-24.17,4.94-34.12,16.4-58.47,21.7C987,1088.18,956.29,1092.9,924.52,1093.79Z"/><path fill="#ffaa9f" d="M1075.61,833.36,960.44,978.48c-19.37,24.4-32.29,53.54-36,84.52a114.14,114.14,0,0,0,.06,30.79,642.14,642.14,0,0,0,98.55,34c24.25,5.73,38.88-47.78,38.88-47.78l114-146.2Z"/><path fill="#352b34" d="M1387.94,999.41c.19-13.72-10.72-21.27-23.52-22.57-18.42-1.88-30.42,9.62-42.59,21.78-11.16,11.14-21.3,18.77-37.95,18.75-13.28,0-26.13-4.46-39.46-2.33-15.62,2.5-28.58,11.59-29.53,28.33-.5,9,2.07,19.91-10.46,23.12-4.57,1.17-9.77.32-14.41-.14-10.75-1.07-20.81-3-31.44.1-17,4.89-31.72,18.86-36.7,36-3.18,11-.75,22.13-1.89,33.31-1.64,16.11-13.63,30.08-29.12,34.84-23.44,7.18-43.52-15.27-66.57-8-21.21,6.67-26.55,31.31-26,50.77.49,16.11,4.59,32.83-.51,48.64-2.92,9.06-9.83,17.46-19.6,19.23-17.27,3.13-23.94-23.75-6.9-23.27,5.89.16,5.88-9,0-9.18-13.54-.38-22.08,13.59-19,26.34,3.91,16.46,24.2,18.75,37.06,11.69,18.94-10.4,21-34,19.7-53.27-1.12-16.53-4.87-35.26,4.2-50.35,11.35-18.9,29.78-11.49,46.3-5.67,18.9,6.66,38.06,4.41,53.38-9.31a49.54,49.54,0,0,0,15-24.14c3.34-12.88-1-26.39,2.76-39.16,4.36-14.73,17.46-26.78,32.33-30.23,12.88-3,25.63,2.15,38.56,1.4,6.69-.39,13.61-2.16,18-7.56,8.39-10.22.35-23.71,6.93-34.24,9.37-15,32-10.36,46.14-8.78,13.79,1.54,26.92,1.55,39-6.12,10.44-6.66,18-16.65,27.27-24.63s40.15-17.08,39.85,4.63c-.08,5.91,9.07,5.91,9.15,0Z"/><path fill="#352b34" d="M1420.15,1004.67c17-16,44.26-17.68,63.53-4.45,15.16,10.4,17.7,33.29,35.11,40.62,10.06,4.23,20.28.64,30.57-.06,13.1-.88,24.06,3.66,32.57,13.8,16.33,19.48,14.37,41.49,16.23,65,3.7,46.49,61.46,28.56,90,45.61,24.85,14.85,32.6,39,34,66.34,1,18.78,4.46,35.76,22,45.63,13.62,7.68,40.1,11.53,44.39-9.42,2.7-13.16-11.9-22.94-22.85-15.8-4.92,3.2-.34,11.15,4.61,7.92l-2,7.44q1.13,10.51-6.79,6.49c-3.91.13-9.46-2.57-12.73-4.55-6.41-3.9-12-9.39-14.49-16.62-3.87-11.12-2.58-23.47-3.66-35a77.56,77.56,0,0,0-17.45-42.78c-10.54-12.72-25.21-22.34-41.35-26.09-16.83-3.92-38.76.45-53.68-9.4-16.85-11.13-9.24-38.71-13.18-56.31-3.19-14.26-9.67-28.57-20.3-38.82s-23.45-13.75-37.82-12.23c-14.8,1.58-26.62,3.37-35.94-11.18-4.08-6.37-7-13.32-12-19.09-21.55-24.79-61.73-25.57-85.22-3.48-4.3,4.05,2.18,10.52,6.47,6.49Z"/><path fill="#ffaa9f" d="M1323.24,1193s-9.81,53.15-33.89,56.77,11.94,70.62,11.94,70.62l127-52.24s-20.69-17.07,10.92-79.7Z"/><path fill="#ffaa9f" d="M1358.85,1223.92h0c-39.93-12.92-62.06-56.26-49.17-96.3l13.37-41.59c12.88-40,56.09-62.24,96-49.32h0c39.93,12.92,62,56.26,49.17,96.3l-13.37,41.59C1442,1214.65,1398.77,1236.84,1358.85,1223.92Z"/><path fill="#ce6159" d="M1324.2,1210.15c17.76,17.06,39.21,18.94,62.41,13.81,5.75-1.27,3.31-10.12-2.43-8.85-20,4.42-38.1,3.35-53.51-11.45-4.25-4.08-10.73,2.4-6.47,6.49Z"/><path fill="#352b34" d="M1357.07,1111c-1.34,5.24-4.34,9-6.71,8.39s-3.2-5.35-1.86-10.59,4.34-9,6.71-8.39S1358.41,1105.73,1357.07,1111Z"/><path fill="#352b34" d="M1414.26,1130.08c-1.34,5.25-4.34,9-6.71,8.39s-3.2-5.34-1.86-10.59,4.34-9,6.71-8.38S1415.6,1124.85,1414.26,1130.08Z"/><path fill="#352b34" d="M1411.68,1105.26a21.94,21.94,0,0,1,15.4,10.93c2.9,5.14,10.81.52,7.9-4.64a30.74,30.74,0,0,0-20.87-15.14c-5.75-1.1-8.22,7.74-2.43,8.85Z"/><path fill="#352b34" d="M1347.45,1088a21.45,21.45,0,0,1,17.69,0c5.33,2.42,10-5.48,4.62-7.92a31.5,31.5,0,0,0-26.93,0c-5.35,2.43-.71,10.35,4.62,7.93Z"/><path fill="#ce6159" d="M1373.74,1117.66l-14.31,10.64c-3.2,2.38-7.07,4.68-7.93,8.92-2.17,10.77,10.12,12.74,16.78,16.51,5.13,2.91,9.75-5,4.62-7.92a42.08,42.08,0,0,0-6.84-2.91c-3.77-1.34-6.36-2.56-2.85-6.05,4.3-4.29,10.28-7.64,15.15-11.26,4.68-3.48.12-11.45-4.62-7.93Z"/><path fill="#352b34" d="M1342.32,1160c-2.81,6.4,6.2,19.18,13.12,23,4.44,2.46,5.11,2.63,10.13,3.3a22,22,0,0,0,7.77,0c4.75-1.09,12.8-4,15.8-7.86,1.51-1.93,2.95-4.42,2.7-6.71C1374.82,1177.77,1357.05,1176.72,1342.32,1160Z"/><path fill="#f5dabe" d="M1386.05,1167.6c-2.06.05-2,.73-4,.76-15.4.28-23.54-3.14-30-6.67-1.42-.78-2.3-2.32-3.71-3.13s-3.4-1.47-4.63-.42a5.18,5.18,0,0,0-1.39,1.89c14.73,16.69,32.5,17.74,49.52,11.75a4.14,4.14,0,0,0-.49-1.64C1390.35,1168.34,1388.11,1167.55,1386.05,1167.6Z"/><path fill="#ffaa9f" d="M1149.37,966.79l122.86-116.3a17.52,17.52,0,0,0,4.56-17.92c-4.49-13.1-21.21-9.85-31.35-3-9.27,6.29-19.13,14.93-30.07,12.5-2.17-.48-4.4-1.56-5.35-3.58-.8-1.71-.51-3.71-.18-5.58a251.11,251.11,0,0,1,12.3-44.81c4.63-12.3,10.33-24.76,8.15-38.14a25.49,25.49,0,0,0-9.57-16.35c-12.08-9-21.67,2.52-28.46,13.18a47,47,0,0,0-6.49,18.53c-1,7-7.09,19.23-10.28,30.46-2.37,8.33-13.37,16.51-7.73-3,4.31-14.91,9.66-30.69,14.19-45.89,2.86-9.59,3.45-23.81,1.45-34.29a15.59,15.59,0,0,0-8.56-11.47c-12-5.4-22.29,7.78-27.4,19.18-8.82,19.69-13.34,43.4-17.36,65.39-.74,4.06-4.65,4.91-4.93.79a33.53,33.53,0,0,1,.88-9.69c2.09-9.09,2.12-20.18-1.17-29.66-1.5-4.34-5-7.87-9.54-8.56-7.31-1.12-11.68,5-14.22,10.91-4.23,9.82-5.73,20.57-7.89,31-6,28.87-15.23,57.68-31.26,82.39Z"/><path fill="#ce6159" d="M1195.1,839.68c-26.08-2-44.37,16.78-60,35.13-3.81,4.47,2.63,11,6.47,6.49,14.08-16.47,29.89-34.23,53.58-32.44,5.87.44,5.84-8.74,0-9.18Z"/><path fill="#ffaa9f" d="M1149.37,966.79l122.86-116.3a17.52,17.52,0,0,0,4.56-17.92c-4.49-13.1-21.21-9.85-31.35-3-9.27,6.29-19.13,14.93-30.07,12.5-2.17-.48-4.4-1.56-5.35-3.58-.8-1.71-.51-3.71-.18-5.58a251.11,251.11,0,0,1,12.3-44.81c4.63-12.3,10.33-24.76,8.15-38.14a25.49,25.49,0,0,0-9.57-16.35c-12.08-9-21.67,2.52-28.46,13.18a47,47,0,0,0-6.49,18.53c-1,7-7.09,19.23-10.28,30.46-2.37,8.33-13.37,16.51-7.73-3,4.31-14.91,9.66-30.69,14.19-45.89,2.86-9.59,3.45-23.81,1.45-34.29a15.59,15.59,0,0,0-8.56-11.47c-12-5.4-22.29,7.78-27.4,19.18-8.82,19.69-13.34,43.4-17.36,65.39-.74,4.06-4.65,4.91-4.93.79a33.53,33.53,0,0,1,.88-9.69c2.09-9.09,2.12-20.18-1.17-29.66-1.5-4.34-5-7.87-9.54-8.56-7.31-1.12-11.68,5-14.22,10.91-4.23,9.82-5.73,20.57-7.89,31-6,28.87-15.23,57.68-31.26,82.39Z"/><path fill="#ce6159" d="M1195.1,839.68c-26.08-2-44.37,16.78-60,35.13-3.81,4.47,2.63,11,6.47,6.49,14.08-16.47,29.89-34.23,53.58-32.44,5.87.44,5.84-8.74,0-9.18Z"/><path fill="#f4ebe8" d="M1509.29,1276.53c16.41,33.74,23.9,65.4,25.17,91l43,74.57s114.84-106.91,133.77-123.27a635.21,635.21,0,0,0-112-115.06c-25.13,21.11-53.51,44.4-81.08,65.83-2.12,1.66-4.22,3.29-6.33,4.92C1511,1275.23,1510.15,1275.86,1509.29,1276.53Z"/><path fill="#ffaa9f" d="M1840,1139.14c-.61,19.48-4.72,44.13-17.92,68.5a160.85,160.85,0,0,1-23.48,32.66c-29.82,32-62.21,60.22-86.37,79.86a636.19,636.19,0,0,0-113.69-116.92c23.13-19.73,43.57-37.49,58.3-49.75,13.82-11.5,33.39-34.76,31.33-52.66h0c24,5.52,33.29,17.92,57.5,23.8C1777.7,1132,1808.3,1137.49,1840,1139.14Z"/><path fill="#ffaa9f" d="M1695.17,875.17,1806.87,1023c18.78,24.87,31,54.3,34,85.36a114.07,114.07,0,0,1-.8,30.78,640.81,640.81,0,0,1-99.32,31.59c-24.38,5.15-41.86-45.47-41.86-45.47l-106.32-152.1Z"/><path fill="#ffaa9f" d="M1618.27,1006.8,1498.21,887.59a17.51,17.51,0,0,1-4.14-18c4.81-13,21.45-9.34,31.41-2.23,9.13,6.51,18.78,15.38,29.77,13.21,2.18-.43,4.44-1.45,5.43-3.44.85-1.7.6-3.71.32-5.58a251.81,251.81,0,0,0-11.23-45.09c-4.34-12.41-9.75-25-7.24-38.32a25.38,25.38,0,0,1,10-16.12c12.29-8.74,21.6,3,28.13,13.86a47,47,0,0,1,6.05,18.67c.87,7,6.63,19.4,9.56,30.71,2.16,8.37,13,16.82,7.79-2.85-4-15-8.93-30.91-13.09-46.22-2.63-9.65-2.88-23.88-.64-34.32a15.56,15.56,0,0,1,8.83-11.25c12.13-5.12,22.1,8.31,26.93,19.83,8.36,19.89,12.31,43.7,15.81,65.78.65,4.08,4.53,5,4.91.91a33.6,33.6,0,0,0-.65-9.71c-1.87-9.14-1.64-20.22,1.87-29.63,1.61-4.3,5.2-7.74,9.74-8.32,7.34-1,11.56,5.29,14,11.24,4,9.92,5.23,20.7,7.15,31.23,5.28,29,13.85,58,29.29,83.12Z"/><path fill="#ce6159" d="M1575.47,887.81c23.71-1.22,39.1,17,52.75,33.79,3.73,4.58,10.17-2,6.47-6.49-15.27-18.76-33.07-37.82-59.22-36.48-5.86.3-5.9,9.48,0,9.18Z"/><path fill="#ffaa9f" d="M1618.27,1006.8,1498.21,887.59a17.51,17.51,0,0,1-4.14-18c4.81-13,21.45-9.34,31.41-2.23,9.13,6.51,18.78,15.38,29.77,13.21,2.18-.43,4.44-1.45,5.43-3.44.85-1.7.6-3.71.32-5.58a251.81,251.81,0,0,0-11.23-45.09c-4.34-12.41-9.75-25-7.24-38.32a25.38,25.38,0,0,1,10-16.12c12.29-8.74,21.6,3,28.13,13.86a47,47,0,0,1,6.05,18.67c.87,7,6.63,19.4,9.56,30.71,2.16,8.37,13,16.82,7.79-2.85-4-15-8.93-30.91-13.09-46.22-2.63-9.65-2.88-23.88-.64-34.32a15.56,15.56,0,0,1,8.83-11.25c12.13-5.12,22.1,8.31,26.93,19.83,8.36,19.89,12.31,43.7,15.81,65.78.65,4.08,4.53,5,4.91.91a33.6,33.6,0,0,0-.65-9.71c-1.87-9.14-1.64-20.22,1.87-29.63,1.61-4.3,5.2-7.74,9.74-8.32,7.34-1,11.56,5.29,14,11.24,4,9.92,5.23,20.7,7.15,31.23,5.28,29,13.85,58,29.29,83.12Z"/><path fill="#ce6159" d="M1575.47,887.81c23.71-1.22,39.1,17,52.75,33.79,3.73,4.58,10.17-2,6.47-6.49-15.27-18.76-33.07-37.82-59.22-36.48-5.86.3-5.9,9.48,0,9.18Z"/><path fill="#352b34" d="M1465.94,1254c-20.73,23.35-39.42,56.42-19.88,86.24,5.48,8.37,13.11,15.18,18.36,23.71,9.36,15.23,5,27.26-5.94,39.16-10.65,11.58-16.82,25.3-15.55,41.32,1.14,14.28,8.62,25.19,17.1,36.19,5.79,7.52,13.41,15.47,15.9,24.94,3.17,12.06-4.52,20.12-11.61,28.74-8.85,10.77-12.59,20.53-8.34,34.34,3.06,9.94,9.55,18.35,8.25,29.28a25.08,25.08,0,0,1-10.43,17.93,17.49,17.49,0,0,1-11.42,4.62q-12.93,1.48-6.33-15.1c5.87-.17,5.89-9.35,0-9.17-12,.35-19.33,13.8-13.06,24.43,7.44,12.61,26,10.29,36.07,3,15.2-11,16.85-28.62,11-45-2-5.56-5.86-11-6.54-17-1.31-11.49,3.49-16.06,9.84-23.78,5.4-6.56,10.85-12.83,12.29-21.53,2.76-16.65-9.75-30.08-19.1-42.23-10.24-13.3-17.78-27.36-13.25-44.72,3.75-14.35,16.15-20.87,22.78-33.11,10-18.38-2.23-35.61-13.58-49.84-11.71-14.68-19-28-13.73-47.22,4.08-14.74,13.72-27.52,23.69-38.75,3.9-4.4-2.55-10.91-6.47-6.49Z"/><path fill="#352b34" d="M1609,1334.9a39.69,39.69,0,0,1-2.15,13.85c-3,9-10.44,15.54-6.69,25.79,10.18,27.81,58,7.43,54.15,74-.73,12.7-14.1,24.93-11.62,37.41,3.2,16.14,3.56,24,13.27,37.25,13.87,19,26.9,50.45,7.82,64.13s-50.46,5.43-58.55-16.65c-2.21-6-2.86-12.73-6.52-18-9.71-13.94-31.14-8.24-46.68-1.46s-34.56,9-46-3.54c-24.72-26.91-.81-43.25-2.14-60.35-1.58-20.51-16.17-21.79-25.39-40.15-27.55-54.84,33.07-60.4,3.51-102.7-5.6-8-16.73-10.61-22.67-18.37-15-19.64,6.59-47.15,4.45-71.82-1.18-13.65-9.67-25.37-15.24-37.88-6.88-15.47-7.91-12.69.22-26.69,4.66-8,10.71-17.59,9.42-27.61-1.54-12-17.06-3.07-20.86-26-1.85-11.21-.49-17.27-1-28.52-.4-8.25.36-17-3.57-24.26-4.58-8.42-25.07-21.13-31.26-28.44-12.08-14.27-5.11-39.92,12.52-46.07,17.38-6.06,46.59,13.92,60.12,26.43,9.42,8.72,18.33,18.67,22.3,30.9,4.05,12.47,2.53,26,2.87,39.07s3.27,27.4,13.46,35.6c8.94,7.19,22,9.18,31,16.79,15.21,12.89,4.21,21.09-1,36.32-5.09,15-3.3,10.62,10.37,18.47,2.65,1.53,12.91,12.16,15,14.4,3.9,4.2,9.12,33.18-7.32,41.94-5.06,2.7-7.88,10.78-5.6,16.06,10.42,24.24,37.43,11,48.77,32A40.12,40.12,0,0,1,1609,1334.9Z"/><path fill="#ffaa9f" d="M1432.44,1185.59c2.72,9.92,16.13,14.86,30,11s22.82-15,20.09-24.88-16.13-14.86-30-11S1429.71,1175.67,1432.44,1185.59Z"/><path fill="#ce6159" d="M1450.48,1182A33.5,33.5,0,0,0,1474,1178c5.07-3,.47-10.94-4.62-7.93a23.65,23.65,0,0,1-16.42,3.14c-5.75-1-8.23,7.81-2.43,8.85Z"/><path fill="#7f5139" d="M1577.61,1224.77c-2.93-15-7.36-27.78-20.33-36.69-12-8.27-15.89-15.32-14.87-29.48.58-8.1,2.38-16.14,2.1-24.3-.43-12.63-5.76-22.56-16.39-29.49-17.83-11.62-43.29-14.43-39.92-42.29.71-5.85-8.45-5.8-9.15,0-1.76,14.52,4,27.43,16.08,35.72,17.57,12.06,40.71,13.27,40.19,40-.29,14.6-6.32,31,2,44.51,3.35,5.45,8.5,8.57,13.62,12.08,12,8.2,15.16,18.54,17.85,32.33,1.13,5.79,10,3.33,8.82-2.44Z"/><path fill="#7f5139" d="M1627.51,1402.21c13.42,9.14,21.29,25.4,18.33,41.71-2.2,12.09-11.24,21.75-12.75,34-2.52,20.44,13.7,26.45,30.86,23.89,5.8-.86,3.33-9.71-2.44-8.85-31.47,4.69-14.21-25-9.16-38.13a48.44,48.44,0,0,0,3-22.62c-1.67-15.86-10.23-29.08-23.24-37.94-4.89-3.33-9.47,4.62-4.62,7.92Z"/><path fill="#bab3b3" d="M1305.8,1536.58c26.71,10.9,57.15,20,85.77,10.82,20.93-6.72,37.9-21.91,44-43.34,1.61-5.69-7.21-8.12-8.82-2.44-15.11,53.42-80.1,41.77-118.48,26.11-5.45-2.22-7.83,6.65-2.43,8.85Z"/><path fill="#bab3b3" d="M1174.39,1393.23a432,432,0,0,1,22.8-53.87c2.66-5.26-5.23-9.91-7.9-4.63a448,448,0,0,0-23.72,56.06c-1.93,5.59,6.9,8,8.82,2.44Z"/><path fill="#ffcc3e" d="M685,293.84a75.78,75.78,0,0,1-10.73-.84v73.6a75.78,75.78,0,0,1,10.73-.84c38.74,0,70.15,29.19,70.15,65.2S723.76,496.17,685,496.17a75.78,75.78,0,0,1-10.73-.84v73.59a75.78,75.78,0,0,1,10.73-.84c38.74,0,70.15,29.19,70.15,65.21s-31.41,65.2-70.15,65.2a75.78,75.78,0,0,1-10.73-.84v73.6A74.32,74.32,0,0,1,685,770.4c38.74,0,70.15,29.2,70.15,65.21a60.23,60.23,0,0,1-.67,8.54H2026.43a61.74,61.74,0,0,1-.67-8.54c0-36,31.41-65.21,70.16-65.21a74.07,74.07,0,0,1,10.72.85v-73.6a75.52,75.52,0,0,1-10.72.84c-38.75,0-70.16-29.19-70.16-65.2s31.41-65.21,70.16-65.21a75.52,75.52,0,0,1,10.72.84V495.33a75.52,75.52,0,0,1-10.72.84c-38.75,0-70.16-29.2-70.16-65.21s31.41-65.2,70.16-65.2a75.52,75.52,0,0,1,10.72.84V293a75.52,75.52,0,0,1-10.72.84c-38.75,0-70.16-29.19-70.16-65.2H755.17C755.17,264.65,723.76,293.84,685,293.84Z"/><path fill="#ffcc3e" d="M873.11,282.71H1901.19A44.77,44.77,0,0,1,1946,327.47V744a44.77,44.77,0,0,1-44.77,44.77H873.11A44.76,44.76,0,0,1,828.34,744V327.47A44.76,44.76,0,0,1,873.11,282.71Z"/><path fill="#c14340" d="M1901.2,784.23h-967c-20.25,0-40.67.79-60.91,0-22.68-.88-39.47-17.57-40.34-40.31-.14-3.65,0-7.34,0-11V459.63c0-43.67-1.43-87.61,0-131.27,1.46-44.51,42.28-41.08,73.4-41.08h903.46c28.74,0,57.51-.35,86.25,0,24.2.3,44.37,14.3,45.35,40.46.49,12.72,0,25.56,0,38.3V729.49c0,4.49.14,9,0,13.5-.71,23-16.89,40.19-40.18,41.24-5.87.26-5.9,9.41,0,9.15,30.64-1.38,49.13-24.73,49.33-54.15.14-19.15,0-38.3,0-57.44V469.73c0-46.94,1.28-94.09,0-141-.76-28.4-21.3-49.56-49.84-50.58-7-.24-14,0-21,0H1132.46c-85.17,0-170.38-.84-255.54,0-22,.22-42.31,10.76-50.19,32.51-4.87,13.45-3,30.05-3,44.11V727c0,19.63-.09,38.51,15.86,53.25,11.69,10.81,26,13.16,41,13.16H1901.2C1907.08,793.38,1907.09,784.23,1901.2,784.23Z"/><path fill="#c14340" d="M933.73,678.37c10.3,0,10.32-16,0-16s-10.32,16,0,16Z"/><path fill="#c14340" d="M989.92,678.37c10.31,0,10.32-16,0-16s-10.32,16,0,16Z"/><path fill="#c14340" d="M1046.12,678.37c10.3,0,10.32-16,0-16s-10.32,16,0,16Z"/><path fill="#c14340" d="M1102.32,678.37c10.3,0,10.32-16,0-16s-10.32,16,0,16Z"/><path fill="#c14340" d="M1158.52,678.37c10.3,0,10.32-16,0-16s-10.32,16,0,16Z"/><path fill="#c14340" d="M1214.71,678.37c10.31,0,10.32-16,0-16s-10.32,16,0,16Z"/><path fill="#c14340" d="M1270.91,678.37c10.3,0,10.32-16,0-16s-10.32,16,0,16Z"/><path fill="#c14340" d="M1327.11,678.37c10.3,0,10.32-16,0-16s-10.32,16,0,16Z"/><path fill="#c14340" d="M1383.31,678.37c10.3,0,10.32-16,0-16s-10.32,16,0,16Z"/><path fill="#c14340" d="M1439.5,678.37c10.31,0,10.32-16,0-16s-10.32,16,0,16Z"/><path fill="#c14340" d="M1495.7,678.37c10.3,0,10.32-16,0-16s-10.32,16,0,16Z"/><path fill="#c14340" d="M1551.9,678.37c10.3,0,10.32-16,0-16s-10.32,16,0,16Z"/><path fill="#c14340" d="M1608.1,678.37c10.3,0,10.32-16,0-16s-10.32,16,0,16Z"/><path fill="#c14340" d="M1664.29,678.37c10.31,0,10.32-16,0-16s-10.32,16,0,16Z"/><path fill="#c14340" d="M1720.49,678.37c10.3,0,10.32-16,0-16s-10.32,16,0,16Z"/><path fill="#c14340" d="M1776.69,678.37c10.3,0,10.32-16,0-16s-10.32,16,0,16Z"/><path fill="#c14340" d="M1832.89,678.37c10.3,0,10.32-16,0-16s-10.32,16,0,16Z"/><path fill="#c14340" d="M1379.38,316.32,1391,352.2a3.64,3.64,0,0,0,3.45,2.51h37.73a3.62,3.62,0,0,1,2.13,6.55l-30.52,22.18a3.6,3.6,0,0,0-1.32,4.05l11.66,35.88a3.62,3.62,0,0,1-5.58,4.05l-30.52-22.17a3.6,3.6,0,0,0-4.26,0l-30.53,22.17a3.62,3.62,0,0,1-5.57-4.05l11.65-35.88a3.61,3.61,0,0,0-1.31-4.05l-30.53-22.18a3.62,3.62,0,0,1,2.14-6.55h37.72a3.64,3.64,0,0,0,3.45-2.51l11.66-35.88A3.62,3.62,0,0,1,1379.38,316.32Z"/><path fill="#c14340" d="M1248.21,342l9,27.64a2.8,2.8,0,0,0,2.66,1.93h29.06a2.79,2.79,0,0,1,1.64,5.05L1267,393.7a2.8,2.8,0,0,0-1,3.12l9,27.65a2.79,2.79,0,0,1-4.29,3.12L1247.2,410.5a2.81,2.81,0,0,0-3.29,0l-23.51,17.09a2.79,2.79,0,0,1-4.29-3.12l9-27.65a2.8,2.8,0,0,0-1-3.12l-23.51-17.08a2.79,2.79,0,0,1,1.64-5.05h29.06a2.8,2.8,0,0,0,2.66-1.93l9-27.64A2.79,2.79,0,0,1,1248.21,342Z"/><path fill="#c14340" d="M1134.87,361.23l7,21.47a2.17,2.17,0,0,0,2.06,1.5h22.57a2.17,2.17,0,0,1,1.28,3.92l-18.26,13.27a2.16,2.16,0,0,0-.79,2.42l7,21.47a2.17,2.17,0,0,1-3.33,2.43l-18.27-13.27a2.18,2.18,0,0,0-2.55,0l-18.26,13.27a2.17,2.17,0,0,1-3.34-2.43l7-21.47a2.16,2.16,0,0,0-.79-2.42l-18.26-13.27a2.17,2.17,0,0,1,1.27-3.92h22.58a2.17,2.17,0,0,0,2.06-1.5l7-21.47A2.16,2.16,0,0,1,1134.87,361.23Z"/><path fill="#c14340" d="M1502.17,342l-9,27.64a2.78,2.78,0,0,1-2.65,1.93h-29.07a2.79,2.79,0,0,0-1.64,5.05l23.51,17.08a2.8,2.8,0,0,1,1,3.12l-9,27.65a2.79,2.79,0,0,0,4.29,3.12l23.52-17.09a2.79,2.79,0,0,1,3.28,0L1530,427.59a2.79,2.79,0,0,0,4.3-3.12l-9-27.65a2.8,2.8,0,0,1,1-3.12l23.51-17.08a2.79,2.79,0,0,0-1.64-5.05h-29.06a2.8,2.8,0,0,1-2.66-1.93l-9-27.64A2.79,2.79,0,0,0,1502.17,342Z"/><path fill="#c14340" d="M1615.51,361.23l-7,21.47a2.17,2.17,0,0,1-2.06,1.5H1583.9a2.17,2.17,0,0,0-1.28,3.92l18.27,13.27a2.16,2.16,0,0,1,.78,2.42l-7,21.47a2.17,2.17,0,0,0,3.33,2.43l18.27-13.27a2.18,2.18,0,0,1,2.55,0l18.26,13.27a2.17,2.17,0,0,0,3.34-2.43l-7-21.47a2.16,2.16,0,0,1,.79-2.42l18.26-13.27a2.17,2.17,0,0,0-1.27-3.92h-22.58a2.18,2.18,0,0,1-2.06-1.5l-7-21.47A2.16,2.16,0,0,0,1615.51,361.23Z"/><path fill="#352b34" d="M1175.05,482.13c-.89-1.55-4.67-2.1-7.47-1.94-12.59.7-30.09-.54-41.79,3.35-1.49.49-3.15,1.69-2.17,2.64a3.57,3.57,0,0,0,2,.65,74.19,74.19,0,0,0,16.72,0,4,4,0,0,1,2.56.27,1.64,1.64,0,0,1,.56,1.45c.13,12.23-.18,24.84.45,36.82v.53l-.25.36.25.17-.25.36.25.53-.25.35h-.25v.71l-.25.35v1.42l-.25.71v.52c0,22.08-5.72,49.13,1,70.62l.25.71v.35l-.25.53.25.18v.53l-.25.36.25.17v.53l-.5.36v.17c0,1.92.2,2.46,2.63,3.17,6,1.78,4.54-11.26,4.55-13,.18-18.12-.69-36.23-.69-54.32q.25-27.84.53-55.68l16.34-.56c2.55-.08,5.8-.59,6.19-2.38A1.44,1.44,0,0,0,1175.05,482.13Z"/><path fill="#352b34" d="M1149.34,612.3a6.86,6.86,0,0,1-1.92-.28c-3.5-1-4.78-2.59-4.82-5.94l-.94-.67.85-1.22.45-1.34c-4.78-15.48-3.47-33.11-2.19-50.16.56-7.51,1.08-14.59,1.08-21.28v-1l.25-.7.14-2.06-.57-.4.68-1.23v-1.32h.46c-.38-7.82-.38-16.12-.37-24.16,0-3.53,0-7.06,0-10.57a76.84,76.84,0,0,1-17.15-.06,6.17,6.17,0,0,1-3.78-1.51,3.83,3.83,0,0,1-1.11-3.65c.6-2.59,3.57-3.76,4.46-4.06,8.9-2.95,20.82-3.09,31.34-3.22,4,0,7.82-.09,11.25-.28,1.34-.07,8.14-.25,10.27,3.47h0a4.48,4.48,0,0,1,.49,3.23c-.66,3-3.71,4.59-9.06,4.77l-13.43.46-.5,52.76c0,8.14.18,16.46.36,24.51.21,9.76.43,19.86.33,29.81,0,.17,0,.47,0,.86.32,5.79.16,11.52-3.1,14.1A5.54,5.54,0,0,1,1149.34,612.3Zm-.14-9v2.79c.37-.67,1-2.71.63-8.74,0-.57,0-1,0-1.25.1-9.86-.12-19.9-.33-29.61-.18-8.09-.36-16.44-.36-24.68l.13-13.88-.77,1.1v.35l-.25.35v1l-.25.71c0,6.91-.53,14.11-1.1,21.73-1.24,16.55-2.51,33.66,2,48l.39,1.1Zm-.11-76.32.14.3v-.55Zm-.16-2.1.32.23.4-41.47c-1.73,0-3.46.09-5.18.17a5.09,5.09,0,0,1,2.18.84,4.59,4.59,0,0,1,1.85,3.91c0,3.95,0,7.95,0,11.95C1148.53,508.58,1148.53,516.94,1148.93,524.87Zm23.7-40.94Z"/><path fill="#352b34" d="M1226.38,486.06c0-2.84-.75-4.77-4.65-5.39-3.33,3.09-3.33,6.22-3,10.13,3.25,37.42-3.55,75.18-4.2,112.66a4.68,4.68,0,0,0,1.44,4c5.81-1.1,5.63-3.9,5.66-8.06.27-37.51,4.71-75,4.71-112.45C1226.37,486.67,1226.38,486.39,1226.38,486.06Z"/><path fill="#352b34" d="M1215.07,610.74l-1.12-1a7.62,7.62,0,0,1-2.46-6.32c.25-14.32,1.4-28.87,2.52-42.94,1.81-22.83,3.69-46.43,1.69-69.4-.38-4.37-.36-8.63,4-12.64l1.09-1,1.47.23c4.93.79,7.3,3.56,7.22,8.46l0,1c0,19.29-1.2,39-2.37,58-1.08,17.81-2.21,36.22-2.34,54.3v.41c0,4,0,9.1-8.13,10.63Zm4.66-45.18c-1,12.53-1.92,25.37-2.14,38v.36c1-.53,1-1.48,1-4.08v-.41C1218.67,588.13,1219.13,576.79,1219.73,565.56Zm3-81.48c-1.21,1.68-1.22,3.46-1,6.46.67,7.73.91,15.49.88,23.26.39-9,.64-17.95.64-26.85l0-.94C1223.35,484.94,1223.36,484.41,1222.74,484.08Z"/><path fill="#352b34" d="M1331.93,576.81c.4-3.18-.13-5.21-2.18-4.85l-6,1.07c1.86,8.81-1.15,18.1-8.25,25.44a14.31,14.31,0,0,1-6.65,4.26,18.83,18.83,0,0,1-8.41-.18c-13.28-2.81-18.91-10.75-21.9-19.29-8.49-24.27-3.49-56.71,5.88-80.66,1.92-4.89,4.4-9.9,9.51-13.45s13.52-5.18,19.55-2.45c5,2.25,7,6.7,7.78,10.87s.61,8.51,2.83,12.41a4,4,0,0,0,3.26,2.26c2.59.09,3.42-2.43,3.34-4.27-.22-5.43-.47-11-3-16.09a22.19,22.19,0,0,0-15-11.57c-8.54-2-18.15.77-24.48,5.3-16.9,12.14-19.33,31.3-19.56,47.47-.21,15-2.88,35.72,1.72,50,3.41,10.64,13.32,25.27,30.8,25.27l1,.36.5-.18h.74l.25.18h.75l.49.17.26-.17c3.15-2.22,11.12-3.11,15.6-6.14C1323.85,600.57,1330.92,584.94,1331.93,576.81Z"/><path fill="#352b34" d="M1305.67,612.16l-2-.35h-1l-.53.19-1.54-.55c-18.08-.29-29.16-14.87-33.17-27.39-3.67-11.45-2.94-26.42-2.29-39.64.19-4,.38-7.86.43-11.38.24-16.44,2.82-37,20.83-49.9,7.7-5.53,18.28-7.8,26.94-5.8a25.36,25.36,0,0,1,17,13.19c2.83,5.76,3.08,11.9,3.3,17.32a7.8,7.8,0,0,1-2,5.73,6,6,0,0,1-4.48,1.71,7,7,0,0,1-5.8-3.8c-1.92-3.37-2.35-6.95-2.73-10.11-.13-1.1-.26-2.19-.46-3.27-.77-4.33-2.74-7.16-6-8.63-5.1-2.31-12.43-.71-16.56,2.17-4.46,3.1-6.67,7.63-8.41,12.06-8.5,21.74-14.5,53.78-5.84,78.55,3.44,9.82,9.5,15.16,19.66,17.3a15.45,15.45,0,0,0,7,.21,11,11,0,0,0,5.23-3.42c6.39-6.61,9.11-14.88,7.46-22.69l-.66-3.08,9.08-1.62a4.73,4.73,0,0,1,4.18,1.15c2,1.87,1.84,4.93,1.57,7.07h0c-1,8.12-8.12,25.05-12.44,28-2.79,1.89-6.49,3-9.76,4a25.69,25.69,0,0,0-5.8,2.15ZM1291.73,487c-.6.36-1.16.73-1.69,1.11-15.71,11.28-18.06,29.1-18.29,45,0,3.6-.24,7.52-.44,11.6-.62,12.7-1.32,27.08,2,37.48,3.21,10,11.62,21.57,25.08,23-11.33-2.8-18.77-9.66-22.71-20.93-9.22-26.33-3-60,5.91-82.78C1283.53,496.56,1286.24,491,1291.73,487Zm31.21,106.81a36.53,36.53,0,0,1-5.23,6.8l-.55.56a12.59,12.59,0,0,0,1.94-1C1319.89,599.47,1321.37,597,1322.94,593.79Zm4.29-18.28a28.43,28.43,0,0,1-.9,10.33,45.9,45.9,0,0,0,2.58-9.41h0a11,11,0,0,0,.09-1.24Zm-10.29-90.4c3.86,2.52,6.38,6.59,7.34,11.93.21,1.19.36,2.4.51,3.61.34,2.84.66,5.52,2,7.82.2.35.51.71.72.72a2.36,2.36,0,0,0,.18-1.1c-.2-5-.42-10.27-2.67-14.87A18.6,18.6,0,0,0,1316.94,485.11Z"/><path fill="#352b34" d="M1437.12,606.28l-.24-.53.24-.36v-.53l-.74-.53-.25-.35v-.18l-.25-.53-.75-.53-.49-.18-.25-.18-.75-1.06v-.17l-.25-.54v-.53l-.25-.35h-.24l-.75-.53V599l-.5-.17v-.36l-.5-.53c-6.17-13.06-16.08-25-25.42-37-4.09-5.26-9.07-17.4-14.41-21.19l-.25-.18.25-.71-.5-.18.25-.35-.74-.53-.5-.71v-.53l-.25-.18-.25-.35.25-.54c0-3.43,11.18-12.45,13.67-15.59q13.41-17,26.88-34c1.78-2.27,2.37-4.14-.12-6-4.92,1.26-6.68,4-9.38,7.4-11.31,14.28-21.13,32.35-36.88,44.37-.68.52-4.33-13.53-4.34-15.18-.05-8.48,2-17.25,3-25.71.46-3.93.09-8.9-5-10.42-2.35,1.74-2.47,4.41-2.46,6.82l.57,115.05c0,3.29,3,8,7.06,6.36,2.13-.85,2.3-2.94,2.21-4.67-.85-16.39-.72-34.35-2.2-49.87v-.53l.5-.71v-.35l.25-.36-.25-.35.25-.35v-.36l-.25-.35.25-.18-.25-.53.25-.35-.25-.36V547.7l-.5-.35.25-.36-.25-.53v-.18l.25-.88-.25-.36v-.7l.24-.34c.51-.73-.35-1.84.36-2.7,10.1,11.49,35.86,66.92,53.67,66.92h.24l.26-.17.74-.36h.25v-.35l-.25-.71Z"/><path fill="#352b34" d="M1381,612a7.22,7.22,0,0,1-4.06-1.28,10.74,10.74,0,0,1-4.41-8.44l-.58-115.06c0-2.28,0-6.52,3.69-9.28l1.23-.91,1.46.43c3.17.95,8.32,4,7.17,13.71-.33,2.86-.79,5.75-1.25,8.66a105.36,105.36,0,0,0-1.76,16.67,102.55,102.55,0,0,0,2.56,10.25c9.27-8,16.48-18.16,23.48-28.05,3.29-4.66,6.41-9.06,9.74-13.26l.67-.86c2.49-3.19,4.84-6.2,10.34-7.6l1.41-.37,1.17.88a6.59,6.59,0,0,1,2.85,4.4c.32,2.43-1,4.44-2.15,5.93l-26.89,34a60.8,60.8,0,0,1-4.74,4.81c-2.29,2.18-6.81,6.47-8,8.54v.73l.85.61,1.5.53-.16.43.23.16-.63,1c3.24,3.08,6.07,8.08,8.81,12.93a71.5,71.5,0,0,0,4.66,7.57l3.31,4.23c8.19,10.46,16.66,21.26,22.25,32.93l.17.17,1.33.47v.62l1.24,1.64.11.89,1.75,1.24.59,1.13,1.28.91v.84l.34.12.91,2.56v3.93h-2.58l-.74.53h-1c-14.47,0-30.82-27.2-44-49.06-2.18-3.64-4.24-7.07-6.1-10l-.9,1.28v.35l-.47.65c.89,9.34,1.19,20,1.48,30.24.18,6.34.36,12.89.69,19.09.25,4.86-2.11,6.85-4.12,7.66A7.59,7.59,0,0,1,1381,612Zm-2.76-86.75.38,77a4.78,4.78,0,0,0,1.73,3.41,1.07,1.07,0,0,0,1.15.12c.1,0,.37-.15.29-1.67-.32-6.27-.51-12.86-.69-19.24-.29-10.32-.59-21-1.5-30.5v-1.79l.19-.27-.38-.53.38-.53-.89-1.26,1.08-.79-1.58-1.13,1.2-1.69v-3l.34-.49a4.65,4.65,0,0,1,.95-3.52l2.27-2.77,2.38,2.69c.21.24.42.5.64.77l1-1.46-.38-.54v-.36l-1-1.37.77-1.67a7.23,7.23,0,0,1,.61-1.8c-.53.43-1.07.85-1.61,1.26l-1.51,1.15-1.77-.83C1380.75,533.66,1379.29,529.4,1378.21,525.24Zm8.16,15.09c3.12,3.91,7.27,10.83,12,18.73,9.23,15.37,22.41,37.3,32.79,44.06l-.59-.83v-.45l-.36-.26-1.63-.58v-1.39a2.73,2.73,0,0,1-.29-.53c-5.3-11.15-13.62-21.76-21.66-32l-3.33-4.24a76.42,76.42,0,0,1-5.15-8.31c-2.72-4.82-5.81-10.29-8.61-12.28l-2.14-1.5v0Zm41.18-56.06a17.9,17.9,0,0,0-3.83,4.05l-.7.9c-2.85,3.59-5.56,7.38-8.4,11.38Zm-49.27,0a10.33,10.33,0,0,0-.26,2.93l.06,12.38c0-.23.08-.47.11-.7.45-2.83.9-5.64,1.23-8.42C1379.84,486.86,1379.14,485.13,1378.28,484.25Z"/><path fill="#352b34" d="M1521.42,482c-.91-1.78-10.16-1.17-12-1.34-7.46-.69-12.9-.83-19.6,1.53-9.22,3.26-6.23,2.8-8.65,8l-.25.53.49.71.25.89.5.35.25.35-.25.53v1.24l-.25.18.25.53-.5.71.25.18-.25.35v.35l.25.36-.25.35v.53l.25.18v.89l.25.35-.25,1.06-.25.36.25.53v.86c0,33.74-1.77,67.48-3,101.2a3.77,3.77,0,0,0,.88,3.13c1.4,1.33,4.16,1.31,6.48,1.16l30.69-2c2.14-.14,4.77-.58,5.23-2.06.67-2.19-3.84-3.05-7-2.89l-29.54,1.53,2.88-59.94c0,.23,19.28-.27,20.73-.39,3.29-.26,7.51-.51,10.36-1.85.84-.4,2.21-1,2.38-1.78.54-2.5-13-1.28-15.36-1.26-5,0-11.7.83-16.5-.31l-.75-.18-.25-.35v-.35l-.5-.89-.25-.35-.24-.53.24-.36h-.49v-.35l.25-.71-.25-.53v-.71l.25-.18v-1.23l.24-.18-.24-.36v-.36c3.51-10-2-20.29-1.45-30.38.41-7.07,5-11.16,14.84-12,3.87-.36,7.82-.29,11.64-.88,2.19-.34,5.94-1.33,7.47-2.5C1521.48,483,1521.66,482.49,1521.42,482Z"/><path fill="#352b34" d="M1484.42,611.16c-2.5,0-5-.41-6.75-2.06a6.72,6.72,0,0,1-1.82-5.47c.28-7.55.59-15.11.89-22.67,1-25.71,2.14-52.29,2.14-78.41v-.18l-.72-1.52.6-.85-.14-.1v-2.12l-1.19-.85,1.23-1.75-.57-1.21.73-.53-.39-1-1-1.45,1-2.13a14.06,14.06,0,0,0,.92-2.55c1-3.73,2.49-4.54,9.48-7,7.51-2.66,13.65-2.36,20.89-1.7.39,0,1.15,0,2.08,0,6.75-.06,10.92.15,12.36,3h0c.74,1.47.69,3.67-1.65,5.45s-6.77,2.76-8.85,3.08a70.3,70.3,0,0,1-7.42.63c-1.47.07-3,.14-4.41.27-10.28.93-11.86,5.4-12.08,9.18s.5,7.51,1.25,11.54c1.1,6,2.25,12.1.44,18.41l1.19,1.7-.17.12h1.8l-2.31,3.31a54.69,54.69,0,0,0,10.29.15c1.54-.07,3-.13,4.38-.14.38,0,1.06,0,1.93-.09,10.45-.54,13.94-.13,15.64,1.87a3.68,3.68,0,0,1,.8,3.18c-.47,2.22-2.59,3.2-3.86,3.79-3.35,1.58-7.55,1.91-10.91,2.18l-.71.05c-.16,0-11.28.8-18.07.47l-2.57,53.6L1515,598c1.15-.06,7-.2,9.32,2.82a4.37,4.37,0,0,1,.74,4c-1.17,3.76-6.27,4.1-7.95,4.21l-30.69,2C1485.79,611.13,1485.1,611.16,1484.42,611.16Zm-2.45-6.34s.18.06.51.12l3-62.42,3,.13.37-2.73-1.33-.32-1.48-2.08v-.4h-1.24v-2.55l-.21-.45.21-.4V530.2l.25-.18.09-1.3c0-.07,0-.14.07-.22,1.84-5.27.81-10.77-.27-16.6l-.06-.3c-.21,23.3-1.16,46.8-2.09,69.61q-.46,11.32-.9,22.65a4.35,4.35,0,0,0,0,1Zm2.4-114.33,1.13,1.6c2.6-4.67,7.87-7.38,15.77-8.09,1.55-.14,3.11-.22,4.67-.29l2-.11c-7.07-.6-11.6-.47-17.12,1.48-1.48.52-4.94,1.74-5.5,2.27,0,.1-.07.33-.14.62A22.15,22.15,0,0,1,1484.37,490.49Z"/><path fill="#352b34" d="M1615.67,482.08a3.19,3.19,0,0,0-4.13-1.23c-.06-.29-.11-.58-.17-.86l-39,2.16a19,19,0,0,0-5.82.94c-1.75.7-3.08,2.14-2.6,3.53a114.79,114.79,0,0,0,22.7.1c-.18,5.69-1.94,12.6-.13,18.15v.53l-.25.18c-1.46,1,0,7.79,0,9.31,0,7.28-.89,14.46-1,21.73,0,3.26.19,6.52.28,9.78,0,1.84.06,3.68.06,5.52q0,3.14,0,6.25c0,8.19,0,16.37.18,24.56.17,7.69,1.53,15.35.66,23a3,3,0,0,0,.54,2.68,4.22,4.22,0,0,0,4.07.57c2-.75,2.24-2.33,3.16-3.64v-.53l-.25-.53-.24-.18v-.35l.24-.35-.24-.54.24-.17v-.53l-.24-.36c2-1.39,0-8.33-.15-10.53a14.8,14.8,0,0,0-.59-3.66,15.12,15.12,0,0,1-.56-1.64,11.2,11.2,0,0,1,.31-3.68,18.62,18.62,0,0,0,0-3.34c-.11-2.48,1.07-7.71-1-9.7.69.65,1-3.12,1-2.95,0-1.88-.53-3.68-.3-5.58.1-.81.25-1.61.37-2.42.75-5.12-.26-10.42-.19-15.58q.36-28.28.73-56.55a89.83,89.83,0,0,1,12.38-.61,28.71,28.71,0,0,0,6.15-.05c2-.35,3.91-1.5,4-3A1.3,1.3,0,0,0,1615.67,482.08Z"/><path fill="#352b34" d="M1589.43,612.34a6.53,6.53,0,0,1-4.64-1.72,6,6,0,0,1-1.41-5.18,76.25,76.25,0,0,0-.21-14.46c-.2-2.67-.41-5.42-.47-8.18-.16-6.87-.17-13.84-.18-20.58l0-10.61c0-1.71,0-3.42-.06-5.13,0-1.12-.07-2.24-.12-3.35-.09-2.19-.18-4.37-.16-6.55,0-3.52.27-7,.5-10.44.24-3.7.48-7.52.48-11.25,0-.32-.09-.92-.18-1.64-.5-3.76-.76-6.76.25-8.71-1-4.2-.52-8.76-.08-12.82.06-.57.12-1.12.17-1.68a117,117,0,0,1-19.72-.39l-1.92-.2-.64-1.83c-1-2.86.83-6,4.35-7.36a21.46,21.46,0,0,1,6.79-1.15l41.66-2.31.16.76a6.73,6.73,0,0,1,.86.21,5.73,5.73,0,0,1,3.65,3.14h0a4.61,4.61,0,0,1,.33,1.72c-.08,2.88-2.67,5.25-6.46,5.93a23.65,23.65,0,0,1-5.68.14l-1.14-.06a71.66,71.66,0,0,0-9.24.36l-.69,53.8c0,1.84.1,3.7.23,5.67a48.74,48.74,0,0,1-.07,10.31l-.17,1.06c-.07.43-.14.86-.19,1.29a11,11,0,0,0,.12,2.56,23.1,23.1,0,0,1,.2,2.65v3.22l-.33,0c.84,2.29.64,5.06.48,7.25a17.79,17.79,0,0,0-.09,2.07,21.25,21.25,0,0,1-.08,3.87c0,.37-.11.75-.18,1.13a5.55,5.55,0,0,0-.16,1.52,5,5,0,0,0,.22.65l.23.65a16.84,16.84,0,0,1,.75,4.41c0,.46.17,1.17.32,2,.58,3.28,1.23,6.91.08,9.39v.29l.46,1-.24.35,0,.08v2.19l-.57.79a6.73,6.73,0,0,0-.44.78,7.36,7.36,0,0,1-4.16,3.95A7.7,7.7,0,0,1,1589.43,612.34Zm-.81-104.73a34.32,34.32,0,0,0,.38,4.86,23.36,23.36,0,0,1,.24,2.41c0,3.94-.25,7.86-.5,11.65-.21,3.33-.43,6.76-.48,10.12,0,2.08.07,4.15.15,6.22,0,1.15.1,2.3.13,3.45,0,1.75,0,3.51.06,5.27l0,10.62c0,6.71,0,13.65.18,20.45,0,2.59.26,5.27.46,7.85a82.84,82.84,0,0,1,.18,15.61s0,.09,0,.14a2.13,2.13,0,0,0,.55-.1c.26-.09.34-.12.66-.7v-1.87l-.79-1.68.84-.6a1.6,1.6,0,0,1,0-.21L1591,600l.48-.34a26,26,0,0,0-.6-5.51c-.19-1.08-.35-2-.39-2.61a12.53,12.53,0,0,0-.44-2.91l-.16-.44a10,10,0,0,1-.49-1.56,9.59,9.59,0,0,1,.13-3.87c0-.27.1-.55.14-.83a16.28,16.28,0,0,0,0-2.8,26.25,26.25,0,0,1,.11-2.78c.09-1.26.3-4.19-.2-4.87l2.12-2.21-.54-2.87a2.65,2.65,0,0,0-1.82,1.48,9.5,9.5,0,0,0,.27-1.71,17.17,17.17,0,0,0-.16-1.76,16.35,16.35,0,0,1-.12-4c.07-.53.15-1,.23-1.56l.15-.93a43.29,43.29,0,0,0,0-9c-.13-2-.26-4.07-.24-6.15l.76-58.52-.54,0-.09,2.58c-.06,1.8-.26,3.71-.46,5.55-.44,4.07-.89,8.27.18,11.56l.15.94V507Z"/><path fill="#d3d392" d="M421.41,1230.36c44.14,14.39,92.53-4,120.5-40.09,26.79-34.53,43.25-95.17,23.83-136.73-7.67-16.41-25.23-31-44.43-27.44s-21.23,20.74-13.61,36c17.56,35.24,62.05,51.18,99.2,42.66,48.69-11.18,78-60.44,80.9-107.64.36-5.88-8.79-5.86-9.15,0-2.62,43.23-29.54,88.66-74.18,98.81a85.58,85.58,0,0,1-59.67-8.72,73.36,73.36,0,0,1-21.44-17.65c-3.62-4.44-7.6-10.09-9.22-15.71-4.09-14.14,5.52-21.41,18.53-18.45,28.43,6.47,32,42.21,30.93,65.87-1.11,25-7.75,50-20.73,71.52-24.38,40.31-73,63.74-119,48.73-5.61-1.83-8,7-2.43,8.82Z"/><path fill="#b6dad7" d="M1899.56,969.79c18.39-16,38.67,3.15,44.06,21.14,2.87,9.58,1.27,20.58,5.47,29.74,6.71,14.64,23.91,16.89,38.23,15.67,16.17-1.37,41.84-12.53,55.29,1.62,9,9.43.18,26.87,2.94,38.84a39.8,39.8,0,0,0,10.84,19.18c13.84,13.57,32.31,11.07,50,9.84,13.06-.91,27.56-1,33.06,13.62,3.23,8.6,1.18,19.19.69,28.13-.83,15.26.53,31.87,15.93,39.48,18.71,9.25,38.22-2.59,53.31-13.17,4.78-3.36.21-11.3-4.62-7.9-13.07,9.16-35.64,24.6-50.15,8.85-7.56-8.2-5.69-20.95-5-31.08.91-14.65,1.67-31.24-11.25-41.14-15.1-11.55-35.92-4-53.07-4.66-16.07-.57-29.36-10.37-31.21-26.94-1.23-11,4.39-21.56-.24-32.38-16.61-38.77-71.88,6.54-93.78-17.67-6.83-7.55-5.42-27.07-9-36.87-3-8.19-7.77-16-14.76-21.43-13.1-10.11-30.67-10.23-43.16.66-4.45,3.87,2.05,10.32,6.47,6.47Z"/><path fill="#6ab3b0" d="M415,811.24a1247.81,1247.81,0,0,0,110.2-70.48c4.75-3.4.19-11.34-4.61-7.9a1251.59,1251.59,0,0,1-110.2,70.48c-5.12,2.9-.52,10.81,4.61,7.9Z"/><path fill="#bab3b3" d="M2197.57,441.23c36.61,19.6,83.43,13.27,110.57-19.29,20.54-24.64,35-78.6,3-101.05-11.6-8.14-29.67-8.16-38.79,3.78-10,13.08-2.94,31,8.3,40.6,31.17,26.54,86,23.94,122.59,13.31,44-12.76,90.57-43.08,101-90.52,1.26-5.74-7.56-8.19-8.83-2.43-17.05,77.63-132.63,111-198.26,79.23-12.41-6-24.33-16.89-17.2-31.46,7.65-15.62,26.45-8.61,33.93,4.11,10.67,18.16,7,43.71-1.85,61.76C2292,440.4,2242,454.62,2202.19,433.33c-5.19-2.78-9.81,5.12-4.62,7.9Z"/><path fill="#c14340" d="M2245.22,784.05q55.61-25.71,110.09-53.71c5.24-2.69.62-10.59-4.61-7.9q-54.49,28-110.1,53.71c-5.34,2.47-.7,10.36,4.62,7.9Z"/><path fill="#ffbc5f" d="M278.38,204.16c16.45-17.89,28.28,3.36,31.76,18.1,1.82,7.71,3.56,15.88,9,22,13.65,15.37,34.53,6.6,50.22.17,16.31-6.7,35.32-10.27,40.3,11.8,2,8.78,1.76,18.34,8,25.52,9.76,11.24,23.95,6.38,35.58,1.24,11-4.87,25.1-13.19,31.26,2.7,3,7.82,1.16,17.18,3,25.32,3.08,13.31,13.83,18.85,26.64,13.89,6-2.34,12.23-8.07,19.05-7.74,8.75.42,14.15,8.76,16,16.38,2.7,10.89-6.58,20.95-2.6,31,7.06,17.8,28.15,8.22,38.42.36,4.61-3.53.06-11.48-4.62-7.9-1.76,1.35-4,3.76-6.15,4.5s-17.69-1.93-18.83-5.2c-.59-1.7,3.21-9.39,3.5-11.9a36.85,36.85,0,0,0-2.43-17.81c-4.09-10.39-13.28-19.19-25-18.38-6.41.43-10.86,4.16-16.69,6.24-7.9,2.81-15,4.65-18.12-4.44-1.35-4-1.13-8.64-1.47-12.78-.84-10.37-2.15-22.74-12.53-28.11-9.7-5-20.33-.15-29.41,3.86-8.74,3.86-21.87,11.67-29.84,1.46-5.16-6.61-3.87-18.42-6.37-26.17-3.85-12-13.23-18.51-25.76-18.64-18.8-.19-39.53,19.86-57.74,13.46-19.12-6.73-12-35.76-25.69-48.18-10.68-9.69-26.72-7.25-36,2.82-4,4.33,2.48,10.82,6.48,6.47Z"/></svg>