<svg width="32" height="32" viewBox="0 0 32 32" fill="none" xmlns="http://www.w3.org/2000/svg">
<g clip-path="url(#clip0_254_1598)">
<path fill-rule="evenodd" clip-rule="evenodd" d="M3.71875 13.8594C5.1875 12.0312 7.04688 10.5469 9.17188 9.53125C11.2969 8.51562 13.6094 7.98438 15.9688 7.98438C18.3438 7.98438 20.6719 8.51562 22.8125 9.5625C24.9531 10.5938 26.8125 12.1094 28.2812 13.9688L28.5938 14.3594L27.0312 15.5938L26.7188 15.2031C25.4375 13.5781 23.7969 12.2656 21.9375 11.3594C20.0781 10.4531 18.0312 9.98438 15.9688 9.98438C13.9219 9.98438 11.8906 10.4375 10.0469 11.3281C8.20312 12.2188 6.57812 13.5156 5.28125 15.1094L4.96875 15.5L3.40625 14.25L3.71875 13.8594Z" fill="#1E88E5"/>
<path fill-rule="evenodd" clip-rule="evenodd" d="M6.75 16.0938C7.82812 14.6562 9.21875 13.5 10.8125 12.7031C12.4062 11.9062 14.1719 11.4844 15.9688 11.4844C17.7812 11.4844 19.5625 11.9062 21.1719 12.7344C22.7812 13.5469 24.1875 14.7344 25.25 16.2031L25.5469 16.6094L23.9375 17.7969L23.6406 17.3906C22.75 16.1875 21.6094 15.2031 20.2656 14.5312C18.9375 13.8594 17.4531 13.5 15.9688 13.5C14.4844 13.5 13.0312 13.8438 11.7031 14.5C10.375 15.1562 9.23438 16.125 8.34375 17.3125L8.04688 17.7188L6.45312 16.5156L6.75 16.1094V16.0938Z" fill="#1976D2"/>
<path fill-rule="evenodd" clip-rule="evenodd" d="M9.92188 18.4531C10.625 17.5156 11.5312 16.75 12.5938 16.2188C13.6406 15.6875 14.7969 15.4219 15.9688 15.4219C17.1562 15.4219 18.3438 15.7031 19.4062 16.25C20.4688 16.7969 21.3906 17.5781 22.0938 18.5469L22.3906 18.9531L20.7656 20.125L20.4688 19.7188C19.9531 19 19.2812 18.4219 18.5 18.0312C17.7188 17.625 16.8594 17.4219 15.9688 17.4219C15.1094 17.4219 14.25 17.625 13.4844 18.0156C12.7188 18.4062 12.0469 18.9688 11.5312 19.6562L11.2344 20.0625L9.625 18.875L9.92188 18.4688V18.4531Z" fill="#1565C0"/>
<path d="M17.4062 20.6094C17.0469 20.25 16.5469 20.0312 15.9844 20.0312C15.4375 20.0312 14.9375 20.25 14.5625 20.6094C14.2031 20.9688 13.9844 21.4688 13.9844 22.0312C13.9844 22.5781 14.2031 23.0781 14.5625 23.4531C14.9219 23.8125 15.4219 24.0312 15.9844 24.0312C16.5312 24.0312 17.0312 23.8125 17.4062 23.4531C17.7656 23.0938 17.9844 22.5938 17.9844 22.0312C17.9844 21.4844 17.7656 20.9844 17.4062 20.6094Z" fill="#263238"/>
<path fill-rule="evenodd" clip-rule="evenodd" d="M3.71875 13.8594C5.1875 12.0312 7.04688 10.5469 9.17188 9.53125C11.2969 8.51562 13.6094 7.98438 15.9688 7.98438H16V9.98438H15.9688C13.9219 9.98438 11.8906 10.4375 10.0469 11.3281C8.20312 12.2188 6.57812 13.5156 5.28125 15.1094L4.96875 15.5L3.40625 14.25L3.71875 13.8594Z" fill="#3392E6"/>
<path fill-rule="evenodd" clip-rule="evenodd" d="M6.75 16.0938C7.82812 14.6562 9.21875 13.5 10.8125 12.7031C12.4062 11.9062 14.1719 11.4844 15.9688 11.4844H16V13.4844H15.9688C14.4844 13.4844 13.0312 13.8281 11.7031 14.4844C10.375 15.1406 9.23438 16.1094 8.34375 17.2969L8.04688 17.7031L6.45312 16.5L6.75 16.0938Z" fill="#2E82D5"/>
<path fill-rule="evenodd" clip-rule="evenodd" d="M9.92188 18.4531C10.625 17.5156 11.5312 16.75 12.5938 16.2188C13.6406 15.6875 14.7969 15.4219 15.9688 15.4219H16V17.4219H15.9688C15.1094 17.4219 14.25 17.625 13.4844 18.0156C12.7188 18.4062 12.0469 18.9688 11.5312 19.6562L11.2344 20.0625L9.625 18.875L9.92188 18.4688V18.4531Z" fill="#2B73C5"/>
<path d="M16 20.0312C15.4531 20.0312 14.9531 20.25 14.5781 20.6094C14.2188 20.9688 14 21.4688 14 22.0312C14 22.5781 14.2188 23.0781 14.5781 23.4531C14.9375 23.8125 15.4375 24.0312 16 24.0312V20.0312Z" fill="#3A454B"/>
</g>
<defs>
<clipPath id="clip0_254_1598">
<rect width="32" height="32" fill="white"/>
</clipPath>
</defs>
</svg>
